<?xml version="1.0" encoding="utf-8"?>
<!-- Generator: Adobe Illustrator 27.7.0, SVG Export Plug-In . SVG Version: 6.00 Build 0)  -->
<svg version="1.1" id="Layer_1" xmlns="http://www.w3.org/2000/svg" xmlns:xlink="http://www.w3.org/1999/xlink" x="0px" y="0px"
	 viewBox="0 0 172 172" style="enable-background:new 0 0 172 172;" xml:space="preserve">
<g>
	<path d="M21.3,24c3.84-3.12,8.82-4.68,14.94-4.68c4.08,0,7.61,0.74,10.58,2.21c2.97,1.47,5.22,3.46,6.75,5.99
		c1.53,2.52,2.29,5.37,2.29,8.55c0,3.72-1.07,6.93-3.2,9.63s-4.9,4.44-8.32,5.22v0.45c3.9,0.96,6.99,2.85,9.27,5.67
		c2.28,2.82,3.42,6.51,3.42,11.07c0,3.42-0.78,6.5-2.34,9.22c-1.56,2.73-3.9,4.88-7.02,6.44c-3.12,1.56-6.87,2.34-11.25,2.34
		c-6.36,0-11.58-1.67-15.66-5c-4.08-3.33-6.36-8.05-6.84-14.17h7.92c0.42,3.6,1.89,6.54,4.41,8.82c2.52,2.28,5.88,3.42,10.08,3.42
		c4.2,0,7.39-1.09,9.58-3.29c2.19-2.19,3.29-5.02,3.29-8.5c0-4.5-1.5-7.74-4.5-9.72c-3-1.98-7.53-2.97-13.59-2.97h-2.07v-6.84h2.16
		c5.52-0.06,9.69-0.97,12.51-2.75c2.82-1.77,4.23-4.51,4.23-8.23c0-3.18-1.04-5.73-3.1-7.65c-2.07-1.92-5.03-2.88-8.87-2.88
		c-3.72,0-6.72,0.96-9,2.88c-2.28,1.92-3.63,4.5-4.05,7.74h-8.01C15.33,31.44,17.46,27.12,21.3,24z"/>
</g>
<g>
	<path d="M39.48,149.89l-20.09-22.26v22.26h-6.37V101.1h6.37v22.61l20.16-22.61h8.05l-22.12,24.43l22.33,24.36H39.48z"/>
	<path d="M61.32,101.1v48.79h-6.37V101.1H61.32z"/>
	<path d="M110.53,149.89h-6.37l-25.62-38.85v38.85h-6.37v-48.86h6.37l25.62,38.78v-38.78h6.37V149.89z"/>
	<path d="M150.4,104.07c3.9,1.98,6.88,4.82,8.96,8.5c2.08,3.69,3.12,8.03,3.12,13.02c0,4.99-1.04,9.32-3.12,12.98
		c-2.08,3.66-5.06,6.46-8.96,8.4c-3.9,1.94-8.5,2.91-13.83,2.91h-15.19V101.1h15.19C141.89,101.1,146.5,102.09,150.4,104.07z
		 M150.99,139.63c3.31-3.34,4.97-8.02,4.97-14.04c0-6.07-1.67-10.8-5-14.21c-3.34-3.41-8.13-5.11-14.38-5.11h-8.82v38.36h8.82
		C142.87,144.64,147.68,142.97,150.99,139.63z"/>
</g>
<g>
	<path d="M79.26,66.49c-2.35-1.33-4.2-3.2-5.57-5.59c-1.36-2.39-2.05-5.08-2.05-8.07c0-2.99,0.68-5.68,2.05-8.07
		c1.36-2.39,3.22-4.25,5.57-5.59s4.94-2,7.79-2c2.87,0,5.49,0.67,7.83,2s4.19,3.19,5.54,5.57c1.35,2.38,2.02,5.08,2.02,8.1
		c0,3.02-0.68,5.72-2.02,8.1c-1.35,2.38-3.2,4.23-5.54,5.57c-2.35,1.34-4.96,2-7.83,2C84.2,68.49,81.61,67.83,79.26,66.49z
		 M92.84,63.52c1.72-1,3.06-2.42,4.05-4.27c0.98-1.85,1.47-3.99,1.47-6.42c0-2.46-0.49-4.61-1.47-6.45
		c-0.98-1.83-2.33-3.25-4.03-4.25s-3.64-1.5-5.81-1.5s-4.11,0.5-5.81,1.5c-1.7,1-3.04,2.41-4.03,4.25
		c-0.98,1.83-1.47,3.98-1.47,6.45c0,2.44,0.49,4.58,1.47,6.42c0.98,1.85,2.33,3.27,4.05,4.27c1.72,1,3.64,1.5,5.79,1.5
		C89.19,65.02,91.12,64.52,92.84,63.52z"/>
	<path d="M123.31,37.52v3.26h-13.33v10.34h10.82v3.26h-10.82v13.82h-4V37.52H123.31z"/>
	<path d="M150.98,61.37h-13.38l-2.46,6.82h-4.22l11.09-30.49h4.62l11.04,30.49h-4.22L150.98,61.37z M149.84,58.11l-5.54-15.49
		l-5.54,15.49H149.84z"/>
</g>
</svg>
