<?xml version="1.0" encoding="utf-8"?>
<!-- Generator: Adobe Illustrator 27.7.0, SVG Export Plug-In . SVG Version: 6.00 Build 0)  -->
<svg version="1.1" id="Layer_1" xmlns="http://www.w3.org/2000/svg" xmlns:xlink="http://www.w3.org/1999/xlink" x="0px" y="0px"
	 viewBox="0 0 172 172" style="enable-background:new 0 0 172 172;" xml:space="preserve">
<g>
	<path d="M9.37,64.6c1.19-6.36,2.82-11.33,4.88-14.92c2.06-3.59,4.35-5.38,6.86-5.38c2.96,0,5.54,2.15,7.74,6.44
		s3.81,10.37,4.82,18.25h-4.24c-0.75-4.91-1.84-8.69-3.25-11.35c-1.41-2.65-3.11-3.98-5.08-3.98c-1.89,0-3.59,1.33-5.1,3.98
		c-1.5,2.65-2.68,6.42-3.54,11.29c-0.86,4.88-1.28,10.59-1.28,17.14c0,6.47,0.43,12.15,1.28,17.02c0.86,4.87,2.04,8.64,3.54,11.29
		c1.5,2.65,3.2,3.98,5.1,3.98c1.97,0,3.66-1.3,5.08-3.92c1.41-2.61,2.49-6.38,3.25-11.29h4.24c-1.01,7.8-2.62,13.82-4.82,18.07
		c-2.2,4.25-4.78,6.38-7.74,6.38c-2.52,0-4.8-1.77-6.86-5.32c-2.06-3.55-3.69-8.48-4.88-14.8c-1.19-6.32-1.79-13.45-1.79-21.41
		S8.18,70.96,9.37,64.6z"/>
	<path d="M59.82,45.36v81.54h-3.54V89.93H42.47v36.97h-3.54V45.36h3.54v35.8h13.81v-35.8H59.82z"/>
	<path d="M81.87,108.76H70.05l-2.18,18.13h-3.73l9.8-81.07h4.08l9.76,81.07h-3.73L81.87,108.76z M80.86,100.1l-4.9-41.18l-4.9,41.18
		H80.86z"/>
	<path d="M113.37,126.89h-3.54L95.6,61.97v64.93h-3.54V45.24h3.54l14.23,64.81V45.24h3.54V126.89z"/>
	<path d="M119.87,64.6c1.19-6.36,2.82-11.33,4.88-14.92c2.06-3.59,4.35-5.38,6.86-5.38c2.96,0,5.54,2.15,7.74,6.44
		c2.2,4.29,3.81,10.37,4.82,18.25h-4.24c-0.75-4.91-1.84-8.69-3.25-11.35c-1.41-2.65-3.11-3.98-5.08-3.98
		c-1.89,0-3.59,1.33-5.1,3.98c-1.5,2.65-2.68,6.42-3.54,11.29c-0.86,4.88-1.28,10.59-1.28,17.14c0,6.47,0.43,12.15,1.28,17.02
		c0.86,4.87,2.03,8.64,3.54,11.29c1.5,2.65,3.2,3.98,5.1,3.98c1.97,0,3.66-1.3,5.08-3.92c1.41-2.61,2.49-6.38,3.25-11.29h4.24
		c-1.01,7.8-2.62,13.82-4.82,18.07c-2.2,4.25-4.78,6.38-7.74,6.38c-2.52,0-4.8-1.77-6.86-5.32c-2.06-3.55-3.69-8.48-4.88-14.8
		c-1.19-6.32-1.79-13.45-1.79-21.41S118.67,70.96,119.87,64.6z"/>
	<path d="M152.96,54.01v27.26h9.88v8.77h-9.88v28.08h11.05v8.77h-14.58V45.24h14.58v8.77H152.96z"/>
</g>
</svg>
