<?xml version="1.0" encoding="utf-8"?>
<!-- Generator: Adobe Illustrator 27.7.0, SVG Export Plug-In . SVG Version: 6.00 Build 0)  -->
<svg version="1.1" id="Layer_1" xmlns="http://www.w3.org/2000/svg" xmlns:xlink="http://www.w3.org/1999/xlink" x="0px" y="0px"
	 viewBox="0 0 172 172" style="enable-background:new 0 0 172 172;" xml:space="preserve">
<g>
	<path d="M41.72,28.07v5.81H20.51v18.46h17.22v5.81H20.51v24.67h-6.37V28.07H41.72z"/>
	<path d="M59.85,28.07v34.64c0,4.87,1.06,8.48,3.18,10.84c2.12,2.36,5.08,3.53,8.86,3.53c3.73,0,6.66-1.18,8.78-3.53
		c2.12-2.36,3.19-5.97,3.19-10.84V28.07h6.37v34.56c0,4.56-0.82,8.39-2.45,11.51c-1.63,3.12-3.84,5.43-6.62,6.95
		s-5.89,2.28-9.34,2.28c-3.45,0-6.57-0.76-9.34-2.28c-2.78-1.52-4.97-3.84-6.58-6.95c-1.61-3.11-2.42-6.95-2.42-11.51V28.07H59.85z"
		/>
	<path d="M111.44,77.01h17.08v5.81h-23.45V28.07h6.37V77.01z"/>
	<path d="M145.88,77.01h17.08v5.81h-23.45V28.07h6.37V77.01z"/>
</g>
<g>
	<path d="M40.36,98.91v49.41h-4.61v-22.4H17.77v22.4h-4.61V98.91h4.61v21.69h17.98V98.91H40.36z"/>
	<path d="M53.22,145.59c-2.7-2.15-4.84-5.15-6.41-9c-1.57-3.85-2.35-8.19-2.35-13.01c0-4.82,0.78-9.15,2.35-13.01
		c1.57-3.85,3.7-6.85,6.41-9c2.7-2.15,5.69-3.23,8.96-3.23c3.31,0,6.31,1.08,9.02,3.23c2.7,2.15,4.83,5.14,6.38,8.97
		c1.55,3.83,2.33,8.18,2.33,13.04c0,4.87-0.78,9.22-2.33,13.04c-1.55,3.83-3.68,6.82-6.38,8.97c-2.7,2.15-5.71,3.23-9.02,3.23
		C58.91,148.81,55.92,147.74,53.22,145.59z M68.84,140.8c1.97-1.61,3.53-3.9,4.66-6.88c1.13-2.98,1.7-6.43,1.7-10.35
		c0-3.97-0.57-7.43-1.7-10.38c-1.13-2.95-2.68-5.23-4.63-6.84c-1.96-1.61-4.19-2.41-6.69-2.41s-4.73,0.8-6.68,2.41
		c-1.96,1.61-3.5,3.89-4.63,6.84c-1.13,2.95-1.7,6.42-1.7,10.38c0,3.92,0.56,7.37,1.7,10.35c1.13,2.98,2.68,5.27,4.66,6.88
		c1.98,1.61,4.2,2.41,6.66,2.41C64.65,143.21,66.87,142.41,68.84,140.8z"/>
	<path d="M88.47,98.91v31.26c0,4.39,0.77,7.65,2.3,9.78c1.54,2.13,3.67,3.19,6.41,3.19c2.7,0,4.82-1.06,6.36-3.19
		c1.54-2.13,2.3-5.39,2.3-9.78V98.91h4.61v31.19c0,4.11-0.59,7.57-1.77,10.38c-1.18,2.81-2.78,4.9-4.79,6.27
		c-2.01,1.37-4.26,2.06-6.76,2.06c-2.5,0-4.75-0.68-6.76-2.06c-2.01-1.37-3.6-3.46-4.76-6.27c-1.17-2.81-1.75-6.27-1.75-10.38V98.91
		H88.47z"/>
	<path d="M121.05,147.08c-1.84-1.16-3.28-2.76-4.33-4.82c-1.05-2.06-1.59-4.43-1.62-7.12h4.91c0.17,2.32,0.85,4.27,2.05,5.85
		c1.2,1.58,2.94,2.37,5.24,2.37c2.19,0,3.93-0.77,5.19-2.3c1.27-1.53,1.9-3.51,1.9-5.92c0-1.89-0.37-3.43-1.11-4.61
		c-0.74-1.18-1.67-2.08-2.78-2.69c-1.11-0.61-2.62-1.28-4.51-1.98c-2.33-0.85-4.2-1.7-5.6-2.55c-1.4-0.85-2.6-2.18-3.6-4
		c-1-1.82-1.49-4.26-1.49-7.34c0-2.69,0.49-5.08,1.47-7.16c0.98-2.08,2.35-3.69,4.13-4.82c1.77-1.13,3.81-1.7,6.1-1.7
		c3.31,0,6.02,1.16,8.13,3.47c2.11,2.32,3.3,5.39,3.57,9.21h-5.06c-0.17-1.89-0.88-3.55-2.13-5c-1.25-1.44-2.9-2.16-4.96-2.16
		c-1.92,0-3.49,0.7-4.71,2.09c-1.22,1.4-1.82,3.34-1.82,5.85c0,1.8,0.36,3.26,1.09,4.39c0.73,1.13,1.62,2,2.68,2.59
		c1.06,0.59,2.56,1.26,4.48,2.02c2.33,0.9,4.2,1.78,5.62,2.66c1.42,0.88,2.63,2.22,3.65,4.04c1.01,1.82,1.52,4.29,1.52,7.41
		c0,2.41-0.46,4.68-1.37,6.81c-0.91,2.13-2.26,3.85-4.05,5.17c-1.79,1.32-3.9,1.98-6.33,1.98
		C124.98,148.81,122.89,148.24,121.05,147.08z"/>
	<path d="M148.43,104.16v16.52h12.86v5.32h-12.86V143h14.38v5.32h-18.99V98.84h18.99v5.32H148.43z"/>
</g>
</svg>
