<?xml version="1.0" encoding="utf-8"?>
<!-- Generator: Adobe Illustrator 27.7.0, SVG Export Plug-In . SVG Version: 6.00 Build 0)  -->
<svg version="1.1" id="Layer_1" xmlns="http://www.w3.org/2000/svg" xmlns:xlink="http://www.w3.org/1999/xlink" x="0px" y="0px"
	 viewBox="0 0 172 172" style="enable-background:new 0 0 172 172;" xml:space="preserve">
<g>
	<path d="M41.23,78.99h21.96v6.66H33.04V22.92h8.19V78.99z"/>
	<path d="M119.44,41.1c-1.74-3.66-4.26-6.49-7.56-8.5c-3.3-2.01-7.14-3.01-11.52-3.01c-4.38,0-8.32,1-11.83,3.01
		c-3.51,2.01-6.27,4.89-8.28,8.64c-2.01,3.75-3.01,8.09-3.01,13c0,4.92,1,9.24,3.01,12.96c2.01,3.72,4.77,6.59,8.28,8.6
		c3.51,2.01,7.45,3.01,11.83,3.01c6.12,0,11.16-1.83,15.12-5.49c3.96-3.66,6.27-8.61,6.93-14.85H97.39v-6.66h33.75v6.3
		c-0.48,5.16-2.1,9.89-4.86,14.17c-2.76,4.29-6.39,7.68-10.89,10.17c-4.5,2.49-9.51,3.73-15.03,3.73c-5.82,0-11.13-1.36-15.93-4.09
		c-4.8-2.73-8.6-6.53-11.38-11.38c-2.79-4.86-4.19-10.35-4.19-16.47c0-6.12,1.39-11.62,4.19-16.51c2.79-4.89,6.58-8.7,11.38-11.43
		c4.8-2.73,10.11-4.1,15.93-4.1c6.66,0,12.55,1.65,17.69,4.95c5.13,3.3,8.87,7.95,11.21,13.95H119.44z"/>
	<path d="M138.85,84.9c-0.74-0.74-1.12-1.65-1.12-2.73c0-1.07,0.37-1.98,1.12-2.73c0.74-0.74,1.65-1.12,2.73-1.12
		c1.03,0,1.91,0.37,2.63,1.12c0.72,0.74,1.08,1.65,1.08,2.73c0,1.08-0.36,1.98-1.08,2.73c-0.72,0.74-1.6,1.12-2.63,1.12
		C140.5,86.02,139.59,85.65,138.85,84.9z"/>
</g>
</svg>
