<?xml version="1.0" encoding="utf-8"?>
<!-- Generator: Adobe Illustrator 27.7.0, SVG Export Plug-In . SVG Version: 6.00 Build 0)  -->
<svg version="1.1" id="Layer_1" xmlns="http://www.w3.org/2000/svg" xmlns:xlink="http://www.w3.org/1999/xlink" x="0px" y="0px"
	 viewBox="0 0 172 172" style="enable-background:new 0 0 172 172;" xml:space="preserve">
<g>
	<path d="M32.9,84.07c-3.27-1.47-5.84-3.51-7.7-6.12c-1.86-2.61-2.82-5.62-2.88-9.05h8.73c0.3,2.94,1.51,5.42,3.64,7.43
		c2.13,2.01,5.23,3.01,9.32,3.01c3.9,0,6.97-0.97,9.22-2.92c2.25-1.95,3.38-4.46,3.38-7.52c0-2.4-0.66-4.35-1.98-5.85
		c-1.32-1.5-2.97-2.64-4.95-3.42c-1.98-0.78-4.65-1.62-8.01-2.52c-4.14-1.08-7.46-2.16-9.95-3.24c-2.49-1.08-4.62-2.77-6.39-5.08
		c-1.77-2.31-2.66-5.41-2.66-9.32c0-3.42,0.87-6.45,2.61-9.09c1.74-2.64,4.18-4.68,7.33-6.12c3.15-1.44,6.76-2.16,10.84-2.16
		c5.88,0,10.69,1.47,14.45,4.41c3.75,2.94,5.86,6.84,6.34,11.7h-9c-0.3-2.4-1.56-4.51-3.78-6.34c-2.22-1.83-5.16-2.75-8.82-2.75
		c-3.42,0-6.21,0.89-8.37,2.65c-2.16,1.77-3.24,4.25-3.24,7.43c0,2.28,0.64,4.14,1.93,5.58c1.29,1.44,2.88,2.54,4.77,3.28
		c1.89,0.75,4.54,1.61,7.96,2.57c4.14,1.14,7.47,2.27,9.99,3.38c2.52,1.11,4.68,2.82,6.48,5.13c1.8,2.31,2.7,5.45,2.7,9.41
		c0,3.06-0.81,5.94-2.43,8.64c-1.62,2.7-4.02,4.89-7.2,6.57c-3.18,1.68-6.93,2.52-11.25,2.52C39.88,86.28,36.17,85.54,32.9,84.07z"
		/>
	<path d="M140.59,23.37v62.28h-8.19V39.21l-20.7,46.44h-5.76L85.15,39.12v46.53h-8.19V23.37h8.82l23.04,51.48l23.04-51.48H140.59z"
		/>
	<path d="M147.76,84.9c-0.74-0.74-1.12-1.65-1.12-2.73c0-1.07,0.37-1.98,1.12-2.73c0.74-0.74,1.65-1.12,2.73-1.12
		c1.03,0,1.91,0.37,2.63,1.12c0.72,0.74,1.08,1.65,1.08,2.73c0,1.08-0.36,1.98-1.08,2.73c-0.72,0.74-1.6,1.12-2.63,1.12
		C149.41,86.02,148.5,85.65,147.76,84.9z"/>
</g>
</svg>
