<?xml version="1.0" encoding="UTF-8" standalone="no"?>
<!-- Created with Inkscape (http://www.inkscape.org/) -->

<svg
   xmlns:dc="http://purl.org/dc/elements/1.1/"
   xmlns:cc="http://creativecommons.org/ns#"
   xmlns:rdf="http://www.w3.org/1999/02/22-rdf-syntax-ns#"
   xmlns:svg="http://www.w3.org/2000/svg"
   xmlns="http://www.w3.org/2000/svg"
   version="1.1"
   width="800"
   height="750"
   id="svg2">
  <defs
     id="defs4" />
  <metadata
     id="metadata7">
    <rdf:RDF>
      <cc:Work
         rdf:about="">
        <dc:format>image/svg+xml</dc:format>
        <dc:type
           rdf:resource="http://purl.org/dc/dcmitype/StillImage" />
        <dc:title></dc:title>
      </cc:Work>
    </rdf:RDF>
  </metadata>
  <g
     transform="translate(0,-302)"
     id="layer1">
    <path
       d="m 739.4,326.2 -274.8,72.9 c -5,-0.3 -9.6,-0.3 -14.3,-0.3 -227.4,0 -432.97,149.7 -432.97,327.9 0,73.7 38.78,145.8 112.97,192.6 L 35.69,1028 470.5,706.8 c -3.6,-1.1 -118.2,20.1 -118.2,20.1 L 623.1,503.5 496.4,521.1 z m -303.8,87.4 c 2.6,0 5.2,0 7.8,0 L 250.7,629.2 360.6,610.6 150.2,813.8 234.2,800.9 165.7,879 C 82.23,839.7 37.24,770.9 37.24,703.9 37.24,538.7 248.1,413.6 435.6,413.6 z m 211.8,31.5 -24.3,19.9 c 61.2,40.1 97.7,98.5 97.7,159 0,142.2 -185.9,288.1 -394.3,288.1 -24.8,0 -48.4,-2.1 -70.1,-5.5 l -58.3,43.7 c 40.7,15.5 88.1,23.3 141.8,23.3 C 543.7,971 782.6,835.3 782.6,647 782.6,549.8 723.4,484.4 647.4,445.1 z"
       id="path2998"
       style="fill:#043d7c;fill-opacity:1;stroke:none" />
  </g>
</svg>
