<?xml version="1.0" encoding="UTF-8" standalone="no"?>
<!-- Created with Inkscape (http://www.inkscape.org/) -->

<svg
   xmlns:dc="http://purl.org/dc/elements/1.1/"
   xmlns:cc="http://creativecommons.org/ns#"
   xmlns:rdf="http://www.w3.org/1999/02/22-rdf-syntax-ns#"
   xmlns:svg="http://www.w3.org/2000/svg"
   xmlns="http://www.w3.org/2000/svg"
   xmlns:sodipodi="http://sodipodi.sourceforge.net/DTD/sodipodi-0.dtd"
   xmlns:inkscape="http://www.inkscape.org/namespaces/inkscape"
   width="101.86459mm"
   height="68.262497mm"
   viewBox="0 0 101.86458 68.262497"
   version="1.1"
   id="svg8"
   inkscape:version="0.92.5 (2060ec1f9f, 2020-04-08)"
   sodipodi:docname="col rockies.svg">
  <defs
     id="defs2">
    <clipPath
       id="clipPath26"
       clipPathUnits="userSpaceOnUse">
      <path
         inkscape:connector-curvature="0"
         id="path24"
         d="M 0,800 H 1280 V 0 H 0 Z" />
    </clipPath>
  </defs>
  <sodipodi:namedview
     id="base"
     pagecolor="#ffffff"
     bordercolor="#666666"
     borderopacity="1.0"
     inkscape:pageopacity="0.0"
     inkscape:pageshadow="2"
     inkscape:zoom="1.4"
     inkscape:cx="340.96756"
     inkscape:cy="77.535573"
     inkscape:document-units="mm"
     inkscape:current-layer="layer1"
     showgrid="false"
     fit-margin-top="0"
     fit-margin-left="0"
     fit-margin-right="0"
     fit-margin-bottom="0"
     inkscape:window-width="1920"
     inkscape:window-height="1009"
     inkscape:window-x="1912"
     inkscape:window-y="70"
     inkscape:window-maximized="1"
     inkscape:pagecheckerboard="true" />
  <metadata
     id="metadata5">
    <rdf:RDF>
      <cc:Work
         rdf:about="">
        <dc:format>image/svg+xml</dc:format>
        <dc:type
           rdf:resource="http://purl.org/dc/dcmitype/StillImage" />
        <dc:title></dc:title>
      </cc:Work>
    </rdf:RDF>
  </metadata>
  <g
     inkscape:label="Layer 1"
     inkscape:groupmode="layer"
     id="layer1"
     transform="translate(1151.8448,236.52839)">
    <g
       id="g201"
       transform="matrix(0.54782693,0,0,0.54809947,-1153.3973,-253.95795)"
       style="clip-rule:evenodd;fill-rule:evenodd">
      <path
         id="path143"
         d="m 44.97,99.789 -6.712,13.922 h 15.785 l 44.125,-33.56 -37.04,33.435 h 2.735 L 98.914,88.479 70.699,113.711 h 3.107 l 28.837,-19.267 -22.001,19.142 3.108,0.125 25.854,-15.289 -19.267,15.164 2.983,0.248 25.231,-13.547 -18.52,13.299 h 56.678 L 144.281,97.055 139.309,97.801 134.461,89.473 109.604,67.1 95.806,54.422 79.026,75.8 69.705,72.941 54.168,97.676 49.942,96.93 l -1.864,3.232 z"
         inkscape:connector-curvature="0"
         style="fill:#51407f" />
      <path
         id="path145"
         d="m 60.134,94.693 10.813,-17.774 9.322,2.486 15.413,-20.136 11.111,12.939 -0.496,1.367 -2.535,-1.628 -2.86,2.611 -1.492,-6.464 -3.604,4.351 -1.864,-2.736 -14.916,12.43 -2.983,-2.486 -7.83,9.571 -1.367,-1.243 z m 75.321,3.108 -3.285,-6.114 -2.297,1.346 c 0,0 2.352,2.53 2.973,2.903 0.621,0.373 2.609,1.865 2.609,1.865 z"
         inkscape:connector-curvature="0"
         style="fill:#ffffff" />
      <path
         id="path147"
         d="m 152.303,107.744 h 36.35 v -2.734 c 0,0 -6.463,-0.125 -6.463,0 C 181.309,95.466 173.626,68.832 148.448,50.18 135.565,40.062 118.444,32.507 96.179,31.8 67.716,32.794 56.405,40.873 44.597,48.455 13.648,70.332 9.671,104.762 9.671,104.762 h -6.09 v 2.857 h 37.608 l 1.354,-2.734 H 34.53 c 0,0 6.836,-43.254 57.547,-48.598 -0.125,0.124 3.978,-4.475 3.978,-4.475 l 4.475,4.475 c 0,0 6.836,0.745 11.311,2.113 4.475,1.367 8.701,3.231 8.701,3.231 0,0 -14.783,1.377 -15.414,17.153 1.102,13.724 12.803,16.158 16.035,16.158 3.23,0 15.908,-0.373 17.525,-16.158 0,-3.604 -0.871,-5.842 -0.871,-5.842 0,0 6.34,4.599 12.057,13.921 5.719,9.323 7.086,17.899 7.086,17.899 h -6.877 z m -27.785,10.752 v -2.238 h 13.113 v 2.549 c 0,0 -2.361,-0.498 -3.045,1.117 -0.684,1.617 -0.498,10.752 -0.498,10.752 0,0 -0.186,8.887 0.125,9.633 0.311,0.746 0.559,2.424 1.926,2.611 1.367,0.186 1.555,0.434 1.555,0.434 v 1.988 H 124.58 v -2.174 c 0,0 1.988,-0.125 2.609,-1.182 0.621,-1.057 0.498,-2.113 0.498,-2.113 v -9.508 l -0.125,-9.074 c 0,0 0.188,-1.057 -0.434,-1.678 -0.622,-0.621 -1.491,-1.117 -2.61,-1.117 z m -71.966,-3.17 c 8.08,0 13.983,5.469 13.983,15.35 0,9.881 -5.903,15.039 -14.729,15.537 -8.7,-0.498 -13.548,-5.904 -13.548,-15.66 0,-9.758 6.464,-14.731 14.294,-15.227 z m -7.458,16.096 c 1.119,11.994 5.966,12.242 8.39,12.242 2.424,0 7.582,-3.604 6.028,-14.479 -1.554,-10.877 -6.028,-11.312 -8.266,-11.312 -1.801,0.25 -7.27,1.555 -6.152,13.549 z"
         inkscape:connector-curvature="0" />
      <path
         id="path149"
         d="m 24.275,142.732 v 2.486 H 8.242 v -2.424 c 0,0 3.293,-0.248 3.853,-1.678 0.559,-1.43 0.435,-1.865 0.435,-1.865 v -22.123 c 0,-1.307 -1.181,-2.051 -2.3,-2.363 -1.118,-0.311 -1.926,-0.311 -1.926,-0.311 v -2.609 c 0,0 1.802,0.125 3.853,0 2.051,-0.125 5.718,-0.498 9.322,-0.498 3.605,0 14.916,0.062 14.916,9.26 0.435,7.146 -6.588,8.889 -6.588,8.889 0,0 -0.186,0.807 0.498,1.18 0.683,0.373 0.87,0.746 0.87,0.746 0,0 2.548,4.598 2.92,5.283 0.373,0.684 1.989,4.287 2.921,4.971 0.933,0.684 3.294,1.119 3.294,1.119 v 2.486 h -9.695 l -8.328,-13.734 c 0,0 -0.932,-0.373 -1.305,-0.373 -0.373,0 -0.994,0.186 -0.994,0.186 l -0.125,7.645 c 0,0 -0.187,2.051 0.808,2.859 0.995,0.806 3.604,0.868 3.604,0.868 z m -1.429,-14.48 c 0.994,-0.125 5.655,-1.242 5.22,-7.52 0,-6.525 -4.785,-6.898 -6.463,-6.898 -1.678,0 -1.74,0.248 -1.74,0.248 v 14.295 c 0,0 1.989,0 2.983,-0.125 z"
         inkscape:connector-curvature="0" />
      <path
         id="path151"
         d="m 54.541,100.41 -3.107,-0.621 -2.611,3.977 z m 84.395,0.994 3.603,-0.869 2.486,3.356 z M 122.279,63.993 c 0,0 5.471,0.249 8.328,2.734 6.713,5.096 5.469,9.695 5.469,9.695 l -0.869,0.124 c 0,0 -0.621,-1.864 -1.119,-1.864 -0.496,0 -0.559,0.373 -0.559,0.373 l 0.311,1.119 h -1.057 c 0,0 -0.373,-1.678 -1.057,-1.678 -0.684,0 -0.436,0.684 -0.436,0.684 l -0.061,1.118 -0.871,-0.062 c 0,0 -0.809,-1.989 -1.43,-1.429 -0.621,0.56 -0.186,0.808 -0.186,0.808 0,0 0.621,0.995 -0.062,0.995 -0.683,0 -1.305,-0.808 -1.305,-0.808 0,0 -0.373,-0.932 -0.746,-0.621 -0.373,0.311 -0.311,0.745 -0.311,0.745 l 0.496,0.995 -0.746,0.311 c 0,0 -1.365,-1.119 -1.678,-1.119 -0.311,0 -0.994,0.497 -0.559,0.746 0.435,0.249 0.871,0.497 0.871,0.808 0,0.311 -0.436,0.435 -0.436,0.435 l -0.623,0.186 c 0,0 -1.242,-1.305 -1.678,-0.808 -0.434,0.497 0.188,0.994 0.188,0.994 l 0.436,0.622 -0.498,0.373 c 0,0 -0.869,-0.125 -1.119,-0.311 -0.248,-0.187 -0.807,-0.498 -0.994,-0.125 -0.186,0.374 0.188,0.746 0.188,0.746 l 0.869,0.621 -0.994,0.622 c 0,0 -1.242,-0.746 -1.492,-0.497 -0.248,0.249 -0.373,0.933 -0.373,0.933 l 0.996,0.559 -0.188,0.497 -0.621,0.187 c 0,0 -0.932,-0.311 -1.242,-0.187 -0.31,0.124 -0.311,0.932 -0.311,0.932 0,0 0.434,0.497 0.682,0.497 0.25,0 0.934,0.062 0.498,0.435 -0.436,0.373 -0.621,0.373 -0.621,0.373 0,0 -1.555,-0.373 -1.803,0.311 -0.248,0.684 0.684,0.808 0.684,0.808 0,0 0.932,-0.062 0.871,0.249 -0.062,0.311 -0.311,0.621 -0.311,0.621 l -0.996,0.125 c 0,0 -0.869,0.124 -0.932,0.684 -0.062,0.559 0.684,0.622 0.684,0.622 0,0 1.057,-0.187 0.871,0.435 -0.188,0.622 -1.182,0.684 -1.182,0.684 0,0 -0.809,0 -0.809,0.497 0,0.497 0.373,0.745 0.373,0.745 0,0 1.43,-0.124 1.305,0.436 -0.123,0.56 -0.684,0.497 -0.684,0.497 0,0 -8.326,-3.356 -8.326,-11.994 -0.125,-1.492 -0.062,-3.17 -0.062,-3.17 0,0 0.186,-0.746 0.621,-0.124 0.436,0.621 0.498,0.684 0.871,0.684 0.371,0 0.248,-0.933 0.248,-0.933 l -0.125,-0.745 c 0,0 0.311,-0.249 0.621,-0.249 0.312,0 0.871,1.554 1.244,1.554 0.373,0 0.869,-0.373 0.869,-0.373 0,0 -0.062,-0.498 -0.186,-0.746 -0.125,-0.249 -0.373,-0.622 -0.373,-0.622 l 0.932,-0.373 c 0,0 0.498,0.622 0.746,0.87 0.248,0.249 0.684,0.498 0.932,0.373 0.248,-0.124 0.125,-0.621 0.125,-0.621 l -0.621,-1.057 0.932,-0.311 c 0,0 0.994,1.056 1.305,1.056 0.311,0 0.559,-0.373 0.559,-0.373 0,0 0.062,-0.373 -0.123,-0.684 -0.188,-0.311 -0.746,-0.498 -0.188,-0.932 0.561,-0.435 0.934,0 0.934,0 0,0 0.621,0.746 0.932,0.746 0.311,0 0.809,-0.56 0.498,-0.994 -0.312,-0.436 -0.746,-0.436 -0.746,-0.436 l 0.248,-0.684 c 0,0 0.559,-0.186 1.057,0.062 0.498,0.249 1.492,0.498 1.492,-0.062 0,-0.559 -0.436,-0.746 -0.436,-0.746 l -0.559,-0.249 c 0,0 0.061,-0.684 0.371,-0.684 0.312,0 0.623,-0.187 1.057,0 0.436,0.187 0.498,0.249 0.871,0.124 0.373,-0.124 0.248,-0.684 -0.248,-0.994 -0.498,-0.311 -0.871,-0.062 -0.809,-0.622 0.062,-0.56 0.932,-0.373 0.932,-0.373 l 1.242,0.062 0.436,-0.746 c 0,0 -0.248,-0.436 -0.496,-0.436 -0.25,0 -0.871,-0.124 -0.871,-0.559 0,-0.435 0.498,-0.435 0.932,-0.435 0.436,0 1.307,0 1.367,-0.249 0.062,-0.249 0.062,-0.808 0.062,-0.808 0,0 -0.869,0.062 -1.117,-0.062 -0.248,-0.122 -0.311,-0.557 -0.311,-0.557 z"
         inkscape:connector-curvature="0"
         style="fill:#ffffff" />
      <path
         id="path153"
         d="m 14.394,114.145 h 3.542 v 28.525 h -3.542 z m 13.361,0 c 0,0 6.339,0.746 6.339,6.773 0,6.029 -6.215,7.209 -6.215,7.209 0,0 1.927,-1.738 1.927,-7.27 0,-5.532 -2.051,-6.712 -2.051,-6.712 z m -3.728,17.277 c 0,0 1.989,-0.684 2.61,-0.684 h 1.615 c 0,0 1.803,1.803 2.237,2.734 0.436,0.932 5.221,9.012 5.221,9.012 h -5.22 z m 21.627,-12.367 c 0,0 -2.734,4.039 -2.237,11.248 0,7.893 3.542,12.244 3.542,12.244 0,0 -7.209,0.061 -7.209,-11.436 0.124,-9.632 5.904,-12.056 5.904,-12.056 z m 12.056,-0.621 c 0,0 7.271,1.74 7.271,11.373 0,9.633 -5.469,12.49 -5.469,12.49 0,0 1.74,-2.299 1.74,-12.242 -0.807,-8.576 -3.542,-11.621 -3.542,-11.621 z"
         inkscape:connector-curvature="0"
         style="fill:#bec1c8" />
      <path
         id="path155"
         d="m 2.834,148.512 h 185.943 v 3.107 h -7.83 v 4.725 H 10.79 v -4.973 H 2.834 Z m 65.751,-17.401 c 0,-8.701 5.469,-15.6 15.6,-15.6 3.853,0 6.276,1.43 6.276,1.43 0,0 1.429,-0.932 1.802,-0.932 0.373,0 0.373,0.496 0.373,0.496 l 0.373,9.51 h -1.74 c 0,0 -1.491,-7.77 -7.52,-7.77 -6.029,0 -8.514,6.402 -8.514,12.74 0,6.34 3.479,12.43 8.7,12.43 5.221,0 8.203,-6.898 8.203,-6.898 0,0 0.187,-0.436 0.622,-0.436 0.435,0 0.994,0.188 0.994,0.188 l 0.062,0.621 -2.237,8.887 c 0,0 -2.237,-0.248 -3.231,-0.248 -0.995,0 -6.463,0.621 -7.333,0.621 -0.87,0 -12.43,-1.242 -12.43,-15.039 z"
         inkscape:connector-curvature="0" />
      <path
         id="path157"
         d="m 73.682,131.111 c 0,6.773 3.542,11.248 3.542,11.248 0,0 -7.209,-1.18 -7.209,-10.938 0,-9.758 6.339,-12.057 6.339,-12.057 0,0 0.373,0.125 0.125,0.621 -0.249,0.499 -2.797,4.353 -2.797,11.126 z m 55.714,-12.461 h 3.293 v 24.114 h -3.293 z"
         inkscape:connector-curvature="0"
         style="fill:#bec1c8" />
      <path
         id="path159"
         d="m 94.376,118.496 0.125,-2.238 h 13.112 v 2.299 c 0,0 -2.92,-0.061 -3.107,1.555 -0.186,1.615 -0.248,9.26 -0.248,9.26 l 8.018,-9.074 c 0,0 0.373,-0.434 0.248,-0.869 0,-0.809 -1.367,-0.994 -1.367,-0.994 v -2.238 h 10.689 v 2.424 c 0,0 -3.17,-0.123 -4.412,0.932 -1.74,0.871 -7.459,7.832 -7.459,7.832 0,0 2.486,3.107 3.916,5.221 1.43,2.111 5.033,8.016 5.594,8.451 0.559,0.436 0.807,1.367 2.299,1.803 1.492,0.434 1.74,0.248 1.74,0.248 v 2.299 h -14.045 v -2.424 c 0,0 2.236,0.248 2.236,-0.807 0,-1.057 -0.869,-3.17 -2.424,-4.973 -1.553,-1.803 -3.791,-4.848 -4.846,-4.971 -0.062,1.117 0,8.576 0,8.576 0,0 0.123,1.242 1.055,1.863 0.934,0.621 2.176,0.436 2.176,0.436 v 2.299 H 94.439 v -2.236 c 0,0 2.795,0 3.045,-1.678 0.248,-1.678 0.248,-2.051 0.248,-2.051 V 120.92 c 0,0 0,-1.49 -1.181,-1.926 -1.18,-0.437 -2.175,-0.498 -2.175,-0.498 z m 45.368,0.186 v -2.361 h 21.75 l 0.436,7.021 h -2.051 c 0,0 0.561,-3.914 -2.236,-3.914 h -7.832 v 9.758 c 0,0 2.176,0.248 2.984,0.248 0.807,0 3.293,-0.311 3.418,-1.367 0.123,-1.057 0.559,-2.238 0.559,-2.238 h 1.492 v 9.881 h -1.617 c 0,0 -0.213,-2.881 -1.863,-3.168 -1.43,-0.25 -2.051,-0.311 -2.609,-0.311 -0.561,0 -2.301,0.373 -2.301,0.373 v 8.637 c 0,0 0.311,1.119 1.617,1.119 h 5.902 c 0.436,0 2.051,-0.373 2.486,-1.057 0.435,-0.684 1.555,-3.791 1.555,-3.791 h 1.801 l -0.684,7.893 h -23.18 v -2.424 c 0,0 2.361,0.188 3.168,-0.434 0.809,-0.623 0.996,-0.871 0.996,-0.871 l -0.125,-20.012 c 0,0 0.186,-1.926 -1.18,-2.609 -1.369,-0.684 -2.486,-0.373 -2.486,-0.373 z"
         inkscape:connector-curvature="0" />
      <path
         id="path161"
         d="m 145.057,118.527 h 3.295 v 24.485 h -3.295 z"
         inkscape:connector-curvature="0"
         style="fill:#bec1c8" />
      <path
         id="path163"
         d="m 172.93,111.348 c 4.289,0 6.898,1.057 6.898,1.057 0,0 0.436,0.188 0.684,0 0.248,-0.186 0.809,-0.746 0.809,-0.746 h 1.242 l 0.559,9.82 -2.174,-0.188 c 0,0 -0.994,-7.084 -7.334,-7.084 -5.033,0.621 -3.791,5.283 -2.176,6.09 3.418,3.605 13.051,6.898 13.051,15.785 0,8.889 -8.078,10.379 -9.881,10.379 -1.803,0 -6.711,-1.305 -7.395,-1.367 -0.684,-0.062 -1.244,0.934 -1.244,0.934 h -1.057 l -1.117,-10.504 1.803,-0.062 c 0,0 1.49,3.854 2.484,4.785 0.994,0.934 2.113,3.107 5.346,3.107 3.23,0 4.35,-2.672 4.35,-5.033 0,-2.361 -3.977,-5.594 -5.469,-6.525 -1.492,-0.931 -8.203,-3.791 -8.203,-11.188 -0.001,-7.395 4.537,-9.26 8.824,-9.26 z"
         inkscape:connector-curvature="0" />
      <path
         id="path165"
         d="m 167.586,116.383 c 0,0 -0.125,2.486 1.863,4.598 3.107,4.227 13.113,6.773 13.113,14.48 -0.436,5.656 -3.17,6.961 -3.17,6.961 0,0 0.311,-1.182 0.311,-4.289 0,-4.225 -6.275,-7.705 -6.275,-7.705 0,0 -7.459,-4.227 -7.459,-9.322 0,-4.227 1.617,-4.723 1.617,-4.723 z"
         inkscape:connector-curvature="0"
         style="fill:#bec1c8" />
      <path
         id="path167"
         d="m 116.625,92.021 0.125,-0.435 c 0,0 1.305,0.622 1.428,0.373 0.125,-0.249 0.062,-0.932 0.062,-0.932 l -0.807,-0.498 c 0,0 -0.871,0 -0.746,-0.683 0.125,-0.684 0.684,-0.187 0.684,-0.187 l 0.807,0.373 v -1.305 c 0,0 -0.994,-0.373 -0.994,-0.87 0,-0.497 0.311,-0.497 0.311,-0.497 l 0.996,0.683 c 0,0 0.496,-0.124 0.496,-0.435 0,-0.311 -0.062,-0.56 -0.062,-0.56 l -0.994,-0.932 c 0,0 -0.123,-0.684 0.373,-0.684 0.498,0 0.871,0.808 0.871,0.808 0,0 0.559,-0.249 0.496,-0.684 -0.062,-0.435 -0.373,-0.808 -0.373,-0.808 0,0 -0.559,-0.56 -0.434,-0.932 0.123,-0.373 0.559,-0.311 0.559,-0.311 0,0 0.373,0.933 0.746,0.933 0.373,0 0.807,-0.56 0.621,-0.933 -0.188,-0.372 -0.684,-1.181 -0.684,-1.181 0,0 0.062,-0.497 0.373,-0.497 0.311,0 0.932,0.994 0.932,0.994 0,0 0.684,0.249 0.684,-0.311 0,-0.56 -0.186,-1.181 -0.186,-1.181 0,0 -0.436,-0.559 0.061,-0.808 0.498,-0.249 0.498,0.249 0.623,0.497 0.123,0.249 0.434,0.932 0.684,0.622 0.248,-0.311 0.434,-0.87 0.434,-0.87 0,0 -0.248,-0.435 -0.248,-0.87 0,-0.435 0.248,-0.622 0.248,-0.622 0,0 0.498,-0.621 0.561,-0.249 0.062,0.374 0.062,0.995 0.123,1.181 0.062,0.186 0.809,0.186 0.871,-0.125 0.062,-0.311 0.123,-0.497 0.123,-0.497 0,0 -0.248,-0.497 -0.061,-0.87 0.186,-0.373 -0.062,-0.56 0.311,-0.56 0.373,0 0.621,0.808 0.621,0.808 0,0 0,0.746 0.311,0.684 0.311,-0.062 0.684,-0.622 0.684,-1.119 0,-0.497 0.186,-1.056 0.621,-1.118 0.436,-0.062 0.062,1.181 0.062,1.181 0,0 0.311,0.56 0.559,0.435 0.25,-0.124 0.561,-0.435 0.561,-0.435 l 0.496,-1.43 h 0.684 c 0,0 -0.248,1.305 0.062,1.367 0.311,0.062 0.746,-0.124 0.746,-0.124 0,0 0.188,-0.808 0.373,-1.057 0.185,-0.249 0.809,-0.311 0.809,-0.311 0,0 0.186,0 0.123,0.373 -0.062,0.373 -0.496,0.994 0,1.118 0.498,0.125 0.934,0 0.934,0 0,0 0.311,-1.616 0.994,-1.554 0.684,0.062 -0.125,1.119 -0.125,1.119 0,0 0.062,0.559 0.498,0.684 0.434,0.124 0.994,-0.684 0.994,-0.684 0,0 0.311,-0.622 0.684,-0.498 0.373,0.125 -0.373,1.119 -0.373,1.119 0,0 0.746,0.994 0.746,1.305 0,0.311 -0.686,6.401 -6.465,10.316 -6.156,4.729 -13.613,1.684 -13.613,1.684 z m -8.203,-17.836 c -0.248,0.311 -0.621,0.249 -0.621,0.249 l -0.311,-0.187 c 0,0 1.988,-5.406 5.965,-7.706 3.979,-2.299 6.525,-2.424 6.525,-2.424 l -0.434,0.932 0.186,0.56 c 0,0 1.057,0.622 0.621,1.056 -0.436,0.436 -1.057,-0.248 -1.057,-0.248 0,0 0,-0.746 -0.496,-0.249 -0.498,0.497 -0.125,1.181 -0.125,1.181 0,0 0.932,0.808 0.498,1.243 -0.436,0.435 -0.809,-0.373 -0.809,-0.373 0,0 -0.311,-0.684 -0.684,-0.311 -0.373,0.373 -0.188,0.994 -0.188,0.994 0,0 0.871,1.367 0.188,1.43 -0.683,0.063 -0.994,-1.243 -0.994,-1.243 0,0 -0.684,0.684 -0.684,0.994 0,0.312 0.809,1.119 0.123,1.554 -0.684,0.436 -0.807,-0.683 -0.807,-0.683 0,0 -0.373,-0.871 -0.746,-0.435 -0.373,0.435 -0.125,1.118 -0.125,1.118 0,0 0.25,1.181 -0.311,1.181 -0.559,0 -0.684,-0.435 -0.684,-0.435 0,0 0.062,-1.305 -0.373,-1.057 -0.434,0.249 -0.496,0.933 -0.496,0.933 0,0 0.373,1.491 -0.436,1.491 -0.809,0 -0.436,-0.994 -0.436,-0.994 0,0 -0.123,-0.994 -0.559,-0.808 -0.436,0.187 -0.436,0.746 -0.436,0.746 l -0.186,1.305 -0.871,0.186 c 0,0 0.188,-0.808 0.062,-1.119 -0.123,-0.311 -0.311,-0.435 -0.621,-0.435 -0.31,0 -0.621,0.56 -0.621,0.56 0,0 0.191,0.683 -0.057,0.994 z"
         inkscape:connector-curvature="0"
         style="fill:#ffffff" />
      <path
         id="path169"
         d="m 120.479,63.931 c 0,0 1.119,0.559 0.807,0.932 -0.311,0.373 -0.684,-0.062 -0.684,-0.062 l -0.373,-0.497 z"
         inkscape:connector-curvature="0" />
      <path
         id="path171"
         d="m 169.76,81.58 c 1.99,3.542 3.418,8.514 -1.367,11.684 -4.785,3.17 -9.818,-0.373 -11.248,-3.294 -1.43,-2.921 -3.293,-7.396 1.926,-11.249 4.04,-2.175 8.7,-0.683 10.689,2.859 z"
         inkscape:connector-curvature="0"
         style="fill:#bec1c8" />
      <path
         id="path173"
         d="m 169.076,82.512 c 0.561,0.932 2.301,3.916 -2.484,7.458 -4.787,3.542 -8.328,0.684 -8.764,-0.559 -0.436,-1.243 -1.865,-4.91 3.17,-7.644 5.033,-2.735 7.52,-0.187 8.078,0.745 z"
         inkscape:connector-curvature="0" />
      <path
         id="path175"
         d="m 149.004,56.1 c 0,0 3.666,3.232 4.723,4.289 1.057,1.057 7.768,6.898 2.236,12.429 -5.529,5.531 -12.428,-1.803 -13.111,-2.548 -0.683,-0.745 -1.678,-1.864 -2.238,-2.423 -0.559,-0.559 -2.113,-1.927 -2.113,-1.927 l 0.498,-0.683 c 0,0 0.932,0.745 1.182,0.808 0.248,0.062 0.869,0 0.869,0 0,0 7.084,-6.401 7.52,-6.898 0.436,-0.497 0.311,-1.367 0.311,-1.678 0,-0.311 -0.496,-0.994 -0.496,-0.994 z"
         inkscape:connector-curvature="0"
         style="fill:#bec1c8" />
      <path
         id="path177"
         d="m 143.535,68.032 7.52,-6.96 c 0,0 0.559,-0.933 1.242,-0.311 0.683,0.622 3.48,2.734 3.107,5.78 -0.373,3.045 -3.418,6.339 -6.898,5.842 -3.48,-0.497 -4.971,-2.859 -4.971,-2.859 0,0 -0.746,-0.498 0,-1.492 z"
         inkscape:connector-curvature="0" />
      <path
         id="path179"
         d="m 130.484,44.541 2.672,1.616 c 0,0 -1.242,13.175 -1.182,13.486 0.062,0.311 0.125,0.746 0.498,1.181 0.373,0.435 0.559,0.435 0.559,0.435 l -0.123,0.435 -6.588,-2.921 0.373,-0.808 1.18,0.621 c 0,0 1.057,0.311 1.182,-0.684 0.125,-0.994 0.186,-3.542 0.186,-3.542 l -4.287,-2.299 -2.549,2.299 c 0,0 -0.559,0.746 -0.186,1.181 0.373,0.435 1.367,0.933 1.367,0.933 l -0.25,0.745 -5.469,-2.485 0.498,-0.746 c 0,0 0.994,0.933 2.299,-0.187 1.305,-1.119 9.82,-9.26 9.82,-9.26 z"
         inkscape:connector-curvature="0"
         style="fill:#bec1c8" />
      <path
         id="path181"
         d="m 129.551,47.772 -0.186,4.91 -3.355,-1.616 z"
         inkscape:connector-curvature="0" />
      <path
         id="path183"
         d="m 102.766,45.722 1.43,0.186 c 0,0 0.25,0.187 0.498,0.622 0.248,0.435 2.361,4.847 2.361,4.847 0,0 0.869,1.119 2.113,1.305 1.242,0.187 3.729,0.373 3.729,0.373 0,0 0.125,-0.435 -0.498,-0.808 -0.621,-0.373 -1.801,-1.181 -2.609,-3.418 -0.994,-1.802 -1.803,-3.169 -1.803,-3.169 0,0 3.48,-0.559 3.791,-3.169 0.311,-2.61 -1.449,-4.223 -4.412,-4.848 -3.221,-0.676 -5.221,-0.684 -5.221,-0.684 l -3.729,-0.311 -0.311,0.684 1.988,0.932 c 0,0 -1.057,11 -1.18,11.311 -0.125,0.311 -1.244,0.684 -1.617,0.684 -0.373,0 -0.87,-0.062 -0.87,-0.062 l -0.062,0.621 7.83,1.057 0.125,-0.684 -1.244,-0.373 c 0,0 -0.994,0 -0.869,-1.429 0.126,-1.431 0.56,-3.667 0.56,-3.667 z"
         inkscape:connector-curvature="0"
         style="fill:#bec1c8" />
      <path
         id="path185"
         d="m 102.953,44.603 0.809,-6.215 c 0,0 0.932,-0.125 1.863,0.124 0.931,0.249 3.232,1.181 2.797,3.294 -0.436,2.113 -1.244,3.294 -3.355,3.169 -2.114,-0.124 -2.114,-0.372 -2.114,-0.372 z"
         inkscape:connector-curvature="0" />
      <path
         id="path187"
         d="m 77.162,38.823 c 3.353,-1.732 9.757,-1.305 11.373,2.61 1.616,3.916 1.119,8.203 -4.039,10.565 -5.158,2.362 -10.503,-0.124 -11.622,-3.604 -1.119,-3.48 0.435,-7.582 4.288,-9.571 z"
         inkscape:connector-curvature="0"
         style="fill:#bec1c8" />
      <path
         id="path189"
         d="m 78.964,39.134 c 1.802,-0.497 5.096,0.249 6.525,4.164 1.429,3.916 0.56,7.271 -1.927,8.079 -2.486,0.808 -5.966,0.498 -7.582,-5.096 -1.179,-4.972 1.182,-6.65 2.984,-7.147 z"
         inkscape:connector-curvature="0" />
      <path
         id="path191"
         d="m 50.625,50.009 6.774,-3.604 0.249,0.56 c 0,0 -0.87,0.373 -1.119,0.87 -0.249,0.497 -0.435,0.746 -0.435,0.746 l 5.407,10.13 4.102,-2.299 c 0,0 0.995,-0.684 1.057,-1.181 0.062,-0.497 0.435,-2.673 0.435,-2.673 l 0.497,0.125 0.622,3.667 -10.875,6.153 -0.311,-0.808 c 0,0 1.615,-0.684 1.181,-1.864 -0.435,-1.181 -4.785,-8.825 -4.785,-8.825 0,0 -0.311,-0.808 -0.933,-0.808 -0.621,0 -1.243,0.373 -1.243,0.373 z m -15.412,12.43 c 3.542,-4.102 7.831,-4.786 11.124,-2.237 3.294,2.548 4.351,7.146 1.056,11.186 -3.293,4.04 -7.457,4.599 -11.249,2.299 C 33.287,71.574 32.043,67.1 35.213,62.439 Z"
         inkscape:connector-curvature="0"
         style="fill:#bec1c8" />
      <path
         id="path193"
         d="m 36.083,63.06 c 1.216,-1.903 4.226,-2.734 7.644,-0.559 3.418,2.175 5.096,6.028 2.734,8.452 -2.361,2.423 -5.593,1.926 -8.203,-0.187 -2.61,-2.113 -4.039,-4.785 -2.175,-7.706 z"
         inkscape:connector-curvature="0" />
      <path
         id="path195"
         d="m 24.461,93.512 c -3.562,-1.25 -5.22,-6.277 -3.231,-10.876 1.74,-3.231 2.486,-3.169 2.983,-3.729 0.062,-0.435 0,-0.684 0.124,-0.994 0.124,-0.311 3.667,1.492 3.667,1.492 l -0.311,0.435 c 0,0 -0.311,0.062 -0.87,0.062 -0.56,0 -2.61,-0.435 -4.475,3.045 -1.864,3.48 1.492,6.463 3.294,7.333 1.802,0.87 6.549,2.132 8.576,-2.548 1.154,-2.673 -0.125,-4.475 -0.125,-4.475 l -0.745,-1.056 0.435,-0.808 2.858,2.672 c 0,0 -0.621,0.994 -0.746,1.491 -0.124,0.498 -0.808,3.17 -1.119,3.729 -0.309,0.561 -3.478,6.713 -10.315,4.227 z"
         inkscape:connector-curvature="0"
         style="fill:#bec1c8" />
      <path
         id="path199"
         d="m 99.316,118.527 h 3.295 v 24.299 h -3.295 z m 7.055,12.832 2.361,-2.486 c 0,0 2.299,2.113 4.537,5.594 2.236,3.48 5.221,8.203 5.221,8.203 h -4.848 c 0,0 0.186,-1.988 -2.113,-4.785 -2.05,-3.108 -5.158,-6.526 -5.158,-6.526 z"
         inkscape:connector-curvature="0"
         style="fill:#bec1c8" />
    </g>
  </g>
</svg>
