<?xml version="1.0" encoding="utf-8"?>
<!-- Generator: Adobe Illustrator 17.0.0, SVG Export Plug-In . SVG Version: 6.00 Build 0)  -->
<!DOCTYPE svg PUBLIC "-//W3C//DTD SVG 1.1//EN" "http://www.w3.org/Graphics/SVG/1.1/DTD/svg11.dtd">
<svg version="1.1" id="Layer_1" xmlns="http://www.w3.org/2000/svg" xmlns:xlink="http://www.w3.org/1999/xlink" x="0px" y="0px"
	 viewBox="0 0 292 231" enable-background="new 0 0 292 231" xml:space="preserve">
<g>
	<polygon id="pt_241_" fill="#DF8A26" points="157.605,75.42 129.452,95.874 140.205,62.776 	"/>
	<polygon id="pt_240_" fill="#DF8A26" points="145.582,79.325 117.428,58.87 152.228,58.87 	"/>
	<polygon id="pt_239_" fill="#DF8A26" points="138.151,69.097 148.906,36 159.659,69.097 	"/>
	<polygon id="pt_238_" fill="#DF8A26" points="145.582,58.87 180.382,58.87 152.228,79.325 	"/>
	<polygon id="pt_237_" fill="#DF8A26" points="157.605,62.776 168.358,95.874 140.205,75.42 	"/>
</g>
<g>
	<polygon id="pt_236_" fill="#0B8ABB" points="207.069,152.029 182.304,146.925 205.341,136.496 	"/>
	<polygon id="pt_235_" fill="#0B8ABB" points="199.086,147.484 196.287,122.353 213.324,141.04 	"/>
	<polygon id="pt_234_" fill="#0B8ABB" points="200.941,138.487 223.978,128.06 211.47,150.036 	"/>
	<polygon id="pt_233_" fill="#0B8ABB" points="210.07,137.471 227.107,156.158 202.34,151.053 	"/>
	<polygon id="pt_232_" fill="#0B8ABB" points="213.859,145.839 201.351,167.816 198.551,142.685 	"/>
</g>
<g>
	<polygon id="pt_231_" fill="#0864A1" points="86.979,158.641 110.79,157.163 90.657,144.361 	"/>
	<polygon id="pt_230_" fill="#0864A1" points="95.039,155.457 100.993,132.354 82.597,147.545 	"/>
	<polygon id="pt_229_" fill="#0864A1" points="94.503,146.806 74.369,134.006 83.133,156.195 	"/>
	<polygon id="pt_228_" fill="#0864A1" points="86.11,144.644 67.714,159.836 91.526,158.358 	"/>
	<polygon id="pt_227_" fill="#0864A1" points="81.46,151.957 90.224,174.147 96.177,151.045 	"/>
</g>
<path fill="#0864A1" d="M109.647,166.214c-2.286,0.187-4.571,0.373-6.857,0.557c-0.517,1.859-1.035,3.719-1.552,5.578
	c8.02,3.552,15.699,7.349,21.478,15.042c8.284,11.027,12.117,24.791,11.572,38.325c4.422-14.363,2.434-30.534-6.834-43.813
	C122.692,175.079,116.532,169.84,109.647,166.214z"/>
<path fill="#0B8ABB" d="M183.658,157.411c2.059,0.237,4.119,0.474,6.178,0.708c0.412,1.695,0.823,3.39,1.235,5.086
	c-7.351,2.969-14.402,6.169-19.853,12.946c-7.814,9.714-11.688,22.034-11.601,34.276c-3.565-13.108-1.285-27.658,7.485-39.377
	C171.608,165.03,177.329,160.481,183.658,157.411z"/>
<path fill="#DF8A26" d="M153.175,97.691c-1.653-1.209-3.302-2.425-4.951-3.64c-0.214,0.174-0.427,0.35-0.641,0.523
	c-2.316,1.876-4.64,3.743-6.959,5.616c-2.038,6.672-3.578,14.003-4.438,22.004c-2.911,27.091,2.085,55.091,12.204,76.639
	c-6.209-22.247-8.494-47.229-5.538-70.04C144.55,115.696,148.544,106.304,153.175,97.691z"/>
<g>
	<path fill="#DE8A27" d="M131.124,27.241c-0.033,0.066-0.066,0.198-0.099,0.264l0.033-0.033c-0.165,0.561-0.264,0.891-0.759,1.056
		c-0.231,0.033-0.825,0.066-2.046,0.132c-0.429-0.33-0.924-1.089-1.056-1.617c-0.594-2.178-1.551-5.71-2.376-8.713
		c-0.726-2.739-1.221-4.489-1.419-4.917c0.297-0.528,1.254-0.825,3.268-0.825c0.33,0.264,0.528,0.726,0.627,1.122
		c0.297,1.287,0.627,2.673,0.957,4.026c0.198,0.891,0.363,1.782,0.528,2.542c0.396,1.915,0.429,2.244,0.66,3.103
		c0.198-0.825,0.528-2.178,0.858-3.598c0.198-0.792,1.221-4.983,1.386-5.776c0.066-0.198,0.066-0.363,0.066-0.396v-0.297
		c0.099-0.132,2.08-0.627,2.707-0.462c0.363,0.33,0.462,0.66,0.627,1.353c0.363,1.584,0.825,3.531,1.32,5.578
		c0.165,0.726,0.297,1.452,0.462,2.112c0.264,1.122,0.231,0.858,0.363,1.452c0.429-1.584,0.858-3.664,1.32-5.842
		c0.396-1.617,0.693-3.003,0.924-4.159c0.033-0.033,0.033-0.132,0.033-0.231c0.033-0.099,0.066-0.198,0.165-0.33
		c0.264-0.198,0.462-0.198,0.726-0.198c0.495,0,2.046,0.198,2.178,0.264c0.132,0.066,0.198,0.231,0.231,0.33
		c0.033,0.264-0.033,0.562-0.165,1.023l-0.132,0.33l0.033-0.033c-0.396,1.32-0.825,3.003-1.32,4.753
		c-0.726,2.706-1.551,5.743-2.245,7.987c-0.033,0.066-0.066,0.198-0.099,0.264l0.033-0.033c-0.132,0.561-0.231,0.891-0.726,1.056
		c-0.231,0.033-0.858,0.066-2.046,0.132c-0.429-0.33-0.924-1.089-1.089-1.617c-0.132-0.495-0.297-1.056-0.429-1.551
		c-0.099-0.33-0.165-0.627-0.231-0.858c-0.396-1.65-0.858-3.729-1.221-5.413c-0.396,1.75-0.99,3.96-1.452,5.743L131.124,27.241z"/>
	<path fill="#DE8A27" d="M155.083,25.063c0.198,0.627,0.297,1.287,0.33,1.65c-0.033,0.693-1.123,1.452-2.146,1.716h0.033
		c-0.495,0.132-1.519,0.33-2.575,0.33c-1.65,0-3.333-0.297-4.654-1.617c-1.221-1.254-1.815-3.333-1.815-6.04
		c0-6.403,2.772-8.779,6.568-8.779c3.135,0,4.753,1.848,5.017,4.72c0.033,0.495,0.066,1.023,0.066,1.584
		c0,0.727-0.066,1.453-0.165,1.947c-0.396,0.33-1.617,0.759-2.574,0.892c-1.023,0.132-2.707,0.198-4.257,0.198
		c-0.528,0-0.627,0.033-1.155,0c0.066,3.3,1.452,4.356,3.499,4.356C152.541,26.02,153.795,25.756,155.083,25.063z M150.363,14.766
		c-1.188,0.165-2.343,1.551-2.542,4.521h0.924c1.155,0,2.508-0.033,3.168-0.099c0.165-0.033,0.33-0.033,0.495-0.132
		c0.066-0.231,0.132-0.594,0.132-0.99c0-0.132-0.033-0.231-0.033-0.363v-0.33c-0.165-1.75-0.759-2.607-2.013-2.607H150.363z"/>
	<path fill="#DE8A27" d="M158.909,27.77c-0.264-0.594-0.33-1.155-0.33-1.915V9.188c0-1.419-0.033-2.376-0.066-3.136
		c0.396-0.891,1.518-1.056,3.168-1.056c0.231,0.561,0.33,1.155,0.33,2.641v5.611c0.924-0.528,2.013-0.924,3.465-0.924
		c3.168,0,5.611,1.98,5.611,6.931c0,4.521-1.551,6.997-3.267,8.251c-1.386,0.957-3.103,1.254-4.456,1.254
		c-1.848,0-3.399-0.33-4.356-0.924L158.909,27.77z M162.011,25.987c0.396,0.165,0.99,0.297,1.617,0.297
		c1.716,0,3.763-1.419,3.763-6.568c0-3.532-1.155-4.752-3.103-4.752c-0.693,0-1.617,0.264-2.277,0.759V25.987z"/>
</g>
<g>
	<path fill="#0C89BB" d="M236.09,138.554c-0.264,0.165-1.023,0.33-1.849,0.33c-0.396,0-0.858-0.066-1.32-0.165
		c-0.099-0.562-0.099-1.65-0.099-3.333V120.17c0-1.023-0.132-1.782-0.363-2.442c0.198-0.33,0.693-0.561,1.386-0.858
		c0.264-0.066,0.429-0.066,0.429-0.066c0.594,0,1.023,0.33,1.221,0.693c0.66-0.429,1.32-0.759,1.98-0.99
		c0.66-0.231,1.254-0.363,2.046-0.363c3.268,0,5.908,2.046,5.908,7.195c0,4.125-1.221,6.667-2.971,8.053
		c-1.188,0.99-2.475,1.254-3.597,1.254c-1.123,0-1.948-0.198-2.575-0.561v4.951c0,0.561,0,0.99-0.066,1.419L236.09,138.554z
		 M241.734,123.57c0-3.367-1.056-4.72-2.904-4.72c-0.957,0-1.881,0.561-2.542,1.122v9.274c0.462,0.495,1.287,0.891,2.08,0.891
		C239.754,130.138,241.734,128.817,241.734,123.57z"/>
	<path fill="#0C89BB" d="M251.666,120.104v10.396c0,0.528-0.033,0.924-0.33,1.353c-0.528,0.396-1.023,0.429-3.168,0.429
		c0.033-1.75,0.066-3.994,0.066-6.535l0.033-5.512c0-1.056-0.198-1.815-0.429-2.475c0.264-0.264,0.693-0.528,1.419-0.825
		c0.198-0.066,0.33-0.066,0.462-0.066c0.693,0,0.99,0.198,1.188,0.66c0.627-0.429,1.32-0.726,1.947-0.957
		c0.562-0.231,1.288-0.363,1.915-0.264c0.957,0.099,1.551,0.429,1.65,0.924c0,0.495-0.132,1.419-0.594,2.079
		c-0.231,0.066-0.231,0.066-0.528,0.066c-0.363,0-0.693-0.033-0.957-0.066c-0.231-0.066-0.33-0.066-0.429-0.066
		C253.019,119.246,252.292,119.477,251.666,120.104z"/>
	<path fill="#0C89BB" d="M260.245,109.147c1.551,0,1.849,0.66,1.815,1.914s-0.429,2.112-2.013,2.112
		c-1.354,0-1.848-0.627-1.848-2.046C258.199,109.84,258.859,109.147,260.245,109.147z M261.565,116.606
		c0.264,0.528,0.297,0.99,0.297,2.376v11.056c0,0.759-0.132,1.288-0.462,1.815c-0.231,0.363-0.792,0.363-3.069,0.429v-2.707
		c0-0.957,0.033-1.98,0.033-3.037v-5.743c0-1.485-0.033-2.508-0.066-3.366c0.396-0.825,1.519-0.924,3.003-0.924L261.565,116.606z"/>
	<path fill="#0C89BB" d="M268.825,120.203l0.099-0.099v10.166c0,0.726-0.066,1.122-0.396,1.584
		c-0.462,0.396-0.825,0.396-2.277,0.429h-0.858c0.033-1.75,0.066-3.994,0.066-6.502v-5.545c0-1.056-0.132-1.815-0.363-2.475
		c0.231-0.264,0.66-0.528,1.386-0.825c0.198-0.066,0.396-0.066,0.462-0.066c0.594,0,0.99,0.297,1.188,0.693
		c0.66-0.462,1.354-0.792,1.947-0.99c0.693-0.231,1.354-0.363,2.146-0.363c4.125,0,4.917,2.112,4.917,5.875v4.984
		c0,1.782,0.033,3.399,0.066,4.687c-0.429,0.396-1.023,0.528-3.202,0.528c-0.264-0.495-0.363-0.99-0.363-1.485v-8.647
		c0-2.376-0.562-3.234-2.245-3.234C270.343,118.916,269.485,119.477,268.825,120.203z"/>
	<path fill="#0C89BB" d="M288.856,129.544c0.033,0.198,0.066,0.462,0.066,0.759s0,0.66-0.033,0.924
		c-0.066,0.231-0.231,0.429-0.462,0.627c-0.759,0.495-2.013,0.792-3.069,0.792c-3.3,0-3.928-2.938-3.928-5.644v-7.855
		c-0.891-0.033-1.452-0.231-1.947-0.462c0-0.957,0.033-0.957,0.297-1.221c0.495-0.33,0.99-0.462,1.419-0.594
		c0.264-0.066,0.33,0,0.528-0.099c0.033-0.924,0.132-1.947,0.165-2.872c0.264-0.759,1.122-1.386,3.102-1.518v0.528
		c-0.033,1.386-0.066,2.442-0.066,3.697h4.192c-0.099,1.848-0.363,2.277-1.023,2.409c-0.231,0.033-0.561,0.066-0.825,0.066
		c-0.66,0.033-1.122,0.033-2.343,0.033c-0.033,1.452-0.066,2.872-0.066,4.257c0,0.759,0.033,1.453,0.033,2.146v1.617
		c0.132,1.716,0.363,2.938,1.419,2.938c0.429,0.033,1.75-0.429,1.98-0.627L288.856,129.544z"/>
</g>
<g>
	<path fill="#0564A2" d="M13.102,121.464c-0.594,0-0.99-0.033-1.386-0.099l-0.66,0.66c-0.132,0.132-0.165,0.33-0.165,0.462
		c0,0.297,0.594,0.594,1.684,0.693l1.287,0.099c0.528,0.033,1.056,0.099,1.584,0.132c0.429,0.033,0.891,0.066,1.188,0.132
		c2.046,0.396,3.465,1.551,3.564,3.498c0,2.905-3.003,6.205-7.096,7.162c-0.858,0.165-2.013,0.297-3.069,0.297
		c-1.65,0-3.168-0.363-3.499-1.453c-0.33-1.65,3.003-4.488,5.083-5.875c0.825,0.429,1.023,1.551,0.429,2.112
		c-1.056,0.891-2.211,2.046-2.079,2.64c0.066,0.264,0.396,0.33,0.825,0.33c0.66,0,1.617-0.198,2.211-0.297
		c2.179-0.594,3.862-2.673,3.829-4.027c0-0.099,0-0.363,0-0.462c-0.264-0.693-0.594-1.254-1.716-1.386
		c-0.726-0.099-1.452-0.132-2.211-0.165c-0.198,0-0.429-0.033-0.627-0.033c-1.518-0.132-2.508-0.462-2.508-0.462
		c-1.617-0.495-2.442-1.386-2.475-2.376c0-0.231,0.165-0.462,0.429-0.792c0.462-0.462,1.089-0.99,1.584-1.452
		c0.165-0.132,0.132-0.165,0.264-0.297c-1.419-0.891-2.112-2.442-2.112-4.489c0-3.729,2.442-5.842,5.842-5.842
		c1.155,0,2.178,0.396,2.938,0.759c-0.066-0.033-0.099-0.066,0-0.132c0.726-0.033,1.65-0.066,2.343-0.099h-0.033
		c0.429-0.033,1.122-0.066,1.452-0.066c0.132,0.264,0.264,0.66,0.264,1.123c0,0.858-0.396,1.485-1.188,1.485
		c-0.462,0-0.66,0-1.056-0.033c0.528,0.825,0.759,1.617,0.759,2.673C18.779,119.417,16.634,121.464,13.102,121.464z M10.924,115.853
		c0.165,2.08,0.957,3.367,2.574,3.367c1.485,0,2.08-1.551,1.915-3.631c-0.198-2.013-1.023-3.201-2.508-3.201
		C11.617,112.388,10.693,113.51,10.924,115.853z"/>
	<path fill="#0564A2" d="M25.708,114.104V124.5c0,0.528-0.033,0.924-0.33,1.353c-0.528,0.396-1.023,0.429-3.168,0.429
		c0.033-1.75,0.066-3.994,0.066-6.535l0.033-5.512c0-1.056-0.198-1.815-0.429-2.475c0.264-0.264,0.693-0.528,1.419-0.825
		c0.198-0.066,0.33-0.066,0.462-0.066c0.693,0,0.99,0.198,1.188,0.66c0.627-0.429,1.32-0.726,1.947-0.957
		c0.561-0.231,1.288-0.363,1.915-0.264c0.957,0.099,1.551,0.429,1.65,0.924c0,0.495-0.132,1.419-0.594,2.079
		c-0.231,0.066-0.231,0.066-0.528,0.066c-0.363,0-0.693-0.033-0.957-0.066c-0.231-0.066-0.33-0.066-0.429-0.066
		C27.061,113.246,26.335,113.477,25.708,114.104z"/>
	<path fill="#0564A2" d="M32.473,112.685c-0.066-0.198-0.066-0.297-0.066-0.429c0-0.099,0.033-0.264,0.099-0.429
		c0.726-0.66,2.806-1.584,5.116-1.65c0.528,0,0.627,0,1.155,0.033c2.641,0.165,3.499,1.815,3.499,4.687v1.452
		c0,1.221,0,2.508-0.033,3.729c0,0.759-0.033,2.245-0.033,2.838c0,0-0.099,1.485,0.924,1.287c-0.033,0.462-0.066,1.221-0.066,1.419
		c-0.297,0.429-1.023,0.891-2.046,0.924c-0.759,0-1.551-0.495-1.98-0.958c-0.165,0.132-0.528,0.363-0.726,0.495
		c-0.792,0.396-1.617,0.462-2.542,0.462c-2.244,0-4.39-1.386-4.39-4.456c0-3.993,3.697-5.148,5.776-5.379
		c0.297-0.033,0.66-0.033,0.957-0.033c0.297,0,0.528,0,0.726,0.033v-1.617c0-1.386-0.132-2.112-1.221-2.112
		c-1.056,0-2.343,0.462-3.3,0.825c-0.363,0.165-0.726,0.264-1.221,0.264c-0.462-0.495-0.594-1.056-0.66-1.419L32.473,112.685z
		 M38.842,121.101v-2.179h-0.33c-0.33,0-0.693,0.033-1.023,0.066h0.033c-1.419,0.264-2.641,0.891-2.641,2.838
		c0,1.518,0.594,2.079,1.419,2.145h0.198c0.858,0,1.848-0.429,2.244-0.957l-0.033,0.033c0,0.033,0.033-0.198,0.066-0.396
		C38.842,122.256,38.842,121.761,38.842,121.101z"/>
	<path fill="#0564A2" d="M49.171,132.554c-0.264,0.165-1.023,0.33-1.849,0.33c-0.396,0-0.858-0.066-1.32-0.165
		c-0.099-0.562-0.099-1.65-0.099-3.333V114.17c0-1.023-0.132-1.782-0.363-2.442c0.198-0.33,0.693-0.561,1.386-0.858
		c0.264-0.066,0.429-0.066,0.429-0.066c0.594,0,1.023,0.33,1.221,0.693c0.66-0.429,1.32-0.759,1.98-0.99
		c0.66-0.231,1.254-0.363,2.046-0.363c3.268,0,5.908,2.046,5.908,7.195c0,4.125-1.221,6.667-2.971,8.053
		c-1.188,0.99-2.475,1.254-3.597,1.254c-1.123,0-1.947-0.198-2.575-0.561v4.951c0,0.561,0,0.99-0.066,1.419L49.171,132.554z
		 M54.814,117.569c0-3.367-1.056-4.72-2.904-4.72c-0.957,0-1.881,0.561-2.542,1.122v9.274c0.462,0.495,1.287,0.891,2.08,0.891
		C52.834,124.137,54.814,122.817,54.814,117.569z"/>
	<path fill="#0564A2" d="M61.215,126.118c0.033-1.881,0.066-4.093,0.066-6.766v-12.443c0-1.353-0.033-2.31-0.066-3.036
		c0.429-0.858,1.485-1.023,3.135-1.023c0.264,0.495,0.363,0.957,0.363,2.311v6.271c0.528-0.363,1.089-0.627,1.584-0.858
		c0.594-0.231,1.353-0.396,2.244-0.396c3.433,0,4.39,1.815,4.39,6.271v4.786c0,1.782,0,3.333,0.033,4.521
		c-0.396,0.429-0.891,0.528-3.234,0.528c-0.198-0.528-0.297-1.056-0.297-1.65v-7.888c0-0.594,0-1.023-0.066-1.353
		c-0.099-1.947-0.792-2.476-1.782-2.476c-1.122,0-2.145,0.627-2.872,1.32v9.869c0,0.66-0.066,1.188-0.363,1.716
		c-0.594,0.462-0.99,0.462-2.838,0.462L61.215,126.118z"/>
	<path fill="#0564A2" d="M78.275,103.146c1.551,0,1.849,0.66,1.815,1.914s-0.429,2.112-2.013,2.112
		c-1.354,0-1.848-0.627-1.848-2.046C76.229,103.839,76.889,103.146,78.275,103.146z M79.596,110.605
		c0.264,0.528,0.297,0.99,0.297,2.376v11.056c0,0.759-0.132,1.288-0.462,1.815c-0.231,0.363-0.792,0.363-3.069,0.429v-2.707
		c0-0.957,0.033-1.98,0.033-3.037v-5.743c0-1.485-0.033-2.508-0.066-3.366c0.396-0.825,1.519-0.924,3.003-0.924L79.596,110.605z"/>
	<path fill="#0564A2" d="M93.588,111.628c0,0.429-0.198,1.221-0.528,1.782h-0.396c-0.33,0-0.693-0.099-1.089-0.231
		c-0.528-0.231-1.188-0.396-1.75-0.396c-0.099,0-0.198,0-0.363,0.033c-1.915,0.165-3.268,1.881-3.268,5.677
		c0,4.555,1.881,5.512,3.829,5.512c1.023,0,2.178-0.363,3.036-0.792c0.165,0.495,0.297,1.023,0.297,1.254
		c-0.033,0.495-0.396,1.056-0.858,1.419c-0.66,0.462-1.782,0.759-3.069,0.759c-3.664,0-6.832-1.353-6.832-7.987
		c0-3.466,1.155-5.644,2.476-6.865s3.036-1.617,4.687-1.617c2.079,0,3.664,0.99,3.829,1.419V111.628z"/>
	<path fill="#0564A2" d="M101.441,110.242c2.079,0.165,3.069,1.023,3.201,1.485c0,0.429-0.297,1.221-0.66,1.683
		c-0.132-0.033-0.495-0.099-0.66-0.132c-0.363-0.066-0.726-0.132-1.089-0.264c-0.495-0.198-0.99-0.297-1.485-0.297
		c-1.155,0-1.881,0.627-1.881,1.518c0,0.528,0.198,0.99,0.891,1.551c0.363,0.264,0.858,0.627,1.386,0.99
		c0.627,0.495,1.353,0.99,1.914,1.419c1.386,1.155,2.046,2.311,2.046,3.697c0,3.135-2.575,4.72-5.776,4.72
		c-2.146,0-3.994-0.66-4.39-1.584c0-0.495,0.264-1.254,0.66-1.782h0.33c0.297,0,0.627,0.099,0.99,0.297v-0.033
		c0.693,0.297,1.551,0.528,2.343,0.528c0.165,0,0.396-0.033,0.594-0.066c0.99-0.099,1.584-0.792,1.584-1.782
		c0-0.726-0.33-1.353-1.254-1.98c-0.132-0.099-0.462-0.33-0.396-0.264c-0.759-0.528-1.617-1.221-2.244-1.75l-0.825-0.66
		c-1.023-1.023-1.518-2.046-1.518-3.201c0-2.607,2.145-4.159,5.281-4.159C100.847,110.176,101.21,110.209,101.441,110.242z"/>
</g>
</svg>
