<?xml version="1.0" encoding="utf-8"?>
<!-- Generator: Adobe Illustrator 19.2.1, SVG Export Plug-In . SVG Version: 6.00 Build 0)  -->
<svg version="1.1" id="Layer_1" xmlns="http://www.w3.org/2000/svg" xmlns:xlink="http://www.w3.org/1999/xlink" x="0px" y="0px"
	 viewBox="0 0 76 94" style="enable-background:new 0 0 76 94;" xml:space="preserve">
<style type="text/css">
	.st0{fill:#FFFFFF;}
</style>
<path class="st0" d="M39.6,38.3L17,23.4c-6.5-4.7-8.7-8.6-6.5-11.6c0.8-1.1,2-1.7,3.6-1.8s3.1,0.4,4.5,1.4l2.2,1.6
	c0.3,0.2,1.2,0.9,2.6,1.9c1.4,1,2.8,2,4.1,3c1.4,1,20.5,14.3,21.9,15.3 M49.4,33.2l14.9,9.3c1.4,1,2.3,2.4,2.5,3.9
	c0.2,1.6-0.1,2.9-0.9,4.1c-0.8,1.1-2,1.9-3.5,2.2c-1.5,0.4-3,0.1-4.3-0.9l-16-11.6l-2.5-1.9"/>
<path class="st0" d="M46.7,65.7L26,83.3c-6.3,4.9-10.6,5.9-12.9,3c-0.8-1.1-1.1-2.4-0.7-3.9c0.4-1.6,1.2-2.9,2.5-3.9l2.1-1.6
	c0.3-0.3,1.2-0.9,2.6-2c1.4-1,2.7-2.1,4-3.1S43.1,56.1,44.4,55 M44.5,54.9l13.1-11.8c1.4-1.1,2.9-1.5,4.5-1.3s2.8,0.9,3.7,2
	c0.9,1.1,1.3,2.5,1.2,4c-0.1,1.6-0.8,2.9-2.1,3.9L49.2,63.9l-2.5,1.9"/>
</svg>
