<?xml version="1.0" encoding="utf-8"?>
<!-- Generator: Adobe Illustrator 18.0.0, SVG Export Plug-In . SVG Version: 6.00 Build 0)  -->
<!DOCTYPE svg PUBLIC "-//W3C//DTD SVG 1.1//EN" "http://www.w3.org/Graphics/SVG/1.1/DTD/svg11.dtd">
<svg version="1.1" id="Layer_1" xmlns="http://www.w3.org/2000/svg" xmlns:xlink="http://www.w3.org/1999/xlink" x="0px" y="0px"
	 viewBox="158 514 976 456" enable-background="new 158 514 976 456" xml:space="preserve">
<g>
	<g>
		<defs>
			<rect id="SVGID_1_" y="366.4" width="1300" height="767.2"/>
		</defs>
		<clipPath id="SVGID_2_">
			<use xlink:href="#SVGID_1_"  overflow="visible"/>
		</clipPath>
		<path clip-path="url(#SVGID_2_)" fill="#8C1D40" d="M1093.3,558.2c8.5,0,15.5,6.9,15.5,15.5s-6.9,15.5-15.5,15.5
			s-15.5-6.9-15.5-15.5S1084.8,558.2,1093.3,558.2z M1093.3,586.4c6.9,0,12.3-5.9,12.3-12.8c0-7.5-5.3-12.8-12.3-12.8
			s-12.3,5.9-12.3,12.8C1080.5,580.6,1085.8,586.4,1093.3,586.4z M1087.4,564.6h6.9c4.3,0,5.9,1.6,5.9,4.8c0,2.7-1.6,4.8-4.8,4.8
			l5.3,8h-3.2l-4.8-8h-2.7v8h-2.7V564.6z M1090.1,572h3.7c2.1,0,3.7-0.5,3.7-2.7c0-2.1-1.6-2.7-3.7-2.7h-3.7V572z"/>
	</g>
	<g>
		<defs>
			<rect id="SVGID_3_" y="366.4" width="1300" height="767.2"/>
		</defs>
		<clipPath id="SVGID_4_">
			<use xlink:href="#SVGID_3_"  overflow="visible"/>
		</clipPath>
		<path clip-path="url(#SVGID_4_)" fill="#8C1D40" d="M1075.7,918.4c-12.8-13.9-12.3-28.8-12.3-28.8v-61.3V558.2H937.2v265.3
			c-1.6,25-26.1,31.4-40,30.9c-19.7-0.5-30.9-11.7-30.9-30.4V558.2H743.8l0,0c-28.8,0-51.1,0-86.3,0c-67.1,0-130.5,10.1-151.8,66.1
			l-12.8-49.5c-3.2-9.6-13.9-16.5-24-16.5h-16.5l-164.6,0h-12.3h-26.6c-3.2,0-4.3,1.1-2.7,3.2c0,0,5.9,5.9,16.5,18.1
			c14.9,17,9.1,40,9.1,40l-79.9,320.2H309l17-70.3h113l17.6,70.3H577c11.7,0,24,0,34.1,0c63.4,0,114.5-6.4,140.1-45.8
			c19.2,35.7,59.7,52.7,131.6,46.4c25-2.1,49.5-13.9,60.2-32.5l4.8,15.5c4.3,9.6,12.8,16,25,16h57h9.6h51.1c3.2,0,4.3-1.1,2.7-3.2
			C1092.2,936.5,1085.8,929.5,1075.7,918.4z M343.6,800.6L382.5,644L422,800.6H343.6z"/>
	</g>
	<g>
		<defs>
			<rect id="SVGID_5_" y="366.4" width="1300" height="767.2"/>
		</defs>
		<clipPath id="SVGID_6_">
			<use xlink:href="#SVGID_5_"  overflow="visible"/>
		</clipPath>
		<g clip-path="url(#SVGID_6_)">
			<path fill="#FFC627" d="M500.8,650.9v-1.1c0.5-3.2,1.1-6.9,1.6-10.1v-0.5l-21.3-12.8c-1.1-0.5-2.7-0.5-3.2,0.5
				c-0.5,0.5-0.5,1.1-0.5,1.6c0,0.5,0.5,1.1,0.5,1.6L500.8,650.9z"/>
			<path fill="#FFC627" d="M457.7,657.8l42.6,27.7v-1.1c-0.5-4.3-0.5-9.1-0.5-13.3v-1.1l-39.4-16c-1.1-0.5-2.7,0-3.2,1.1
				c-0.5,0.5-0.5,1.1,0,1.6C456.6,656.8,457.1,657.3,457.7,657.8z"/>
			<path fill="#FFC627" d="M442.2,687.7l66.6,29.3l-0.5-1.1c-2.7-5.9-4.8-12.3-6.4-19.2v-0.5l-58.1-12.8c-1.1-0.5-2.7,0-2.7,1.1
				c0,0.5,0,1.1,0,1.6C441.7,687.1,441.7,687.7,442.2,687.7z"/>
			<path fill="#FFC627" d="M609,783c-36.8-12.8-77.8-26.6-98-62.9l0,0l-76.7-4.8c-1.1,0-2.7,0.5-2.7,1.6c0,0.5,0,1.1,0.5,1.6
				c0.5,0.5,1.1,1.1,1.6,1.1l76.7,19.7c0,0,0.5,0,0.5,0.5v0.5c0,0.5-0.5,0.5-1.1,0.5l-79.9,7.5c-1.1,0-2.1,1.1-2.1,2.1
				c0,0.5,0,1.1,0.5,1.6c0.5,0.5,1.1,0.5,1.6,0.5l79.4,7.5c0.5,0,0.5,0,1.1,0.5v0.5h-0.5l-77.3,19.7c-0.5,0-1.1,0.5-1.6,1.1
				c0.5,0.5,0.5,1.1,0.5,1.6c0,1.1,1.6,1.6,2.7,1.6l79.9-4.8c0.5,0,1.1,0,1.1,0.5v0.5c0,0,0,0-0.5,0.5l-72.5,31.4
				c-0.5,0-1.1,0.5-1.6,1.1c0,0.5,0,1.1,0,1.6c0.5,1.1,1.6,1.6,3.2,1.1l77.3-17.6c0.5,0,1.1,0,1.1,0.5v0.5c0,0,0,0.5-0.5,0.5
				l-64.5,42.1c-0.5,0.5-1.1,1.1-1.1,1.6c0,0.5,0,1.1,0,1.6c0.5,1.1,2.1,1.6,3.2,1.1l73-29.3c0.5,0,1.1,0,1.1,0v0.5c0,0,0,0,0,0.5
				l-55.4,51.7c-0.5,0.5-0.5,1.1-1.1,1.6c0,0.5,0,1.1,0.5,1.6c1.1,1.1,2.7,1.1,3.2,0.5l66.1-40c0.5-0.5,1.1-0.5,1.1,0
				c0.5,0.5,0.5,0.5,0.5,0.5v0.5l-44.8,59.7c-0.5,0.5-0.5,1.1-0.5,1.6c0,0.5,0.5,1.1,1.1,1.6c1.1,0.5,2.7,0.5,3.2,0l57.5-49.5
				c0-0.5,1.1-0.5,1.1,0c0.5,0,0.5,0.5,0.5,0.5v0.5l-32.5,65.5c-0.5,0.5-0.5,1.1,0,1.6c0,0.5,0.5,1.1,1.1,1.6c1.1,0.5,2.7,0,3.2-0.5
				l47.4-58.1c9.6,4.3,18.6,6.9,26.1,8c22.4,2.1,43.2-2.7,54.3-13.3c5.9-5.3,9.1-11.7,9.1-19.2C675,805.9,644.7,795.3,609,783z"/>
			<path fill="#FFC627" d="M761.9,870.9v0.5c-1.1,3.2-2.1,6.4-3.7,9.6v0.5l18.1,16c1.1,0.5,2.1,1.1,3.2,0c0.5-0.5,0.5-1.1,1.1-1.6
				c0-0.5,0-1.1-0.5-1.6L761.9,870.9z"/>
			<path fill="#FFC627" d="M767.7,835.8v1.1c-0.5,5.3-1.1,10.1-1.6,14.9v0.5l36.2,21.8c1.1,0.5,2.1,0.5,3.2-0.5
				c0.5-0.5,0.5-1.1,0.5-1.6s-0.5-1.1-0.5-1.6L767.7,835.8z"/>
			<path fill="#FFC627" d="M826.4,843.2l-59.1-38.4v1.1c0.5,5.3,1.1,10.7,1.1,16v3.2l55.4,22.4c1.1,0.5,2.7,0,3.2-1.1
				c0.5-0.5,0.5-1.1,0-1.6C826.9,844.3,826.9,843.8,826.4,843.2z"/>
			<path fill="#FFC627" d="M855.1,748.9c-0.5-0.5-1.1-0.5-1.6-0.5l-79.9-7.5c-0.5,0-0.5,0-0.5-0.5v-0.5c0,0,0,0,0.5,0l76.7-19.7
				c0.5,0,1.1-0.5,1.6-1.1c0.5-0.5,0.5-1.1,0.5-1.6c0-1.1-1.6-1.6-2.7-1.6l-79.9,4.8c-0.5,0-0.5,0-1.1-0.5v-0.5c0,0,0,0,0.5-0.5
				l71.9-31.4c0.5,0,1.1-0.5,1.1-1.1c0-0.5,0-1.1,0-1.6c-0.5-1.1-1.6-1.6-3.2-1.1l-77.3,17c-0.5,0-1.1,0-1.1,0v-0.5
				c0,0,0-0.5,0.5-0.5l65-42.1c0.5-0.5,1.1-1.1,1.1-1.6s0-1.1,0-1.6c-0.5-1.1-2.1-1.1-3.2-1.1l-73.5,29.3c-0.5,0-0.5,0-1.1,0v-0.5
				c0,0,0,0,0-0.5l55.9-51.7c0.5-0.5,0.5-1.1,0.5-1.6s0-1.1-0.5-1.6c-1.1-1.1-2.1-1.1-3.2-0.5l-66.6,40.5c-0.5,0-0.5,0.5-1.1,0
				c0,0,0,0,0-0.5v-0.5l44.8-59.7c0.5-0.5,0.5-1.1,0.5-1.6s-0.5-1.1-1.1-1.6c-1.1-0.5-2.7-0.5-3.2,0l-57.5,51.1c0,0.5-0.5,0.5-1.1,0
				c0,0-0.5,0-0.5-0.5V653l32.5-65.5c0.5-0.5,0.5-1.1,0-1.6c0-0.5-0.5-1.1-1.1-1.6c-1.1-0.5-2.7,0-3.2,0.5l-48,59.1l0,0
				c-13.3-6.4-35.7-10.1-45.8-10.1c0,0-0.5,0-1.1,0c-21.3-0.5-36.8,3.7-45.3,12.3c-4.8,4.8-7.5,11.2-7.5,18.6
				c0,10.1,5.9,18.6,18.1,26.6c11.2,6.9,26.6,12.8,43.2,19.2c21.3,8,45.8,17,65.5,30.9c22.9,16,36.2,35.2,41,59.1l0,0l73.5,16.5
				c1.1,0.5,2.1-0.5,2.7-1.6c0-0.5,0-1.1,0-1.6s-0.5-1.1-1.1-1.1L769.3,782c0,0-0.5,0-0.5-0.5v-0.5c0-0.5,0.5-0.5,1.1-0.5l79.9,4.8
				c1.1,0,2.1-0.5,2.7-1.6c0-0.5,0-1.1-0.5-1.6c-0.5-0.5-1.1-1.1-1.6-1.1l-76.7-19.7h-0.5v-0.5c0-0.5,0.5-0.5,1.1-0.5l79.4-7.5
				c0.5,0,1.1-0.5,1.6-0.5c0.5-0.5,0.5-1.1,0.5-1.6C855.7,750,855.7,749.5,855.1,748.9z"/>
		</g>
	</g>
</g>
</svg>
