<svg class="social behance" version="1.1" id="Layer_1" xmlns="http://www.w3.org/2000/svg" xmlns:xlink="http://www.w3.org/1999/xlink" x="0px" y="0px"
	 viewBox="0 0 170 170" enable-background="new 0 0 170 170" xml:space="preserve">
<g>
	<g>
		<path fill="#3F65AF" d="M160,84.5c0,41.4-33.6,75-75,75s-75-33.6-75-75c0-41.4,33.6-75,75-75S160,43.1,160,84.5z"/>
	</g>
	<g>
		<path fill="#447FC1" d="M155.3,84.5c0,38.8-31.5,70.3-70.3,70.3c-38.8,0-70.3-31.5-70.3-70.3c0-38.8,31.5-70.3,70.3-70.3
			C123.8,14.2,155.3,45.7,155.3,84.5z"/>
	</g>
	<path fill="#FFFFFF" d="M76.4,84.1c0,0,8.4-0.7,8.4-11c0-10.3-6.9-15.3-15.6-15.3H40.5v57.6h28.7c0,0,17.5,0.6,17.5-17
		C86.7,98.4,87.5,84.1,76.4,84.1 M53.1,68h16.1c0,0,3.9,0,3.9,6c0,6-2.3,6.9-4.9,6.9H53.1V68z M68.4,105.1H53.1V89.8h16.1
		c0,0,5.8-0.1,5.8,7.9C75,104.4,70.7,105.1,68.4,105.1 M110.1,72.5c-21.2,0-21.2,22.1-21.2,22.1s-1.5,22,21.2,22
		c0,0,18.9,1.1,18.9-15.3h-9.7c0,0,0.3,6.2-8.9,6.2c0,0-9.7,0.7-9.7-10h28.6C129.4,97.4,132.5,72.5,110.1,72.5 M118.8,89.8h-18.1
		c0,0,1.2-8.9,9.7-8.9C118.9,80.9,118.8,89.8,118.8,89.8 M121.1,61.2H98.3v7.1h22.8V61.2L121.1,61.2z"/>
</g>
</svg>
