<svg version="1.1" id="Layer_1" xmlns="http://www.w3.org/2000/svg" xmlns:xlink="http://www.w3.org/1999/xlink" x="0px" y="0px"
				 viewBox="0 0 170 170" enable-background="new 0 0 170 170" xml:space="preserve">
	<g>
		<g>
			<path fill="#2BA9E0" d="M161.4,85.1c0,41.4-33.6,75-75,75s-75-33.6-75-75c0-41.4,33.6-75,75-75S161.4,43.7,161.4,85.1z"/>
		</g>
		<path fill="#FFFFFF" d="M156.7,85.1c0,38.8-31.5,70.3-70.3,70.3c-38.8,0-70.3-31.5-70.3-70.3c0-38.8,31.5-70.3,70.3-70.3
			C125.2,14.8,156.7,46.3,156.7,85.1z"/>
		<g>
			<g>
				<polygon fill="#0F70B8" points="86.4,68.7 86.4,68.8 86.5,68.7 			"/>
				<g>
					<polygon fill="#2BA9E0" points="86.4,47.6 86.4,58.2 112.8,58.2 112.8,68.7 91.7,79.3 110.7,79.3 107.5,110.9 86.4,116.2 
						86.4,132 118,121.5 126,47.6 				"/>
				</g>
				<polygon fill="#0F70B8" points="65.3,110.9 63.7,95.1 75.9,95.1 77,103 86.4,105.6 86.4,89.8 63.2,89.8 62.4,82.3 62.3,80.8 
					86.4,68.8 86.4,68.7 61.1,68.7 60,58.2 86.4,58.2 86.4,47.6 46.9,47.6 54.8,121.5 86.4,132 86.4,116.2 			"/>
				<g>
					<polygon fill="#2BA9E0" points="97,103 98.3,89.8 86.4,89.8 86.4,105.6 86.4,105.6 				"/>
				</g>
			</g>
		</g>
	</g>
</svg>