<svg class="social github" version="1.1" id="Layer_1" xmlns="http://www.w3.org/2000/svg" xmlns:xlink="http://www.w3.org/1999/xlink" x="0px" y="0px"
	 viewBox="0 0 170 170" enable-background="new 0 0 170 170" xml:space="preserve">
<g>
	<path fill="#FFFFFF" d="M155.3,85c0,38.8-31.5,70.3-70.3,70.3c-38.8,0-70.3-31.5-70.3-70.3c0-38.8,31.5-70.3,70.3-70.3
		C123.8,14.7,155.3,46.2,155.3,85z"/>
</g>
<path fill-rule="evenodd" clip-rule="evenodd" fill="#4F4F4F" d="M84.4,10.8c-40,0-72.5,33.3-72.5,74.3c0,32.8,20.8,60.7,49.6,70.5
	c3.6,0.7,4.9-1.6,4.9-3.6c0-1.8-0.1-6.4-0.1-12.6c-20.2,4.5-24.4-10-24.4-10c-3.3-8.6-8-10.9-8-10.9c-6.6-4.6,0.5-4.5,0.5-4.5
	c7.3,0.5,11.1,7.7,11.1,7.7c6.5,11.4,17,8.1,21.1,6.2c0.7-4.8,2.5-8.1,4.6-9.9c-16.1-1.9-33-8.3-33-36.7c0-8.1,2.8-14.8,7.5-19.9
	c-0.7-1.9-3.2-9.4,0.7-19.7c0,0,6.1-2,19.9,7.6c5.8-1.6,12-2.5,18.2-2.5c6.2,0,12.4,0.9,18.2,2.5c13.8-9.6,19.9-7.6,19.9-7.6
	c4,10.2,1.5,17.8,0.7,19.7c4.6,5.2,7.5,11.8,7.5,19.9c0,28.6-17,34.8-33.1,36.7c2.6,2.3,4.9,6.8,4.9,13.8c0,9.9-0.1,18-0.1,20.4
	c0,2,1.3,4.3,5,3.6c28.8-9.8,49.5-37.7,49.5-70.5C156.9,44.1,124.5,10.8,84.4,10.8z"/>
<circle fill="none" stroke="#171617" stroke-width="5" stroke-miterlimit="10" cx="84.3" cy="84.6" r="73.2"/>
</svg>
