<svg version="1.1" id="Layer_1" xmlns="http://www.w3.org/2000/svg" xmlns:xlink="http://www.w3.org/1999/xlink" x="0px" y="0px"
				 viewBox="0 0 170 170" enable-background="new 0 0 170 170" xml:space="preserve">
	<g>
		<g>
			<path fill="#F37325" d="M161,85c0,41.4-33.6,75-75,75c-41.4,0-75-33.6-75-75s33.6-75,75-75C127.4,10,161,43.6,161,85z"/>
		</g>
		<g>
			<path fill="#1B120B" d="M156.3,85c0,38.8-31.5,70.3-70.3,70.3c-38.8,0-70.3-31.5-70.3-70.3c0-38.8,31.5-70.3,70.3-70.3
				C124.8,14.7,156.3,46.2,156.3,85z"/>
		</g>
		<g>
			<g>
				<path fill="#F37325" d="M85.2,100.5H63.4l-3.9,13.2c-0.7,0.1-1.4,0.2-2.1,0.2c-0.7,0.1-1.4,0.1-2.1,0.1c-0.7,0-1.5,0-2.2-0.1
					c-0.7-0.1-1.4-0.1-2-0.2l18.6-57.3c0.7-0.1,1.4-0.2,2.2-0.2c0.8-0.1,1.6-0.1,2.5-0.1c0.7,0,1.5,0,2.3,0.1
					c0.8,0.1,1.6,0.1,2.3,0.2l18.6,57.3c-0.6,0.1-1.4,0.2-2.2,0.2c-0.8,0.1-1.6,0.1-2.3,0.1c-0.7,0-1.4,0-2.1-0.1
					c-0.7-0.1-1.4-0.1-2-0.2L85.2,100.5z M65.6,93.4H83l-8.8-29.2L65.6,93.4z"/>
				<path fill="#F37325" d="M107.9,79.1h-5.2c-0.1-0.4-0.2-0.9-0.2-1.5c-0.1-0.6-0.1-1.1-0.1-1.6c0-0.5,0-1.1,0.1-1.6
					c0.1-0.6,0.1-1,0.2-1.5h12.9v40.9c-0.6,0.1-1.2,0.2-2,0.2c-0.7,0.1-1.4,0.1-2,0.1c-0.5,0-1.2,0-1.9-0.1c-0.7-0.1-1.4-0.1-1.9-0.2
					V79.1z M106.1,63.8c-0.1-0.6-0.2-1.3-0.2-2.1c0-0.7,0-1.4,0-2s0-1.2,0-2c0-0.7,0.1-1.4,0.2-2c0.7-0.1,1.4-0.2,2.2-0.2
					c0.8-0.1,1.5-0.1,2.1-0.1s1.3,0,2.1,0.1c0.8,0.1,1.5,0.1,2.2,0.2c0.1,0.6,0.2,1.2,0.2,2c0,0.7,0,1.4,0,2s0,1.2,0,2
					c0,0.7-0.1,1.4-0.2,2.1c-0.6,0.1-1.3,0.2-2.1,0.2c-0.8,0.1-1.4,0.1-2,0.1c-0.6,0-1.4,0-2.2-0.1C107.6,64,106.8,64,106.1,63.8z"/>
			</g>
		</g>
	</g>
</svg>