<svg version="1.1" id="Layer_1" xmlns="http://www.w3.org/2000/svg" xmlns:xlink="http://www.w3.org/1999/xlink" x="0px" y="0px"
				 viewBox="0 0 170 170" enable-background="new 0 0 170 170" xml:space="preserve">
	<g>
		<g>
			<path fill="#EE448E" d="M160,84.8c0,41.4-33.6,75-75,75s-75-33.6-75-75s33.6-75,75-75S160,43.3,160,84.8z"/>
		</g>
		<g>
			<path fill="#210C13" d="M155.3,84.8c0,38.8-31.5,70.3-70.3,70.3c-38.8,0-70.3-31.5-70.3-70.3c0-38.8,31.5-70.3,70.3-70.3
				C123.8,14.4,155.3,45.9,155.3,84.8z"/>
		</g>
		<g>
			<g>
				<path fill="#EE448E" d="M57.6,56.2c0.6-0.1,1.3-0.2,2-0.2c0.7-0.1,1.4-0.1,2.1-0.1c0.7,0,1.4,0,2.1,0.1c0.7,0.1,1.4,0.1,2,0.2
					v57.3c-0.6,0.1-1.3,0.2-1.9,0.2c-0.7,0.1-1.4,0.1-2.1,0.1c-0.7,0-1.4,0-2.1-0.1c-0.7-0.1-1.4-0.1-2-0.2V56.2z"/>
				<path fill="#EE448E" d="M105.3,55.1c0.6-0.1,1.2-0.2,2-0.2c0.7-0.1,1.4-0.1,1.9-0.1c0.6,0,1.2,0,1.9,0.1c0.7,0.1,1.4,0.1,1.9,0.2
					v57.3c-2,0.6-4.3,1.1-6.8,1.5c-2.5,0.4-5.3,0.6-8.4,0.6c-2.9,0-5.6-0.4-8.2-1.1c-2.6-0.7-4.8-1.9-6.7-3.6
					c-1.9-1.6-3.4-3.8-4.5-6.4c-1.1-2.6-1.7-5.8-1.7-9.6c0-3.3,0.5-6.3,1.5-9c1-2.7,2.4-5,4.2-7c1.8-1.9,4-3.4,6.5-4.5
					c2.5-1.1,5.3-1.6,8.4-1.6c1.4,0,2.8,0.1,4.2,0.3c1.4,0.2,2.6,0.5,3.7,0.8V55.1z M105.3,79.5c-1.1-0.4-2.2-0.7-3.4-1
					c-1.2-0.2-2.5-0.3-4-0.3c-2.2,0-4.1,0.4-5.7,1.2c-1.6,0.8-2.9,1.9-3.9,3.3c-1,1.4-1.8,3-2.3,4.9c-0.5,1.9-0.8,3.9-0.8,6.2
					c0.1,5,1.2,8.7,3.6,10.8c2.3,2.2,5.5,3.3,9.6,3.3c1.4,0,2.7-0.1,3.8-0.2c1.2-0.1,2.2-0.3,3.1-0.6V79.5z"/>
			</g>
		</g>
	</g>
</svg>