<svg version="1.1" id="Layer_1" xmlns="http://www.w3.org/2000/svg" xmlns:xlink="http://www.w3.org/1999/xlink" x="0px" y="0px"
				 viewBox="0 0 170 170" enable-background="new 0 0 170 170" xml:space="preserve">
	<g>
		<g>
			<path fill="#4BC8F2" d="M161,85c0,41.4-33.6,75-75,75c-41.4,0-75-33.6-75-75s33.6-75,75-75C127.4,10,161,43.6,161,85z"/>
		</g>
		<g>
			<path fill="#0D1425" d="M156.3,85c0,38.8-31.5,70.3-70.3,70.3c-38.8,0-70.3-31.5-70.3-70.3c0-38.8,31.5-70.3,70.3-70.3
				C124.8,14.7,156.3,46.2,156.3,85z"/>
		</g>
		<g>
			<g>
				<path fill="#56CAF0" d="M52.3,55.9c0.8-0.1,1.7-0.2,2.8-0.3c1.1-0.1,2.2-0.2,3.4-0.3s2.4-0.1,3.6-0.2c1.2-0.1,2.4-0.1,3.5-0.1
					c2.9,0,5.7,0.3,8.3,0.9c2.6,0.6,4.9,1.6,6.9,3c2,1.4,3.6,3.3,4.7,5.7c1.2,2.4,1.8,5.3,1.8,8.9c0,3.7-0.6,6.8-1.9,9.3
					c-1.2,2.5-2.9,4.4-4.9,5.9c-2.1,1.5-4.4,2.5-7,3.1c-2.6,0.6-5.3,0.9-8,0.9c-1,0-1.9,0-2.7,0c-0.8,0-1.6-0.1-2.5-0.2v20.7
					c-1.3,0.2-2.6,0.2-4.1,0.2c-0.6,0-1.3,0-2,0c-0.7,0-1.4-0.1-2-0.2V55.9z M60.5,85.5c0.9,0.1,1.6,0.2,2.2,0.2
					c0.6,0.1,1.6,0.1,2.8,0.1c1.6,0,3.3-0.2,4.9-0.5c1.6-0.3,3.1-1,4.3-1.9c1.3-0.9,2.3-2.1,3.1-3.7c0.8-1.6,1.2-3.6,1.2-6.1
					c0-2.2-0.3-4-1-5.5c-0.7-1.5-1.6-2.7-2.8-3.6C74,63.6,72.6,63,71,62.6c-1.6-0.4-3.4-0.6-5.3-0.6c-2,0-3.7,0.1-5.2,0.2V85.5z"/>
				<path fill="#56CAF0" d="M96.1,105.9c1.4,0.6,3,1.1,4.7,1.4c1.7,0.3,3.4,0.5,5.1,0.5c1.2,0,2.4-0.1,3.5-0.4
					c1.1-0.3,2.1-0.7,2.9-1.2c0.8-0.5,1.5-1.2,2-1.9c0.5-0.8,0.8-1.6,0.8-2.6c0-1.1-0.2-1.9-0.6-2.6c-0.4-0.7-0.9-1.3-1.6-1.8
					c-0.7-0.5-1.4-0.9-2.3-1.2c-0.9-0.3-1.8-0.7-2.8-1l-2.8-1c-3.4-1.3-5.9-2.7-7.4-4.3c-1.5-1.6-2.3-3.7-2.3-6.5
					c0-3.6,1.3-6.5,3.9-8.6c2.6-2.1,6.4-3.2,11.4-3.2c2.1,0,4.1,0.2,6.1,0.6c2,0.4,3.7,0.9,5.2,1.4c-0.1,1.1-0.3,2.1-0.6,3.2
					c-0.3,1.1-0.7,2-1.1,2.9c-1.2-0.4-2.6-0.8-4.2-1.2c-1.6-0.4-3.4-0.6-5.2-0.6c-2,0-3.7,0.3-5.2,1c-1.5,0.7-2.3,1.9-2.3,3.7
					c0,0.9,0.2,1.7,0.6,2.3c0.4,0.6,0.9,1.2,1.5,1.6c0.6,0.5,1.4,0.8,2.2,1.2c0.8,0.3,1.7,0.6,2.7,1l3.5,1.2c1.3,0.4,2.5,0.9,3.6,1.5
					c1.1,0.6,2.1,1.3,3,2.2c0.8,0.9,1.5,1.9,2,3.2c0.5,1.3,0.8,2.8,0.8,4.5c0,2-0.4,3.8-1.2,5.4c-0.8,1.6-1.9,3-3.4,4.1
					c-1.5,1.1-3.2,2-5.3,2.7c-2.1,0.6-4.4,1-6.9,1c-2.6,0-4.8-0.2-6.7-0.5c-1.9-0.3-3.7-0.8-5.3-1.4c0.1-1.1,0.3-2.1,0.7-3.2
					C95.3,108,95.7,106.9,96.1,105.9z"/>
			</g>
		</g>
	</g>
</svg>