<svg class="experience webcom" xmlns="http://www.w3.org/2000/svg" xmlns:xlink="http://www.w3.org/1999/xlink" version="1.1" id="Layer_1" x="0px" y="0px" viewBox="0 0 613 158" enable-background="new 0 0 613 158" xml:space="preserve">
	<path fill="#116bb7" d=" M 245.14 0.00 L 248.84 0.00 C 253.33 1.14 256.95 5.12 256.78 9.89 C 256.92 29.67 256.70 49.45 256.88 69.22 C 261.53 64.86 266.70 60.81 272.90 58.95 C 285.18 55.18 299.06 56.39 310.28 62.74 C 323.25 69.91 332.43 83.30 334.80 97.89 C 337.00 111.37 334.15 125.86 326.05 136.98 C 311.58 157.26 280.80 163.48 259.65 150.28 C 258.79 149.92 257.99 149.21 257.02 149.31 C 255.52 151.62 254.56 154.59 251.94 155.92 C 248.13 158.15 242.84 157.46 239.88 154.13 C 237.78 152.00 237.18 148.91 237.24 146.02 C 237.29 100.65 237.19 55.28 237.29 9.91 C 237.07 5.16 240.70 1.19 245.14 0.00 Z"/>
	<path fill="#116bb7" d=" M 0.00 65.11 C 0.61 60.66 4.34 56.81 8.96 56.82 C 13.25 56.52 17.08 59.64 18.32 63.63 C 25.27 82.55 31.99 101.56 39.06 120.44 C 46.12 101.61 52.82 82.63 59.76 63.75 C 60.85 60.52 63.43 57.65 66.90 57.03 C 71.46 55.96 76.30 58.86 77.73 63.26 C 84.73 82.28 91.57 101.37 98.54 120.41 C 105.97 101.33 112.51 81.89 119.76 62.74 C 121.63 57.30 128.86 55.07 133.54 58.33 C 137.39 60.72 138.62 65.87 136.94 69.96 C 127.40 96.34 117.73 122.69 108.23 149.09 C 107.14 152.26 105.40 155.67 101.98 156.79 C 97.23 158.75 91.42 156.00 89.86 151.13 C 82.72 132.03 76.04 112.76 68.83 93.69 C 61.72 112.71 54.97 131.87 47.93 150.92 C 46.45 155.75 40.86 158.68 36.07 156.91 C 32.66 155.93 30.69 152.70 29.63 149.53 C 19.84 122.21 9.70 95.01 0.00 67.66 L 0.00 65.11 Z"/>
	<path fill="#116bb7" d=" M 160.93 61.91 C 173.00 56.08 187.41 55.42 200.06 59.73 C 218.41 65.95 230.96 84.88 231.17 104.02 C 231.13 106.84 231.34 110.09 229.25 112.31 C 226.95 114.90 223.11 114.65 219.95 114.84 C 197.84 114.75 175.72 114.89 153.61 114.76 C 155.15 123.97 160.77 132.65 169.39 136.63 C 182.06 142.76 197.38 139.42 208.57 131.65 C 211.86 129.60 214.74 125.95 219.00 126.28 C 223.94 126.22 228.05 131.10 227.52 135.93 C 227.35 138.38 225.66 140.31 224.07 142.02 C 215.70 150.78 203.93 155.98 191.95 157.16 C 187.32 156.96 182.69 156.98 178.06 157.05 C 164.24 155.82 150.74 148.84 142.57 137.49 C 132.88 124.26 130.70 106.29 135.72 90.83 C 139.80 78.33 149.05 67.60 160.93 61.91 Z"/>
	<path fill="#fff" d=" M 162.92 81.94 C 172.02 73.74 186.24 72.65 197.12 77.77 C 205.08 81.52 209.62 89.89 211.05 98.29 C 191.99 98.44 172.93 98.40 153.88 98.31 C 155.40 92.20 158.13 86.18 162.92 81.94 Z"/>
	<path fill="#fff" d=" M 282.43 75.58 C 291.80 74.37 301.60 78.07 307.85 85.16 C 317.92 96.34 318.65 114.53 309.72 126.59 C 303.40 135.52 291.81 140.24 281.05 138.29 C 265.86 136.02 254.17 121.20 255.04 105.95 C 255.22 90.95 267.43 77.14 282.43 75.58 Z"/>
	<path fill="#116bb7" d=" M 595.27 93.31 C 598.33 88.81 605.35 88.13 609.45 91.57 C 611.23 93.04 612.14 95.23 613.00 97.31 L 613.00 101.80 C 611.93 107.25 606.49 111.36 600.92 109.93 C 593.63 108.68 591.16 98.83 595.27 93.31 Z"/>
	<path fill="#fff" d=" M 600.40 91.49 C 605.85 89.28 611.77 94.34 611.26 99.97 C 611.49 105.61 605.31 110.32 600.02 107.86 C 593.31 105.11 593.56 93.93 600.40 91.49 Z"/>
	<path fill="#116bb7" d=" M 599.33 93.31 C 602.04 93.54 605.85 92.49 607.48 95.37 C 608.55 97.37 606.80 99.22 606.07 100.96 C 606.63 102.73 607.51 104.38 608.21 106.10 C 605.05 105.73 603.86 102.56 601.95 100.49 C 601.82 102.17 601.74 103.85 601.65 105.53 C 601.06 105.54 599.89 105.58 599.30 105.59 C 599.22 101.50 599.21 97.40 599.33 93.31 Z"/>
	<path fill="#fff" d=" M 601.73 95.29 C 602.57 95.39 604.23 95.60 605.06 95.70 C 604.99 96.47 604.84 98.00 604.76 98.77 C 604.02 98.86 602.52 99.05 601.78 99.14 C 601.77 98.18 601.75 96.25 601.73 95.29 Z"/>
	<path fill="#116bb7" d=" M 382.63 108.57 C 392.12 95.43 412.72 92.65 425.47 102.56 C 427.26 104.04 429.33 105.64 429.84 108.05 C 430.48 111.16 427.05 114.14 424.07 113.01 C 420.67 111.13 417.98 108.05 414.22 106.77 C 407.31 104.33 398.92 105.45 393.45 110.54 C 385.36 118.27 384.65 132.04 390.83 141.13 C 396.07 148.85 407.07 151.11 415.38 147.41 C 418.57 146.01 420.95 143.34 423.99 141.69 C 427.68 140.12 431.51 144.95 429.25 148.22 C 424.96 154.10 417.70 156.96 410.71 158.00 L 403.36 158.00 C 397.49 156.96 391.68 154.83 387.14 150.88 C 374.90 140.80 373.01 121.05 382.63 108.57 Z"/>
	<path fill="#116bb7" d=" M 443.22 106.26 C 453.92 94.71 473.51 93.41 485.71 103.34 C 497.65 112.54 500.61 130.91 492.62 143.59 C 487.81 151.73 478.91 156.74 469.68 158.00 L 462.35 158.00 C 454.14 156.70 446.13 152.78 441.11 146.00 C 432.13 134.54 433.07 116.71 443.22 106.26 Z"/>
	<path fill="#116bb7" d=" M 506.00 97.82 C 508.45 95.61 512.91 96.93 513.68 100.16 C 514.16 102.77 514.03 105.45 514.14 108.11 C 516.07 105.15 518.08 102.11 521.06 100.11 C 527.28 95.75 536.11 95.58 542.61 99.42 C 546.03 101.39 547.83 105.05 550.23 108.04 C 552.86 105.08 555.23 101.72 558.79 99.77 C 566.60 95.22 577.51 95.58 584.44 101.63 C 589.32 105.96 591.13 112.69 591.16 119.01 C 591.26 129.34 591.14 139.68 591.22 150.02 C 591.15 152.44 591.31 155.58 588.80 156.87 C 585.84 158.83 581.33 156.53 581.41 152.93 C 581.03 141.32 581.61 129.69 581.17 118.08 C 581.04 113.48 578.82 108.42 574.20 106.81 C 568.32 104.82 560.94 105.90 556.82 110.85 C 553.69 114.47 552.75 119.40 552.70 124.07 C 552.60 133.40 552.80 142.74 552.60 152.07 C 552.64 154.05 551.87 156.23 549.94 157.08 C 546.98 158.76 542.70 156.47 542.85 152.96 C 542.50 142.32 542.77 131.66 542.70 121.01 C 542.67 116.59 542.13 111.54 538.54 108.50 C 534.26 105.16 528.08 105.26 523.23 107.22 C 517.45 109.60 514.44 115.93 514.22 121.91 C 513.87 132.27 514.39 142.65 514.02 153.02 C 514.16 155.18 512.34 156.55 511.06 158.00 L 507.97 158.00 C 506.06 157.00 503.99 155.53 504.20 153.09 C 503.97 137.07 504.24 121.04 504.08 105.01 C 504.20 102.57 503.74 99.48 506.00 97.82 Z"/>
	<path fill="#fff" d=" M 462.51 105.66 C 468.32 104.76 474.62 106.02 479.22 109.81 C 489.67 118.35 489.62 136.68 479.07 145.12 C 470.76 151.70 457.31 150.68 450.37 142.56 C 443.55 134.59 443.26 121.85 449.41 113.43 C 452.50 109.20 457.36 106.45 462.51 105.66 Z"/>
	<path fill="#e81c35" d=" M 348.46 127.68 C 355.33 125.84 363.09 129.55 365.95 136.06 C 369.03 142.51 366.79 150.93 360.83 154.90 C 357.21 157.74 352.31 157.33 348.01 156.93 C 341.45 155.39 336.72 148.66 337.05 141.99 C 337.09 135.37 342.05 129.24 348.46 127.68 Z"/>
</svg>