<?xml version="1.0" encoding="utf-8"?>
<!-- Generator: Adobe Illustrator 28.0.0, SVG Export Plug-In . SVG Version: 6.00 Build 0)  -->
<svg version="1.1" id="Layer_3" xmlns="http://www.w3.org/2000/svg" xmlns:xlink="http://www.w3.org/1999/xlink" x="0px" y="0px"
	 viewBox="0 0 255 33" style="enable-background:new 0 0 255 33;" xml:space="preserve">
<style type="text/css">
	.st0{fill:#FFFFFF;}
</style>
<g>
	<path class="st0" d="M15.2,1.3c0.9,0,1.7,0.1,2.5,0.3c0.8,0.2,1.5,0.5,2.2,0.9c0.2,0.1,0.4,0.2,0.6,0.3c0.2,0.1,0.4,0.1,0.5,0.1
		c0.3,0,0.5-0.2,0.6-0.6c0-0.1,0.1-0.1,0.2-0.2c0.1,0,0.2-0.1,0.3,0c0.1,0,0.2,0,0.3,0.1c0.1,0,0.1,0.1,0.1,0.2
		c-0.1,0.3-0.1,0.7-0.2,1c0,0.3,0,0.7,0,1c0,0.6,0,1.1,0.1,1.7c0.1,0.6,0.2,1.1,0.2,1.7c0,0.1,0,0.1-0.1,0.2
		c-0.1,0.1-0.2,0.1-0.3,0.1c-0.1,0-0.3,0-0.4,0c-0.1,0-0.2-0.1-0.2-0.2c-0.5-1.8-1.3-3.1-2.4-4C18.2,3,16.7,2.6,15,2.6
		c-1.3,0-2.4,0.3-3.3,0.8C10.9,4,10.2,4.7,9.7,5.6C9.2,6.5,8.9,7.5,8.7,8.5c-0.2,1.1-0.3,2.1-0.3,3.1c0,1.1,0.1,2.2,0.4,3.4
		c0.2,1.1,0.6,2.1,1.2,3c0.5,0.9,1.2,1.6,2.1,2.2s1.9,0.9,3.2,0.9c1,0,1.8-0.1,2.6-0.3c0.8-0.2,1.4-0.5,1.9-0.9
		c0.6-0.6,1.1-1.3,1.5-2.1c0.4-0.8,0.6-1.7,0.8-2.7c0-0.1,0.1-0.2,0.2-0.3c0.1,0,0.2,0,0.3,0c0.1,0,0.2,0.1,0.3,0.2
		C23,15,23,15.1,23,15.2c-0.1,0.4-0.1,0.8-0.1,1.2c0,0.4,0,0.8,0,1.2c0,0.7,0,1.4,0.1,2.1c0,0.7,0.1,1.5,0.1,2.2
		c0,0.1,0,0.2-0.1,0.3c-0.1,0.1-0.2,0.1-0.3,0.1c-0.1,0-0.2,0-0.3-0.1c-0.1,0-0.2-0.1-0.2-0.2c0-0.2-0.1-0.4-0.2-0.5
		s-0.2-0.3-0.4-0.4c-0.2-0.1-0.4-0.2-0.6-0.2c-0.2,0-0.4,0.1-0.7,0.2c-0.4,0.2-0.9,0.4-1.3,0.6c-0.4,0.2-0.8,0.3-1.2,0.4
		c-0.4,0.1-0.9,0.2-1.3,0.2c-0.5,0-1,0.1-1.5,0.1c-3.5,0-6.2-0.9-7.9-2.7c-1.7-1.8-2.6-4.3-2.6-7.6c0-1.8,0.3-3.3,0.8-4.7
		C5.9,6.1,6.6,5,7.6,4C8.5,3.1,9.6,2.4,11,2C12.3,1.5,13.7,1.3,15.2,1.3z"/>
	<path class="st0" d="M38.9,14.8c0,1.2-0.2,2.3-0.5,3.2c-0.3,0.9-0.8,1.7-1.5,2.4c-0.6,0.6-1.4,1.1-2.3,1.5
		c-0.9,0.3-1.9,0.5-2.9,0.5c-0.9,0-1.8-0.2-2.6-0.5c-0.8-0.3-1.5-0.8-2.1-1.4c-0.6-0.6-1-1.4-1.4-2.3c-0.3-0.9-0.5-2-0.5-3.3
		c0-1,0.2-2,0.5-2.8c0.3-0.9,0.8-1.6,1.4-2.2c0.6-0.6,1.3-1.1,2.2-1.4C30.1,8.1,31.1,8,32.1,8c1,0,1.9,0.1,2.7,0.5
		c0.8,0.3,1.5,0.7,2.1,1.3c0.6,0.6,1.1,1.3,1.4,2.1C38.7,12.7,38.9,13.7,38.9,14.8z M35.7,15.1c0-0.8-0.1-1.5-0.1-2.2
		c-0.1-0.7-0.3-1.4-0.5-1.9c-0.3-0.6-0.6-1-1.1-1.4c-0.5-0.3-1-0.5-1.8-0.5c-0.8,0-1.5,0.2-1.9,0.5c-0.5,0.3-0.9,0.8-1.2,1.4
		c-0.3,0.6-0.5,1.2-0.6,1.9c-0.1,0.7-0.2,1.5-0.2,2.2c0,0.7,0,1.4,0.1,2.1c0.1,0.7,0.3,1.4,0.6,2s0.7,1.1,1.2,1.4
		c0.5,0.4,1.1,0.6,1.9,0.6c0.8,0,1.4-0.2,1.9-0.5c0.5-0.4,0.9-0.8,1.1-1.4s0.4-1.2,0.5-2C35.7,16.6,35.7,15.8,35.7,15.1z"/>
	<path class="st0" d="M45.7,18.4c0,0.5,0,0.9,0,1.3c0,0.3,0.1,0.6,0.2,0.8c0.1,0.2,0.3,0.4,0.6,0.5s0.6,0.2,1.1,0.3
		c0.1,0,0.2,0.1,0.3,0.2c0.1,0.1,0.1,0.2,0.1,0.3c0,0.1,0,0.2-0.1,0.3c-0.1,0.1-0.2,0.1-0.3,0.1c-0.4,0-0.9,0-1.5-0.1
		C45.6,22,45,22,44.4,22c-0.6,0-1.3,0-1.9,0.1c-0.6,0.1-1.1,0.1-1.6,0.1c-0.1,0-0.2,0-0.2-0.1c-0.1-0.1-0.1-0.2-0.1-0.3
		c0-0.1,0-0.2,0.1-0.3s0.1-0.1,0.3-0.2c0.5-0.1,0.9-0.1,1.2-0.3s0.5-0.3,0.6-0.5s0.2-0.5,0.2-0.8c0-0.3,0-0.7,0-1.2v-4.4
		c0-0.9,0-1.7,0-2.2c0-0.6-0.1-1-0.2-1.3c-0.1-0.3-0.3-0.5-0.6-0.6c-0.3-0.1-0.6-0.2-1.1-0.2c-0.1,0-0.2,0-0.2-0.1
		c-0.1-0.1-0.1-0.2-0.1-0.3c0-0.1,0-0.2,0-0.3C40.8,9,40.8,9,41,9c0.3,0,0.8-0.1,1.5-0.2s1.4-0.3,2.1-0.5c0,0,0.1,0,0.2,0
		c0.1,0,0.2,0,0.2,0c0.2,0,0.4,0.1,0.5,0.2c0.1,0.2,0.2,0.4,0.2,0.6l-0.1,1.5c0,0.1,0,0.1,0.1,0c0.1-0.1,0.3-0.3,0.5-0.6
		c0.2-0.3,0.5-0.6,0.9-0.8c0.4-0.3,0.8-0.5,1.4-0.7C49.1,8.1,49.7,8,50.4,8c1.2,0,2.2,0.2,2.9,0.7c0.7,0.5,1.3,1.2,1.7,2.2
		c0.1-0.2,0.3-0.5,0.6-0.8c0.3-0.3,0.6-0.6,1.1-1c0.4-0.3,0.9-0.6,1.5-0.8C58.7,8.1,59.3,8,60,8c1,0,1.7,0.1,2.3,0.4
		c0.6,0.3,1.1,0.7,1.4,1.2c0.3,0.5,0.6,1.1,0.7,1.8c0.1,0.7,0.2,1.4,0.2,2.2v4.8c0,0.5,0,0.9,0,1.3c0,0.3,0.1,0.6,0.2,0.8
		c0.1,0.2,0.3,0.4,0.5,0.5s0.5,0.2,1,0.3c0.1,0,0.2,0.1,0.3,0.2c0.1,0.1,0.1,0.2,0.1,0.3c0,0.1,0,0.2-0.1,0.3
		c-0.1,0.1-0.2,0.1-0.3,0.1c-0.3,0-0.7,0-1.2-0.1C64.4,22,63.9,22,63.3,22c-0.6,0-1.3,0-1.8,0.1c-0.6,0.1-1.1,0.1-1.6,0.1
		c-0.1,0-0.2,0-0.2-0.1c-0.1-0.1-0.1-0.2-0.1-0.3c0-0.1,0-0.2,0.1-0.3s0.2-0.1,0.3-0.2c0.5-0.1,0.8-0.1,1.1-0.3
		c0.2-0.1,0.4-0.3,0.6-0.5c0.1-0.2,0.2-0.5,0.2-0.8c0-0.3,0-0.7,0-1.2v-3.9c0-0.5,0-1.1-0.1-1.7s-0.1-1.1-0.3-1.6s-0.4-0.9-0.8-1.2
		c-0.3-0.3-0.8-0.5-1.4-0.5c-0.6,0-1.1,0.1-1.6,0.4c-0.5,0.3-0.9,0.6-1.3,1c-0.4,0.4-0.6,0.8-0.9,1.3c-0.2,0.5-0.3,0.9-0.3,1.4v4.6
		c0,0.6,0,1,0,1.4c0,0.3,0.1,0.6,0.2,0.8c0.1,0.2,0.3,0.3,0.5,0.4s0.5,0.2,1,0.2c0.1,0,0.2,0.1,0.3,0.2s0.1,0.2,0.1,0.3
		c0,0.1,0,0.2-0.1,0.3c-0.1,0.1-0.1,0.1-0.3,0.1c-0.3,0-0.7,0-1.2-0.1C55,22,54.4,22,53.8,22c-0.6,0-1.3,0-1.8,0.1
		c-0.6,0.1-1.1,0.1-1.5,0.1c-0.1,0-0.2,0-0.2-0.1c-0.1-0.1-0.1-0.2-0.1-0.3c0-0.1,0-0.2,0.1-0.3c0.1-0.1,0.2-0.1,0.3-0.2
		c0.4-0.1,0.8-0.1,1-0.2c0.2-0.1,0.4-0.2,0.5-0.4c0.1-0.2,0.2-0.4,0.2-0.8c0-0.3,0-0.8,0-1.3v-3.9c0-0.5,0-1.1-0.1-1.7
		s-0.2-1.1-0.3-1.6c-0.2-0.5-0.5-0.9-0.8-1.2s-0.9-0.5-1.5-0.5c-0.7,0-1.3,0.1-1.8,0.4c-0.5,0.3-0.9,0.6-1.2,1
		c-0.3,0.4-0.5,0.8-0.7,1.3c-0.1,0.5-0.2,1-0.2,1.5V18.4z"/>
	<path class="st0" d="M70.3,14.8c0-1,0-1.8,0-2.4c0-0.6-0.1-1.2-0.2-1.5c-0.1-0.4-0.3-0.7-0.6-0.8s-0.7-0.3-1.2-0.3
		c-0.1,0-0.2,0-0.2-0.1c-0.1-0.1-0.1-0.2-0.1-0.3s0-0.2,0.1-0.3c0-0.1,0.1-0.1,0.2-0.1c0.4,0,1-0.1,1.7-0.2c0.7-0.1,1.4-0.2,2.1-0.4
		c0.3-0.1,0.5-0.1,0.6,0c0.2,0.1,0.2,0.2,0.3,0.5l0.1,1.6c0,0.1,0,0.1,0.1,0c0.4-0.6,0.9-1.2,1.7-1.7C75.5,8.2,76.4,8,77.4,8
		c0.9,0,1.7,0.2,2.4,0.6c0.7,0.4,1.2,0.9,1.7,1.5c0.5,0.6,0.8,1.4,1,2.2c0.2,0.8,0.3,1.7,0.3,2.6c0,1.1-0.1,2.1-0.5,3
		c-0.3,0.9-0.7,1.7-1.3,2.4c-0.6,0.7-1.2,1.2-2,1.6c-0.8,0.4-1.7,0.6-2.6,0.6c-0.6,0-1.2,0-1.6-0.1s-1-0.2-1.4-0.4
		c-0.1,0-0.2,0-0.2,0c0,0,0,0.1,0,0.3v4.6c0,0.5,0,0.9,0,1.3c0,0.3,0.1,0.6,0.3,0.8c0.2,0.2,0.4,0.4,0.8,0.5
		c0.3,0.1,0.8,0.2,1.5,0.3c0.1,0,0.2,0.1,0.3,0.2c0,0.1,0.1,0.2,0.1,0.3c0,0.1,0,0.2-0.1,0.3c-0.1,0.1-0.1,0.1-0.2,0.1
		c-0.9,0-1.6,0-2.2-0.1c-0.6-0.1-1.1-0.1-1.7-0.1c-0.6,0-1.2,0-1.8,0.1c-0.6,0.1-1.3,0.1-1.9,0.1c-0.1,0-0.2,0-0.2-0.1
		s-0.1-0.2-0.1-0.3c0-0.1,0-0.2,0.1-0.3c0.1-0.1,0.1-0.1,0.3-0.2c0.6-0.1,1-0.2,1.3-0.3c0.3-0.1,0.5-0.3,0.7-0.5
		c0.1-0.2,0.2-0.5,0.2-0.8c0-0.3,0-0.7,0-1.2V14.8z M73.1,18.7c0,0.2,0.1,0.4,0.2,0.6c0.1,0.3,0.3,0.5,0.6,0.8s0.6,0.5,1,0.7
		c0.4,0.2,0.8,0.3,1.3,0.3c0.6,0,1.1-0.2,1.6-0.5c0.4-0.3,0.8-0.8,1.1-1.3c0.3-0.6,0.5-1.2,0.6-1.9c0.1-0.7,0.2-1.5,0.2-2.3
		c0-1.7-0.2-3-0.7-3.8s-1.2-1.3-2.3-1.3c-0.5,0-1,0.1-1.4,0.3c-0.4,0.2-0.8,0.4-1.1,0.7c-0.3,0.3-0.6,0.6-0.7,1
		c-0.2,0.4-0.3,0.7-0.3,1.1V18.7z"/>
	<path class="st0" d="M95.7,18.8c0,0.7,0.1,1.2,0.2,1.5c0.1,0.3,0.4,0.4,0.8,0.4c0.2,0,0.4,0,0.5-0.1c0.1,0,0.3-0.2,0.6-0.3
		c0.1,0,0.1,0,0.2,0c0.1,0,0.1,0.1,0.2,0.2c0,0.1,0.1,0.2,0.1,0.2c0,0.1,0,0.2-0.1,0.2c-0.8,0.9-1.7,1.4-2.8,1.4
		c-0.6,0-1.1-0.2-1.5-0.5c-0.4-0.3-0.7-0.7-0.9-1.1c0-0.1-0.1-0.1-0.2,0c-0.5,0.5-1.1,0.8-1.8,1.1c-0.7,0.3-1.6,0.4-2.6,0.4
		c-1.1,0-2-0.3-2.6-0.9c-0.6-0.6-0.9-1.5-0.9-2.6c0-1.4,0.7-2.5,2-3.3c1.3-0.8,3.3-1.2,5.9-1.2c0,0,0.1,0,0.1-0.1c0-0.1,0-0.3,0-0.7
		v-0.8c0-0.5,0-1-0.1-1.4c-0.1-0.4-0.2-0.8-0.4-1.2c-0.2-0.3-0.5-0.6-0.8-0.8c-0.3-0.2-0.8-0.3-1.3-0.3c-0.7,0-1.3,0.1-1.8,0.4
		c-0.5,0.3-0.7,0.7-0.7,1.1c0,0.2,0.1,0.4,0.2,0.6c0.1,0.2,0.2,0.4,0.2,0.6c0,0.3-0.1,0.6-0.4,0.8c-0.3,0.3-0.6,0.4-1,0.4
		c-0.5,0-0.9-0.1-1.2-0.4c-0.2-0.3-0.3-0.6-0.3-1.1c0-0.5,0.1-1,0.4-1.4C86,9.7,86.4,9.3,86.9,9c0.5-0.3,1-0.6,1.7-0.8
		c0.6-0.2,1.3-0.3,2-0.3c1.6,0,2.9,0.4,3.8,1.1c0.9,0.7,1.4,2,1.4,3.7V18.8z M92.9,15.8c0-0.2,0-0.4,0-0.4c0,0-0.1-0.1-0.1-0.1
		c-1.6,0.1-2.9,0.5-3.6,1c-0.8,0.6-1.2,1.3-1.2,2.1c0,0.6,0.1,1.1,0.5,1.5c0.3,0.4,0.8,0.6,1.5,0.6c0.5,0,0.9-0.1,1.5-0.3
		c0.5-0.2,1-0.4,1.4-0.8c0.2-0.2,0.2-0.3,0.2-0.5V15.8z"/>
	<path class="st0" d="M104.3,18.4c0,0.5,0,0.9,0,1.3c0,0.3,0.1,0.6,0.2,0.8c0.1,0.2,0.2,0.4,0.5,0.5c0.2,0.1,0.5,0.2,0.9,0.3
		c0.1,0,0.2,0.1,0.3,0.2s0.1,0.2,0.1,0.3c0,0.1,0,0.2-0.1,0.3c-0.1,0.1-0.1,0.1-0.3,0.1c-0.2,0-0.6,0-1.1-0.1
		c-0.6-0.1-1.1-0.1-1.7-0.1c-0.6,0-1.3,0-1.9,0.1c-0.6,0.1-1.2,0.1-1.7,0.1c-0.1,0-0.2,0-0.2-0.1c-0.1-0.1-0.1-0.2-0.1-0.3
		c0-0.1,0-0.2,0.1-0.3s0.1-0.1,0.3-0.2c0.5-0.1,0.9-0.1,1.2-0.2c0.3-0.1,0.5-0.2,0.6-0.4c0.1-0.2,0.2-0.5,0.2-0.8c0-0.3,0-0.7,0-1.2
		v-3.8c0-1,0-1.8,0-2.4c0-0.6-0.1-1.2-0.2-1.5c-0.1-0.4-0.3-0.6-0.6-0.8s-0.6-0.2-1.1-0.2c-0.1,0-0.2,0-0.3-0.1
		c-0.1-0.1-0.1-0.2-0.1-0.3c0-0.1,0-0.2,0.1-0.3C99.3,9,99.4,9,99.6,9c0.4,0,0.9-0.1,1.7-0.2c0.7-0.1,1.5-0.3,2.2-0.5
		c0.3-0.1,0.5,0,0.6,0.2c0.1,0.2,0.2,0.4,0.2,0.6v1.2c0,0,0,0.1,0,0.1c0,0,0.1,0,0.1,0c0.1-0.2,0.3-0.5,0.6-0.7s0.6-0.5,0.9-0.8
		c0.3-0.2,0.7-0.4,1.2-0.6c0.4-0.2,0.9-0.2,1.5-0.2c1.5,0,2.7,0.4,3.5,1.2c0.9,0.8,1.3,2.2,1.3,4v5.1c0,0.5,0,1,0,1.3
		c0,0.3,0.1,0.6,0.2,0.8c0.1,0.2,0.3,0.4,0.5,0.5c0.2,0.1,0.6,0.2,1,0.3c0.1,0,0.2,0.1,0.3,0.2s0.1,0.2,0.1,0.3c0,0.1,0,0.2-0.1,0.3
		c-0.1,0.1-0.1,0.1-0.3,0.1c-0.3,0-0.7,0-1.3-0.1c-0.6-0.1-1.2-0.1-1.8-0.1c-0.6,0-1.2,0-1.8,0.1c-0.6,0.1-1.1,0.1-1.4,0.1
		c-0.1,0-0.2,0-0.2-0.1c-0.1-0.1-0.1-0.2-0.1-0.3c0-0.1,0-0.2,0.1-0.3s0.1-0.1,0.3-0.2c0.4-0.1,0.8-0.1,1-0.3
		c0.2-0.1,0.4-0.3,0.5-0.5s0.2-0.5,0.2-0.8c0-0.3,0-0.7,0-1.2V14c0-0.5,0-1-0.1-1.5s-0.1-0.9-0.3-1.4c-0.2-0.4-0.4-0.7-0.8-1
		c-0.3-0.3-0.8-0.4-1.4-0.4s-1.1,0.1-1.6,0.3c-0.5,0.2-0.8,0.4-1.1,0.8c-0.3,0.3-0.5,0.7-0.7,1.1c-0.2,0.4-0.2,0.9-0.2,1.4V18.4z"/>
	<path class="st0" d="M124.8,18.1c0.1,0.1,0.1,0.2,0.2,0.2c0.1,0,0.2-0.1,0.2-0.2c0.6-1.2,1.2-2.4,1.6-3.5c0.5-1.1,0.9-2.2,1.2-3.3
		c0.1-0.3,0.2-0.6,0.2-0.9c0-0.2-0.1-0.4-0.2-0.5c-0.1-0.1-0.2-0.2-0.4-0.3c-0.2-0.1-0.3-0.1-0.5-0.2c-0.2,0-0.4-0.1-0.5-0.1
		c-0.1,0-0.2-0.1-0.3-0.2s-0.1-0.2-0.1-0.3c0-0.1,0-0.2,0.1-0.3c0.1-0.1,0.1-0.1,0.2-0.1c0.4,0,0.8,0,1.2,0.1
		c0.4,0.1,0.8,0.1,1.2,0.1c0.5,0,0.9,0,1.4-0.1c0.5,0,0.9-0.1,1.1-0.1c0.1,0,0.2,0,0.2,0.1c0,0.1,0.1,0.2,0.1,0.3
		c0,0.1,0,0.2-0.1,0.3c-0.1,0.1-0.1,0.1-0.2,0.1c-0.3,0-0.5,0.1-0.8,0.2s-0.4,0.2-0.5,0.4c-0.1,0.2-0.3,0.4-0.4,0.7
		c-0.1,0.3-0.3,0.6-0.5,1c-0.6,1.3-1.2,2.6-1.8,4c-0.6,1.4-1.3,2.9-2,4.4c-0.6,1.4-1.3,2.8-2,4.1c-0.7,1.3-1.3,2.6-1.9,3.8
		c-0.2,0.3-0.4,0.6-0.6,1c-0.2,0.4-0.5,0.8-0.9,1.1c-0.3,0.3-0.7,0.6-1.1,0.9c-0.4,0.2-0.9,0.4-1.4,0.4c-0.5,0-0.9-0.1-1.3-0.4
		c-0.4-0.3-0.6-0.7-0.6-1.2c0-0.4,0.1-0.8,0.4-1.1c0.3-0.3,0.6-0.5,1-0.5c0.2,0,0.3,0,0.4,0.1c0.1,0.1,0.2,0.1,0.3,0.2
		c0.1,0.1,0.2,0.2,0.3,0.2c0.1,0.1,0.2,0.1,0.4,0.1c0.2,0,0.5-0.1,0.8-0.4c0.3-0.3,0.6-0.6,0.9-1.1c0.3-0.4,0.6-0.9,0.9-1.4
		c0.3-0.5,0.6-1,0.9-1.5c0.3-0.5,0.5-0.9,0.7-1.3c0.2-0.4,0.3-0.7,0.4-0.9c0.1-0.2,0.1-0.4,0.1-0.6c0-0.2,0-0.4-0.1-0.5
		c-0.6-1.3-1.4-2.8-2.1-4.4c-0.8-1.6-1.5-3.2-2.2-4.9c-0.2-0.5-0.4-0.9-0.5-1.2c-0.2-0.3-0.3-0.5-0.5-0.7c-0.2-0.2-0.4-0.3-0.6-0.4
		c-0.2-0.1-0.5-0.2-0.8-0.2c-0.1,0-0.2-0.1-0.2-0.2s-0.1-0.2-0.1-0.3c0-0.1,0-0.2,0.1-0.3c0.1-0.1,0.1-0.1,0.2-0.1
		c0.6,0,1.2,0,1.8,0.1c0.6,0.1,1.1,0.1,1.7,0.1c0.6,0,1.1,0,1.7-0.1c0.6,0,1.1-0.1,1.7-0.1c0.1,0,0.2,0,0.2,0.1
		c0,0.1,0.1,0.2,0.1,0.3c0,0.1,0,0.2-0.1,0.3c-0.1,0.1-0.1,0.1-0.2,0.2c-0.6,0.1-1.1,0.2-1.4,0.4c-0.3,0.2-0.4,0.4-0.4,0.7
		c0,0.4,0.1,0.8,0.3,1.3c0.4,1.1,0.9,2.2,1.4,3.4S124.3,17.1,124.8,18.1z"/>
	<path class="st0" d="M143.1,6.8c0-0.9,0-1.5-0.1-2.1c0-0.5-0.1-0.9-0.3-1.2c-0.2-0.3-0.4-0.5-0.7-0.6s-0.8-0.2-1.4-0.2
		c-0.1,0-0.2,0-0.2-0.1c-0.1-0.1-0.1-0.2-0.1-0.3c0-0.1,0-0.2,0.1-0.3c0-0.1,0.1-0.1,0.3-0.1c0.6,0,1.3-0.1,2.2-0.2
		c0.8-0.1,1.6-0.2,2.4-0.4c0.3-0.1,0.5-0.1,0.6,0s0.1,0.2,0.2,0.3v16.8c0,0.5,0,0.9,0,1.3c0,0.3,0.1,0.6,0.2,0.8
		c0.1,0.2,0.3,0.4,0.6,0.5s0.7,0.2,1.2,0.3c0.1,0,0.2,0.1,0.3,0.2c0.1,0.1,0.1,0.2,0.1,0.3c0,0.1,0,0.2-0.1,0.3
		c-0.1,0.1-0.2,0.1-0.3,0.1c-0.5,0-1,0-1.6-0.1c-0.6-0.1-1.2-0.1-1.8-0.1c-0.6,0-1.3,0-1.9,0.1c-0.6,0.1-1.3,0.1-1.9,0.1
		c-0.1,0-0.2,0-0.2-0.1c-0.1-0.1-0.1-0.2-0.1-0.3c0-0.1,0-0.2,0.1-0.3c0.1-0.1,0.2-0.1,0.3-0.2c0.6-0.1,1-0.1,1.3-0.3
		c0.3-0.1,0.5-0.3,0.7-0.5c0.1-0.2,0.2-0.5,0.2-0.8c0-0.3,0-0.7,0-1.2V6.8z"/>
	<path class="st0" d="M164,14.8c0,1.2-0.2,2.3-0.5,3.2c-0.3,0.9-0.8,1.7-1.5,2.4c-0.6,0.6-1.4,1.1-2.3,1.5c-0.9,0.3-1.9,0.5-2.9,0.5
		c-0.9,0-1.8-0.2-2.6-0.5c-0.8-0.3-1.5-0.8-2.1-1.4c-0.6-0.6-1-1.4-1.4-2.3c-0.3-0.9-0.5-2-0.5-3.3c0-1,0.2-2,0.5-2.8
		c0.3-0.9,0.8-1.6,1.4-2.2c0.6-0.6,1.3-1.1,2.2-1.4c0.9-0.3,1.8-0.5,2.8-0.5c1,0,1.9,0.1,2.7,0.5c0.8,0.3,1.5,0.7,2.1,1.3
		c0.6,0.6,1.1,1.3,1.4,2.1C163.8,12.7,164,13.7,164,14.8z M160.8,15.1c0-0.8-0.1-1.5-0.2-2.2c-0.1-0.7-0.3-1.4-0.5-1.9
		s-0.6-1-1.1-1.4c-0.5-0.3-1-0.5-1.8-0.5c-0.8,0-1.5,0.2-2,0.5c-0.5,0.3-0.9,0.8-1.2,1.4c-0.3,0.6-0.5,1.2-0.6,1.9
		c-0.1,0.7-0.2,1.5-0.2,2.2c0,0.7,0,1.4,0.2,2.1c0.1,0.7,0.3,1.4,0.6,2s0.7,1.1,1.2,1.4s1.1,0.6,1.9,0.6c0.8,0,1.4-0.2,1.9-0.5
		c0.5-0.4,0.9-0.8,1.1-1.4c0.3-0.6,0.5-1.2,0.5-2C160.8,16.6,160.8,15.8,160.8,15.1z"/>
	<path class="st0" d="M177.7,10.4c0.3,0.4,0.5,0.9,0.6,1.3c0.1,0.5,0.2,0.9,0.2,1.4c0,0.9-0.2,1.7-0.5,2.3c-0.3,0.7-0.8,1.2-1.3,1.7
		c-0.6,0.5-1.2,0.8-2,1s-1.5,0.4-2.4,0.4c-0.2,0-0.6,0-0.9,0c-0.4,0-0.8,0.1-1.1,0.1c-0.4,0.1-0.7,0.2-0.9,0.3
		c-0.3,0.1-0.4,0.3-0.4,0.6c0,0.2,0.1,0.3,0.3,0.5c0.2,0.1,0.4,0.2,0.7,0.3s0.6,0.1,0.9,0.1c0.3,0,0.5,0,0.7,0
		c1.4,0.1,2.7,0.2,3.9,0.4c1.1,0.1,2.1,0.4,2.9,0.7c0.8,0.3,1.4,0.8,1.8,1.4s0.6,1.4,0.6,2.4c0,0.9-0.2,1.7-0.5,2.4
		c-0.3,0.7-0.9,1.4-1.5,1.9c-0.7,0.5-1.5,1-2.5,1.3c-1,0.3-2.1,0.5-3.4,0.5c-1.1,0-2.1-0.1-3-0.3c-0.9-0.2-1.7-0.5-2.3-0.9
		c-0.7-0.4-1.2-0.9-1.5-1.5c-0.4-0.6-0.5-1.4-0.5-2.2c0-0.5,0.1-1,0.2-1.4c0.1-0.4,0.3-0.8,0.6-1.1s0.5-0.6,0.8-0.9s0.6-0.5,0.9-0.6
		c-0.5-0.2-0.9-0.4-1.3-0.7c-0.4-0.3-0.6-0.8-0.6-1.4c0-0.5,0.1-0.8,0.3-1.2c0.2-0.3,0.5-0.6,0.8-0.8c0.3-0.2,0.7-0.3,1.2-0.4
		c0.4-0.1,0.9-0.1,1.3-0.2c0,0,0,0,0,0c0,0,0,0,0,0c-1-0.4-1.8-1-2.4-1.7c-0.6-0.7-0.9-1.7-0.9-2.9c0-0.8,0.1-1.6,0.4-2.2
		c0.3-0.7,0.7-1.2,1.3-1.7c0.5-0.5,1.2-0.8,2-1.1c0.8-0.3,1.6-0.4,2.6-0.4c1.1,0,1.9,0.1,2.5,0.5c0.6,0.3,1.2,0.7,1.7,1.2
		c0.4-0.4,0.8-0.7,1.3-1c0.5-0.3,1.1-0.4,1.7-0.4c0.2,0,0.5,0,0.7,0.1c0.3,0,0.5,0.1,0.8,0.2c0.2,0.1,0.4,0.3,0.6,0.4
		c0.2,0.2,0.2,0.4,0.2,0.7c0,0.3-0.1,0.6-0.3,0.9c-0.2,0.3-0.5,0.4-1,0.4c-0.4,0-0.6-0.1-0.8-0.2c-0.1-0.2-0.2-0.3-0.3-0.5
		c-0.1-0.2-0.1-0.4-0.2-0.5c-0.1-0.2-0.3-0.2-0.6-0.2c-0.3,0-0.6,0.1-1,0.2C178.1,9.9,177.8,10.1,177.7,10.4z M169.5,22.9
		c-0.3,0.3-0.6,0.7-0.8,1.2c-0.2,0.5-0.3,1-0.3,1.6c0,0.7,0.2,1.4,0.5,1.9c0.3,0.6,0.7,1,1.2,1.4c0.5,0.4,1.1,0.6,1.7,0.8
		c0.6,0.2,1.3,0.3,2,0.3c0.6,0,1.2-0.1,1.7-0.3c0.5-0.2,1-0.5,1.4-0.8c0.4-0.3,0.7-0.7,1-1.2c0.2-0.5,0.4-1,0.4-1.5
		c0-0.7-0.2-1.2-0.7-1.7s-1.1-0.8-1.8-1s-1.7-0.4-2.8-0.5C171.9,23.1,170.8,23,169.5,22.9z M172.4,17.5c1,0,1.8-0.3,2.2-1
		c0.5-0.7,0.7-1.7,0.7-3c0-0.7,0-1.3-0.1-1.8s-0.2-1-0.4-1.4c-0.2-0.4-0.5-0.7-0.8-0.9s-0.8-0.3-1.3-0.3c-0.6,0-1.2,0.1-1.5,0.4
		c-0.4,0.3-0.7,0.6-0.9,1c-0.2,0.4-0.4,0.9-0.5,1.4c-0.1,0.5-0.1,1-0.1,1.5c0,1.3,0.2,2.3,0.7,3C170.9,17.1,171.5,17.5,172.4,17.5z"
		/>
	<path class="st0" d="M197.3,14.8c0,1.2-0.2,2.3-0.5,3.2c-0.3,0.9-0.8,1.7-1.5,2.4c-0.6,0.6-1.4,1.1-2.3,1.5
		c-0.9,0.3-1.9,0.5-2.9,0.5c-0.9,0-1.8-0.2-2.6-0.5c-0.8-0.3-1.5-0.8-2.1-1.4c-0.6-0.6-1-1.4-1.4-2.3c-0.3-0.9-0.5-2-0.5-3.3
		c0-1,0.2-2,0.5-2.8c0.3-0.9,0.8-1.6,1.4-2.2c0.6-0.6,1.3-1.1,2.2-1.4c0.9-0.3,1.8-0.5,2.8-0.5c1,0,1.9,0.1,2.7,0.5
		c0.8,0.3,1.5,0.7,2.1,1.3c0.6,0.6,1.1,1.3,1.4,2.1C197.1,12.7,197.3,13.7,197.3,14.8z M194.1,15.1c0-0.8-0.1-1.5-0.2-2.2
		c-0.1-0.7-0.3-1.4-0.5-1.9s-0.6-1-1.1-1.4c-0.5-0.3-1-0.5-1.8-0.5c-0.8,0-1.5,0.2-2,0.5c-0.5,0.3-0.9,0.8-1.2,1.4
		c-0.3,0.6-0.5,1.2-0.6,1.9c-0.1,0.7-0.2,1.5-0.2,2.2c0,0.7,0,1.4,0.2,2.1c0.1,0.7,0.3,1.4,0.6,2s0.7,1.1,1.2,1.4s1.1,0.6,1.9,0.6
		c0.8,0,1.4-0.2,1.9-0.5c0.5-0.4,0.9-0.8,1.1-1.4c0.3-0.6,0.5-1.2,0.5-2C194.1,16.6,194.1,15.8,194.1,15.1z"/>
</g>
</svg>
