<?xml version="1.0" encoding="utf-8"?>
<!-- Generator: Adobe Illustrator 27.7.0, SVG Export Plug-In . SVG Version: 6.00 Build 0)  -->
<svg version="1.1" id="Layer_1" xmlns="http://www.w3.org/2000/svg" xmlns:xlink="http://www.w3.org/1999/xlink" x="0px" y="0px"
	 viewBox="0 0 661 54" style="enable-background:new 0 0 661 54;" xml:space="preserve">
<style type="text/css">
	.st0{fill:#FC0C18;}
</style>
<g>
	<path class="st0" d="M213.5,31.9h7.2l-0.4-17.6L213.5,31.9z M157,14c-0.7-0.1-1.5-0.2-2.4-0.2h-2.9l-1.9,10.7h2.9
		c2,0,3.5-0.4,4.5-1.1c1.2-0.9,2-2.4,2.3-4.4c0.3-1.9,0.1-3.2-0.6-4C158.4,14.5,157.8,14.2,157,14z M5.5,4.6v45h651v-45H5.5z
		 M33.9,14.1h-10L22,24.5h9.4l-0.7,3.8h-9.4l-1.9,11H30l-0.7,3.8H14.2l5.8-33h14.6L33.9,14.1z M64.2,43.2h-6.7l-3.6-22.9
		c0-0.4-0.2-1.6-0.4-3.7c-0.1-1.2-0.2-2.2-0.3-2.9L53,14.8l-0.2,0.9l-0.2,1.4l-0.4,2.1l-4.2,24h-4.1l5.8-33h7.1l3.1,19.6
		c0.6,4.6,1,7.8,1.2,9.7c0.1-0.7,0.2-1.7,0.3-3.1c0.3-2,0.4-3.1,0.5-3.4l4-22.8H70L64.2,43.2z M103,14.1h-7.7l-5.1,29.1h-4.5
		l5.1-29.1h-7.6l0.7-3.9h19.9L103,14.1z M131.7,14.1h-10l-1.8,10.4h9.4l-0.7,3.8h-9.4l-1.9,11h10.6l-0.7,3.8H112l5.8-33h14.6
		L131.7,14.1z M164.1,18.7c-0.5,2.7-1.5,4.7-3.2,5.9c-0.9,0.7-2.2,1.2-3.8,1.6c1,0.3,1.8,0.5,2.3,0.8c1.1,0.6,1.6,1.9,1.6,3.8
		c0,1.3-0.2,3.5-0.6,6.5c-0.2,2-0.3,3.5-0.1,4.4c0.1,0.5,0.2,0.9,0.3,1.4h-5.1c-0.1-0.6-0.2-1.2-0.2-1.9c0-0.4,0.2-1.9,0.4-4.4
		c0.3-3.3,0.4-5.5,0.4-6.4c-0.1-0.8-0.5-1.4-1.1-1.7c-0.5-0.3-1.1-0.5-1.7-0.6c-0.5-0.1-1.2-0.1-2-0.1h-2.2l-2.6,15H142l5.8-33h8.3
		c2.2,0,3.9,0.2,4.9,0.5C163.8,11.7,164.9,14.4,164.1,18.7z M199.1,14.1h-7.7l-5.1,29.1h-4.5l5.1-29.1h-7.6l0.7-3.9h19.9L199.1,14.1
		z M221.2,43.2l-0.2-7.5h-8.8l-2.9,7.5h-4.4l13.4-33h6l1.8,33H221.2z M245.1,43.2h-4.5l5.8-33h4.5L245.1,43.2z M280.6,43.2h-6.7
		l-3.6-22.9c0-0.4-0.2-1.6-0.4-3.7c-0.1-1.2-0.2-2.2-0.3-2.9l-0.2,1.1l-0.2,0.9l-0.2,1.4l-0.4,2.1l-4.2,24h-4.1l5.8-33h7.1l3.1,19.6
		c0.6,4.6,1,7.8,1.2,9.7c0.1-0.7,0.2-1.7,0.3-3.1c0.3-2,0.4-3.1,0.5-3.4l4-22.8h4.1L280.6,43.2z M322.5,43.2h-3.9l5-28.3l-12,28.3
		h-4.5l-2-28.3l-5,28.3h-3.9l5.8-33h7.5l1.6,25.3l9.7-25.3h7.5L322.5,43.2z M357.9,14.1h-10l-1.8,10.4h9.4l-0.7,3.8h-9.4l-1.9,11
		H354l-0.7,3.8h-15.2l5.8-33h14.6L357.9,14.1z M388.2,43.2h-6.7l-3.6-22.9c0-0.4-0.2-1.6-0.4-3.7c-0.1-1.2-0.2-2.2-0.3-2.9l-0.2,1.1
		l-0.2,0.9l-0.2,1.4l-0.4,2.1l-4.2,24h-4.1l5.8-33h7.1l3.1,19.6c0.6,4.6,1,7.8,1.2,9.7c0.1-0.7,0.2-1.7,0.3-3.1
		c0.3-2,0.4-3.1,0.5-3.4l4-22.8h4.1L388.2,43.2z M427,14.1h-7.7l-5.1,29.1h-4.5l5.1-29.1h-7.6l0.7-3.9h19.9L427,14.1z M478.6,18.7
		c0,0.1-0.1,0.5-0.2,1h-4.6c0.1-0.5,0.1-0.8,0.2-0.9c0.2-1.1,0.2-1.9,0.2-2.4c-0.3-2-1.5-3-3.8-3c-1.5,0-2.7,0.5-3.6,1.4
		c-0.8,0.8-1.3,1.8-1.5,3.1c-0.2,1.2-0.1,2.1,0.3,2.9c0.5,1.1,1.4,2,2.8,2.8l2.7,1.6c2.4,1.5,4,3,4.7,4.5c0.6,1.3,0.7,3,0.3,5.1
		c-0.5,3-1.9,5.3-4,6.9c-1.9,1.4-4.2,2-7.1,2c-3.3,0-5.7-0.8-7-2.4c-1.3-1.5-1.6-3.9-1.1-7.1c0.1-0.3,0.2-0.9,0.4-1.9h4.6
		c-0.1,0.6-0.2,1.1-0.3,1.3c-0.3,1.8-0.3,3.2,0,4.2c0.5,1.5,1.8,2.2,3.9,2.2c1.9,0,3.3-0.6,4.3-1.7c0.8-0.9,1.4-2,1.6-3.4
		c0.3-1.6,0-2.9-0.9-4c-0.7-0.8-1.9-1.8-3.8-2.9c-1.9-1.1-3.4-2.2-4.4-3.2c-1.6-1.6-2.2-3.8-1.6-6.8c0.5-2.8,1.7-4.9,3.6-6.4
		c1.8-1.4,4.1-2,6.8-2c3.1,0,5.3,0.8,6.6,2.4C478.8,13.5,479.1,15.7,478.6,18.7z M501.8,29.5l-2.4,13.7h-4.5l2.4-13.7l-4.1-19.3h5.2
		l2.3,14.5l7.6-14.5h4.5L501.8,29.5z M542.8,18.7c0,0.1-0.1,0.5-0.2,1H538c0.1-0.5,0.1-0.8,0.2-0.9c0.2-1.1,0.2-1.9,0.2-2.4
		c-0.3-2-1.5-3-3.8-3c-1.5,0-2.7,0.5-3.6,1.4c-0.8,0.8-1.3,1.8-1.5,3.1c-0.2,1.2-0.1,2.1,0.3,2.9c0.5,1.1,1.4,2,2.8,2.8l2.7,1.6
		c2.4,1.5,4,3,4.7,4.5c0.6,1.3,0.7,3,0.3,5.1c-0.5,3-1.9,5.3-4,6.9c-1.9,1.4-4.2,2-7.1,2c-3.3,0-5.7-0.8-7-2.4
		c-1.3-1.5-1.6-3.9-1.1-7.1c0.1-0.3,0.2-0.9,0.4-1.9h4.6c-0.1,0.6-0.2,1.1-0.3,1.3c-0.3,1.8-0.3,3.2,0,4.2c0.5,1.5,1.8,2.2,3.9,2.2
		c1.9,0,3.3-0.6,4.3-1.7c0.8-0.9,1.4-2,1.6-3.4c0.3-1.6,0-2.9-0.9-4c-0.7-0.8-1.9-1.8-3.8-2.9c-1.9-1.1-3.4-2.2-4.4-3.2
		c-1.6-1.6-2.2-3.8-1.6-6.8c0.5-2.8,1.7-4.9,3.6-6.4c1.8-1.4,4.1-2,6.8-2c3.1,0,5.3,0.8,6.6,2.4C543,13.5,543.4,15.7,542.8,18.7z
		 M577.3,14.1h-7.7l-5.1,29.1H560l5.1-29.1h-7.6l0.7-3.9H578L577.3,14.1z M606.1,14.1h-10l-1.8,10.4h9.4l-0.7,3.8h-9.4l-1.9,11h10.6
		l-0.7,3.8h-15.2l5.8-33h14.6L606.1,14.1z M643,43.2h-3.9l5-28.3l-12,28.3h-4.5l-2-28.3l-5,28.3h-3.9l5.8-33h7.5l1.6,25.3l9.7-25.3
		h7.5L643,43.2z"/>
</g>
</svg>
