<?xml version="1.0" encoding="utf-8"?>
<!-- Generator: Adobe Illustrator 27.7.0, SVG Export Plug-In . SVG Version: 6.00 Build 0)  -->
<svg version="1.1"
	 id="svg4173" xmlns:sodipodi="http://sodipodi.sourceforge.net/DTD/sodipodi-0.dtd" xmlns:inkscape="http://www.inkscape.org/namespaces/inkscape" xmlns:cc="http://creativecommons.org/ns#" xmlns:dc="http://purl.org/dc/elements/1.1/" xmlns:rdf="http://www.w3.org/1999/02/22-rdf-syntax-ns#" xmlns:svg="http://www.w3.org/2000/svg" inkscape:version="0.48.5 r10040" sodipodi:docname="A.svg"
	 xmlns="http://www.w3.org/2000/svg" xmlns:xlink="http://www.w3.org/1999/xlink" x="0px" y="0px" viewBox="0 0 322 89.9"
	 style="enable-background:new 0 0 322 89.9;" xml:space="preserve">
<style type="text/css">
	.st0{display:none;fill:#1D1D1B;}
	.st1{display:none;fill:#9C9B9B;}
	.st2{display:none;fill:#C80C0F;}
	.st3{fill:#A6C613;}
	.st4{fill:#E30521;}
	.st5{fill:#00A6E6;}
	.st6{fill:#1D1D1B;}
	.st7{fill:#F6A500;}
	.st8{fill:#E73088;}
	.st9{fill:#009881;}
</style>
<sodipodi:namedview  bordercolor="#666666" borderopacity="1.0" fit-margin-bottom="0.5" fit-margin-left="0.5" fit-margin-right="0.5" fit-margin-top="0.5" id="base" inkscape:current-layer="layer1" inkscape:cx="548.95302" inkscape:cy="-163.5896" inkscape:document-units="px" inkscape:pageopacity="0.0" inkscape:pageshadow="2" inkscape:window-height="1044" inkscape:window-maximized="0" inkscape:window-width="1054" inkscape:window-x="872" inkscape:window-y="-19" inkscape:zoom="0.57900391" pagecolor="#ffffff" showgrid="false">
	</sodipodi:namedview>
<path id="path3255" inkscape:connector-curvature="0" class="st0" d="M937.8,130.2l-15.1,23.1l-15.1-23.1h-12.5l21.3,32.7
	l-22.3,34.3h12.7l16-24.5l16,24.5h12.5l-22.2-34.1l21.4-32.8H937.8z"/>
<g>
	<path id="path3267" inkscape:connector-curvature="0" class="st0" d="M958.2,130.2V180c0,0-0.1,17.2,17.2,17.2h24.2v-10.2h-23.4
		c0,0-7.1-0.2-7.1-8v-48.9H958.2"/>
	<path id="path3271" inkscape:connector-curvature="0" class="st1" d="M480.5,186.8c0,1.1-0.9,1.9-1.9,1.9h-36.5
		c-1.1,0-1.9-0.9-1.9-1.9v-26.4c0-1.1,0.9-1.9,1.9-1.9h36.5c1.1,0,1.9,0.9,1.9,1.9V186.8z M478.9,150.5h-37.2
		c-5.4,0-9.8,4.4-9.8,9.8v26.5c0,5.4,4.4,9.8,9.8,9.8h37.2c5.4,0,9.8-4.4,9.8-9.8v-26.5C488.7,154.9,484.3,150.5,478.9,150.5"/>
	<path id="path3275" inkscape:connector-curvature="0" class="st0" d="M52.4,110.9V145h-8.5V98.9h7.3l34.6,33.6V98.9h6.8h1.6V145
		h-6.7L52.4,110.9z"/>
	<path id="path3279" inkscape:connector-curvature="0" class="st0" d="M137.9,110.9V145h-8.5V98.9h7.3l34.5,33.6V98.9h6.8h1.6V145
		H173L137.9,110.9z"/>
	<path id="path3283" inkscape:connector-curvature="0" class="st0" d="M315.2,110.9V145h-8.5V98.9h7.3l34.5,33.6V98.9h6.8h1.6V145
		h-6.7L315.2,110.9z"/>
	<path id="path3287" inkscape:connector-curvature="0" class="st0" d="M114.4,98.9h1.6V145h-8.5V98.9H114.4z"/>
	<path id="path3291" inkscape:connector-curvature="0" class="st0" d="M237.8,98.9h1.6v7.9h-20.6V145h-8.9v-38.2h-20.6v-7.9H237.8z"
		/>
	<path id="path3295" inkscape:connector-curvature="0" class="st0" d="M292.4,98.9h1.6v7.9h-36.6v10.3h28.3v7.9h-28.3v12H294v7.9
		h-45V98.9H292.4z"/>
	<path id="path3299" inkscape:connector-curvature="0" class="st0" d="M404.4,137.1h-26.2v-30.2h0.2h26c8.2,0,11.1,8.1,11.1,15.1
		C415.5,128.9,412.6,137.1,404.4,137.1 M418.4,105.7c-3.3-4.4-8.3-6.7-14.2-6.7h-34.2V145h34.2c5.9,0,10.9-2.3,14.2-6.7
		c3.1-4.1,4.8-9.7,4.8-16.3C423.2,115.4,421.5,109.7,418.4,105.7"/>
	<path id="path3303" inkscape:connector-curvature="0" class="st0" d="M480.5,135.2c0,1-0.9,1.9-1.9,1.9h-36.5
		c-1.1,0-1.9-0.9-1.9-1.9v-26.4c0-1,0.9-1.9,1.9-1.9h36.5c1.1,0,1.9,0.9,1.9,1.9V135.2z M478.9,98.9h-37.2c-5.4,0-9.8,4.4-9.8,9.8
		v26.5c0,5.4,4.4,9.8,9.8,9.8h37.2c5.4,0,9.8-4.4,9.8-9.8v-26.5C488.7,103.3,484.3,98.9,478.9,98.9"/>
	<path id="path3307" inkscape:connector-curvature="0" class="st0" d="M756.2,177.3c8.9,3.5,27.5,6.3,42.1,6.3
		c16,0,22.6-5.5,22.6-12.4c0-6.2-6.1-9.8-23.8-16.2c-23.5-8.7-40.8-15.6-40.8-31c0-16,20.8-25.4,52.5-25.4c17,0,22.9,1.1,33.7,3.1
		l0.1,15.2c-10.6-2-20-5.5-34.6-5.5c-15.7,0-22.4,5-22.4,10.1c0,7.4,10.3,11,28.3,17.4c25.1,9,39.1,15.9,39.1,31.1
		c0,15.6-17.5,26.8-56.9,26.8c-16.2,0-27.4-1.1-39.8-3L756.2,177.3z"/>
	<path id="path3311" inkscape:connector-curvature="0" class="st0" d="M672.2,112h-18.8V183h18.8c28.8,0,47-12.3,47-35.4
		C719.2,124.6,701,112,672.2,112 M722.6,189.7c-9.3,4.2-26.8,6.9-42.2,6.9h-58.7V98.7h58.7c15.4,0,32.9,2.7,42.2,6.9
		c22.6,10.2,30,26.5,30,42C752.6,163.1,745.3,179.4,722.6,189.7"/>
	<path id="path3315" inkscape:connector-curvature="0" class="st2" d="M580.6,143c0,0,27.4-4.4,27.4-21.4
		c0-16.7-29.2-23.5-60.2-23.5c-28,0-46.4,3.4-46.4,3.4v15.1c12.7-3.1,24.9-5.7,41.4-5.7c17.8,0,31.3,5.3,31.3,12.8
		c0,9-13.4,14.2-42.3,14.2h-13.3v13.6h12.3c30.4,0,47.7,4.6,47.7,15.7c0,10-15.5,16-34.7,16c-16.8,0-32.2-3.6-44.6-7v16.3
		c6,1,21.9,4.2,51.5,4.2c32.8,0,61.3-10.6,61.3-29.1C612,152.2,592.3,143,580.6,143"/>
	<path id="path3319" inkscape:connector-curvature="0" class="st0" d="M860.9,185.6h-3.1v-1.7h8.2v1.7h-3.1v9.2h-2V185.6z"/>
	<path id="path3323" inkscape:connector-curvature="0" class="st0" d="M876.4,190.3c-0.1-1.4-0.2-3.1-0.1-4.6h-0.1
		c-0.4,1.3-0.8,2.8-1.3,4.1l-1.6,4.7h-1.5l-1.4-4.6c-0.4-1.4-0.8-2.9-1.1-4.2h0c-0.1,1.4-0.1,3.1-0.2,4.6l-0.2,4.4H867l0.7-10.8h2.6
		l1.4,4.4c0.4,1.3,0.7,2.6,1,3.8h0c0.3-1.2,0.7-2.5,1.1-3.8l1.5-4.3h2.6l0.6,10.8h-1.9L876.4,190.3z"/>
	<path id="path3327" inkscape:connector-curvature="0" class="st3" d="M22.5,37.6L2.2,34.9c-0.6-0.1-1.2,0.4-1.3,1
		c-0.7,5.7-0.7,11.4,0,17c0.1,0.6,0.6,1,1.2,1l20.3-2.6c0.6-0.1,1-0.6,0.9-1.2c-0.4-3.7-0.4-7.5,0-11.2
		C23.5,38.2,23.1,37.6,22.5,37.6"/>
	<path id="path3331" inkscape:connector-curvature="0" class="st4" d="M32.8,13.2L16.6,0.7c-0.5-0.4-1.2-0.3-1.6,0.2
		c-3.4,4.6-6.3,9.5-8.5,14.7c-0.2,0.6,0,1.2,0.6,1.5L26,25c0.6,0.2,1.2,0,1.4-0.6c1.5-3.4,3.4-6.7,5.6-9.7
		C33.4,14.2,33.3,13.6,32.8,13.2"/>
	<path id="path3335" inkscape:connector-curvature="0" class="st5" d="M25.8,63.8L6.9,71.6c-0.6,0.2-0.8,0.9-0.6,1.4
		c2.3,5.2,5.1,10.2,8.5,14.8c0.4,0.5,1.1,0.6,1.6,0.2l16.2-12.4c0.5-0.4,0.6-1,0.2-1.5c-2.2-3-4.1-6.3-5.6-9.7
		C27,63.8,26.3,63.6,25.8,63.8"/>
	<path id="path3339" inkscape:connector-curvature="0" class="st6" d="M176.9,58.9h-16.7c-1,0-1.6,0.2-1.9,0.4
		c-0.1,0-0.1,0.1-0.2,0.2l0,0l0,0c-2.6,1.7-6.3,3.3-11,3.3c-12.7,0-17.4-10.5-17.4-18.3c0-8.4,5.1-18.3,17.5-18.3
		c9,0,14.5,5.6,16,11.1c0.2,0.6,0.3,1.3-0.3,1.3h-24.2c-0.7,0-1.3,0.6-1.3,1.3v10.4c0,0.7,0.6,1.3,1.3,1.3h33.4
		c6.9,0,8.7-2.2,8.7-8.7c0-18.8-15.5-32.2-33.3-32.2s-33.7,13.7-33.7,31.7c0,19.9,11.1,36,33.8,36c18.9,0,27.3-11.2,30.7-18.1
		C178.3,59.9,178.6,58.9,176.9,58.9"/>
	<path id="path3343" inkscape:connector-curvature="0" class="st6" d="M44.8,76.6c-0.5,0-0.9-0.4-0.9-0.9v-37
		c0-14,11.7-28.1,30.8-28.1c19,0,30.8,14,30.8,28.1v37c0,0.5-0.4,0.9-0.9,0.9H89.4c-0.5,0-0.9-0.4-0.9-0.9V40.9
		c0-6.6-4.8-13.3-13.8-13.3c-9,0-13.8,6.6-13.8,13.3v34.8c0,0.5-0.4,0.9-0.9,0.9H44.8z"/>
	<path id="path3347" inkscape:connector-curvature="0" class="st6" d="M239.6,12.2c0.5,0,0.9,0.4,0.9,0.9v38.4
		c0,6.6,2.9,9.8,7.6,9.8s8.1-3.1,8.1-9.8V13.1c0-0.5,0.4-0.9,0.9-0.9H273c0.5,0,0.9,0.4,0.9,0.9v39.6c0,15.6-10.5,25.4-23.2,25.4
		c-5.4,0-13.7-1.4-19.6-9.1c-4.9,7.7-12.8,9.1-18.5,9.1c-12.7,0-23.2-9.8-23.2-25.4V13.1c0-0.5,0.4-0.9,0.9-0.9h15.9
		c0.5,0,0.9,0.4,0.9,0.9v38.4c0,6.6,3.6,9.8,8.1,9.8s7.6-3.1,7.6-9.8V13.1c0-0.5,0.4-0.9,0.9-0.9H239.6z"/>
	<path id="path3351" inkscape:connector-curvature="0" class="st7" d="M298.3,51.2l20.3,2.7c0.6,0.1,1.2-0.4,1.3-1
		c0.7-5.6,0.7-11.4,0-17c-0.1-0.6-0.6-1-1.3-1l-20.3,2.6c-0.6,0.1-1,0.6-0.9,1.2c0.4,3.7,0.4,7.5,0,11.2
		C297.3,50.6,297.7,51.2,298.3,51.2"/>
	<path id="path3355" inkscape:connector-curvature="0" class="st8" d="M288,75.6l16.2,12.5c0.5,0.4,1.2,0.3,1.6-0.2
		c3.4-4.6,6.3-9.5,8.5-14.7c0.2-0.6,0-1.2-0.6-1.4l-18.9-7.9c-0.6-0.2-1.2,0-1.4,0.6c-1.5,3.4-3.4,6.7-5.6,9.7
		C287.5,74.6,287.5,75.2,288,75.6"/>
	<path id="path3359" inkscape:connector-curvature="0" class="st9" d="M295,25l18.9-7.8c0.6-0.2,0.8-0.9,0.6-1.5
		c-2.3-5.2-5.1-10.2-8.5-14.8c-0.4-0.5-1.1-0.6-1.6-0.2l-16.2,12.4c-0.5,0.4-0.6,1-0.2,1.5c2.2,3,4.1,6.3,5.6,9.7
		C293.8,25,294.5,25.2,295,25"/>
</g>
</svg>
