<?xml version="1.0" encoding="utf-8"?>
<!-- Generator: Adobe Illustrator 27.7.0, SVG Export Plug-In . SVG Version: 6.00 Build 0)  -->
<svg version="1.1" id="Layer_1" xmlns="http://www.w3.org/2000/svg" xmlns:xlink="http://www.w3.org/1999/xlink" x="0px" y="0px"
	 viewBox="0 0 182.9 70.8" style="enable-background:new 0 0 182.9 70.8;" xml:space="preserve">
<style type="text/css">
	.st0{fill:url(#SVGID_1_);}
</style>
<rect x="61.3" y="31.7" width="18.1" height="10"/>
<rect x="124.3" y="31.8" width="18.1" height="12.9"/>
<g>
	<g>
		<path d="M53.7,28.3c0-1.2,1-2.2,2.2-2.2h17.9c1.3,0,2.3,1,2.3,2.2v7.9h11.2V9.1c0-5-4-9.1-9-9.1H51.4c-4.9,0-9,4.1-9,9.1v27.2
			h11.2V28.3z"/>
		<path d="M53.7,13.6c0-2.5,2-4.5,4.5-4.5h13.4c2.5,0,4.5,2,4.5,4.5v1.1c0,1.3-1,2.3-2.3,2.3H55.9c-1.2,0-2.2-1-2.2-2.3V13.6z"/>
	</g>
	<path d="M37.5,36.2H9.1c-5,0-9.1-4.1-9.1-9.1V9.1C0,4.1,4.1,0,9.1,0h36.4v9.1H15.9c-2.5,0-4.5,2-4.5,4.5v9.1c0,2.5,2,4.5,4.5,4.5
		h17c1.3,0,2.3-1,2.3-2.3c0-1.2-1-2.2-2.3-2.2H19.3v-9.1h18.2c5.1,0,9.1,4.1,9.1,9.1v4.5C46.6,32.2,42.5,36.2,37.5,36.2z"/>
	<path d="M96.1,36.2H85.4V0h51.2c4.7,0,8.5,4.1,8.5,9.1v27.2h-10.7V13.6c0-2.5-1.9-4.5-4.3-4.5h-7.5c-1.2,0-2.2,1-2.2,2.2v24.9H110
		V11.3c0-1.2-1-2.2-2.2-2.2h-9.6c-1.2,0-2.1,1-2.1,2.2V36.2z"/>
	<path d="M154.3,11.3c0,1.3,1,2.3,2.2,2.3h25.3v9.1h-25.3c-1.2,0-2.2,1-2.2,2.2c0,1.3,1,2.3,2.2,2.3h26.4v9.1h-30.8
		c-4.9,0-8.8-4.1-8.8-9.1V0h39.6v9.1h-26.4C155.3,9.1,154.3,10.1,154.3,11.3z"/>
	<g>
		<path d="M68,52c1.6-1.6,2.6-3.9,2.6-6.4v-2.3c0-5.1-4.1-9.1-9.1-9.1H26.1v36.6h36.5c5,0,9.1-4.1,9.1-9.1v-2.3
			C71.8,56.4,70.3,53.7,68,52z"/>
		<path d="M56.9,61.7H39.8c-1.2,0-2.3-1-2.3-2.3c0-1.2,1-2.3,2.3-2.3h17.1c1.2,0,2.3,1,2.3,2.3C59.2,60.7,58.2,61.7,56.9,61.7z"/>
		<path d="M56.9,48H39.8c-1.2,0-2.3-1-2.3-2.3c0-1.2,1-2.3,2.3-2.3h17.1c1.2,0,2.3,1,2.3,2.3C59.2,46.9,58.2,48,56.9,48z"/>
	</g>
	<path d="M143.6,51.3l19.7,19.5h-20.9l-8.6-9.8l-8.8,9.8h-21.5l20.7-20.1c0.1-0.2-0.4-0.3-0.4-0.5l-18.1-17.8l18.6-0.6l9.4,9.6
		l8.9-9.6l18.5,1.3"/>
	<g>
		<path d="M112.4,43.4c0-5.1-4-9.1-8.9-9.1H77c-4.9,0-8.9,4.1-8.9,9.1v18.3c0,5.1,4,9.1,8.9,9.1h26.6c4.9,0,8.9-4.1,8.9-9.1V43.4z"
			/>
		<path d="M101.3,57.1c0,2.5-2,4.6-4.4,4.6H83.6c-2.4,0-4.4-2-4.4-4.6V48c0-2.5,2-4.6,4.4-4.6h13.3c2.4,0,4.4,2,4.4,4.6V57.1z"/>
	</g>
	<rect x="9.9" y="9.1" width="33.6" height="18.2"/>
	<rect x="45.4" y="23.9" width="36.3" height="11.3"/>
	<rect x="86.7" y="7.1" width="56.6" height="29.2"/>
	<rect x="107.4" y="35.1" width="18.1" height="30.4"/>
	<rect x="152.5" y="8.5" width="30.4" height="21"/>
</g>
<linearGradient id="SVGID_1_" gradientUnits="userSpaceOnUse" x1="2.5524" y1="35.2388" x2="181.1642" y2="35.2388">
	<stop  offset="0" style="stop-color:#EE879C"/>
	<stop  offset="0.1615" style="stop-color:#E16648"/>
	<stop  offset="0.3232" style="stop-color:#DF9D52"/>
	<stop  offset="0.5012" style="stop-color:#EEE477"/>
	<stop  offset="0.6692" style="stop-color:#AFC86E"/>
	<stop  offset="0.8371" style="stop-color:#9CC39D"/>
	<stop  offset="1" style="stop-color:#7ABAE2"/>
</linearGradient>
<path class="st0" d="M55.4,27.2c0-1.1,0.9-2,2-2h16c1.1,0,2,0.9,2,2v7h10v-24c0-4.4-3.6-8-8-8h-24c-4.4,0-8,3.6-8,8v24h10V27.2z
	 M55.4,14.2c0-2.2,1.8-4,4-4h12c2.2,0,4,1.8,4,4v1c0,1.1-0.9,2-2,2h-16c-1.1,0-2-0.9-2-2V14.2z M35.5,34.2h-25c-4.4,0-8-3.6-8-8v-16
	c0-4.4,3.6-8,8-8h32v8h-26c-2.2,0-4,1.8-4,4v8c0,2.2,1.8,4,4,4h15c1.1,0,2-0.9,2-2c0-1.1-0.9-2-2-2h-12v-8h16c4.4,0,8,3.6,8,8v4
	C43.5,30.7,40,34.2,35.5,34.2z M97.3,34.2h-10v-32h48c4.4,0,8,3.6,8,8v24h-10v-20c0-2.2-1.8-4-4-4h-7c-1.1,0-2,0.9-2,2v22h-10v-22
	c0-1.1-0.9-2-2-2h-9c-1.1,0-2,0.9-2,2V34.2z M155.2,12.2c0,1.1,0.9,2,2,2h23v8h-23c-1.1,0-2,0.9-2,2c0,1.1,0.9,2,2,2h24v8h-28
	c-4.4,0-8-3.6-8-8v-24h36v8h-24C156.1,10.2,155.2,11.1,155.2,12.2z M65.2,51.8c1.4-1.4,2.3-3.4,2.3-5.6v-2c0-4.4-3.6-8-8-8h-31v32
	h32c4.4,0,8-3.6,8-8v-2C68.5,55.6,67.2,53.3,65.2,51.8z M55.5,60.2h-15c-1.1,0-2-0.9-2-2c0-1.1,0.9-2,2-2h15c1.1,0,2,0.9,2,2
	C57.5,59.3,56.6,60.2,55.5,60.2z M55.5,48.2h-15c-1.1,0-2-0.9-2-2c0-1.1,0.9-2,2-2h15c1.1,0,2,0.9,2,2
	C57.5,47.3,56.6,48.2,55.5,48.2z M140.6,51.6l16.6,16.6h-13l-10.5-10.5l-10.5,10.5h-13l16.6-16.6c0.1-0.2,0.1-0.4,0.2-0.6
	l-14.8-14.8h13l8.5,8.5l8.5-8.5h13L140.5,51C140.5,51.2,140.5,51.4,140.6,51.6z M110.4,44.2c0-4.4-3.6-8-8-8h-24c-4.4,0-8,3.6-8,8
	v16c0,4.4,3.6,8,8,8h24c4.4,0,8-3.6,8-8V44.2z M100.4,56.2c0,2.2-1.8,4-4,4h-12c-2.2,0-4-1.8-4-4v-8c0-2.2,1.8-4,4-4h12
	c2.2,0,4,1.8,4,4V56.2z"/>
</svg>
