<?xml version="1.0" encoding="utf-8"?>
<!-- Generator: Adobe Illustrator 27.7.0, SVG Export Plug-In . SVG Version: 6.00 Build 0)  -->
<svg version="1.1" id="Layer_1" xmlns:svg="http://www.w3.org/2000/svg"
	 xmlns="http://www.w3.org/2000/svg" xmlns:xlink="http://www.w3.org/1999/xlink" x="0px" y="0px" viewBox="0 0 331 121.4"
	 style="enable-background:new 0 0 331 121.4;" xml:space="preserve">
<style type="text/css">
	.st0{fill:#FF0000;}
	.st1{fill:#00CC99;}
	.st2{fill:#0099FF;}
</style>
<path id="path21" class="st0" d="M31.4,41.3C59.2,9.5,92.6-7.5,106.1,3.2c13.5,10.7,1.9,45.2-25.8,76.9
	c-27.7,31.8-61.1,48.8-74.6,38.1C-7.9,107.5,3.7,73.1,31.4,41.3z"/>
<path id="path23" class="st1" d="M141.6,41.4c28.5-31.5,62.8-48.5,76.6-37.9c13.8,10.7,1.9,44.9-26.5,76.4
	c-28.5,31.6-62.8,48.5-76.6,37.9C101.3,107.2,113.1,73,141.6,41.4z"/>
<path id="path25" class="st2" d="M248.6,41.4c28.5-31.5,62.8-48.5,76.6-37.9c13.8,10.7,1.9,44.9-26.5,76.4
	c-28.5,31.6-62.8,48.5-76.6,37.9C208.3,107.2,220.2,73,248.6,41.4z"/>
</svg>
