<?xml version="1.0" encoding="utf-8"?>
<!-- Generator: Adobe Illustrator 27.7.0, SVG Export Plug-In . SVG Version: 6.00 Build 0)  -->
<svg version="1.1" id="Layer_1" xmlns="http://www.w3.org/2000/svg" xmlns:xlink="http://www.w3.org/1999/xlink" x="0px" y="0px"
	 viewBox="0 0 226.9 832.8" style="enable-background:new 0 0 226.9 832.8;" xml:space="preserve">
<style type="text/css">
	.st0{fill:#E4202F;}
</style>
<path class="st0" d="M188.2,831.7c-19.2-21.3-38.1-42.5-57.3-63.8c-19.2-21.9-34.3-39.3-59.4-39.6c-21.6,0-32.8,13.6-32.8,31.6
	c0,21.3,19.2,30.1,41.6,30.4v42.2c-16.8-0.6-34.9-3.2-51.1-15.4C4.7,800,0,771.6,0,756c0-45.8,31.6-71.8,67.6-71.8
	c25.4,0.3,43.4,9.5,67.9,35.2c16.5,17.1,33.1,34.5,49.9,52v-88.3h37.2v148.6L188.2,831.7z"/>
<path class="st0" d="M4.2,534.6l57.6,41c4.4,3,8.6,6.2,13.3,9.5c-1.2-2.4-3.2-10.6-3.2-17.4c0-33.4,25.7-69.4,73.8-69.4
	c47.2,0,81.2,36.6,81.2,81.5c0,26.9-10.3,50.5-28.4,64.4c-15.1,13.3-36.3,18.3-52.9,18.3c-23,0-41.6-9.5-57.6-19.8L4.1,585.4
	L4.2,534.6L4.2,534.6z M149.5,619c23.3,0,38.7-17.7,38.7-37.8c0-21.9-16.8-39-38.7-39s-39,16.5-39,38.7c0,19.5,14.8,38.1,38.7,38.1
	H149.5z"/>
<path class="st0" d="M115.3,480.8c-70,0-115.2-53.8-115.2-114.6c0-66.2,51.4-114.9,113.4-114.9s113.4,48.5,113.4,115.2
	c0,67-52.9,114.3-111.3,114.3H115.3z M113.5,436.8c39.9,0,74.7-28.6,74.7-71.2c0-44.3-38.4-70.3-74.4-70.3c-36.6,0-75,26-75,70.6
	c0,43.7,36,70.9,74.4,70.9H113.5z"/>
<path class="st0" d="M115.3,229.5c-70,0-115.2-53.8-115.2-114.6C0.1,48.7,51.5,0,113.5,0s113.4,48.4,113.4,115.2
	c0,67-52.9,114.3-111.3,114.3H115.3z M113.5,185.5c39.9,0,74.7-28.6,74.7-71.2c0-44.3-38.4-70.3-74.4-70.3c-36.6,0-75,26-75,70.6
	c0,43.7,36,70.9,74.4,70.9H113.5z"/>
</svg>
