<?xml version="1.0" encoding="utf-8"?>
<!-- Generator: Adobe Illustrator 27.7.0, SVG Export Plug-In . SVG Version: 6.00 Build 0)  -->
<svg version="1.1"
	 id="svg2" xmlns:inkscape="http://www.inkscape.org/namespaces/inkscape" xmlns:cc="http://creativecommons.org/ns#" xmlns:dc="http://purl.org/dc/elements/1.1/" xmlns:rdf="http://www.w3.org/1999/02/22-rdf-syntax-ns#" xmlns:svg="http://www.w3.org/2000/svg"
	 xmlns="http://www.w3.org/2000/svg" xmlns:xlink="http://www.w3.org/1999/xlink" x="0px" y="0px" viewBox="0 0 577.3 172.8"
	 style="enable-background:new 0 0 577.3 172.8;" xml:space="preserve">
<style type="text/css">
	.st0{fill:#4E4BA8;}
	.st1{fill:#DAAC06;}
	.st2{fill:#00938A;}
	.st3{fill:#6EB122;}
	.st4{fill:#B80A41;}
</style>
<path id="path14" inkscape:connector-curvature="0" class="st0" d="M205.9,116.7c0,0-9.5,16.6-30.4,14.6c-24.5-2.5-27.4-24-27.4-24
	s-3.4-15.8,11.7-29.6c15.3-12.8,31.2-10.9,31.2-10.9s10.7,1,16.2,18.7C214.4,108.1,205.9,116.7,205.9,116.7L205.9,116.7z
	 M242.8,72.1c-3.1-9.3-11.2-18.2-11.2-18.2s-12.2-15.8-36.1-21.2c-20.5-4.3-36.6,4.7-36.6,4.7s-14.6,5.9-25.6,18
	c-17.5,16.8-22.5,41.4-22.5,41.4s-6.7,21.4,3.9,38.4l11.5,14c16.3,13.6,33.7,15,33.7,15s14.1,3.2,30.4-1.1c14.3-2.9,24.8-10,24.8-10
	s23.7-13.1,30.3-39.9L242.8,72.1"/>
<path id="path16" inkscape:connector-curvature="0" class="st1" d="M408.4,121.6c-26.3,15.8-42.9-1.5-42.9-1.5s-7.4-4.8-8.9-19.5
	c-1.1-17,15.8-25.9,15.8-25.9s8.9-5.5,20.1-4.7c11.2,0.8,14.7,0.1,23.7,6.8c8.6,7.7,8,13.4,8,13.4S427.3,109.4,408.4,121.6
	L408.4,121.6z M452.9,67.2c-16.3-26.6-45-30.6-45-30.6s-9.1-3.1-28.7-0.5c-36.7,7-49.4,35.2-49.4,35.2S316.8,92,322,117l16,31.7
	c11.8,11.1,16.7,11.1,17.4,11.7c15.6,7.1,33.8,3,33.8,3s22.9-2.2,43.8-18.5c16.8-12.3,24-30.3,24-30.3L452.9,67.2"/>
<path id="path18" inkscape:connector-curvature="0" class="st2" d="M492.4,73.2l-1.8-24.3c0,0,17-0.4,24.1,0.8
	c14,2.1,13.2,6.1,13.2,6.1s-0.5,4.9-11.1,9.8C505.4,71.1,492.4,73.2,492.4,73.2L492.4,73.2z M457.1,114.5c0,0,0.6,14.9-1.8,18.5
	c-3.2,6.8-2.7,13.4-2.7,13.4s-2.1,20.1,21.1,23.5c16-0.1,18-13.4,18.2-19.1c0.9-4.5,0.6-25.2,0.6-25.2l20.8,16.9
	c0,0,15.1,12.7,23.9,20c9.2,7.3,11.5,8.6,11.5,8.6s2,2.3,9,1.5c5.7,0.1,10.9-5,10.9-5s6.6-4.8,8.3-13.3c2.1-10.1-5.8-15-5.8-15
	S542.3,116,522.8,100c13.1-7.2,19.5-12.1,19.5-12.1s18.3-12.1,22.2-30.6c5.4-20.4-10-28.4-10-28.4s-9.6-6.9-17.7-10.5
	c-20.4-10-39.4-7.9-39.4-7.9s-27-1.9-44.6,19.8c-8.1,10.5-3.1,24.3-3.1,24.3s1,2.2,3.3,12.7C457.5,88.2,457.1,114.5,457.1,114.5"/>
<path id="path20" inkscape:connector-curvature="0" class="st3" d="M322,117c-7.8-1.7-20.4,1.5-20.4,1.5s-17.5,6.4-20.2,6.3
	c-1-1.5-3.3-30.1-2.6-41.5c0.4-20.2-1.3-36.7-1.3-36.7s-0.8-19.5-11.3-31c-12.3-12.4-20.9-7.1-25.8-4.1
	c-11.8,10.6-6.3,23.6-6.3,23.6l6.1,17.4c0,0,3,7.4,2.6,19.6l2.6,41.1c0,5.5,4.5,42.4,4.5,42.4s0.5,12,12,14.1
	c11.8,2,23.5-3.9,28.4-6.2c4.9-2.3,11.5-4.4,11.5-4.4s5.4-1.2,10.8-1.7c12.7-1.2,17.2-3.4,17.2-3.4s4.9-0.7,8.2-5.4
	C341.3,144,345.3,122.1,322,117"/>
<path id="path22" inkscape:connector-curvature="0" class="st4" d="M114.7,135.3c-8.3-2.5-17.9-0.8-17.9-0.8s-27,2.6-41.1-0.4
	c-21.8-3.8-21-27.3-21-27.3S34,91.2,47.2,70.2c16.2-26,34.1-30.6,34.1-30.6s4.5-1.7,8.7,0.6c2.6,15.1,17.2,15,17.2,15
	s21,1.4,20-24.1C124.7,10,104.5,7.2,96,5.2c-25.4-4.6-41.9,9-41.9,9s-17,9.2-37.4,41.3C2.8,75.5,1.2,91.1,1.2,91.1s-1.7,3.7-1,20.3
	c-0.4,12.9,4.5,22.3,4.5,22.3S12,156,35.2,165.1c14.1,5.9,34.8,5.8,34.8,5.8s20-0.3,35.4-1.1c8.4,0.7,12.4-3.7,12.4-3.7
	s9.4-6.1,8.5-16.9C126.3,149.2,124.5,138.2,114.7,135.3"/>
</svg>
