<?xml version="1.0" encoding="utf-8"?>
<!-- Generator: Adobe Illustrator 27.7.0, SVG Export Plug-In . SVG Version: 6.00 Build 0)  -->
<svg version="1.1" id="Layer_1" xmlns="http://www.w3.org/2000/svg" xmlns:xlink="http://www.w3.org/1999/xlink" x="0px" y="0px"
	 viewBox="0 0 46.3 29.5" style="enable-background:new 0 0 46.3 29.5;" xml:space="preserve">
<style type="text/css">
	.st0{fill:#FF2D1E;}
</style>
<path class="st0" d="M19,6.1c-0.7,0-1.5,0-2.5,0c-5.7,0.3-7.9,2.6-8.7,5.4H8c1.5-1.3,3.1-1.8,5.4-1.8c4.4,0,8.5,3.3,8.5,9.3
	c0,5.9-4.4,10.5-10.5,10.5C3.4,29.5,0,23.4,0,16.9C0,11.6,1.8,7,4.9,4.3C7.9,1.5,11.6,0.2,16.2,0c1.1,0,2,0,2.6,0v6.1h0L19,6.1z
	 M11.5,23.7c1.8,0,2.9-1.8,2.9-4.3c0-2-1-4.3-3.4-4.3c-1.5,0-2.6,1-3.1,2.1c-0.2,0.3-0.2,0.8-0.2,1.6C7.9,21.3,9,23.7,11.5,23.7
	L11.5,23.7L11.5,23.7z"/>
<path class="st0" d="M36,29v-6.4h-12v-5.1l9.5-17h9.5v16.4H46v5.9h-2.9v6.4h-7.2l0,0L36,29z M36,16.7v-4.9c0-1.8,0.2-3.8,0.2-5.7H36
	c-0.8,2-1.6,3.8-2.6,5.7l-2.3,4.7v0.2H36L36,16.7L36,16.7z"/>
</svg>
