<?xml version="1.0" encoding="utf-8"?>
<!-- Generator: Adobe Illustrator 27.7.0, SVG Export Plug-In . SVG Version: 6.00 Build 0)  -->
<svg version="1.1"
	 id="svg2" xmlns:sodipodi="http://sodipodi.sourceforge.net/DTD/sodipodi-0.dtd" xmlns:inkscape="http://www.inkscape.org/namespaces/inkscape" xmlns:cc="http://creativecommons.org/ns#" xmlns:dc="http://purl.org/dc/elements/1.1/" xmlns:rdf="http://www.w3.org/1999/02/22-rdf-syntax-ns#" xmlns:svg="http://www.w3.org/2000/svg" inkscape:version="0.48.2 r9819" sodipodi:docname="AJAX1.svg"
	 xmlns="http://www.w3.org/2000/svg" xmlns:xlink="http://www.w3.org/1999/xlink" x="0px" y="0px" viewBox="0 0 211.8 159.5"
	 style="enable-background:new 0 0 211.8 159.5;" xml:space="preserve">
<style type="text/css">
	.st0{fill-rule:evenodd;clip-rule:evenodd;fill:#009AC7;}
</style>
<sodipodi:namedview  bordercolor="#666666" borderopacity="1" fit-margin-bottom="0.5" fit-margin-left="0.5" fit-margin-right="0.5" fit-margin-top="0.5" gridtolerance="10" guidetolerance="10" id="namedview20" inkscape:current-layer="_56610944" inkscape:cx="366.66029" inkscape:cy="-8.7944093" inkscape:pageopacity="0" inkscape:pageshadow="2" inkscape:window-height="1004" inkscape:window-maximized="1" inkscape:window-width="1280" inkscape:window-x="-8" inkscape:window-y="-8" inkscape:zoom="0.82614138" objecttolerance="10" pagecolor="#ffffff" showgrid="false">
	</sodipodi:namedview>
<path id="_56666168" inkscape:connector-curvature="0" class="st0" d="M77.5,72c0,47.6,56.3,40.8,56.3,7.5V0.8H77.5
	C77.5,0.8,77.5,72,77.5,72z"/>
<path id="_56603080" inkscape:connector-curvature="0" class="st0" d="M0,122c0,23.5,16.2,37.5,40,37.5h135
	c20.1,0,36.3-13.8,36.3-33.8V27c0-12-8.9-25-20-25H160v81.2c0,61.7-107.5,61.2-107.5,1.3V0.8H28.8C13.3,0.8,0,10.6,0,25.8L0,122
	L0,122z"/>
</svg>
