<?xml version="1.0" encoding="utf-8"?>
<!-- Generator: Adobe Illustrator 27.7.0, SVG Export Plug-In . SVG Version: 6.00 Build 0)  -->
<svg version="1.1" id="svg2" xmlns:svg="http://www.w3.org/2000/svg"
	 xmlns="http://www.w3.org/2000/svg" xmlns:xlink="http://www.w3.org/1999/xlink" x="0px" y="0px" viewBox="0 0 121.6 64.5"
	 style="enable-background:new 0 0 121.6 64.5;" xml:space="preserve">
<path id="path86" d="M68.7,20c1.7-3.7,4.2-9.4,4.2-9.4h-5.1l-2.7,6l-4-3.7c1.8-1.5,3.4-3.3,3.4-6.4c0-1.7-0.7-3.2-1.8-4.4
	C61.3,0.8,59.4,0,57.5,0c-3.4,0-7,2.4-7,6.5c0,2.9,1.6,4.7,3.1,6.1c-2.9,2-5.4,4.2-5.4,8.7c0,2.6,0.9,4.9,2.6,6.5
	c1.7,1.7,4,2.6,6.6,2.6c4.9,0,7.4-2.4,9.2-6.1l6,5.6l3.2-3.4L68.7,20L68.7,20z M55.6,5.4c0.4-0.4,1.1-0.7,1.8-0.7
	c0.7,0,1.5,0.3,1.9,0.8c0.3,0.3,0.5,0.7,0.5,1.1c0,1.3-0.6,2-2.3,3.3c-1.5-1.2-2.4-2-2.4-3.3C55.1,6.1,55.3,5.7,55.6,5.4 M63,21.4
	c-1.6,3.6-2.7,4.5-5.5,4.5c-1.4,0-2.5-0.4-3.4-1.3c-0.8-0.8-1.2-1.9-1.2-3.3c0-2.4,1.3-3.4,4.3-5.6c0,0,0,0,0,0l5.8,5.4L63,21.4
	L63,21.4z"/>
<path id="path76" d="M47.6,34.2L47.6,34.2L27.5,64.5h6.2l4.3-6.5h9.6v6.5h5.2V34.2L47.6,34.2L47.6,34.2z M41.5,52.9l6.1-9.3v9.3
	H41.5z"/>
<path id="path78" d="M5.2,64.5L5.2,64.5l13.9-20.9v20.9h5.2v0l0,0l20.1-30.3h-6.2L24.2,55.2V34.2h-5.2v0L5.2,55.2V34.2H0v30.3
	L5.2,64.5L5.2,64.5z"/>
<path id="path80" d="M116.4,34.2v12.2H107V34.2h-5.2v30.3h5.2V51.6h9.4v12.9h5.2V34.2H116.4z"/>
<path id="path82" d="M71.8,34.2H54.8v5.2h5.9v25.1h5.2V39.4h5.9V34.2z"/>
<path id="path84" d="M94.5,56.4c-2,2.2-4.9,3.6-8.1,3.6c-6,0-10.9-4.9-10.9-10.9c0-6,4.9-10.9,10.9-10.9c3.2,0,6,1.4,8,3.6h6.1
	c-2.7-5.1-8-8.6-14.1-8.6c-8.8,0-15.9,7.1-15.9,15.9c0,8.8,7.1,15.9,15.9,15.9c6.2,0,11.5-3.5,14.1-8.6H94.5z"/>
</svg>
