<?xml version="1.0" encoding="utf-8"?>
<!-- Generator: Adobe Illustrator 27.7.0, SVG Export Plug-In . SVG Version: 6.00 Build 0)  -->
<svg version="1.1" id="svg2" xmlns:svg="http://www.w3.org/2000/svg"
	 xmlns="http://www.w3.org/2000/svg" xmlns:xlink="http://www.w3.org/1999/xlink" x="0px" y="0px" viewBox="0 0 227.7 89"
	 style="enable-background:new 0 0 227.7 89;" xml:space="preserve">
<style type="text/css">
	.st0{fill:#FE0016;}
</style>
<path id="path2952" class="st0" d="M0,0l18.6,89L37,0H27l-8.5,50L10,0H0L0,0z"/>
<path id="path3726" class="st0" d="M41.1,0h10v89h-10V0C41.1,0,41.1,0,41.1,0z"/>
<path id="path3728" class="st0" d="M60.1,0v89h10V43L84,89h9.2L82.1,46.9c6.2-3.7,8-8.6,8-8.6V10.1C86,1,78.9,0,78.9,0H60.1z
	 M70.1,9.1h10V40h-10V9.1z"/>
<path id="path3733" class="st0" d="M93.2,0h29.9v9h-10v80h-10v-80h-9.9V0C93.2,0,93.2,0,93.2,0z"/>
<path id="path3735" class="st0" d="M178.4,0l-19.3,88.9V89h9.9l2.1-12h14l2,12h10L178.4,0L178.4,0z M178.4,38.4L183,69h-9.9
	L178.4,38.4z"/>
<path id="path2882" class="st0" d="M201.1,0h10v80H226v9h-24.9V0C201.1,0,201.1,0,201.1,0z"/>
<path id="path3667" class="st0" d="M127,0h10.1v78.9h10.1V0h9.9v78.9c0,0-3.2,10.1-14.6,10.1S127,78.9,127,78.9V0C127,0,127,0,127,0
	z"/>
</svg>
