<?xml version="1.0" encoding="utf-8"?>
<!-- Generator: Adobe Illustrator 27.7.0, SVG Export Plug-In . SVG Version: 6.00 Build 0)  -->
<svg version="1.1"
	 id="svg4173" xmlns:sodipodi="http://sodipodi.sourceforge.net/DTD/sodipodi-0.dtd" xmlns:inkscape="http://www.inkscape.org/namespaces/inkscape" xmlns:cc="http://creativecommons.org/ns#" xmlns:dc="http://purl.org/dc/elements/1.1/" xmlns:rdf="http://www.w3.org/1999/02/22-rdf-syntax-ns#" xmlns:svg="http://www.w3.org/2000/svg" inkscape:version="0.48.5 r10040" sodipodi:docname="A.svg"
	 xmlns="http://www.w3.org/2000/svg" xmlns:xlink="http://www.w3.org/1999/xlink" x="0px" y="0px" viewBox="0 0 109.5 67"
	 style="enable-background:new 0 0 109.5 67;" xml:space="preserve">
<style type="text/css">
	.st0{fill:#1D1D1B;}
	.st1{clip-path:url(#SVGID_00000060712501191750351670000013164327476427336343_);fill:#1D1D1B;}
	.st2{display:none;clip-path:url(#SVGID_00000060712501191750351670000013164327476427336343_);fill:#9C9B9B;}
	.st3{display:none;clip-path:url(#SVGID_00000060712501191750351670000013164327476427336343_);fill:#1D1D1B;}
	.st4{display:none;clip-path:url(#SVGID_00000060712501191750351670000013164327476427336343_);fill:#C80C0F;}
	.st5{display:none;clip-path:url(#SVGID_00000060712501191750351670000013164327476427336343_);fill:#A6C613;}
	.st6{display:none;clip-path:url(#SVGID_00000060712501191750351670000013164327476427336343_);fill:#E30521;}
	.st7{display:none;clip-path:url(#SVGID_00000060712501191750351670000013164327476427336343_);fill:#00A6E6;}
	.st8{display:none;clip-path:url(#SVGID_00000060712501191750351670000013164327476427336343_);fill:#F6A500;}
	.st9{display:none;clip-path:url(#SVGID_00000060712501191750351670000013164327476427336343_);fill:#E73088;}
	.st10{display:none;clip-path:url(#SVGID_00000060712501191750351670000013164327476427336343_);fill:#009881;}
</style>
<sodipodi:namedview  bordercolor="#666666" borderopacity="1.0" fit-margin-bottom="0.5" fit-margin-left="0.5" fit-margin-right="0.5" fit-margin-top="0.5" id="base" inkscape:current-layer="layer1" inkscape:cx="548.95302" inkscape:cy="-163.5896" inkscape:document-units="px" inkscape:pageopacity="0.0" inkscape:pageshadow="2" inkscape:window-height="1044" inkscape:window-maximized="0" inkscape:window-width="1054" inkscape:window-x="872" inkscape:window-y="-19" inkscape:zoom="0.57900391" pagecolor="#ffffff" showgrid="false">
	</sodipodi:namedview>
<path id="path3255" inkscape:connector-curvature="0" class="st0" d="M47.8,0L32.8,23.1L17.7,0H5.2l21.3,32.7L4.2,67h12.7l16-24.5
	l16,24.5h12.5L39.1,32.8L60.5,0H47.8z"/>
<g>
	<defs>
		<polygon id="SVGID_1_" points="-889.7,67 109.5,67 109.5,-129.9 -889.7,-129.9 -889.7,67 		"/>
	</defs>
	<clipPath id="SVGID_00000044874409212291662280000006740597262695831944_">
		<use xlink:href="#SVGID_1_"  style="overflow:visible;"/>
	</clipPath>
	
		<path id="path3267" inkscape:connector-curvature="0" style="clip-path:url(#SVGID_00000044874409212291662280000006740597262695831944_);fill:#1D1D1B;" d="
		M68.2,0v49.8c0,0-0.1,17.2,17.2,17.2h24.2V56.8H86.1c0,0-7.1-0.2-7.1-8V0H68.2"/>
	
		<path id="path3271" inkscape:connector-curvature="0" style="display:none;clip-path:url(#SVGID_00000044874409212291662280000006740597262695831944_);fill:#9C9B9B;" d="
		M-409.5,56.5c0,1.1-0.9,1.9-1.9,1.9h-36.5c-1.1,0-1.9-0.9-1.9-1.9V30.1c0-1.1,0.9-1.9,1.9-1.9h36.5c1.1,0,1.9,0.9,1.9,1.9V56.5z
		 M-411.1,20.3h-37.2c-5.4,0-9.8,4.4-9.8,9.8v26.5c0,5.4,4.4,9.8,9.8,9.8h37.2c5.4,0,9.8-4.4,9.8-9.8V30.1
		C-401.3,24.7-405.7,20.3-411.1,20.3"/>
	
		<path id="path3275" inkscape:connector-curvature="0" style="display:none;clip-path:url(#SVGID_00000044874409212291662280000006740597262695831944_);fill:#1D1D1B;" d="
		M-837.6-19.4v34.2h-8.5v-46.1h7.3l34.6,33.6v-33.6h6.8h1.6v46.1h-6.7L-837.6-19.4z"/>
	
		<path id="path3279" inkscape:connector-curvature="0" style="display:none;clip-path:url(#SVGID_00000044874409212291662280000006740597262695831944_);fill:#1D1D1B;" d="
		M-752.1-19.4v34.2h-8.5v-46.1h7.3l34.5,33.6v-33.6h6.8h1.6v46.1h-6.7L-752.1-19.4z"/>
	
		<path id="path3283" inkscape:connector-curvature="0" style="display:none;clip-path:url(#SVGID_00000044874409212291662280000006740597262695831944_);fill:#1D1D1B;" d="
		M-574.8-19.4v34.2h-8.5v-46.1h7.3l34.5,33.6v-33.6h6.8h1.6v46.1h-6.7L-574.8-19.4z"/>
	
		<path id="path3287" inkscape:connector-curvature="0" style="display:none;clip-path:url(#SVGID_00000044874409212291662280000006740597262695831944_);fill:#1D1D1B;" d="
		M-775.6-31.3h1.6v46.1h-8.5v-46.1H-775.6z"/>
	
		<path id="path3291" inkscape:connector-curvature="0" style="display:none;clip-path:url(#SVGID_00000044874409212291662280000006740597262695831944_);fill:#1D1D1B;" d="
		M-652.2-31.3h1.6v7.9h-20.6v38.2h-8.9v-38.2h-20.6v-7.9H-652.2z"/>
	
		<path id="path3295" inkscape:connector-curvature="0" style="display:none;clip-path:url(#SVGID_00000044874409212291662280000006740597262695831944_);fill:#1D1D1B;" d="
		M-597.6-31.3h1.6v7.9h-36.6v10.3h28.3v7.9h-28.3v12h36.6v7.9h-45v-46.1H-597.6z"/>
	
		<path id="path3299" inkscape:connector-curvature="0" style="display:none;clip-path:url(#SVGID_00000044874409212291662280000006740597262695831944_);fill:#1D1D1B;" d="
		M-485.6,6.8h-26.2v-30.2h0.2h26c8.2,0,11.1,8.1,11.1,15.1C-474.5-1.3-477.4,6.8-485.6,6.8 M-471.6-24.6c-3.3-4.4-8.3-6.7-14.2-6.7
		h-34.2v46.1h34.2c5.9,0,10.9-2.3,14.2-6.7c3.1-4.1,4.8-9.7,4.8-16.3C-466.8-14.9-468.5-20.5-471.6-24.6"/>
	
		<path id="path3303" inkscape:connector-curvature="0" style="display:none;clip-path:url(#SVGID_00000044874409212291662280000006740597262695831944_);fill:#1D1D1B;" d="
		M-409.5,4.9c0,1-0.9,1.9-1.9,1.9h-36.5c-1.1,0-1.9-0.9-1.9-1.9v-26.4c0-1,0.9-1.9,1.9-1.9h36.5c1.1,0,1.9,0.9,1.9,1.9V4.9z
		 M-411.1-31.3h-37.2c-5.4,0-9.8,4.4-9.8,9.8V5c0,5.4,4.4,9.8,9.8,9.8h37.2c5.4,0,9.8-4.4,9.8-9.8v-26.5
		C-401.3-26.9-405.7-31.3-411.1-31.3"/>
	
		<path id="path3307" inkscape:connector-curvature="0" style="display:none;clip-path:url(#SVGID_00000044874409212291662280000006740597262695831944_);fill:#1D1D1B;" d="
		M-133.8,47c8.9,3.5,27.5,6.3,42.1,6.3c16,0,22.6-5.5,22.6-12.4c0-6.2-6.1-9.8-23.8-16.2c-23.5-8.7-40.8-15.6-40.8-31
		c0-16,20.8-25.4,52.5-25.4c17,0,22.9,1.1,33.7,3.1l0.1,15.2c-10.6-2-20-5.5-34.6-5.5c-15.7,0-22.4,5-22.4,10.1
		c0,7.4,10.3,11,28.3,17.4c25.1,9,39.1,15.9,39.1,31.1c0,15.6-17.5,26.8-56.9,26.8c-16.2,0-27.4-1.1-39.8-3V47z"/>
	
		<path id="path3311" inkscape:connector-curvature="0" style="display:none;clip-path:url(#SVGID_00000044874409212291662280000006740597262695831944_);fill:#1D1D1B;" d="
		M-217.8-18.3h-18.8v71.1h18.8c28.8,0,47-12.3,47-35.4C-170.8-5.7-189-18.3-217.8-18.3 M-167.4,59.4c-9.3,4.2-26.8,6.9-42.2,6.9
		h-58.7v-97.8h58.7c15.4,0,32.9,2.7,42.2,6.9c22.6,10.2,30,26.5,30,42C-137.4,32.9-144.7,49.2-167.4,59.4"/>
	
		<path id="path3315" inkscape:connector-curvature="0" style="display:none;clip-path:url(#SVGID_00000044874409212291662280000006740597262695831944_);fill:#C80C0F;" d="
		M-309.4,12.8c0,0,27.4-4.4,27.4-21.4c0-16.7-29.2-23.5-60.2-23.5c-28,0-46.4,3.4-46.4,3.4v15.1c12.7-3.1,24.9-5.7,41.4-5.7
		c17.8,0,31.3,5.3,31.3,12.8c0,9-13.4,14.2-42.3,14.2h-13.3v13.6h12.3c30.4,0,47.7,4.6,47.7,15.7c0,10-15.5,16-34.7,16
		c-16.8,0-32.2-3.6-44.6-7v16.3c6,1,21.9,4.2,51.5,4.2c32.8,0,61.3-10.6,61.3-29.1C-278,21.9-297.7,12.8-309.4,12.8"/>
	
		<path id="path3319" inkscape:connector-curvature="0" style="display:none;clip-path:url(#SVGID_00000044874409212291662280000006740597262695831944_);fill:#1D1D1B;" d="
		M-29.1,55.3h-3.1v-1.7h8.2v1.7h-3.1v9.2h-2V55.3z"/>
	
		<path id="path3323" inkscape:connector-curvature="0" style="display:none;clip-path:url(#SVGID_00000044874409212291662280000006740597262695831944_);fill:#1D1D1B;" d="
		M-13.6,60.1c-0.1-1.4-0.2-3.1-0.1-4.6h-0.1c-0.4,1.3-0.8,2.8-1.3,4.1l-1.6,4.7h-1.5l-1.4-4.6c-0.4-1.4-0.8-2.9-1.1-4.2h0
		c-0.1,1.4-0.1,3.1-0.2,4.6l-0.2,4.4H-23l0.7-10.8h2.6l1.4,4.4c0.4,1.3,0.7,2.6,1,3.8h0c0.3-1.2,0.7-2.5,1.1-3.8l1.5-4.3h2.6
		l0.6,10.8h-1.9L-13.6,60.1z"/>
	
		<path id="path3327" inkscape:connector-curvature="0" style="display:none;clip-path:url(#SVGID_00000044874409212291662280000006740597262695831944_);fill:#A6C613;" d="
		M-867.5-92.7l-20.3-2.7c-0.6-0.1-1.2,0.4-1.3,1c-0.7,5.7-0.7,11.4,0,17c0.1,0.6,0.6,1,1.2,1l20.3-2.6c0.6-0.1,1-0.6,0.9-1.2
		c-0.4-3.7-0.4-7.5,0-11.2C-866.5-92.1-866.9-92.6-867.5-92.7"/>
	
		<path id="path3331" inkscape:connector-curvature="0" style="display:none;clip-path:url(#SVGID_00000044874409212291662280000006740597262695831944_);fill:#E30521;" d="
		M-857.2-117.1l-16.2-12.4c-0.5-0.4-1.2-0.3-1.6,0.2c-3.4,4.6-6.3,9.5-8.5,14.7c-0.2,0.6,0,1.2,0.6,1.5l18.9,7.8
		c0.6,0.2,1.2,0,1.4-0.6c1.5-3.4,3.4-6.7,5.6-9.7C-856.6-116-856.7-116.7-857.2-117.1"/>
	
		<path id="path3335" inkscape:connector-curvature="0" style="display:none;clip-path:url(#SVGID_00000044874409212291662280000006740597262695831944_);fill:#00A6E6;" d="
		M-864.2-66.4l-18.9,7.8c-0.6,0.2-0.8,0.9-0.6,1.4c2.3,5.2,5.1,10.2,8.5,14.8c0.4,0.5,1.1,0.6,1.6,0.2l16.2-12.4
		c0.5-0.4,0.6-1,0.2-1.5c-2.2-3-4.1-6.3-5.6-9.7C-863-66.4-863.7-66.7-864.2-66.4"/>
	
		<path id="path3339" inkscape:connector-curvature="0" style="display:none;clip-path:url(#SVGID_00000044874409212291662280000006740597262695831944_);fill:#1D1D1B;" d="
		M-713.1-71.4h-16.7c-1,0-1.6,0.2-1.9,0.4c-0.1,0-0.1,0.1-0.2,0.2l0,0l0,0c-2.6,1.7-6.3,3.3-11,3.3c-12.7,0-17.4-10.5-17.4-18.3
		c0-8.4,5.1-18.3,17.5-18.3c9,0,14.5,5.6,16,11.1c0.2,0.6,0.3,1.3-0.3,1.3h-24.2c-0.7,0-1.3,0.6-1.3,1.3v10.4c0,0.7,0.6,1.3,1.3,1.3
		h33.4c6.9,0,8.7-2.2,8.7-8.7c0-18.8-15.5-32.2-33.3-32.2c-17.8,0-33.7,13.7-33.7,31.7c0,19.9,11.1,36,33.8,36
		c18.9,0,27.3-11.2,30.7-18.1C-711.7-70.4-711.4-71.4-713.1-71.4"/>
	
		<path id="path3343" inkscape:connector-curvature="0" style="display:none;clip-path:url(#SVGID_00000044874409212291662280000006740597262695831944_);fill:#1D1D1B;" d="
		M-845.2-53.6c-0.5,0-0.9-0.4-0.9-0.9v-37c0-14,11.7-28.1,30.8-28.1c19,0,30.8,14,30.8,28.1v37c0,0.5-0.4,0.9-0.9,0.9h-15.1
		c-0.5,0-0.9-0.4-0.9-0.9v-34.8c0-6.6-4.8-13.3-13.8-13.3c-9,0-13.8,6.6-13.8,13.3v34.8c0,0.5-0.4,0.9-0.9,0.9H-845.2z"/>
	
		<path id="path3347" inkscape:connector-curvature="0" style="display:none;clip-path:url(#SVGID_00000044874409212291662280000006740597262695831944_);fill:#1D1D1B;" d="
		M-650.4-118c0.5,0,0.9,0.4,0.9,0.9v38.4c0,6.6,2.9,9.8,7.6,9.8s8.1-3.1,8.1-9.8v-38.4c0-0.5,0.4-0.9,0.9-0.9h15.9
		c0.5,0,0.9,0.4,0.9,0.9v39.6c0,15.6-10.5,25.4-23.2,25.4c-5.4,0-13.7-1.4-19.6-9.1c-4.9,7.7-12.8,9.1-18.5,9.1
		c-12.7,0-23.2-9.8-23.2-25.4v-39.6c0-0.5,0.4-0.9,0.9-0.9h15.9c0.5,0,0.9,0.4,0.9,0.9v38.4c0,6.6,3.6,9.8,8.1,9.8s7.6-3.1,7.6-9.8
		v-38.4c0-0.5,0.4-0.9,0.9-0.9H-650.4z"/>
	
		<path id="path3351" inkscape:connector-curvature="0" style="display:none;clip-path:url(#SVGID_00000044874409212291662280000006740597262695831944_);fill:#F6A500;" d="
		M-591.7-79l20.3,2.7c0.6,0.1,1.2-0.4,1.3-1c0.7-5.6,0.7-11.4,0-17c-0.1-0.6-0.6-1-1.3-1l-20.3,2.6c-0.6,0.1-1,0.6-0.9,1.2
		c0.4,3.7,0.4,7.5,0,11.2C-592.7-79.6-592.3-79.1-591.7-79"/>
	
		<path id="path3355" inkscape:connector-curvature="0" style="display:none;clip-path:url(#SVGID_00000044874409212291662280000006740597262695831944_);fill:#E73088;" d="
		M-602-54.6l16.2,12.5c0.5,0.4,1.2,0.3,1.6-0.2c3.4-4.6,6.3-9.5,8.5-14.7c0.2-0.6,0-1.2-0.6-1.4l-18.9-7.9c-0.6-0.2-1.2,0-1.4,0.6
		c-1.5,3.4-3.4,6.7-5.6,9.7C-602.5-55.7-602.5-55-602-54.6"/>
	
		<path id="path3359" inkscape:connector-curvature="0" style="display:none;clip-path:url(#SVGID_00000044874409212291662280000006740597262695831944_);fill:#009881;" d="
		M-595-105.3l18.9-7.8c0.6-0.2,0.8-0.9,0.6-1.5c-2.3-5.2-5.1-10.2-8.5-14.8c-0.4-0.5-1.1-0.6-1.6-0.2l-16.2,12.4
		c-0.5,0.4-0.6,1-0.2,1.5c2.2,3,4.1,6.3,5.6,9.7C-596.2-105.3-595.5-105-595-105.3"/>
</g>
</svg>
