<?xml version="1.0" encoding="utf-8"?>
<!-- Generator: Adobe Illustrator 27.7.0, SVG Export Plug-In . SVG Version: 6.00 Build 0)  -->
<svg version="1.1" id="Layer_1" xmlns="http://www.w3.org/2000/svg" xmlns:xlink="http://www.w3.org/1999/xlink" x="0px" y="0px"
	 viewBox="0 0 198.3 91.4" style="enable-background:new 0 0 198.3 91.4;" xml:space="preserve">
<style type="text/css">
	.st0{fill:#9D9FA2;}
</style>
<path class="st0" d="M164.3,2c-19.5,0-30.8,15.7-30.8,43.1c0,27.4,11.2,43.1,30.8,43.1c11.1,0,19.4-4.9,24.7-14.4
	c5-9.1,6.1-20.7,6.1-28.7C195,32.2,192,2,164.3,2 M164.3,80.9c-5.6,0-10.2-1.8-13.8-5.4c-7.8-7.9-9-22.4-9-30.4
	c0-10.8,2.2-35.8,22.8-35.8c20.6,0,22.8,25,22.8,35.8C187.1,55.9,184.8,80.9,164.3,80.9 M98.3,30.5c-8.9,0-17.1,4.4-22.1,11.5
	c1.1-15.6,6.1-32.6,23-32.6c9.5,0,16.7,6.2,18.3,15.8l0.2,1.5h7.9l-0.2-2C123.8,10.7,113.8,2,99.2,2C73.4,2,68,27.6,68,49.1
	c0,25.7,10.5,39.2,30.3,39.2c16.3,0,28.6-12.3,28.6-28.7C126.8,42.7,114.8,30.5,98.3,30.5 M98.3,80.9c-11.7,0-20.8-9.4-20.8-21.3
	c0-12.4,9-21.7,20.8-21.7c5.3,0,10.4,2.1,14.1,5.9c4.1,4.1,6.4,9.9,6.4,15.9C118.8,71.5,109.8,80.9,98.3,80.9 M61.8,62.8
	c0,15.4-11.4,25.3-29.1,25.3c-9.6,0-17.4-2.9-22.5-8.3c-4.9-5.2-7.3-12.6-6.9-21.4l0.1-1.7h8l-0.1,1.8c-0.3,6.7,1.5,12.2,5.3,16.1
	c3.8,3.9,9.4,6,16.2,6c10.5,0,21.1-6.2,21.1-17.9c0-4.9-1.5-8.7-4.5-11.5c-3.6-3.4-9.4-4.9-16.7-5h-5.5c0-1.9,0-5.8,0-7.8
	c2,0,4.1,0,5.5,0c3.9,0,11.5-1,15.6-4.9c2.5-2.4,3.8-5.7,3.8-9.8c0-9.6-9.7-14.6-19.3-14.6C23.2,9.2,16,15.4,14.4,25l-0.2,1.5H6.2
	l0.2-2C8,10.6,18.1,1.9,32.7,1.9c8.9,0,16.8,2.8,21.6,7.6C58,13.2,60,18,60,23.8c0,8.2-4.4,15.1-11.4,18.3
	C56.8,45.4,61.8,53.1,61.8,62.8"/>
</svg>
