<svg version="1.1" id="Layer_3" xmlns="http://www.w3.org/2000/svg" x="0" y="0" viewBox="0 0 420 150" style="enable-background:new 0 0 420 150" xml:space="preserve">
  <style>
    .st2{fill:url(#SVGID_00000056394673929355362660000002886737279489534605_)}.st3{fill:url(#SVGID_00000098183238961141449690000011575801526941837449_)}.st4{fill:url(#SVGID_00000029757559987817014000000002480583576565535900_)}.st5{fill:url(#SVGID_00000071538253802991888040000013321318579102368432_)}.st6{fill:url(#SVGID_00000103244760043842833170000013804250023603295395_)}.st7{fill:url(#SVGID_00000099663986924943033050000000117170716514306235_)}.st8{fill:url(#SVGID_00000183954985691024629220000010815158687216383628_)}.st9{fill:url(#SVGID_00000171678413241269041930000006557209051753740718_)}.st10{fill:url(#SVGID_00000167392999810461180850000018412093836479241088_)}.st11{fill:url(#SVGID_00000007412128000624129870000015819481678091446970_)}.st12{fill:url(#SVGID_00000075129211075532362760000011981815904846139796_)}
  </style>
  <path d="M386.15 9.25h-39.13c-4.17 0-8.29 1.01-11.98 2.95a8.98 8.98 0 0 0-6.64-2.95h-43.39c-4.33 0-8.56 1.08-12.33 3.14a8.93 8.93 0 0 0-6.81-3.14h-67.46a2 2 0 0 0-2 2V49.8h-14.34V18.2a8.97 8.97 0 0 0-8.96-8.96h-23.2a2 2 0 0 0-2 2v.77a25.54 25.54 0 0 0-11.63-2.77H97.15c-4.55 0-8.95 1.18-12.86 3.43a8.95 8.95 0 0 0-7.05-3.43H33.85A25.9 25.9 0 0 0 8 35.1v20.28c0 12.9 9.4 23.71 22.04 25.57 1.72 3.41 7.97 15.31 31.18 58.74a2 2 0 0 0 1.76 1.06h30.11c.74 0 1.41-.4 1.76-1.05l18.42-34.36v26.46a8.97 8.97 0 0 0 8.96 8.96h69.79c4.6 0 9.03-1.19 12.94-3.46a8.95 8.95 0 0 0 7.08 3.46h23.35a2 2 0 0 0 2-2v-1.05a25.61 25.61 0 0 0 12.18 3.05h39.13c4.58 0 9-1.19 12.93-3.47a8.94 8.94 0 0 0 7.08 3.47h23.73a2 2 0 0 0 2-2V100.2h21.26v31.6a8.97 8.97 0 0 0 8.96 8.96h23.73a2 2 0 0 0 2-2V94.62c0-4.75-1.31-9.38-3.73-13.39A25.88 25.88 0 0 0 412 55.38V35.1a25.88 25.88 0 0 0-25.85-25.85zm-298.86 72-9.26 16.04-9.26-16.04h18.52z" style="fill:#fff"/>
  <path d="M386.15 11.25h-39.13c-4.6 0-8.89 1.31-12.54 3.57a6.96 6.96 0 0 0-6.08-3.57h-43.39c-4.76 0-9.21 1.4-12.93 3.82a6.96 6.96 0 0 0-6.21-3.82h-67.46V51.8h-18.34V18.2a6.98 6.98 0 0 0-6.96-6.96h-23.2v4.29c-4-2.8-8.75-4.29-13.63-4.29H97.15c-5.01 0-9.67 1.56-13.52 4.21a6.96 6.96 0 0 0-6.39-4.21H33.85A23.9 23.9 0 0 0 10 35.1v20.28c0 12.3 9.36 22.46 21.33 23.72.13.66 31.65 59.65 31.65 59.65h30.11l22.19-41.38v34.42a6.98 6.98 0 0 0 6.96 6.96h69.79a23.7 23.7 0 0 0 13.6-4.25 6.95 6.95 0 0 0 6.41 4.25h23.35v-4.69a23.75 23.75 0 0 0 14.18 4.69h39.13c5.05 0 9.73-1.58 13.59-4.26a6.97 6.97 0 0 0 6.42 4.26h23.73V98.2h25.26v33.6a6.98 6.98 0 0 0 6.96 6.96h23.73V94.62c0-5.7-1.98-11.08-5.62-15.38h3.38A23.88 23.88 0 0 0 410 55.39V35.1a23.88 23.88 0 0 0-23.85-23.85zM78.03 101.29 65.31 79.25h25.44l-12.72 22.04z"/>
  <linearGradient id="SVGID_1_" gradientUnits="userSpaceOnUse" x1="16.77" y1="47.24" x2="400.05" y2="47.24" gradientTransform="matrix(1 0 0 -1 0 152)">
    <stop offset="0" style="stop-color:#ff809b"/>
    <stop offset=".05" style="stop-color:#fe829e"/>
    <stop offset=".07" style="stop-color:#eb7581"/>
    <stop offset=".1" style="stop-color:#fe5b38"/>
    <stop offset=".14" style="stop-color:#f35c3d"/>
    <stop offset=".3" style="stop-color:#f56236"/>
    <stop offset=".33" style="stop-color:#eb7549"/>
    <stop offset=".36" style="stop-color:#ea8540"/>
    <stop offset=".37" style="stop-color:#e99740"/>
    <stop offset=".47" style="stop-color:#e99940"/>
    <stop offset=".49" style="stop-color:#e8a641"/>
    <stop offset=".52" style="stop-color:#ede16b"/>
    <stop offset=".57" style="stop-color:#efe562"/>
    <stop offset=".61" style="stop-color:#efe464"/>
    <stop offset=".65" style="stop-color:#a8c662"/>
    <stop offset=".69" style="stop-color:#a7c860"/>
    <stop offset=".72" style="stop-color:#a8c961"/>
    <stop offset=".75" style="stop-color:#a6c75f"/>
    <stop offset=".76" style="stop-color:#94c077"/>
    <stop offset=".76" style="stop-color:#92c182"/>
    <stop offset=".91" style="stop-color:#91c59d"/>
    <stop offset=".93" style="stop-color:#7ec1bd"/>
    <stop offset="1" style="stop-color:#63bce9"/>
  </linearGradient>
  <path d="M79.98 114.65a2.21 2.21 0 0 1-3.89 0L56.25 77.72h-18.1l29.01 54.07h21.76l29.01-54.07H99.76l-19.78 36.93z" style="fill:url(#SVGID_1_)"/>
  <linearGradient id="SVGID_00000170253157778316165400000000977080892050266772_" gradientUnits="userSpaceOnUse" x1="16.77" y1="47.24" x2="400.05" y2="47.24" gradientTransform="matrix(1 0 0 -1 0 152)">
    <stop offset="0" style="stop-color:#ff809b"/>
    <stop offset=".05" style="stop-color:#fe829e"/>
    <stop offset=".07" style="stop-color:#eb7581"/>
    <stop offset=".1" style="stop-color:#fe5b38"/>
    <stop offset=".14" style="stop-color:#f35c3d"/>
    <stop offset=".3" style="stop-color:#f56236"/>
    <stop offset=".33" style="stop-color:#eb7549"/>
    <stop offset=".36" style="stop-color:#ea8540"/>
    <stop offset=".37" style="stop-color:#e99740"/>
    <stop offset=".47" style="stop-color:#e99940"/>
    <stop offset=".49" style="stop-color:#e8a641"/>
    <stop offset=".52" style="stop-color:#ede16b"/>
    <stop offset=".57" style="stop-color:#efe562"/>
    <stop offset=".61" style="stop-color:#efe464"/>
    <stop offset=".65" style="stop-color:#a8c662"/>
    <stop offset=".69" style="stop-color:#a7c860"/>
    <stop offset=".72" style="stop-color:#a8c961"/>
    <stop offset=".75" style="stop-color:#a6c75f"/>
    <stop offset=".76" style="stop-color:#94c077"/>
    <stop offset=".76" style="stop-color:#92c182"/>
    <stop offset=".91" style="stop-color:#91c59d"/>
    <stop offset=".93" style="stop-color:#7ec1bd"/>
    <stop offset="1" style="stop-color:#63bce9"/>
  </linearGradient>
  <path style="fill:url(#SVGID_00000170253157778316165400000000977080892050266772_)" d="M192.02 98h-29.09c-1.87 0-3.38-1.09-3.38-3.38s1.51-3.38 3.38-3.38h43.61V77.72h-46.86a16.9 16.9 0 0 0 0 33.8h29.09c1.87 0 3.38 1.81 3.38 3.38s-1.51 3.38-3.38 3.38h-45.08v13.52h48.34a16.9 16.9 0 1 0-.01-33.8z"/>
  <linearGradient id="SVGID_00000178165894598832384160000002628037304573611187_" gradientUnits="userSpaceOnUse" x1="16.77" y1="106.75" x2="400.05" y2="106.75" gradientTransform="matrix(1 0 0 -1 0 152)">
    <stop offset="0" style="stop-color:#ff809b"/>
    <stop offset=".05" style="stop-color:#fe829e"/>
    <stop offset=".07" style="stop-color:#eb7581"/>
    <stop offset=".1" style="stop-color:#fe5b38"/>
    <stop offset=".14" style="stop-color:#f35c3d"/>
    <stop offset=".3" style="stop-color:#f56236"/>
    <stop offset=".33" style="stop-color:#eb7549"/>
    <stop offset=".36" style="stop-color:#ea8540"/>
    <stop offset=".37" style="stop-color:#e99740"/>
    <stop offset=".47" style="stop-color:#e99940"/>
    <stop offset=".49" style="stop-color:#e8a641"/>
    <stop offset=".52" style="stop-color:#ede16b"/>
    <stop offset=".57" style="stop-color:#efe562"/>
    <stop offset=".61" style="stop-color:#efe464"/>
    <stop offset=".65" style="stop-color:#a8c662"/>
    <stop offset=".69" style="stop-color:#a7c860"/>
    <stop offset=".72" style="stop-color:#a8c961"/>
    <stop offset=".75" style="stop-color:#a6c75f"/>
    <stop offset=".76" style="stop-color:#94c077"/>
    <stop offset=".76" style="stop-color:#92c182"/>
    <stop offset=".91" style="stop-color:#91c59d"/>
    <stop offset=".93" style="stop-color:#7ec1bd"/>
    <stop offset="1" style="stop-color:#63bce9"/>
  </linearGradient>
  <path style="fill:url(#SVGID_00000178165894598832384160000002628037304573611187_)" d="M77.24 58.76H40.69a6.98 6.98 0 0 1-6.96-6.96V38.68a6.98 6.98 0 0 1 6.96-6.96h36.55V18.21H33.85c-9.29 0-16.9 7.6-16.9 16.9v20.28c0 9.29 7.6 16.9 16.9 16.9h43.39V58.76z"/>
  <linearGradient id="SVGID_00000159460745954203877830000002128961389207735468_" gradientUnits="userSpaceOnUse" x1="16.77" y1="106.76" x2="400.05" y2="106.76" gradientTransform="matrix(1 0 0 -1 0 152)">
    <stop offset="0" style="stop-color:#ff809b"/>
    <stop offset=".05" style="stop-color:#fe829e"/>
    <stop offset=".07" style="stop-color:#eb7581"/>
    <stop offset=".1" style="stop-color:#fe5b38"/>
    <stop offset=".14" style="stop-color:#f35c3d"/>
    <stop offset=".3" style="stop-color:#f56236"/>
    <stop offset=".33" style="stop-color:#eb7549"/>
    <stop offset=".36" style="stop-color:#ea8540"/>
    <stop offset=".37" style="stop-color:#e99740"/>
    <stop offset=".47" style="stop-color:#e99940"/>
    <stop offset=".49" style="stop-color:#e8a641"/>
    <stop offset=".52" style="stop-color:#ede16b"/>
    <stop offset=".57" style="stop-color:#efe562"/>
    <stop offset=".61" style="stop-color:#efe464"/>
    <stop offset=".65" style="stop-color:#a8c662"/>
    <stop offset=".69" style="stop-color:#a7c860"/>
    <stop offset=".72" style="stop-color:#a8c961"/>
    <stop offset=".75" style="stop-color:#a6c75f"/>
    <stop offset=".76" style="stop-color:#94c077"/>
    <stop offset=".76" style="stop-color:#92c182"/>
    <stop offset=".91" style="stop-color:#91c59d"/>
    <stop offset=".93" style="stop-color:#7ec1bd"/>
    <stop offset="1" style="stop-color:#63bce9"/>
  </linearGradient>
  <path style="fill:url(#SVGID_00000159460745954203877830000002128961389207735468_)" d="M173.24 72.28h29.21V58.76h-22.37a6.98 6.98 0 0 1-6.96-6.96V18.2h-16.77v37.17a16.89 16.89 0 0 0 16.87 16.91h.02z"/>
  <linearGradient id="SVGID_00000047771124936840639570000010413644445567804593_" gradientUnits="userSpaceOnUse" x1="16.77" y1="106.75" x2="400.05" y2="106.75" gradientTransform="matrix(1 0 0 -1 0 152)">
    <stop offset="0" style="stop-color:#ff809b"/>
    <stop offset=".05" style="stop-color:#fe829e"/>
    <stop offset=".07" style="stop-color:#eb7581"/>
    <stop offset=".1" style="stop-color:#fe5b38"/>
    <stop offset=".14" style="stop-color:#f35c3d"/>
    <stop offset=".3" style="stop-color:#f56236"/>
    <stop offset=".33" style="stop-color:#eb7549"/>
    <stop offset=".36" style="stop-color:#ea8540"/>
    <stop offset=".37" style="stop-color:#e99740"/>
    <stop offset=".47" style="stop-color:#e99940"/>
    <stop offset=".49" style="stop-color:#e8a641"/>
    <stop offset=".52" style="stop-color:#ede16b"/>
    <stop offset=".57" style="stop-color:#efe562"/>
    <stop offset=".61" style="stop-color:#efe464"/>
    <stop offset=".65" style="stop-color:#a8c662"/>
    <stop offset=".69" style="stop-color:#a7c860"/>
    <stop offset=".72" style="stop-color:#a8c961"/>
    <stop offset=".75" style="stop-color:#a6c75f"/>
    <stop offset=".76" style="stop-color:#94c077"/>
    <stop offset=".76" style="stop-color:#92c182"/>
    <stop offset=".91" style="stop-color:#91c59d"/>
    <stop offset=".93" style="stop-color:#7ec1bd"/>
    <stop offset="1" style="stop-color:#63bce9"/>
  </linearGradient>
  <path style="fill:url(#SVGID_00000047771124936840639570000010413644445567804593_)" d="M265.87 72.28V58.76h-39.85a3.81 3.81 0 0 1-3.89-3.73v-.16a3.82 3.82 0 0 1 3.75-3.89h36.97V39.5h-36.83c-2.15 0-3.89-1.83-3.89-3.89s1.74-3.89 3.89-3.89h39.85V18.21h-60.5v37.17a16.9 16.9 0 0 0 16.9 16.9h43.6z"/>
  <linearGradient id="SVGID_00000170967180119102120980000014870985591373894035_" gradientUnits="userSpaceOnUse" x1="16.77" y1="106.76" x2="400.05" y2="106.76" gradientTransform="matrix(1 0 0 -1 0 152)">
    <stop offset="0" style="stop-color:#ff809b"/>
    <stop offset=".05" style="stop-color:#fe829e"/>
    <stop offset=".07" style="stop-color:#eb7581"/>
    <stop offset=".1" style="stop-color:#fe5b38"/>
    <stop offset=".14" style="stop-color:#f35c3d"/>
    <stop offset=".3" style="stop-color:#f56236"/>
    <stop offset=".33" style="stop-color:#eb7549"/>
    <stop offset=".36" style="stop-color:#ea8540"/>
    <stop offset=".37" style="stop-color:#e99740"/>
    <stop offset=".47" style="stop-color:#e99940"/>
    <stop offset=".49" style="stop-color:#e8a641"/>
    <stop offset=".52" style="stop-color:#ede16b"/>
    <stop offset=".57" style="stop-color:#efe562"/>
    <stop offset=".61" style="stop-color:#efe464"/>
    <stop offset=".65" style="stop-color:#a8c662"/>
    <stop offset=".69" style="stop-color:#a7c860"/>
    <stop offset=".72" style="stop-color:#a8c961"/>
    <stop offset=".75" style="stop-color:#a6c75f"/>
    <stop offset=".76" style="stop-color:#94c077"/>
    <stop offset=".76" style="stop-color:#92c182"/>
    <stop offset=".91" style="stop-color:#91c59d"/>
    <stop offset=".93" style="stop-color:#7ec1bd"/>
    <stop offset="1" style="stop-color:#63bce9"/>
  </linearGradient>
  <path style="fill:url(#SVGID_00000170967180119102120980000014870985591373894035_)" d="M97.15 72.28h39.13c9.29 0 16.9-7.6 16.9-16.9V35.1c0-9.29-7.6-16.9-16.9-16.9H97.15c-9.29 0-16.9 7.6-16.9 16.9v20.28a16.96 16.96 0 0 0 16.9 16.9zm-.12-33.6a6.98 6.98 0 0 1 6.96-6.96h25.46a6.98 6.98 0 0 1 6.96 6.96V51.8a6.98 6.98 0 0 1-6.96 6.96h-25.46a6.98 6.98 0 0 1-6.96-6.96V38.68z"/>
  <linearGradient id="SVGID_00000165957492473322812780000008461313583871852717_" gradientUnits="userSpaceOnUse" x1="16.77" y1="106.75" x2="400.05" y2="106.75" gradientTransform="matrix(1 0 0 -1 0 152)">
    <stop offset="0" style="stop-color:#ff809b"/>
    <stop offset=".05" style="stop-color:#fe829e"/>
    <stop offset=".07" style="stop-color:#eb7581"/>
    <stop offset=".1" style="stop-color:#fe5b38"/>
    <stop offset=".14" style="stop-color:#f35c3d"/>
    <stop offset=".3" style="stop-color:#f56236"/>
    <stop offset=".33" style="stop-color:#eb7549"/>
    <stop offset=".36" style="stop-color:#ea8540"/>
    <stop offset=".37" style="stop-color:#e99740"/>
    <stop offset=".47" style="stop-color:#e99940"/>
    <stop offset=".49" style="stop-color:#e8a641"/>
    <stop offset=".52" style="stop-color:#ede16b"/>
    <stop offset=".57" style="stop-color:#efe562"/>
    <stop offset=".61" style="stop-color:#efe464"/>
    <stop offset=".65" style="stop-color:#a8c662"/>
    <stop offset=".69" style="stop-color:#a7c860"/>
    <stop offset=".72" style="stop-color:#a8c961"/>
    <stop offset=".75" style="stop-color:#a6c75f"/>
    <stop offset=".76" style="stop-color:#94c077"/>
    <stop offset=".76" style="stop-color:#92c182"/>
    <stop offset=".91" style="stop-color:#91c59d"/>
    <stop offset=".93" style="stop-color:#7ec1bd"/>
    <stop offset="1" style="stop-color:#63bce9"/>
  </linearGradient>
  <path style="fill:url(#SVGID_00000165957492473322812780000008461313583871852717_)" d="M285.01 72.28h43.39V58.76h-36.55a6.98 6.98 0 0 1-6.96-6.96V38.68a6.98 6.98 0 0 1 6.96-6.96h36.55V18.21h-43.39c-9.29 0-16.9 7.6-16.9 16.9v20.28a16.95 16.95 0 0 0 16.9 16.89z"/>
  <linearGradient id="SVGID_00000003800336205836736790000017127685192883055240_" gradientUnits="userSpaceOnUse" x1="16.77" y1="106.75" x2="400.05" y2="106.75" gradientTransform="matrix(1 0 0 -1 0 152)">
    <stop offset="0" style="stop-color:#ff809b"/>
    <stop offset=".05" style="stop-color:#fe829e"/>
    <stop offset=".07" style="stop-color:#eb7581"/>
    <stop offset=".1" style="stop-color:#fe5b38"/>
    <stop offset=".14" style="stop-color:#f35c3d"/>
    <stop offset=".3" style="stop-color:#f56236"/>
    <stop offset=".33" style="stop-color:#eb7549"/>
    <stop offset=".36" style="stop-color:#ea8540"/>
    <stop offset=".37" style="stop-color:#e99740"/>
    <stop offset=".47" style="stop-color:#e99940"/>
    <stop offset=".49" style="stop-color:#e8a641"/>
    <stop offset=".52" style="stop-color:#ede16b"/>
    <stop offset=".57" style="stop-color:#efe562"/>
    <stop offset=".61" style="stop-color:#efe464"/>
    <stop offset=".65" style="stop-color:#a8c662"/>
    <stop offset=".69" style="stop-color:#a7c860"/>
    <stop offset=".72" style="stop-color:#a8c961"/>
    <stop offset=".75" style="stop-color:#a6c75f"/>
    <stop offset=".76" style="stop-color:#94c077"/>
    <stop offset=".76" style="stop-color:#92c182"/>
    <stop offset=".91" style="stop-color:#91c59d"/>
    <stop offset=".93" style="stop-color:#7ec1bd"/>
    <stop offset="1" style="stop-color:#63bce9"/>
  </linearGradient>
  <path style="fill:url(#SVGID_00000003800336205836736790000017127685192883055240_)" d="M386.15 18.21h-39.13c-9.29 0-16.9 7.6-16.9 16.9v20.28c0 9.29 7.6 16.9 16.9 16.9h39.13c9.29 0 16.9-7.6 16.9-16.9V35.1a16.95 16.95 0 0 0-16.9-16.89zm.12 33.59a6.98 6.98 0 0 1-6.96 6.96h-25.46a6.98 6.98 0 0 1-6.96-6.96V38.68a6.98 6.98 0 0 1 6.96-6.96h25.46a6.98 6.98 0 0 1 6.96 6.96V51.8z"/>
  <linearGradient id="SVGID_00000144298862349047524770000004973050712855015614_" gradientUnits="userSpaceOnUse" x1="16.77" y1="47.24" x2="400.05" y2="47.24" gradientTransform="matrix(1 0 0 -1 0 152)">
    <stop offset="0" style="stop-color:#ff809b"/>
    <stop offset=".05" style="stop-color:#fe829e"/>
    <stop offset=".07" style="stop-color:#eb7581"/>
    <stop offset=".1" style="stop-color:#fe5b38"/>
    <stop offset=".14" style="stop-color:#f35c3d"/>
    <stop offset=".3" style="stop-color:#f56236"/>
    <stop offset=".33" style="stop-color:#eb7549"/>
    <stop offset=".36" style="stop-color:#ea8540"/>
    <stop offset=".37" style="stop-color:#e99740"/>
    <stop offset=".47" style="stop-color:#e99940"/>
    <stop offset=".49" style="stop-color:#e8a641"/>
    <stop offset=".52" style="stop-color:#ede16b"/>
    <stop offset=".57" style="stop-color:#efe562"/>
    <stop offset=".61" style="stop-color:#efe464"/>
    <stop offset=".65" style="stop-color:#a8c662"/>
    <stop offset=".69" style="stop-color:#a7c860"/>
    <stop offset=".72" style="stop-color:#a8c961"/>
    <stop offset=".75" style="stop-color:#a6c75f"/>
    <stop offset=".76" style="stop-color:#94c077"/>
    <stop offset=".76" style="stop-color:#92c182"/>
    <stop offset=".91" style="stop-color:#91c59d"/>
    <stop offset=".93" style="stop-color:#7ec1bd"/>
    <stop offset="1" style="stop-color:#63bce9"/>
  </linearGradient>
  <path style="fill:url(#SVGID_00000144298862349047524770000004973050712855015614_)" d="M288.7 77.72h-39.13c-9.29 0-16.9 7.6-16.9 16.9v20.28c0 9.29 7.6 16.9 16.9 16.9h39.13c9.29 0 16.9-7.6 16.9-16.9V94.62a16.96 16.96 0 0 0-16.9-16.9zm.12 33.6a6.98 6.98 0 0 1-6.96 6.96H256.4a6.98 6.98 0 0 1-6.96-6.96V98.2a6.98 6.98 0 0 1 6.96-6.96h25.46a6.98 6.98 0 0 1 6.96 6.96v13.12z"/>
  <linearGradient id="SVGID_00000074414624697793150500000018212030733622346121_" gradientUnits="userSpaceOnUse" x1="16.77" y1="47.24" x2="400.05" y2="47.24" gradientTransform="matrix(1 0 0 -1 0 152)">
    <stop offset="0" style="stop-color:#ff809b"/>
    <stop offset=".05" style="stop-color:#fe829e"/>
    <stop offset=".07" style="stop-color:#eb7581"/>
    <stop offset=".1" style="stop-color:#fe5b38"/>
    <stop offset=".14" style="stop-color:#f35c3d"/>
    <stop offset=".3" style="stop-color:#f56236"/>
    <stop offset=".33" style="stop-color:#eb7549"/>
    <stop offset=".36" style="stop-color:#ea8540"/>
    <stop offset=".37" style="stop-color:#e99740"/>
    <stop offset=".47" style="stop-color:#e99940"/>
    <stop offset=".49" style="stop-color:#e8a641"/>
    <stop offset=".52" style="stop-color:#ede16b"/>
    <stop offset=".57" style="stop-color:#efe562"/>
    <stop offset=".61" style="stop-color:#efe464"/>
    <stop offset=".65" style="stop-color:#a8c662"/>
    <stop offset=".69" style="stop-color:#a7c860"/>
    <stop offset=".72" style="stop-color:#a8c961"/>
    <stop offset=".75" style="stop-color:#a6c75f"/>
    <stop offset=".76" style="stop-color:#94c077"/>
    <stop offset=".76" style="stop-color:#92c182"/>
    <stop offset=".91" style="stop-color:#91c59d"/>
    <stop offset=".93" style="stop-color:#7ec1bd"/>
    <stop offset="1" style="stop-color:#63bce9"/>
  </linearGradient>
  <path style="fill:url(#SVGID_00000074414624697793150500000018212030733622346121_)" d="M122.23 131.79H139V77.72h-16.77v54.07z"/>
  <linearGradient id="SVGID_00000034091522569499096210000017492494641054368921_" gradientUnits="userSpaceOnUse" x1="16.77" y1="47.24" x2="400.05" y2="47.24" gradientTransform="matrix(1 0 0 -1 0 152)">
    <stop offset="0" style="stop-color:#ff809b"/>
    <stop offset=".05" style="stop-color:#fe829e"/>
    <stop offset=".07" style="stop-color:#eb7581"/>
    <stop offset=".1" style="stop-color:#fe5b38"/>
    <stop offset=".14" style="stop-color:#f35c3d"/>
    <stop offset=".3" style="stop-color:#f56236"/>
    <stop offset=".33" style="stop-color:#eb7549"/>
    <stop offset=".36" style="stop-color:#ea8540"/>
    <stop offset=".37" style="stop-color:#e99740"/>
    <stop offset=".47" style="stop-color:#e99940"/>
    <stop offset=".49" style="stop-color:#e8a641"/>
    <stop offset=".52" style="stop-color:#ede16b"/>
    <stop offset=".57" style="stop-color:#efe562"/>
    <stop offset=".61" style="stop-color:#efe464"/>
    <stop offset=".65" style="stop-color:#a8c662"/>
    <stop offset=".69" style="stop-color:#a7c860"/>
    <stop offset=".72" style="stop-color:#a8c961"/>
    <stop offset=".75" style="stop-color:#a6c75f"/>
    <stop offset=".76" style="stop-color:#94c077"/>
    <stop offset=".76" style="stop-color:#92c182"/>
    <stop offset=".91" style="stop-color:#91c59d"/>
    <stop offset=".93" style="stop-color:#7ec1bd"/>
    <stop offset="1" style="stop-color:#63bce9"/>
  </linearGradient>
  <path style="fill:url(#SVGID_00000034091522569499096210000017492494641054368921_)" d="M212.04 131.79h16.77V77.72h-16.77v54.07z"/>
  <linearGradient id="SVGID_00000046316400393776809320000017029069420188131515_" gradientUnits="userSpaceOnUse" x1="16.77" y1="47.24" x2="400.05" y2="47.24" gradientTransform="matrix(1 0 0 -1 0 152)">
    <stop offset="0" style="stop-color:#ff809b"/>
    <stop offset=".05" style="stop-color:#fe829e"/>
    <stop offset=".07" style="stop-color:#eb7581"/>
    <stop offset=".1" style="stop-color:#fe5b38"/>
    <stop offset=".14" style="stop-color:#f35c3d"/>
    <stop offset=".3" style="stop-color:#f56236"/>
    <stop offset=".33" style="stop-color:#eb7549"/>
    <stop offset=".36" style="stop-color:#ea8540"/>
    <stop offset=".37" style="stop-color:#e99740"/>
    <stop offset=".47" style="stop-color:#e99940"/>
    <stop offset=".49" style="stop-color:#e8a641"/>
    <stop offset=".52" style="stop-color:#ede16b"/>
    <stop offset=".57" style="stop-color:#efe562"/>
    <stop offset=".61" style="stop-color:#efe464"/>
    <stop offset=".65" style="stop-color:#a8c662"/>
    <stop offset=".69" style="stop-color:#a7c860"/>
    <stop offset=".72" style="stop-color:#a8c961"/>
    <stop offset=".75" style="stop-color:#a6c75f"/>
    <stop offset=".76" style="stop-color:#94c077"/>
    <stop offset=".76" style="stop-color:#92c182"/>
    <stop offset=".91" style="stop-color:#91c59d"/>
    <stop offset=".93" style="stop-color:#7ec1bd"/>
    <stop offset="1" style="stop-color:#63bce9"/>
  </linearGradient>
  <path style="fill:url(#SVGID_00000046316400393776809320000017029069420188131515_)" d="M364.53 77.72h-55.82v54.07h16.77V98.2a6.98 6.98 0 0 1 6.96-6.96h25.26a6.98 6.98 0 0 1 6.96 6.96v33.6h16.77V94.62a16.9 16.9 0 0 0-16.9-16.9z"/>
</svg>
