<svg enable-background="new 0 0 400 400" height="316.227766" viewBox="0 0 400 400" width="316.227766" xmlns="http://www.w3.org/2000/svg"><path d="m342.8 178.1-4.5-2.7c-.5-.3-13.4-7.9-40.4-7.9-1 0-3.9 0-8.3 0-36-41.3-61.9-89.6-76.8-143.6l-5.5-20-5.5 20c-15.1 54.6-41.3 103.4-77.9 144.9l-19.9.2h-3.8l-1.5 3.5c-8.9 21.2-20.6 43.2-34.7 65.3l-5.6 8.7 10.4.1 66.6.6c31.2 38.5 52.9 81.1 66.4 130l5.5 20 5.5-20c13.4-48.4 34.8-90.6 65.5-128.8 10.8.1 16.6.1 18.1.1 15.9 0 27.6-3.9 34.9-11.7 6.6-7.1 7.6-15.2 7.6-19.5 0-6.6-2.3-12.5-6.7-17.4l8.4-17.1z" fill="#a7a8aa"/><path d="m297.8 170.3c-1.1 0-4.5 0-9.6.1-36.8-41.8-63.1-90.8-78.3-145.8l-2.8-10-2.8 10c-15.3 55.5-42.1 104.9-79.4 147l-23 .2-.7 1.7c-9 21.4-20.7 43.5-34.9 65.7l-2.8 4.4 73.1.6c31.9 39.1 54.1 82.3 67.8 132.1l2.8 10 2.8-10c13.6-49.2 35.5-92.1 66.9-130.9 10.7.1 17.8.1 19.4.1 36.8 0 39.7-21.7 39.7-28.3s-2.5-12.3-7.4-16.8l10.4-21.3-2.3-1.4c-.4-.1-12.7-7.4-38.9-7.4z"/><path d="m227.1 266.2c-5.1-8-9.9-15-14.8-21.8h-18.8s11.7 13.5 25 36.4c2.8 4.8 5.7 10.1 8.6 15.7 2.9-5.6 5.8-10.9 8.6-15.7 13.4-22.9 25-36.4 25-36.4h-18.8c-5 7-9.8 13.8-14.8 21.8" fill="#a7a8aa"/><path d="m207.2 303.2c-12.9-27.2-23.9-43.5-34.9-58.7h-18.8s35.3 40.9 53.6 101.1c4.8-15.6 10-28.2 16.1-40.8-2.8-5.8-5.7-11.3-8.5-16.3-2.6 4.8-4.6 8.6-7.5 14.7" fill="#a7a8aa"/><path d="m207 96.6c12.9 27.2 23.9 43.5 34.9 58.7h18.8s-35.3-40.9-53.6-101.1c-18.3 60.2-53.6 101.1-53.6 101.1h18.8c11.3-15.6 21.4-30.3 34.7-58.7" fill="#fff"/><path d="m197.2 135.9c5.2 2 8.7 6.5 9.9 16.3 1.2-9.8 4.6-14.3 9.9-16.3-5.2-2-8.7-6.5-9.9-16.3-1.2 9.9-4.6 14.3-9.9 16.3" fill="#a7a8aa"/><g fill="#fff"><path d="m110.5 183.9c-6.6 16.1-14.8 32-24.3 47.2h14.7c1.4-2.4 2.9-5 4.4-7.6l.2-.3h24.4l.2.3c1.5 2.6 2.9 5.1 4.4 7.6h14.5c-9.5-15.2-17.7-31.1-24.3-47.2zm.3 29.2.4-.8c1.9-3.8 3.9-7.8 5.8-11.9l.5-1.1.5 1.1c1.9 4.1 3.9 8.1 5.9 11.9l.4.8z"/><path d="m324.1 217.3c0-8.3-6.9-11.7-18.2-14.5l-3.1-.8c-9.5-2.3-14.2-3.5-14.2-6.2 0-2.2 3.6-3.6 9.7-3.6 8.8 0 14.5 1.6 18.8 5.4l5.7-11.5c-7.4-2.7-14.1-3.8-24.5-3.8-21.2 0-24.3 8.8-24.3 14 0 8.6 6.3 11.6 19.5 14.9l2.9.7c8.2 2 12.8 3.1 12.8 6.1 0 2.9-4.6 4.6-12.4 4.6-8.4 0-15.4-2-19.8-5.8l-5.5 12.4c7 2.5 15.1 3.6 25.3 3.6 12.4.2 27.3-2.6 27.3-15.5z"/><path d="m182.2 221.9c-11 0-16.8-7.3-16.8-14.4 0-7.2 5.8-14.4 16.8-14.4 6.7 0 12.5 2.3 16.6 6.6l5.8-12.1c-6.6-3.5-13.9-5.1-23-5.1-17.3 0-30.3 10.8-30.3 25.1s13 25.1 30.3 25.1c9 0 16.4-1.6 23-5.1l-5.8-12.1c-4.2 4.1-9.9 6.4-16.6 6.4z"/><path d="m229.4 221.1v-9.4h26v-9.3h-26v-9.2h23c4 .2 7.3 1.1 9.7 2.5l3.7-11.8h-50.8c.5 1.4 1.4 4.4 1.4 9.6v28c0 5.2-.9 8.2-1.4 9.6h46.8v-12.3c-2.3 1.3-5.5 2.1-9.4 2.3z"/><path d="m145 172.3v-9.1h2.3v7.1h8.1v2z"/><path d="m169.2 172.3-1.1-1.8h-6.4l-1.1 1.8h-2.4l5.2-9.1h2.9l5.2 9.1zm-4.2-7.4-2.1 3.6h4.2z"/><path d="m185.5 169.4c0 .4-.1.9-.4 1.3-.2.4-.6.7-1.1 1s-1.1.5-1.9.7-1.6.3-2.7.3c-.5 0-1.1 0-1.6-.1s-1-.2-1.6-.3-1.1-.4-1.7-.6l.8-1.8c.5.2 1 .4 1.4.6.5.1.9.2 1.3.3.5.1.9.1 1.3.1 1.3 0 2.3-.1 2.9-.4.6-.2 1-.5 1-.9 0-.2-.1-.4-.3-.5s-.5-.2-.9-.2c-.1 0-.3 0-.5 0-.3 0-.6 0-1 0s-.8 0-1.3-.1c-.5 0-1 0-1.5-.1-.5 0-1-.1-1.4-.2s-.8-.3-1.1-.5-.5-.5-.7-.8-.3-.7-.3-1.1.1-.8.4-1.2.7-.7 1.2-1 1.1-.5 1.8-.6c.7-.2 1.5-.2 2.4-.2.5 0 1.1 0 1.6.1s1 .2 1.6.3 1.1.3 1.7.6l-.7 1.8c-.3-.1-.6-.2-.9-.3s-.7-.2-1.1-.3-.7-.1-1.1-.2c-.4 0-.7-.1-1.1-.1-.5 0-1 0-1.4.1-.4 0-.8.1-1.2.2-.3.1-.6.2-.8.4-.2.1-.3.3-.3.5s.1.4.3.5.5.2.8.2c.4 0 1 0 1.8.1.8 0 1.6.1 2.7.1.5 0 1 .1 1.4.2s.8.3 1.1.5.5.5.7.8c.4.1.4.4.4.8z"/><path d="m204.8 172.3h-2.9l-4.7-9.1h2.5l3.7 7.2 3.7-7.2h2.5z"/><path d="m212.8 172.3v-9.1h10.9v2h-8.7v1.6h7.6v1.8h-7.6v1.8h9v2h-11.2z"/><path d="m240.1 167.8c0 .7-.1 1.3-.4 1.9s-.7 1.1-1.2 1.5-1.2.8-2 1.1-1.7.4-2.7.4-1.9-.1-2.7-.4-1.4-.6-2-1.1c-.5-.4-1-1-1.2-1.5-.3-.6-.4-1.2-.4-1.9s.1-1.3.4-1.9.7-1.1 1.2-1.5 1.2-.8 2-1.1 1.7-.4 2.7-.4c.7 0 1.3.1 1.8.2.6.1 1.1.3 1.5.5.5.2.9.5 1.2.8.4.3.7.6.9 1l-2 1c-.3-.4-.7-.8-1.3-1.1s-1.3-.4-2.2-.4c-.7 0-1.2.1-1.7.2-.5.2-.9.4-1.3.6-.3.3-.6.6-.8.9s-.3.7-.3 1.1.1.8.3 1.1.4.7.8.9c.3.3.8.5 1.3.6.5.2 1.1.2 1.7.2 1 0 1.8-.2 2.4-.5s1.1-.8 1.3-1.3h-4.6v-1.8h7.2v.3c.1.4.1.5.1.6z"/><path d="m253.9 172.3-1.1-1.8h-6.4l-1.1 1.8h-2.3l5.2-9.1h2.9l5.2 9.1zm-4.2-7.4-2.1 3.6h4.2z"/><path d="m270.2 169.4c0 .4-.1.9-.4 1.3-.2.4-.6.7-1.1 1s-1.1.5-1.9.7-1.6.3-2.7.3c-.5 0-1.1 0-1.6-.1s-1-.2-1.6-.3-1.1-.4-1.7-.6l.8-1.8c.5.2 1 .4 1.4.6.5.1.9.2 1.3.3.5.1.9.1 1.3.1 1.3 0 2.3-.1 2.9-.4.6-.2 1-.5 1-.9 0-.2-.1-.4-.3-.5s-.5-.2-.9-.2c-.1 0-.3 0-.5 0-.3 0-.6 0-1 0s-.8 0-1.3-.1c-.5 0-1 0-1.5-.1-.5 0-1-.1-1.4-.2s-.8-.3-1.1-.5-.5-.5-.7-.8-.3-.7-.3-1.1.1-.8.4-1.2.7-.7 1.2-1 1.1-.5 1.8-.6c.7-.2 1.5-.2 2.4-.2.5 0 1.1 0 1.6.1s1 .2 1.6.3 1.1.3 1.7.6l-.7 1.8c-.3-.1-.6-.2-.9-.3s-.7-.2-1.1-.3-.7-.1-1.1-.2c-.4 0-.7-.1-1.1-.1-.5 0-1 0-1.4.1s-.8.1-1.2.2c-.3.1-.6.2-.8.4-.2.1-.3.3-.3.5s.1.4.3.5.5.2.8.2c.4 0 1 0 1.8.1.8 0 1.6.1 2.7.1.5 0 1 .1 1.4.2s.8.3 1.1.5.5.5.7.8c.3.1.4.4.4.8z"/></g></svg>