<?xml version="1.0" encoding="utf-8"?>

<!-- License Agreement at http://iconmonstr.com/license/ -->

<!DOCTYPE svg PUBLIC "-//W3C//DTD SVG 1.1//EN" "http://www.w3.org/Graphics/SVG/1.1/DTD/svg11.dtd">
<svg version="1.1" xmlns="http://www.w3.org/2000/svg" xmlns:xlink="http://www.w3.org/1999/xlink" x="0px" y="0px"
	 width="50%" height="50%" max-width="200px" fill="#ffffff" viewBox="0 0 512 512" style="enable-background:new 0 0 512 512;" xml:space="preserve">
<path id="disk-4-icon" d="M255.899,202.388c-7.846,0-14.183,4.762-14.183,10.646c0,6.002,6.337,10.755,14.183,10.755
	c8.013,0,14.367-4.753,14.367-10.755C270.267,207.149,263.912,202.388,255.899,202.388z M255.899,236.805
	c-17.418,0-31.701-10.569-31.701-23.779c0-13.094,14.283-23.663,31.701-23.663c17.603,0,31.701,10.569,31.701,23.663
	C287.601,226.235,273.502,236.805,255.899,236.805z M218.616,189.924l-11.098-2.767c4.442-5.029,10.176-9.472,17.418-12.808
	c7.41-3.336,15.206-5.004,23.185-5.7l-1.676,8.76c-5.365,0.704-10.562,2.079-15.574,4.325
	C225.858,183.956,221.968,186.722,218.616,189.924z M196.386,184.216l-10.947-2.909c6.488-8.475,15.758-16.001,27.812-21.416
	c12.054-5.424,25.23-8.206,38.39-8.491l-1.676,8.491c-10.562,0.553-21.14,2.917-30.779,7.233
	C209.546,171.566,201.768,177.409,196.386,184.216z M255.899,135.834c-56.915,0-102.899,34.618-102.899,77.191
	c0,42.689,45.984,77.309,102.899,77.309S359,255.715,359,213.025C359,170.452,312.814,135.834,255.899,135.834z M376.166,84.334
	H135.833L50,324.666v103h412v-103L376.166,84.334z M158.733,118.667h194.55L417.658,307.5H94.342L158.733,118.667z M427.666,393.334
	H204.5v-25.75c0-4.745-3.839-8.584-8.583-8.584c-4.744,0-8.583,3.839-8.583,8.584v25.75h-17.167v-25.75
	c0-4.745-3.839-8.584-8.583-8.584c-4.745,0-8.583,3.839-8.583,8.584v25.75h-17.167v-25.75c0-4.745-3.839-8.584-8.583-8.584
	s-8.583,3.839-8.583,8.584v25.75H84.333v-51.5h343.333V393.334z M376.166,367.584c0-4.745,3.84-8.584,8.584-8.584
	s8.584,3.839,8.584,8.584c0,4.744-3.84,8.582-8.584,8.582S376.166,372.328,376.166,367.584z"/>
</svg>
