<?xml version="1.0" encoding="utf-8"?>
<!-- Generator: Adobe Illustrator 24.0.0, SVG Export Plug-In . SVG Version: 6.00 Build 0)  -->
<svg version="1.1" id="Layer_1" xmlns="http://www.w3.org/2000/svg" xmlns:xlink="http://www.w3.org/1999/xlink" x="0px" y="0px"
	 viewBox="0 0 249 259" style="enable-background:new 0 0 249 259;" xml:space="preserve">
<style type="text/css">
	.st0{fill:#962C2E;}
	.st1{fill:#E5D5C5;}
</style>
<g>
	<polygon class="st0" points="198.6,241.6 196.2,258.2 192.3,258.2 196.2,232.1 199.4,232.1 212.8,249.5 215.2,232.1 218.4,232.1 
		215.2,258.2 211.3,258.2 	"/>
	<path id="_x3C_Path_x3E__4_" class="st0" d="M181.7,242.1c0,8.7-7.1,16.6-15.8,16.6c-5.5,0-11.1-4.8-11.1-11.9
		c0-7.9,7.1-15.8,15-15.8C176.2,231,181.7,236.5,181.7,242.1z M168.3,234.2c-4.8,0-7.9,5.5-7.9,11.1c0,4.8,2.4,10.3,7.1,10.3
		c4,0,8.7-5.5,8.7-11.9C176.2,238.9,172.2,234.2,168.3,234.2z"/>
	<polygon class="st0" points="132.7,259 139,259 143,232.1 136.6,232.1 	"/>
	<path class="st0" d="M118,238.9l4-1.6c-1.6-3.2-4-5.5-8.7-5.5c-6.3,0-10.3,4-10.3,7.9c0,9.5,13.5,6.3,13.5,11.9c0,2.4-1.6,4-6.3,4
		c-3.2,0-4.8-1.6-5.5-4.8l-4,0.8c0.8,3.2,3.2,7.1,9.5,7.1c4,0,10.3-2.4,10.3-7.1c0-10.3-13.5-7.9-13.5-12.7c0-2.4,2.4-4,4.8-4
		C114.8,234.9,116.4,236.5,118,238.9z"/>
	<path id="_x3C_Path_x3E__3_" class="st0" d="M82.4,250.3l4.8,8.7h-6.3l-2.4-6.3h-6.3l-0.8,6.3h-5.5l3.2-26.9h12.7
		c4.8,0,7.9,4,7.9,8.7C89.5,246.3,86.3,250.3,82.4,250.3z M73.7,234.5l-1.6,15h7.1c2.4,0,4.8-3.2,4.8-7.9c0-4-1.6-7.1-4-7.1H73.7z"
		/>
	<polygon class="st0" points="36.6,232.1 54.8,232.1 52.5,235.2 41.4,235.2 40.6,241.6 54.1,241.6 51.7,244.7 39.8,244.7 38.2,255 
		51.7,255 49.3,259 32.7,259 	"/>
	<polygon class="st0" points="0,232.1 6.3,259 10.3,259 23.8,232.1 19.8,232.1 10.3,251.9 5.5,232.1 	"/>
</g>
<g>
	<path class="st0" d="M216.7,208l4-1.6c-1.6-3.2-4-5.6-8.8-5.6c-6.4,0-10.4,4-10.4,8c0,9.6,13.6,6.4,13.6,12c0,2.4-1.6,4-6.4,4
		c-3.2,0-4.8-1.6-5.6-4.8l-4,0.8c0.8,3.2,3.2,7.2,9.6,7.2c4,0,10.4-2.4,10.4-7.2c0-10.4-13.6-8-13.6-12.8c0-2.4,2.4-4,4.8-4
		C213.5,204,215.1,205.6,216.7,208z"/>
	<path class="st0" d="M183.5,212l4-6.4c1.6-2.4,4.8,0,3.2,2.4l-4,6.4C185.9,216,181.9,214.4,183.5,212z"/>
	<path id="_x3C_Path_x3E__2_" class="st0" d="M167.3,219.2l4.8,8.8h-6.4l-2.4-6.4h-6.4l-0.8,6.4h-5.6l3.2-27.2h12.8c4.8,0,8,4,8,8.8
		C174.5,215.2,171.3,219.2,167.3,219.2z M158.5,203.2l-1.6,15.2h7.2c2.4,0,4.8-3.2,4.8-8c0-4-1.6-7.2-4-7.2H158.5z"/>
	<path id="_x3C_Path_x3E_" class="st0" d="M142.3,211.2c0,8.8-7.2,16.8-16,16.8c-5.6,0-11.2-4.8-11.2-12c0-8,7.2-16,15.2-16
		C136.7,200,142.3,205.6,142.3,211.2z M128.7,203.2c-4.8,0-8,5.6-8,11.2c0,4.8,2.4,10.4,7.2,10.4c4,0,8.8-5.6,8.8-12
		C136.7,208,132.7,203.2,128.7,203.2z"/>
	<polygon class="st0" points="91.5,200.8 88.3,228 104.3,228 106.7,224 93.1,224 96.3,200.8 	"/>
	<polygon class="st0" points="59.1,200.8 65.5,200.8 70.3,211.2 78.3,200.8 82.3,200.8 71.9,214.4 71.1,228 64.7,228 66.3,216 	"/>
	<path id="_x3C_Path_x3E__1_" class="st0" d="M26.7,228l13.6-27.2h5.6l6.4,27.2h-6.4l-1.6-6.4H33.9l-2.4,6.4H26.7z M43.5,218.4
		l-2.4-11.2l-5.6,11.2H43.5z"/>
	<polygon class="st0" points="4.1,200.8 4.1,204 12.9,204 9.7,228 14.5,228 17.7,204 25.7,204 27.3,200.8 	"/>
</g>
<g>
	<g>
		<path id="_x3C_Path_x3E__5_" class="st1" d="M218.7,4.7c15.8,0,28.1,14.1,26.3,25.8L227.5,161c-1.8,14.6-18.1,28.1-31,28.1h-38.6
			l24.6-185l3.8-4.1L218.7,4.7z M175.4,171c-0.6,3.5,3.5,7,5.3,7h11.1c7.6,0,19.9-8.2,21.7-21.7l15.8-123.5c1.2-6.4-7-16.4-14.1-17
			h-12.9c-2.9,0-6.4,3.5-7,7L175.4,171z"/>
		<path class="st1" d="M116.9,178h22.2l1.5,7.6l-3.8,4.1H92.3L116.9,4.1l3.8-4.1l41.3,4.1l2,8.2l-3.8,4.1h-24
			c-2.3,0-5.9,3.5-6.4,6.4l-7.6,63.2c-0.6,4.1,4.7,5.3,5.9,5.3h21.1l2,7l-3.8,4.7l-20.5-0.6c-4.1,0-8.2,4.1-8.8,8.8l-7.6,59.7
			C109.8,175.1,113.9,178,116.9,178z"/>
		<path id="_x3C_Path_x3E__6_" class="st1" d="M20.3,189.1H5l24-185L32.8,0l32.5,4.1c12.9,0,28.1,12.9,26.3,27.5l-5.3,43.9
			c-1.8,15.2-10,22.8-19.3,25.8L81.4,185l-3.8,4.1H63l-11.1-77.9c-0.6-6.4-6.4-8.8-12.3-8.8s-8.2,2.9-9.4,8.8L24.1,185L20.3,189.1z
			 M33.7,84.9c-0.6,4.1,4.1,6.4,5.9,6.4h14.1c5.9,0,15.8-7,17-16.4l5.3-41c1.2-7.6-6.4-18.1-15.2-18.1H50.1c-3.5,0-7,3.5-7.6,6.4
			L33.7,84.9z"/>
	</g>
	<g>
		<path id="_x3C_Path_x3E__7_" class="st0" d="M222.5,0.6c15.8,0,28.1,14.1,26.3,25.8l-17.6,130.6c-1.8,14.6-18.1,28.1-31,28.1
			h-38.6L186.2,0L222.5,0.6z M179.2,166.9c-0.6,3.5,3.5,7,5.3,7h11.1c7.6,0,19.9-8.2,21.7-21.7l15.8-123.5c1.2-6.4-7-16.4-14.1-17
			h-12.9c-2.9,0-6.4,3.5-7,7L179.2,166.9z"/>
		<path class="st0" d="M120.7,173.9h22.2l-2.3,11.7H96.1L120.7,0h45.1L164,12.3h-24c-2.3,0-5.9,3.5-6.4,6.4L125.9,82
			c-0.6,4.1,4.7,5.3,5.9,5.3h21.1l-1.8,11.1h-20.5c-4.1,0-8.2,4.1-8.8,8.8l-7.6,59.7C113.6,171,117.7,173.9,120.7,173.9z"/>
		<path id="_x3C_Path_x3E__8_" class="st0" d="M24.1,185H8.8l24-185h36.3C82,0,97.2,12.9,95.5,27.5l-5.3,43.9
			c-1.8,15.2-10,22.8-19.3,25.8L81.4,185H66.8l-11.1-77.9c-0.6-6.4-6.4-8.8-12.3-8.8s-8.2,2.9-9.4,8.8L24.1,185z M37.5,80.8
			c-0.6,4.1,4.1,6.4,5.9,6.4h14.1c5.9,0,15.8-7,17-16.4l5.3-41c1.2-7.6-6.4-18.1-15.2-18.1H53.9c-3.5,0-7,3.5-7.6,6.4L37.5,80.8z"/>
	</g>
</g>
</svg>
