<svg id="Layer_1" data-name="Layer 1" xmlns="http://www.w3.org/2000/svg" viewBox="0 0 213.16 182.72">
  <defs>
    <style>
      .cls-1 {
        fill: #a71930;
      }

      .cls-2 {
        fill: #fff;
      }
    </style>
  </defs>
  <title>ari2</title>
  <path class="cls-1" d="M115.45,0,0,182.72H91.11L78.05,155.28h0L106.18,108c.74,2.91,2.21,8.69,2.44,9.57-1.45,2.49-23.21,40.13-23.21,40.13L119,130l23.79,28.85s-10.93-36.51-11.68-39l6.52-10.42,9.95,45.94-19.88,27.35h85.47L172.31,0Zm-8.26,106.3,17.93-30.11h5.31L137,106.34Z"/>
  <path class="cls-1" d="M124,7.19h42.33l37.5,168.32H142.88l13.61-18.41L137,69.73H120.8L68.69,155.44l9.73,20H18.07l-5.92,3.67H84.92L73.41,155.36,122.83,73h10.76l18.66,83.24-16.76,22.93h73L169.45,3.5l-47.93,0"/>
  <path class="cls-2" d="M61,144.79l6.31-4L56.08,114.09,91.83,91.7l-12.28-22L114.12,53,103,33.32l26.63-11.83-9.73-14.3-2.26-3.3L6.58,179.05"/>
  <path class="cls-1" d="M112.6,118.15,99,141.71l20.53-17L134,142.28l-6.88-23,5.77-9.22h-22.3s1.67,6.61,2.06,8.08Z"/>
  <path class="cls-1" d="M68.69,155.44l52.12-85.73,16.14,0,19.54,87.37-13.61,18.41h60.91L166.29,7.19H124l10.44,16L108.1,35l11.32,19.61L84.87,71.2,96.43,92.63,60.67,115.18l11,27L18.07,175.44H78.42"/>
</svg>
