<?xml version="1.0" encoding="utf-8"?>
<!-- Generator: Adobe Illustrator 19.2.1, SVG Export Plug-In . SVG Version: 6.00 Build 0)  -->
<svg version="1.1" id="Layer_1" xmlns="http://www.w3.org/2000/svg" xmlns:xlink="http://www.w3.org/1999/xlink" x="0px" y="0px"
	 viewBox="0 0 76 94" style="enable-background:new 0 0 76 94;" xml:space="preserve">
<style type="text/css">
	.st0{fill:#FFFFFF;}
</style>
<path class="st0" d="M27.3,33.2c1.4-1,20.5-14.3,21.9-15.3c1.3-1,2.7-2,4.1-3c1.4-1,2.3-1.7,2.6-1.9l2.2-1.6c1.4-1,2.9-1.5,4.5-1.4
	s2.8,0.7,3.6,1.8c2.2,3,0,6.9-6.5,11.6L37.1,38.3 M37.1,38.3l-2.5,1.9l-16,11.6c-1.3,1-2.8,1.3-4.3,0.9c-1.5-0.3-2.7-1.1-3.5-2.2
	C10,49.3,9.7,48,9.9,46.4c0.2-1.5,1.1-2.9,2.5-3.9l14.9-9.3"/>
<path class="st0" d="M32.3,55c1.3,1.1,19.5,15.8,20.8,16.8s2.6,2.1,4,3.1c1.4,1.1,2.3,1.7,2.6,2l2.1,1.6c1.3,1,2.1,2.3,2.5,3.9
	c0.4,1.5,0.1,2.8-0.7,3.9c-2.3,2.9-6.6,1.9-12.9-3L30,65.7 M30,65.8l-2.5-1.9L11.8,51.7c-1.3-1-2-2.3-2.1-3.9
	c-0.1-1.5,0.3-2.9,1.2-4c0.9-1.1,2.1-1.8,3.7-2s3.1,0.2,4.5,1.3l13.1,11.8"/>
</svg>
