<?xml version="1.0" encoding="UTF-8"?>
<svg width="255px" height="34px" viewBox="0 0 255 34" version="1.1" xmlns="http://www.w3.org/2000/svg" xmlns:xlink="http://www.w3.org/1999/xlink">
    <!-- Generator: sketchtool 57.1 (101010) - https://sketch.com -->
    <title>11143E9A-4F14-44CD-9B8D-126D19221DCC</title>
    <desc>Created with sketchtool.</desc>
    <g id="UI-Assets-for-Dev" stroke="none" stroke-width="1" fill="none" fill-rule="evenodd">
        <g id="BH-Blog---UI-Components---Icon-sets" transform="translate(-78.000000, -845.000000)">
            <rect fill="#FAFAFA" x="0" y="0" width="665" height="1058"></rect>
            <g id="Labels-Copy" transform="translate(58.000000, 49.000000)" fill="#FFFFFF">
                <rect id="Rectangle-Copy" x="0" y="769" width="297" height="160"></rect>
            </g>
            <g id="icon" transform="translate(78.000000, 845.000000)" fill="#00205B">
                <path d="M5.8682488,33.6971566 L5.87987198,33.7171429 L5.86173542,33.7062637 L5.8682488,33.6971566 Z M30.5201991,15.4837363 C30.6217639,20.2741758 27.0851351,26.4281319 16.3736842,29.3618681 C16.2632201,29.3963878 16.1427231,29.3661542 16.0616546,29.2835775 C15.9805861,29.2010008 15.952602,29.0799908 15.9891892,28.9702198 C16.0167516,28.771721 16.0167516,28.5703669 15.9891892,28.3718681 C15.3979374,26.3701099 11.4042674,28.6764835 8.61849218,30.8269231 C7.75083768,31.5691181 6.94841392,32.3837886 6.21983264,33.2619397 L5.8682488,33.6971566 L5.83065653,33.6278073 C5.30707004,32.6435702 3.86671408,29.0028571 3.86671408,29.0028571 C5.11813656,27.1389011 13.6386913,21.9169231 16.2684922,23.6213187 C17.1245377,24.187033 16.4462304,25.2749451 17.08101,25.2749451 C23.0334282,24.5496703 28.9278094,21.4962637 30.5201991,15.4837363 Z M185.819915,11.9951648 C192.142319,11.9951648 192.84239,16.9197802 192.84239,19.0121978 C192.84239,20.1508791 192.178592,20.4083516 191.391465,20.4083516 L181.528805,20.4083516 C181.456259,23.9730769 182.337696,27.9765934 186.607041,27.9765934 C189.327525,27.9765934 190.57532,26.3628571 191.53293,24.3756044 L192.621124,24.9667033 C191.663514,27.6828571 189.679374,29.8151648 185.819915,29.8151648 C180.016216,29.8151648 177.810811,26.4716484 177.810811,21.0357143 C177.810811,15.8536264 180.382575,11.9951648 185.819915,11.9951648 Z M202.208108,11.9951648 C207.380794,11.9951648 208.178097,14.5939028 208.206849,16.6165446 L208.207681,24.818022 C208.207681,26.9938462 208.759033,27.5740659 209.38293,27.759011 C209.833431,27.8481499 210.297273,27.8456833 210.746799,27.7517582 L210.891892,28.8142857 C209.774111,29.4587627 208.507756,29.8012024 207.217425,29.8079121 C206.005903,29.8079121 205.382006,29.1479121 204.939474,27.7517582 C203.85128,28.477033 201.965078,29.8079121 199.832219,29.8079121 C196.567639,29.8079121 194.833784,27.4942857 194.833784,24.9195604 C194.833784,23.2695604 195.559246,21.4672527 198.069346,20.6948352 C200.786202,19.8498901 204.09431,18.9686813 204.961238,18.0512088 L204.961238,16.8472527 C204.961238,14.1274725 203.604623,13.2825275 201.910669,13.2825275 C200.514154,13.2825275 199.302632,14.0078022 198.530014,16.5897802 C198.384922,17.2135165 198.09111,17.616044 197.354765,17.616044 C196.618421,17.616044 195.443172,17.0648352 195.443172,15.9624176 C195.443172,14.0549451 198.236202,11.9951648 202.208108,11.9951648 Z M236.217781,3.50945055 L236.47532,3.6943956 L236.47532,14.6061538 C238.651707,13.1556044 240.18606,11.9951648 242.72155,11.9951648 C245.957112,11.9951648 247.828805,14.0150549 247.828805,17.5072527 L247.828805,26.2504396 C247.828805,27.9403297 248.050071,28.089011 250.404196,28.2340659 L250.404196,29.3727473 L241.91266,29.3727473 L241.91266,28.2340659 C244.266785,28.0527473 244.484424,27.9403297 244.484424,26.2504396 L244.484424,18.130989 C244.484424,15.2298901 243.200356,13.9787912 240.882504,13.9787912 C239.168932,14.0044072 237.605765,14.9623645 236.805405,16.4773626 C236.547866,16.956044 236.511593,17.470989 236.511593,18.3159341 L236.511593,26.2504396 C236.511593,27.9403297 236.732859,28.0636264 239.050711,28.2340659 L239.050711,29.3727473 L230.599075,29.3727473 L230.598765,28.4544505 L230.554641,28.4822955 C229.434354,29.1595845 228.167416,29.797033 226.514723,29.797033 C225.2633,29.797033 222.655263,29.3183516 222.655263,25.8297802 L222.655263,13.9715385 L220.177809,13.9715385 L220.177809,12.4375824 L222.789474,12.4375824 L224.965861,8.08593407 L226.03229,8.08593407 L226.03229,12.4375824 L230.406828,12.4375824 L230.406828,13.9715385 L226.035917,13.9715385 L226.035917,24.4154945 C226.035917,27.0228571 227.102347,27.8315385 228.277596,27.8315385 C229.037936,27.8676135 229.79544,27.7156536 230.483001,27.3891209 L230.738765,28.2234505 L230.813058,28.2177264 C233.029048,28.0444855 233.138193,27.8891209 233.138193,26.2504396 L233.130939,7.11043956 C233.130939,5.85934066 232.945946,5.67802198 232.064509,5.52934066 L230.740541,5.34802198 L230.740541,4.3543956 L236.217781,3.50945055 Z M124.500213,12.0278022 C130.829872,12.0278022 131.486415,16.9342857 131.486415,18.9723077 C131.486415,20.1146154 130.829872,20.2886813 130.10441,20.2886813 L120.140185,20.2886813 C120.071266,23.8824176 120.934566,28.030989 125.218421,28.030989 C127.953414,28.030989 129.266501,26.3737363 130.234993,24.3683516 L131.272404,24.9195604 C130.336558,27.6502198 128.370555,29.7607692 124.529232,29.7934066 C118.89239,29.8623077 116.549147,26.5296703 116.549147,21.0502198 C116.549147,15.8645055 119.106401,12.0278022 124.500213,12.0278022 Z M65.8538407,12.0278022 C70.9767206,12.0278022 71.5078911,14.521893 71.5264261,16.5097195 L71.5269559,24.9884615 C71.5269559,27.1642857 72.1145804,27.8242857 72.7348506,27.9620879 C73.3185492,28.0715522 73.9184796,28.0604452 74.497724,27.9294505 L74.7081081,28.7562637 C73.4421082,29.4015113 72.0479124,29.7558553 70.6273826,29.7934066 C69.4158606,29.7934066 68.8645092,28.9992308 68.3784495,27.7191209 C67.290256,28.4443956 65.3714083,29.7245055 63.2276671,29.7934066 C59.9630868,29.7934066 58.2473684,27.4797802 58.2473684,24.8869231 C58.2473684,23.2623077 58.9728307,21.5325275 61.4647937,20.770989 C64.1961593,19.9079121 67.5477952,19.0448352 68.4147226,18.1454945 L68.4147226,16.6949451 C68.4147226,13.928022 66.8223329,13.2353846 65.472973,13.2353846 C64.1236131,13.2353846 62.6726885,14.0658242 61.9145804,16.626044 C61.7404694,17.2098901 61.5337127,17.5906593 60.8082504,17.5906593 C60.151707,17.5906593 58.871266,17.0720879 58.871266,15.966044 C58.871266,14.0658242 61.9472262,12.0278022 65.8538407,12.0278022 Z M138.294879,12.0205495 L138.708393,14.7910989 C140.989972,12.7857143 142.027383,12.0278022 143.27155,12.0278022 C144.62091,12.0278022 145.10697,12.9597802 145.10697,13.7213187 C145.10697,14.7910989 144.345235,15.6578022 143.51458,15.6578022 C143.27274,15.6584116 143.034583,15.5985761 142.821764,15.4837363 C141.820626,14.9289011 141.233001,14.7221978 140.678023,14.7221978 C139.883642,14.7221978 138.708393,15.6215385 138.708393,18.2832967 L138.708393,26.3737363 C138.708393,28.1361538 138.915149,28.1869231 141.994737,28.3754945 L141.994737,29.38 L132.864794,29.38 L132.864794,28.3754945 C135.210895,28.2102198 135.445707,28.1404229 135.457784,26.5293407 L135.458321,15.4946154 C135.458321,14.2507692 135.251565,14.0767033 134.351991,13.9389011 L133.038905,13.7648352 L133.038905,12.8836264 L138.294879,12.0205495 Z M107.520768,12.0205495 C110.70192,12.0205495 112.599004,14.0259341 112.599004,17.5145055 L112.602632,26.3737363 C112.602632,28.1361538 112.740469,28.1869231 115.196159,28.3754945 L115.196159,29.38 L106.759033,29.38 L106.759033,28.3754945 C109.175482,28.2102198 109.34421,28.1404229 109.352217,26.5293407 L109.35256,18.2143956 C109.35256,15.2081319 108.072119,13.8917582 105.725249,13.8917582 C104.005712,13.9220851 102.434976,14.8734224 101.611878,16.3830769 C101.334795,16.976103 101.216075,17.6307675 101.267283,18.2832967 L101.267283,26.3737363 C101.267283,28.1361538 101.405121,28.1869231 103.860811,28.3754945 L103.860811,29.38 L95.4164296,29.38 L95.4164296,28.3754945 C97.8328786,28.2102198 98.0016068,28.1404229 98.0096138,26.5293407 L98.0099573,15.4946154 C98.0099573,14.2507692 97.8032006,14.0767033 96.9036273,13.9389011 L95.5905405,13.7648352 L95.5905405,12.8836264 L100.741323,12.0205495 L101.227383,14.646044 C103.371124,13.2643956 104.959886,12.0205495 107.520768,12.0205495 Z M253.393101,26.3882304 C253.5924,26.3874601 253.789803,26.4269306 253.973471,26.5042857 C254.150031,26.5775182 254.311229,26.6833154 254.448649,26.8161538 C254.585984,26.9529037 254.696686,27.1139938 254.775107,27.2912088 C254.855493,27.4765627 254.896264,27.6766602 254.894808,27.8786813 C254.897249,28.0843104 254.856468,28.28816 254.775107,28.477033 C254.696686,28.6542479 254.585984,28.8153381 254.448649,28.9520879 C254.313327,29.0884186 254.151648,29.1957654 253.973471,29.2675824 C253.789574,29.3437907 253.59216,29.3820298 253.393101,29.38 C253.192903,29.38163 252.994382,29.3434154 252.809104,29.2675824 C252.630097,29.1953103 252.467317,29.088051 252.330299,28.9520879 C252.191811,28.8163012 252.080949,28.6549772 252.003841,28.477033 C251.922479,28.28816 251.881699,28.0843104 251.884139,27.8786813 C251.882684,27.6766602 251.923455,27.4765627 252.003841,27.2912088 C252.080949,27.1132645 252.191811,26.9519405 252.330299,26.8161538 C252.469634,26.6839934 252.631884,26.5783125 252.809104,26.5042857 C252.994156,26.4273036 253.192667,26.3878582 253.393101,26.3882304 Z M86.9829303,12.0205495 C90.1640825,12.0205495 92.0611664,14.0259341 92.0611664,17.5145055 L92.0647937,26.3737363 C92.0647937,28.1361538 92.2026316,28.1869231 94.6583215,28.3754945 L94.6583215,29.38 L86.2211949,29.38 L86.2211949,28.3754945 C88.6341265,28.2102198 88.806159,28.1404229 88.8143694,26.5293407 L88.8147226,18.2143956 C88.8147226,15.2081319 87.5342817,13.8917582 85.1874111,13.8917582 C83.4678742,13.9220851 81.8971384,14.8734224 81.0740398,16.3830769 C80.7905694,16.9743914 80.6655786,17.6291739 80.7113087,18.2832967 L80.7113087,26.3737363 C80.7113087,28.1361538 80.8491465,28.1869231 83.3048364,28.3754945 L83.3048364,29.38 L74.8785917,29.38 L74.8785917,28.3754945 C77.2950407,28.2102198 77.463769,28.1404229 77.471776,26.5293407 L77.4721195,15.4946154 C77.4721195,14.2507692 77.2653627,14.0767033 76.3657895,13.9389011 L75.0527027,13.7648352 L75.0527027,12.8836264 L80.2034851,12.0205495 L80.6895448,14.646044 C82.8332859,13.2643956 84.4220484,12.0205495 86.9829303,12.0205495 Z M52.8172831,6.70428571 C54.1630156,7.58912088 54.9610242,9.05417582 54.9610242,10.9543956 C54.9610242,13.6161538 53.0603129,15.6215385 49.8102418,16.2779121 L49.8102418,16.3468132 C53.165505,16.7964835 56.0673542,18.5951648 56.0673542,22.6748352 C56.0673542,27.4797802 52.6794452,29.38 47.4234708,29.38 L36.7047653,29.38 L36.7047653,28.3754945 C39.6679924,28.1742308 39.8113114,28.1036119 39.8168024,26.3124434 L39.8169986,8.67340659 C39.8169986,6.73692308 39.7480797,6.66802198 36.7047653,6.46131868 L36.7047653,5.45681319 L46.6980085,5.45681319 C49.3967283,5.42417582 51.4715505,5.81945055 52.8172831,6.70428571 Z M216.811664,3.50945055 L217.069203,3.73065934 L217.069203,26.2504396 C217.069203,27.9765934 217.178023,28.0636264 219.640967,28.2340659 L219.640967,29.3727473 L211.109531,29.3727473 L211.109531,28.2340659 C213.568848,28.0527473 213.681294,27.9765934 213.681294,26.2504396 L213.688549,7.08142857 C213.688549,5.7578022 213.503556,5.57285714 212.622119,5.46406593 L211.298151,5.35527473 L211.298151,4.3543956 L216.811664,3.50945055 Z M162.140825,5.38428571 L162.140825,6.52296703 C159.243289,6.69938521 159.061961,6.81057634 159.054276,8.57675296 L159.053983,16.1473626 L170.886273,16.1473626 L170.886273,8.7278022 C170.886273,6.78043956 170.813727,6.70428571 167.799431,6.52296703 L167.799431,5.38428571 L177.651209,5.38428571 L177.651209,6.52296703 C174.753673,6.69938521 174.568911,6.77624632 174.56104,8.57396944 L174.56074,25.992967 C174.56074,27.9403297 174.673186,28.0164835 177.651209,28.2340659 L177.651209,29.3727473 L167.781294,29.3727473 L167.781294,28.2340659 C170.716267,28.0222094 170.862281,27.9444357 170.867934,26.1428553 L170.868137,17.5435165 L159.035846,17.5435165 L159.035846,25.992967 C159.035846,27.9403297 159.108393,28.0164835 162.122688,28.2340659 L162.122688,29.3727473 L152.274538,29.3727473 L152.274538,28.2340659 C155.20951,28.0222094 155.355524,27.9444357 155.361177,26.1428553 L155.36138,8.7278022 C155.36138,6.78043956 155.288834,6.70428571 152.274538,6.52296703 L152.274538,5.38428571 L162.140825,5.38428571 Z M253.393101,26.623956 C253.223681,26.6223703 253.055752,26.6557006 252.899787,26.7218681 C252.752821,26.7846901 252.619696,26.8758818 252.508037,26.9902198 C252.397358,27.1061358 252.308843,27.2413319 252.246871,27.3891209 C252.18394,27.5484354 252.151933,27.7182742 252.15256,27.8895604 C252.151259,28.0644387 252.183265,28.2379665 252.246871,28.4008791 L252.246871,28.3791209 C252.308715,28.529143 252.397195,28.6667431 252.508037,28.7852747 C252.620686,28.8984296 252.753567,28.9894542 252.899787,29.0536264 C253.055752,29.1197939 253.223681,29.1531242 253.393101,29.1515385 C253.895065,29.1540726 254.346604,28.8468748 254.52845,28.3791209 C254.593766,28.2166996 254.625835,28.0428314 254.62276,27.8678022 C254.622309,27.7036728 254.590291,27.5411614 254.52845,27.3891209 C254.469214,27.2398955 254.380374,27.1042032 254.267283,26.9902198 C254.157586,26.8752223 254.0255,26.7838965 253.879161,26.7218681 C253.725625,26.6560797 253.56014,26.6227443 253.393101,26.623956 Z M253.944452,27.1497802 C254.045567,27.2424878 254.100087,27.3754291 254.093172,27.5124176 C254.109056,27.6470946 254.060692,27.7814028 253.962589,27.8750549 C253.869185,27.9500731 253.755518,27.9955279 253.636131,28.0056044 L254.1367,28.7743956 L253.842888,28.7743956 L253.36771,28.0056044 L253.081152,28.0056044 L253.081152,28.7562637 L252.823613,28.7562637 L252.823613,27.0264835 L253.483784,27.0264835 C253.64685,27.0145084 253.809182,27.0579559 253.944452,27.1497802 Z M45.7186344,17.111978 L43.2302987,17.111978 L43.233926,25.507033 C43.233926,27.6502198 43.7852774,28.1687912 46.5529161,28.1687912 C49.5273115,28.1687912 52.3566145,27.0627473 52.3566145,22.9141758 C52.3566145,19.2515385 50.0061166,17.111978 45.7186344,17.111978 Z M68.4147226,19.5489011 C67.6529872,20.0312088 65.8211949,20.6875824 64.4246799,21.2061538 C62.4913229,21.9314286 61.7295875,22.7618681 61.7295875,24.3864835 C61.7295875,26.4281319 62.7669986,27.9475824 64.9107397,27.9475824 C66.2600996,27.9475824 68.4038407,27.2223077 68.4038407,24.4227473 L68.4147226,19.5489011 Z M204.972119,19.5634066 C204.203129,20.0420879 202.433001,20.7020879 201.040114,21.217033 C199.168421,21.9423077 198.432077,22.7981319 198.432077,24.4154945 C198.432077,26.4353846 199.498506,27.9040659 201.591465,27.9040659 C202.915434,27.9040659 204.972119,27.2440659 204.972119,24.488022 L204.972119,19.5634066 Z M253.588976,27.2621978 L253.088407,27.2621978 L253.088407,27.8134066 L253.364083,27.7989011 L253.549075,27.7989011 C253.599434,27.7970206 253.648848,27.7846702 253.694168,27.7626374 C253.736064,27.7463926 253.771656,27.7171635 253.795733,27.6792308 C253.824346,27.6310861 253.838218,27.5756128 253.835633,27.5196703 C253.838143,27.4704075 253.826836,27.4214232 253.802987,27.3782418 C253.779122,27.3451905 253.74813,27.317925 253.712304,27.2984615 C253.673359,27.2799638 253.631737,27.2677255 253.588976,27.2621978 Z M29.8672831,11.919011 C29.8672831,11.919011 30.3968706,13.0830769 30.3098151,13.4457143 C28.445377,21.2387912 17.5090327,23.3928571 16.7835704,22.2541758 C16.5187767,21.8371429 16.6167141,21.3040659 16.0907539,20.8834066 C12.6629445,18.1273626 4.42169275,22.4536264 2.19452347,24.2921978 C1.49807966,22.0474725 1.01927454,19.5779121 1.01927454,19.5779121 C6.22446657,16.5535165 12.6992176,14.8636264 16.0182077,17.0394505 C16.9177809,17.6378022 16.5768137,18.8345055 17.3349218,19.0883516 C22.3369844,20.770989 29.5045519,16.4592308 29.8672831,11.919011 Z M124.289829,13.2498901 C120.695164,13.2498901 120.176458,17.5725275 120.176458,18.9868132 L126.709246,18.9723077 C127.677738,18.9723077 127.884495,18.5262637 127.884495,17.8843956 C127.884495,16.5353846 127.521764,13.2498901 124.289829,13.2498901 Z M185.645804,13.2789011 C182.080156,13.2789011 181.565078,17.5036264 181.565078,18.9723077 L187.996302,18.9578022 C188.950284,18.9578022 189.17155,18.5552747 189.17155,17.8698901 C189.17155,16.51 188.768919,13.2789011 185.645804,13.2789011 Z M15.7026316,11.589011 C15.9456615,11.977033 16.4135846,13.3659341 16.7472973,13.8736264 C18.455761,16.4737363 29.5879801,15.0159341 28.0753912,9.3878022 C28.3468101,9.62602556 28.6024689,9.88161828 28.8407539,10.152967 C28.927735,10.2581684 28.988634,10.38242 29.0184922,10.5156044 C29.3812233,14.7258242 21.5135846,18.790989 17.1825747,16.7674725 C16.6711238,16.5353846 16.8053343,15.7085714 15.9456615,14.6532967 C13.8128023,12.0278022 8.54594595,11.2372527 0.42802276,15.2262637 C0.305832271,13.6999058 0.324045239,12.1655566 0.482432432,10.6425275 C9.39836415,6.19296703 14.5346373,9.72505495 15.7026316,11.589011 Z M46.0342105,6.66802198 C43.4172701,6.70318681 43.2424664,6.89861805 43.2342753,8.26613296 L43.233926,15.8971429 L45.5517781,15.8971429 C49.1464438,15.8971429 51.3228307,14.5481319 51.3228307,11.1610989 C51.3228307,7.60362637 48.5225462,6.63175824 46.0342105,6.66802198 Z M16.9613087,9.28626374 C17.3784495,12.7240659 24.0019203,11.5745055 25.3585349,10.3741758 C27.6364865,8.35428571 23.940256,7.62901099 23.940256,7.62901099 L23.940256,7.55648352 C28.2531294,7.53835165 28.1406828,11.6397802 23.4251778,12.9198901 C16.9250356,14.6968132 16.9032717,11.4983516 16.5623044,10.686044 C16.3660717,10.1914648 16.1445128,9.70730813 15.8985064,9.23549451 C15.2220853,7.9974989 11.3075282,2.36779141 2.59393785,6.04945454 L2.23805121,6.20384615 L1.45092461,6.56648352 C5.68399716,-1.62186813 15.7316501,-0.82043956 16.9613087,9.28626374 Z" id="🎨-logo-color"></path>
            </g>
        </g>
    </g>
</svg>