<svg version="1.1" id="Layer_1" xmlns="http://www.w3.org/2000/svg" xmlns:xlink="http://www.w3.org/1999/xlink" x="0px" y="0px"
				 viewBox="0 0 170 170" enable-background="new 0 0 170 170" xml:space="preserve">
	<g>
		<g>
			<path fill="#82C341" d="M160,84.8c0,41.4-33.6,75-75,75c-41.4,0-75-33.6-75-75c0-41.4,33.6-75,75-75C126.4,9.8,160,43.4,160,84.8z
				"/>
		</g>
		<g>
			<path fill="#141B0F" d="M155.3,84.8c0,38.8-31.5,70.3-70.3,70.3c-38.8,0-70.3-31.5-70.3-70.3C14.7,46,46.2,14.5,85,14.5
				C123.8,14.5,155.3,46,155.3,84.8z"/>
		</g>
		<g>
			<g>
				<path fill="#82C341" d="M33.9,55.8c1.8-0.2,4-0.4,6.5-0.6c2.5-0.2,5-0.3,7.5-0.3c10,0,17.5,2.5,22.5,7.7c5,5.1,7.5,12.4,7.5,22
					c0,10-2.5,17.4-7.6,22.2c-5.1,4.8-12.6,7.3-22.7,7.3c-2.5,0-5-0.1-7.4-0.3c-2.4-0.2-4.5-0.4-6.3-0.7V55.8z M42,106.4
					c0.7,0.1,1.7,0.2,2.7,0.3c1.1,0.1,2.2,0.1,3.5,0.1c3.1,0,6-0.4,8.6-1.1c2.6-0.7,4.8-1.9,6.7-3.6c1.9-1.7,3.3-4,4.3-6.9
					c1-2.9,1.5-6.5,1.5-10.9c0-4-0.5-7.4-1.5-10.2c-1-2.8-2.4-5.1-4.3-6.9c-1.8-1.8-4-3.1-6.6-3.9c-2.6-0.8-5.4-1.2-8.4-1.2
					c-1,0-2.1,0-3.3,0c-1.2,0-2.2,0.1-3.1,0.3V106.4z"/>
				<path fill="#82C341" d="M81.9,72.3c0.7-0.1,1.5-0.2,2.2-0.2c0.7-0.1,1.4-0.1,2-0.1c0.7,0,1.5,0,2.3,0.1c0.8,0.1,1.4,0.1,2,0.2
					l8,33.4l9-33.4c0.6-0.1,1.2-0.2,1.9-0.2c0.7-0.1,1.4-0.1,2.2-0.1c0.8,0.1,1.6,0.1,2.2,0.1c0.6,0,1.2,0.1,1.8,0.2l8.9,32.8l8-32.8
					c0.6-0.1,1.2-0.2,1.8-0.2c0.6-0.1,1.2-0.1,1.9-0.1c0.6,0,1.2,0,2,0.1c0.7,0.1,1.4,0.1,2.2,0.2L128,113.1
					c-0.7,0.1-1.4,0.2-2.1,0.2c-0.7,0.1-1.4,0.1-2,0.1c-0.6,0-1.2,0-1.9-0.1c-0.7-0.1-1.4-0.1-2.1-0.2l-8.8-30.9l-9.2,30.9
					c-0.7,0.1-1.5,0.2-2.2,0.2c-0.7,0.1-1.4,0.1-2,0.1c-0.6,0-1.2,0-2-0.1c-0.7-0.1-1.4-0.1-2-0.2L81.9,72.3z"/>
			</g>
		</g>
	</g>
</svg>