<svg version="1.1" id="Layer_1" xmlns="http://www.w3.org/2000/svg" xmlns:xlink="http://www.w3.org/1999/xlink" x="0px" y="0px"
				 viewBox="0 0 170 170" enable-background="new 0 0 170 170" xml:space="preserve">
	<g>
		<g>
			<path fill="#F1662A" d="M161.1,85.1c0,41.4-33.6,75-75,75s-75-33.6-75-75c0-41.4,33.6-75,75-75S161.1,43.7,161.1,85.1z"/>
		</g>
		<path fill="#FFFFFF" d="M156.4,85.1c0,38.8-31.5,70.3-70.3,70.3c-38.8,0-70.3-31.5-70.3-70.3c0-38.8,31.5-70.3,70.3-70.3
			C124.9,14.8,156.4,46.3,156.4,85.1z"/>
		<g>
			<polygon fill="#E44F26" points="73.7,82 86.1,82 86.1,72.5 72.9,72.5 		"/>
			<polygon fill="#F1662A" points="123.3,47.6 86.1,47.6 86.1,63.1 109.3,63.1 108.5,72.5 108.5,72.5 86.1,72.5 86.1,82 107.7,82 
				105.1,110.6 86.1,115.9 86.1,132 116.5,123.6 		"/>
			<polygon fill="#E44F26" points="86,115.9 86,115.9 86,115.9 86,115.9 66.9,110.6 65.6,96 75,96 75.6,103.4 86,106.2 86,106.2 
				86.1,106.2 86.1,91.3 65.2,91.3 62.7,63.1 86.1,63.1 86.1,47.6 48.9,47.6 55.6,123.6 86,132 86.1,132 86.1,115.9 		"/>
			<polygon fill="#F1662A" points="97.5,91.3 86.1,91.3 86.1,106.2 96.4,103.4 		"/>
		</g>
	</g>
</svg>