<?xml version="1.0" encoding="utf-8"?>
<!-- Generator: Adobe Illustrator 22.1.0, SVG Export Plug-In . SVG Version: 6.00 Build 0)  -->
<svg version="1.1" id="Layer_1" xmlns="http://www.w3.org/2000/svg" xmlns:xlink="http://www.w3.org/1999/xlink" x="0px" y="0px"
	 viewBox="0 0 170 170" style="enable-background:new 0 0 170 170;" xml:space="preserve">
<style type="text/css">
	.st0{fill:#F7DF1E;}
	.st1{fill:#FFFFFF;}
</style>
<g>
	<path class="st0" d="M161.4,85.1c0,41.4-33.6,75-75,75s-75-33.6-75-75s33.6-75,75-75S161.4,43.7,161.4,85.1z"/>
</g>
<path class="st1" d="M156.7,85.1c0,38.8-31.5,70.3-70.3,70.3s-70.3-31.5-70.3-70.3s31.5-70.3,70.3-70.3
	C125.2,14.8,156.7,46.3,156.7,85.1z"/>
<g>
	<path class="st0" d="M45.3,45h82.5v82.5H45.3V45z"/>
	<path d="M66.9,113.9l6.3-3.8c1.2,2.2,2.3,4,5,4c2.5,0,4.2-1,4.2-4.9V82.9h7.7v26.5c0,8-4.7,11.7-11.6,11.7
		C72.4,121,68.8,117.8,66.9,113.9"/>
	<path d="M94.3,113.1l6.3-3.7c1.7,2.7,3.8,4.7,7.6,4.7c3.2,0,5.3-1.6,5.3-3.8c0-2.7-2.1-3.6-5.6-5.1l-1.9-0.8
		c-5.6-2.4-9.3-5.4-9.3-11.7c0-5.8,4.4-10.2,11.3-10.2c4.9,0,8.5,1.7,11,6.2l-6,3.9c-1.3-2.4-2.8-3.3-5-3.3c-2.3,0-3.7,1.4-3.7,3.3
		c0,2.3,1.4,3.3,4.8,4.7L111,98c6.6,2.8,10.3,5.7,10.3,12.2c0,7-5.5,10.8-12.8,10.8C101.3,121,96.6,117.6,94.3,113.1"/>
</g>
</svg>
