<svg version="1.1" id="Layer_1" xmlns="http://www.w3.org/2000/svg" xmlns:xlink="http://www.w3.org/1999/xlink" x="0px" y="0px"
				 viewBox="0 0 170 170" enable-background="new 0 0 170 170" xml:space="preserve">
	<g>
		<g>
			<path fill="#0669AD" d="M161.4,85c0,41.4-33.6,75-75,75s-75-33.6-75-75c0-41.4,33.6-75,75-75S161.4,43.6,161.4,85z"/>
		</g>
		<path fill="#FFFFFF" d="M156.7,85c0,38.8-31.5,70.3-70.3,70.3c-38.8,0-70.3-31.5-70.3-70.3c0-38.8,31.5-70.3,70.3-70.3
			C125.2,14.7,156.7,46.2,156.7,85z"/>
		<path fill="#0769AD" d="M51.6,65.4c-6.9,10-6.1,22.9-0.8,33.5c0.1,0.3,0.3,0.5,0.4,0.8c0.1,0.2,0.2,0.3,0.3,0.5
			c0,0.1,0.1,0.2,0.2,0.3c0.1,0.2,0.2,0.3,0.3,0.5c0.2,0.3,0.3,0.6,0.5,0.9c0.1,0.2,0.2,0.3,0.3,0.5c0.2,0.3,0.4,0.6,0.6,0.9
			c0.1,0.1,0.2,0.3,0.3,0.4c0.3,0.4,0.5,0.8,0.8,1.2c0,0,0,0,0,0c0,0.1,0.1,0.1,0.1,0.2c0.3,0.3,0.5,0.7,0.8,1
			c0.1,0.1,0.2,0.2,0.3,0.4c0.2,0.3,0.5,0.6,0.7,0.9c0.1,0.1,0.2,0.2,0.3,0.3c0.3,0.4,0.7,0.8,1,1.1c0,0,0,0,0,0c0,0,0,0,0,0
			c0.3,0.4,0.7,0.7,1,1.1c0.1,0.1,0.2,0.2,0.3,0.3c0.3,0.3,0.5,0.5,0.8,0.8c0.1,0.1,0.2,0.2,0.3,0.3c0.4,0.3,0.7,0.7,1.1,1
			c0,0,0,0,0,0c0.1,0.1,0.1,0.1,0.2,0.2c0.3,0.3,0.7,0.6,1,0.9c0.1,0.1,0.3,0.2,0.4,0.3c0.3,0.2,0.6,0.4,0.9,0.7
			c0.1,0.1,0.3,0.2,0.4,0.3c0.3,0.2,0.6,0.5,0.9,0.7c0.1,0.1,0.2,0.2,0.3,0.2c0,0,0.1,0,0.1,0.1c0.3,0.2,0.6,0.4,0.9,0.6
			c0.1,0.1,0.3,0.2,0.4,0.3c0.5,0.3,1,0.6,1.4,0.9c0.1,0.1,0.3,0.1,0.4,0.2c0.4,0.2,0.7,0.4,1.1,0.6c0.2,0.1,0.4,0.2,0.6,0.3
			c0.2,0.1,0.5,0.3,0.8,0.4c0.1,0,0.1,0,0.2,0.1c0.1,0,0.2,0.1,0.3,0.2c0.4,0.2,0.8,0.4,1.2,0.6c0.1,0,0.2,0.1,0.2,0.1
			c0.5,0.2,0.9,0.4,1.4,0.6c0.1,0,0.2,0.1,0.3,0.1c0.4,0.2,0.9,0.3,1.3,0.5c0.1,0,0.1,0,0.2,0.1c0.5,0.2,1,0.3,1.5,0.5
			c0.1,0,0.2,0.1,0.4,0.1c0.5,0.2,1,0.3,1.5,0.4c33.6,6.1,43.3-20.2,43.3-20.2c-8.2,10.7-22.7,13.5-36.5,10.3c-0.5-0.1-1-0.3-1.5-0.4
			c-0.1,0-0.3-0.1-0.4-0.1c-0.5-0.2-1-0.3-1.5-0.5c-0.1,0-0.1,0-0.2-0.1c-0.4-0.2-0.9-0.3-1.3-0.5c-0.1-0.1-0.2-0.1-0.4-0.1
			c-0.5-0.2-0.9-0.4-1.4-0.6c-0.1,0-0.2-0.1-0.3-0.1c-0.4-0.2-0.8-0.4-1.2-0.6c-0.1-0.1-0.2-0.1-0.3-0.2c-0.3-0.1-0.6-0.3-0.9-0.5
			c-0.2-0.1-0.4-0.2-0.6-0.3c-0.4-0.2-0.7-0.4-1.1-0.6c-0.1-0.1-0.2-0.1-0.4-0.2c-0.5-0.3-1-0.6-1.4-0.9c-0.1-0.1-0.3-0.2-0.4-0.3
			c-0.3-0.2-0.7-0.4-1-0.7c-0.1-0.1-0.2-0.2-0.3-0.2c-0.3-0.2-0.6-0.5-1-0.7c-0.1-0.1-0.3-0.2-0.4-0.3c-0.3-0.2-0.6-0.4-0.9-0.7
			c-0.1-0.1-0.3-0.2-0.4-0.3c-0.4-0.3-0.7-0.6-1.1-0.9c0,0-0.1-0.1-0.1-0.1c-0.4-0.3-0.8-0.7-1.1-1c-0.1-0.1-0.2-0.2-0.3-0.3
			c-0.3-0.3-0.5-0.5-0.8-0.8c-0.1-0.1-0.2-0.2-0.3-0.3c-0.3-0.3-0.7-0.7-1-1.1c0,0,0,0-0.1-0.1c-0.3-0.4-0.7-0.8-1-1.2
			c-0.1-0.1-0.2-0.2-0.3-0.3c-0.2-0.3-0.5-0.6-0.7-0.9c-0.1-0.1-0.2-0.2-0.3-0.3c-0.3-0.4-0.6-0.7-0.8-1.1
			C53.7,84.7,50.9,70.3,57,58.5"/>
		<path fill="#0769AD" d="M73.2,57c-5,7.2-4.8,16.9-0.8,24.5c0.6,1.3,1.4,2.5,2.2,3.7c0.8,1.1,1.6,2.4,2.6,3.2
			c0.4,0.4,0.7,0.8,1.1,1.2c0.1,0.1,0.2,0.2,0.3,0.3c0.4,0.4,0.8,0.7,1.1,1.1c0,0,0,0,0,0c0,0,0,0,0,0c0.4,0.4,0.9,0.8,1.3,1.1
			c0.1,0.1,0.2,0.2,0.3,0.2c0.5,0.4,0.9,0.7,1.4,1c0,0,0,0,0.1,0c0.2,0.1,0.4,0.3,0.6,0.4c0.1,0.1,0.2,0.1,0.3,0.2
			c0.3,0.2,0.7,0.4,1,0.6c0.1,0,0.1,0.1,0.2,0.1c0.3,0.2,0.6,0.4,0.9,0.5c0.1,0.1,0.2,0.1,0.3,0.2c0.2,0.1,0.4,0.2,0.6,0.3
			c0,0,0.1,0,0.1,0c0.4,0.2,0.9,0.4,1.3,0.6c0.1,0,0.2,0.1,0.3,0.1c0.4,0.2,0.7,0.3,1.1,0.4c0.2,0.1,0.3,0.1,0.5,0.2
			c0.3,0.1,0.7,0.2,1,0.3c0.2,0.1,0.3,0.1,0.5,0.1c0.5,0.2,1,0.3,1.5,0.4C119,102.4,125,82.4,125,82.4c-5.4,7.8-15.8,11.5-27,8.6
			c-0.5-0.1-1-0.3-1.5-0.4c-0.2,0-0.3-0.1-0.4-0.1c-0.3-0.1-0.7-0.2-1-0.4C95,90,94.8,90,94.6,89.9c-0.4-0.1-0.7-0.3-1.1-0.4
			c-0.1,0-0.2-0.1-0.3-0.1c-0.5-0.2-0.9-0.4-1.4-0.6c-0.2-0.1-0.4-0.2-0.7-0.3c-0.1-0.1-0.3-0.1-0.4-0.2c-0.3-0.2-0.6-0.3-0.9-0.5
			c-0.1,0-0.1-0.1-0.2-0.1c-0.3-0.2-0.7-0.4-1-0.6c-0.1-0.1-0.2-0.1-0.3-0.2c-0.2-0.1-0.4-0.3-0.7-0.4c-0.5-0.3-0.9-0.7-1.4-1
			c-0.1-0.1-0.2-0.2-0.3-0.3c-4.9-3.8-8.8-9.1-10.6-15.1c-1.9-6.2-1.5-13.1,1.8-18.8"/>
		<path fill="#0769AD" d="M91.3,50.7c-3,4.4-3.3,9.8-1.2,14.6c2.2,5.1,6.6,9.1,11.8,11c0.2,0.1,0.4,0.2,0.6,0.2
			c0.1,0,0.2,0.1,0.3,0.1c0.3,0.1,0.6,0.2,0.9,0.3c14.3,2.8,18.2-7.3,19.2-8.8c-3.4,4.9-9.1,6.1-16.1,4.4c-0.6-0.1-1.2-0.3-1.7-0.5
			c-0.7-0.2-1.4-0.5-2-0.8c-1.2-0.6-2.4-1.3-3.5-2.2c-6.3-4.8-10.2-13.8-6.1-21.2"/>
	</g>
</svg>