<svg class="social linkedin" version="1.1" id="Layer_1" xmlns="http://www.w3.org/2000/svg" xmlns:xlink="http://www.w3.org/1999/xlink" x="0px" y="0px"
	 viewBox="0 0 170 170" enable-background="new 0 0 170 170" xml:space="preserve">
<g>
	<g>
		<path fill="#074266" d="M161,84.5c0,41.4-33.6,75-75,75c-41.4,0-75-33.6-75-75c0-41.4,33.6-75,75-75C127.4,9.5,161,43.1,161,84.5z
			"/>
	</g>
	<g>
		<path fill="#086699" d="M156.3,84.5c0,38.8-31.5,70.3-70.3,70.3s-70.3-31.5-70.3-70.3c0-38.8,31.5-70.3,70.3-70.3
			S156.3,45.7,156.3,84.5z"/>
	</g>
	<path fill="#FFFFFF" d="M65.2,54.5c0,4.5-3.3,8.1-8.8,8.1c-5.1,0-8.5-3.6-8.5-8.1c0-4.6,3.4-8.1,8.7-8.1
		C61.9,46.3,65.1,49.9,65.2,54.5 M48.4,69h16.3v52.3H48.4V69z M74.4,85.7c0-6.5-0.2-12-0.4-16.7h14.1l0.8,7.3h0.3
		c2.1-3.4,7.4-8.5,16.2-8.5C116,67.8,124,75,124,90.4v30.9h-16.3v-29c0-6.7-2.4-11.3-8.2-11.3c-4.5,0-7.2,3.1-8.3,6.1
		c-0.4,1.1-0.5,2.6-0.5,4.1v30.2H74.4V85.7z"/>
</g>
</svg>