<?xml version="1.0" encoding="utf-8"?>
<!-- Generator: Adobe Illustrator 22.0.1, SVG Export Plug-In . SVG Version: 6.00 Build 0)  -->
<svg version="1.1" id="Layer_1" xmlns="http://www.w3.org/2000/svg" xmlns:xlink="http://www.w3.org/1999/xlink" x="0px" y="0px"
	 viewBox="0 0 793 100" style="enable-background:new 0 0 793 100;" xml:space="preserve">
<style type="text/css">
	.st0{fill:#EC7700;}
	.st1{fill:#FFB71B;}
	.st2{fill:#68813C;}
	.st3{fill:#999A32;}
	.st4{fill:#2D2A26;}
</style>
<g>
	<path class="st0" d="M54.1,70.4L100,99c0.6,0.4,1.3,0.6,2,0.6c0.6,0,1.3-0.2,1.9-0.5c1.2-0.7,2-2,2-3.4V47.8
		C81.9,47.9,66.9,58.7,54.1,70.4z"/>
	<path class="st1" d="M104,44L55.9,14.2c-1.4-0.9-3.5-0.9-4.8,0L3.1,44c-1.1,0.7-1.8,2-1.8,3.3v48.5c0,1.4,0.8,2.7,2,3.4
		c0.5,0.3,1.1,0.4,1.6,0.4c0.1,0,0.3,0,0.4,0c21.2-0.2,33.6-15.3,48.8-29.2c12.9-11.7,27.8-22.5,51.8-22.6v-0.5
		C105.8,45.9,105.1,44.7,104,44z"/>
	<path class="st2" d="M31.4,13.7V6.9l0-0.4V5.6c0,0,0-0.1,0-0.1c0-0.1,0-0.2,0-0.3V5l0-0.1c0-0.1,0-0.3,0-0.4c0.3-2.7,2-4.5,6-4.5
		c1.6,0,7.7,0,7.7,0l0,6.8v0v0c0,0.2,0,0.4,0,0.6V8c-0.1,1.7-0.5,3.2-1.6,4.3c-0.8,0.8-2,1.4-3.7,1.4C38.6,13.7,33.3,13.7,31.4,13.7
		"/>
	<path class="st3" d="M24.4,24.7H12.3l-0.6,0H10c-0.1,0-0.1,0-0.2,0c-0.2,0-0.3,0-0.4,0H8.8H8.7c-0.2,0-0.5-0.1-0.7-0.1
		C3.1,24,0,21,0,13.9C0,11,0,0,0,0h12.2h0h0c0.4,0,0.8,0,1.1,0h1C17.4,0.2,20.1,1,22,2.8c1.5,1.5,2.5,3.6,2.5,6.7
		C24.5,11.7,24.5,21.2,24.4,24.7"/>
</g>
<g>
	<path class="st4" d="M525.3,89h-0.2v0h-15.3V52.1l0,0v-0.8c0-3.6-2.9-6.4-6.5-6.4h-5.5v55.1h33.9v-4.4
		C531.7,91.9,528.8,89,525.3,89z"/>
	<path class="st4" d="M707.6,44.9v43h0v4c0,4.5,3.6,8.1,8,8.1v0h4V44.9H707.6z"/>
	<path class="st4" d="M792.9,84.5c0,0,0-0.1,0-0.1V84h0c-0.3-2.6-2.4-4.6-5-4.6v0h-6.7v8.9c0,0.5-0.3,0.8-0.8,0.8h-11.7
		c-0.5,0-0.8-0.3-0.8-0.8V56.6c0-0.5,0.3-0.8,0.8-0.8h11.7c0.5,0,0.8,0.3,0.8,0.8v7.6h11.8V53.9c0-5-4.1-9.1-9.1-9.1H761
		c-5,0-5.2,0.1-5.2,5.2v40.8c0,5,4,9.1,9.1,9.1h24.5c3.5,0,3.6-0.1,3.6-3.5v-9.3h0V84.5z"/>
	<path class="st4" d="M672.1,75.1c0-0.1,0-0.1,0-0.2v-0.3h0c-0.2-2.6-2.4-4.7-5.1-4.7h-0.3v0h-14.1v10.4h7.8v7.9
		c0,0.5-0.3,0.8-0.8,0.8h-12.2c-0.5,0-0.8-0.3-0.8-0.8V56.6c0-0.5,0.3-0.8,0.8-0.8h12.2c0.5,0,0.8,0.3,0.8,0.8v5.6H672v-8.3
		c0-5-4-9.1-9.1-9.1h-25.1c-3.2,0-3.3-0.2-3.3,3.2v42.8c0,5,4.1,9.1,9.1,9.1h23.1c5.1,0,5.4-0.2,5.4-5.2V77.6h0V75.1z"/>
	<path class="st4" d="M596.4,99.9h-27.2c-5,0-9.1-4.1-9.1-9.1v-43c0-2.6,0.1-3,2.5-3h27c5.1,0,9.1,4.1,9.1,9.1v43
		C598.6,99.4,598.6,99.9,596.4,99.9z M585.8,55.8h-12.9c-0.5,0-0.8,0.3-0.8,0.8v31.6c0,0.5,0.3,0.8,0.8,0.8h12.9
		c0.5,0,0.8-0.3,0.8-0.8V56.6C586.6,56.1,586.3,55.8,585.8,55.8z"/>
	<path class="st4" d="M263.9,79.8h0.7c4.1,0,4.8-0.3,4.8-5l0-20.9c0-5.1-4.1-9.1-9.1-9.1h-29.6v50.9h0c0.1,2.4,2,4.3,4.4,4.3v0h7.5
		V79.8l8,0l9.6,20.2h13.2L263.9,79.8z M257.4,68c0,0.5-0.3,0.8-0.8,0.8h-13.9V55.7h13.9c0.5,0,0.8,0.3,0.8,0.8V68z"/>
	<path class="st4" d="M186.4,44.8h-29.6v50.9h0c0.1,2.4,2,4.3,4.4,4.3v0h0.1c0,0,0,0,0,0h0.4v0h7.1V79.8l23.8,0
		c2.8,0,2.9-0.7,2.9-3.5l0-22.4C195.5,48.9,191.4,44.8,186.4,44.8z M183.5,68c0,0.5-0.3,0.8-0.8,0.8h-13.9V55.7h13.9
		c0.5,0,0.8,0.3,0.8,0.8V68z"/>
	<path class="st4" d="M308.4,44.8v47.3c0,4.4,3.5,7.9,7.9,7.9v0h4.2V44.8H308.4z"/>
	<path class="st4" d="M369.6,89.1l22.7-33.5v-3.7c0-3.9-3.1-7-6.9-7.1v0h-29.6v10.9h22.2l-22.6,33.5v6.5h0c0.1,2.4,2,4.2,4.4,4.3v0
		h32.8V89.1H369.6z"/>
	<path class="st4" d="M436,89.1V77.2h20.6V66.3H436V55.7h22.1l0.2,0v-4.5c0-3.4-2.7-6.2-6.1-6.5v0H424v50.9h0c0.1,2.4,2,4.3,4.4,4.3
		v0h29.9V89.1H436z"/>
</g>
</svg>
