<svg version="1.1" id="Layer_1" xmlns="http://www.w3.org/2000/svg" xmlns:xlink="http://www.w3.org/1999/xlink" x="0px" y="0px"
				 viewBox="0 0 170 170" enable-background="new 0 0 170 170" xml:space="preserve">
	<g>
		<g>
			<path fill="#CC6699" d="M161.4,85c0,41.4-33.6,75-75,75s-75-33.6-75-75c0-41.4,33.6-75,75-75S161.4,43.6,161.4,85z"/>
		</g>
		<path fill="#FFFFFF" d="M156.7,85c0,38.8-31.5,70.3-70.3,70.3c-38.8,0-70.3-31.5-70.3-70.3c0-38.8,31.5-70.3,70.3-70.3
			C125.2,14.7,156.7,46.2,156.7,85z"/>
		<g>
			<g>
				<path fill="#CD6799" d="M127.9,51.5c-2.7-10.4-20-13.9-36.3-8c-9.7,3.5-20.3,8.9-27.9,16c-9,8.4-10.5,15.8-9.9,18.8
					c2.1,10.8,16.9,17.9,23,23.1v0c-1.8,0.9-14.9,7.5-18,14.3c-3.2,7.2,0.5,12.3,3,13c7.7,2.1,15.6-1.7,19.9-8.1c4.1-6.1,3.8-14,2-18
					c2.5-0.7,5.3-0.9,9-0.5c10.3,1.2,12.3,7.6,11.9,10.3c-0.4,2.7-2.5,4.2-3.3,4.6c-0.7,0.4-0.9,0.6-0.9,0.9c0.1,0.5,0.4,0.5,1,0.4
					c0.8-0.1,5.4-2.2,5.6-7.2c0.2-6.3-5.8-13.4-16.5-13.2c-4.4,0.1-7.2,0.5-9.2,1.2c-0.1-0.2-0.3-0.3-0.5-0.5
					c-6.6-7.1-18.9-12.1-18.3-21.5c0.2-3.5,1.4-12.5,23.5-23.6c18.1-9,32.6-6.5,35.1-1c3.6,7.9-7.8,22.5-26.6,24.6
					c-7.2,0.8-10.9-2-11.9-3c-1-1.1-1.1-1.1-1.5-0.9c-0.6,0.3-0.2,1.3,0,1.9c0.6,1.5,2.9,4.1,6.8,5.3c3.5,1.1,11.9,1.8,22.1-2.2
					C121.7,74,130.6,61.7,127.9,51.5z M79.4,104.6c0.9,3.2,0.8,6.1-0.1,8.8c-0.1,0.3-0.2,0.6-0.3,0.9c-0.1,0.3-0.2,0.6-0.4,0.9
					c-0.7,1.4-1.6,2.7-2.7,4c-3.4,3.7-8.2,5.1-10.2,3.9c-2.2-1.3-1.1-6.5,2.9-10.7c4.3-4.5,10.4-7.4,10.4-7.4l0,0
					C79.1,104.8,79.3,104.7,79.4,104.6z"/>
			</g>
		</g>
	</g>
</svg>