<svg class="social twitter" version="1.1" id="Layer_1" xmlns="http://www.w3.org/2000/svg" xmlns:xlink="http://www.w3.org/1999/xlink" x="0px" y="0px"
	 viewBox="0 0 170 170" enable-background="new 0 0 170 170" xml:space="preserve">
<g>
	<g>
		<path fill="#377DB4" d="M160,84.5c0,41.4-33.6,75-75,75c-41.4,0-75-33.6-75-75c0-41.4,33.6-75,75-75C126.4,9.5,160,43.1,160,84.5z
			"/>
	</g>
	<g>
		<path fill="#5FA9DD" d="M155.3,84.5c0,38.8-31.5,70.3-70.3,70.3c-38.8,0-70.3-31.5-70.3-70.3c0-38.8,31.5-70.3,70.3-70.3
			C123.8,14.2,155.3,45.7,155.3,84.5z"/>
	</g>
	<path fill="#FFFFFF" d="M127.2,63c-3.1,1.4-6.4,2.3-9.9,2.7c3.6-2.1,6.3-5.5,7.6-9.6c-3.3,2-7.1,3.4-11,4.2
		c-3.2-3.4-7.7-5.5-12.6-5.5c-9.6,0-17.3,7.8-17.3,17.3c0,1.4,0.2,2.7,0.4,4C70,75.5,57.2,68.6,48.7,58.1c-1.5,2.6-2.3,5.5-2.3,8.7
		c0,6,3.1,11.3,7.7,14.4c-2.8-0.1-5.5-0.9-7.8-2.2c0,0.1,0,0.1,0,0.2c0,8.4,6,15.4,13.9,17c-1.4,0.4-3,0.6-4.6,0.6
		c-1.1,0-2.2-0.1-3.3-0.3c2.2,6.9,8.6,11.9,16.2,12c-5.9,4.6-13.4,7.4-21.5,7.4c-1.4,0-2.8-0.1-4.1-0.2c7.7,4.9,16.8,7.8,26.5,7.8
		c31.8,0,49.3-26.4,49.3-49.3c0-0.8,0-1.5-0.1-2.2C121.9,69.6,124.9,66.5,127.2,63"/>
</g>
</svg>