<?xml version="1.0" encoding="utf-8"?>
<!-- Generator: Adobe Illustrator 22.1.0, SVG Export Plug-In . SVG Version: 6.00 Build 0)  -->
<svg version="1.1" id="Layer_1" xmlns="http://www.w3.org/2000/svg" xmlns:xlink="http://www.w3.org/1999/xlink" x="0px" y="0px"
	 viewBox="0 0 170 170" style="enable-background:new 0 0 170 170;" xml:space="preserve">
<style type="text/css">
	.st0{fill:#41B883;}
	.st1{fill:#FFFFFF;}
	.st2{fill:#35495E;}
</style>
<g>
	<path class="st0" d="M161.4,85.1c0,41.4-33.6,75-75,75s-75-33.6-75-75s33.6-75,75-75S161.4,43.7,161.4,85.1z"/>
</g>
<path class="st1" d="M156.7,85.1c0,38.8-31.5,70.3-70.3,70.3s-70.3-31.5-70.3-70.3s31.5-70.3,70.3-70.3
	C125.2,14.8,156.7,46.3,156.7,85.1z"/>
<g>
	<path class="st0" d="M112.8,53.7h18l-45.1,77.7L40.7,53.7h17.8h16.7l10.6,18l10.4-18H112.8z"/>
	<path class="st0" d="M40.7,53.7l45.1,77.7l45.1-77.7h-18l-27,46.6L58.5,53.7H40.7z"/>
	<path class="st2" d="M58.5,53.7l27.3,46.9l27-46.9H96.2l-10.4,18l-10.6-18H58.5z"/>
</g>
</svg>
