<?xml version="1.0" encoding="utf-8"?>

<!-- License Agreement at http://iconmonstr.com/license/ -->

<!DOCTYPE svg PUBLIC "-//W3C//DTD SVG 1.1//EN" "http://www.w3.org/Graphics/SVG/1.1/DTD/svg11.dtd">
<svg version="1.1" xmlns="http://www.w3.org/2000/svg" xmlns:xlink="http://www.w3.org/1999/xlink" x="0px" y="0px"
	 width="50%" height="50%" fill="#ffffff" viewBox="0 0 512 512" enable-background="new 0 0 512 512" xml:space="preserve">
<path id="christmas-tree-8-icon" d="M137.553,378.902l72.119-94.57h-43.701l60.521-79.08H193.16L256,118l62.84,87.252h-33.332
	l60.521,79.08h-43.702l72.12,94.57H137.553z M350.936,257.835l15.716-20.688l35.54,56.931h-28.051l51.765,83.781h-29.102
	l14.682,19.251h49.72l-52.007-83.779h27.878l-69.425-112.529l-28.992,40.992L350.936,257.835z M353.02,461.25h29.264v-51.133H353.02
	V461.25z M173.341,241.794l-28.992-40.992L74.924,313.331h27.878L50.795,397.11h49.72l14.682-19.251H86.095l51.765-83.781h-28.051
	l35.54-56.931l15.716,20.688L173.341,241.794z M158.98,410.117h-29.264v51.133h29.264V410.117z M275,395.602h-38V462h38V395.602z
	 M245.579,71.498l-23.666,3.268l17.226,16.555l-4.205,23.518L256,103.57l21.066,11.268l-4.204-23.518l17.225-16.555l-23.666-3.268
	L256,50L245.579,71.498z"/>
</svg>
