<svg width="200" height="200" viewBox="0 0 200 200" fill="none" xmlns="http://www.w3.org/2000/svg">
<path d="M149.288 127.502L146.957 125.786C146.978 125.511 147.003 125.242 147.022 124.977C147.238 122.37 147.357 120.936 148.9 118.411C151.563 114.067 154.497 108.123 153.544 100.661C152.672 93.8448 149.854 87.6291 147.7 84.3759C146.76 82.9508 145.01 80.4914 143.466 78.3226C142.338 76.7382 140.935 74.7632 140.703 74.3819C140.622 74.2475 140.51 74.0788 140.369 73.8725C139.603 72.7506 138.013 70.4162 139.231 66.338C139.666 64.9067 139.088 63.3473 137.822 62.5504C136.556 61.7535 134.903 61.9004 133.806 62.9035C132.028 64.5223 128.191 68.7255 128.097 74.9257C125.978 71.6819 123.75 69.3037 121.781 67.2036C117.934 63.0973 116.259 61.1004 116.9 56.769L117.137 55.1878C118.431 46.6282 119.65 38.5405 112.668 31.7341C110.171 29.2997 106.465 27.559 102.543 25.7184C96.1837 22.7277 88.971 19.3401 85.8522 12.465C85.1834 10.9743 83.549 10.1993 81.974 10.6087C80.3989 11.0212 79.3583 12.4993 79.5021 14.1213C79.9271 18.9807 82.224 28.5403 92.8086 37.9499C104.174 48.0532 102.493 50.3501 100.534 53.019C99.9087 53.8752 98.5275 54.5034 96.9399 54.6627C94.9461 54.8565 92.9898 54.3346 91.8367 53.2846C87.8085 49.6126 85.3334 45.4813 84.2772 40.6593C83.0146 34.9186 79.7021 32.8998 77.8364 32.206C76.4582 31.6935 74.9301 32.131 74.0332 33.2935C73.1394 34.4529 73.105 36.0405 73.9488 37.2342C74.4926 38.0061 75.6864 40.3218 75.077 45.15C74.0301 53.444 76.1832 57.344 76.8676 58.3441C77.3739 59.166 80.6177 64.2723 85.7209 68.3568C86.7272 69.1599 95.4336 76.3882 91.8273 82.5665C89.2085 87.0509 85.2897 86.4822 84.8959 86.4103C84.8334 86.3978 84.7522 86.3822 84.6897 86.3728C84.3803 86.3259 77.0958 85.1634 74.9238 77.0288C74.2738 74.5913 73.7676 72.4162 73.3113 70.4568C71.8019 63.9567 70.7081 59.2597 66.5987 54.9846C61.6298 49.8126 55.8359 48.0345 48.8952 49.5314C47.3326 49.8689 46.2295 51.2752 46.2732 52.8752C46.3201 54.4784 47.4983 55.8221 49.0795 56.0721C53.3203 56.744 56.4797 60.766 57.9954 67.4974C59.3798 72.7725 59.9766 79.5945 58.661 81.3446C58.5829 81.4508 58.5766 81.4602 58.3985 81.4633C57.2891 81.5102 56.8266 81.1602 56.5734 80.9133C55.8672 80.2289 55.4453 78.7132 55.4359 76.8601C55.4297 75.3413 54.3984 74.0194 52.9265 73.6475C51.4515 73.2756 49.9171 73.9444 49.1858 75.2757C47.967 77.5038 46.3139 82.1789 48.9764 88.5135C52.0265 95.7792 52.0859 95.9199 53.4265 103.479C54.1265 107.433 54.9109 111.198 56.3672 114.867C55.3297 114.805 54.3609 115.217 53.6671 116.03C52.6484 117.217 52.589 118.923 53.5203 120.18C54.0046 120.83 55.0422 122.827 54.2859 127.314C54.039 128.78 53.7546 130.267 53.4609 131.786C52.1327 138.693 50.6296 146.518 52.089 155.634C53.9171 167.046 59.7329 172.696 59.961 172.915C60.2954 173.24 63.3611 176.115 67.9612 177.29C71.1706 178.109 73.1769 179.894 74.5676 181.356C76.8114 183.715 85.5272 190.256 93.7805 190.469C94.6211 190.491 95.4305 190.5 96.2087 190.5C105.356 190.5 110.328 189.019 116.378 186.228C123.244 183.059 133.969 176.375 139.225 172.925C144.757 169.296 151.075 164.112 150.866 156.184C150.819 154.502 150.566 152.684 150.3 150.759C149.538 145.283 148.672 139.08 151.638 132.061C152.25 130.617 151.794 128.971 150.522 128.055C150.138 127.78 149.716 127.596 149.279 127.499L149.288 127.502Z" fill="#CEE5EB"/>
<path d="M140.228 147.033C140.228 147.033 139.753 151.159 139.435 154.409C139.119 157.662 136.344 161.546 136.344 161.546C136.344 161.546 134.597 164.243 130.635 163.687C126.669 163.131 123.734 164.196 121.119 165.309C121.119 165.309 108.35 170.268 102.8 169.556C97.4401 168.868 93.6338 166.034 93.3775 165.837C93.3681 165.831 93.3588 165.821 93.3494 165.815C93.0806 165.565 88.7399 161.478 88.3524 159.212C87.9555 156.874 89.4462 157.868 91.6368 158.415C93.8244 158.962 100.096 160.506 103.728 160.806C107.362 161.103 117.116 161.649 123.284 158.965C129.456 156.277 130.053 151.549 130.053 151.549C130.053 151.549 130.7 146.224 132.344 143.19C133.985 140.155 136.075 136.771 140.754 133.086C140.754 133.086 143.341 131.296 143.838 127.164C144.335 123.033 143.938 120.842 146.376 116.861C148.813 112.88 151.451 107.655 150.607 101.036C149.76 94.4167 146.976 88.6447 145.232 86.0072C143.491 83.3696 138.763 76.9007 138.166 75.9038C137.607 74.9694 134.588 71.535 136.403 65.4755C136.513 65.113 136.085 64.838 135.803 65.0942C133.997 66.738 130.478 70.7475 131.147 76.6007C131.985 83.9009 134.647 91.9417 131.619 97.5543C131.438 97.8918 130.922 97.7668 130.922 97.3855C130.922 93.8761 130.469 84.0415 125.725 76.7007C119.85 67.6162 112.644 65.3442 113.975 56.3347C115.306 47.3282 116.872 39.9624 110.606 33.8529C104.637 28.0341 88.7243 25.9496 83.1617 13.6775C82.9898 13.2963 82.4241 13.4431 82.4616 13.8588C82.8085 17.8214 84.7617 26.8215 94.7838 35.7311C108.178 47.6376 105.515 51.2408 102.931 54.7659C100.346 58.291 93.3744 58.6816 89.8493 55.4722C86.3242 52.2596 82.7991 47.7189 81.3897 41.2937C80.4429 36.9811 78.1897 35.4936 76.8115 34.9811C76.4709 34.853 76.1678 35.2342 76.3771 35.5342C77.3022 36.853 78.7303 39.8906 78.0209 45.5251C77.0022 53.594 79.3522 56.7253 79.3522 56.7253C79.3522 56.7253 82.4835 61.9723 87.5774 66.0474C92.6681 70.1193 98.2307 77.482 94.3932 84.0634C90.5556 90.6448 84.2898 89.3104 84.2898 89.3104C84.2898 89.3104 74.8115 88.0572 72.0708 77.7945C69.3301 67.5318 69.1426 61.8973 64.4738 57.0378C60.5612 52.9658 55.9923 51.0314 49.5328 52.4252C49.1391 52.5096 49.1578 53.0815 49.5547 53.144C52.8173 53.6596 58.483 56.1315 60.8737 66.7411C60.8737 66.7411 65.4863 84.2509 58.483 84.4196C53.1579 84.5478 52.4985 79.3602 52.486 76.8695C52.486 76.4882 51.9797 76.3601 51.7954 76.6945C50.836 78.4476 49.5359 82.1665 51.7047 87.3322C54.7861 94.6699 54.9517 95.0636 56.3548 102.961C57.7549 110.855 59.3518 117.642 66.4644 124.558C66.4738 124.567 66.4863 124.577 66.4957 124.586C66.7676 124.799 70.4989 127.739 72.3677 131.805C73.9896 135.333 77.4209 140.346 79.2835 143.162C81.146 145.977 79.9647 146.249 79.3272 146.43C79.3272 146.43 75.1521 147.483 69.3207 142.833C68.9926 142.571 68.5551 142.977 68.7864 143.324C70.1364 145.346 72.8052 148.746 77.5209 152.696C85.1555 159.093 86.4961 165.128 86.4961 165.128C86.4961 165.128 88.4649 173.484 85.9336 176.778C83.3992 180.072 81.796 179.059 80.446 177.284C79.0928 175.512 73.8583 168.165 71.4114 164.787C68.9614 161.409 61.6987 151.784 61.2768 143.677C60.8549 135.571 62.7987 127.971 60.1799 122.567C58.7549 119.627 57.3549 118.386 56.3767 117.864C56.0361 117.683 55.6861 118.098 55.9173 118.408C56.8673 119.689 58.1236 122.483 57.2267 127.799C55.8736 135.821 53.3423 144.602 55.0329 155.159C56.7205 165.715 62.0425 170.781 62.0425 170.781C62.0425 170.781 64.7456 173.4 68.7145 174.412C72.6833 175.425 75.1334 177.622 76.7365 179.309C78.3397 181 86.3649 187.306 93.8775 187.5C103.759 187.753 108.572 186.572 115.156 183.531C121.744 180.49 132.213 173.99 137.619 170.443C143.022 166.896 148.091 162.506 147.922 156.256C147.76 150.259 144.532 141.308 148.929 130.896C149.082 130.533 148.647 130.214 148.351 130.474C146.304 132.277 142.116 137.043 140.235 147.024M135.3 123.186C138.941 120.274 140.403 116.067 140.979 113.508C141.072 113.083 141.7 113.152 141.707 113.583C141.738 115.961 141.066 119.077 140.147 121.317C138.875 124.417 137.207 126.642 129.978 131.33C125.2 134.427 122.087 140.005 120.525 143.433C120.344 143.83 119.744 143.63 119.828 143.202C122.381 130.38 130.141 127.311 135.3 123.186ZM70.2426 116.589C69.4239 110.226 75.8365 106.22 79.0866 104.617C79.4647 104.433 79.2897 103.87 78.8741 103.92C73.1177 104.639 68.4895 108.726 66.9644 110.226C66.7457 110.442 66.3769 110.308 66.3426 110.001C65.3488 101.458 63.4644 97.1199 62.1425 95.0324C61.9175 94.6761 62.3581 94.2855 62.6862 94.548C65.1519 96.523 67.4457 99.6512 67.4457 99.6512C67.4457 99.6512 69.4395 102.014 72.1708 100.757C74.0115 99.9106 74.1083 97.7262 73.9771 96.3887C73.9427 96.0543 74.3271 95.8574 74.5802 96.073C79.5772 100.314 95.8057 104.176 103.181 96.1043C109.025 89.7104 107.422 81.3665 106.234 77.5476C106.112 77.157 106.634 76.8945 106.884 77.2195C115.028 87.9166 112.14 95.9511 111.106 98.4824C110.062 101.036 112.797 101.864 113.028 101.929C113.04 101.933 113.053 101.936 113.062 101.942C116.556 103.329 120.737 105.454 121.919 106.064C122.1 106.158 122.169 106.379 122.075 106.561L120.006 110.542C119.906 110.733 119.994 110.967 120.194 111.051C126.819 113.845 131.044 116.417 132.413 117.298C132.641 117.445 132.638 117.777 132.41 117.92C126.788 121.395 118.562 126.98 115.975 128.746C115.697 128.936 115.337 128.677 115.415 128.349C116.781 122.708 115.04 119.552 115.04 119.552C113.519 116.339 107.2 114.548 105.937 114.22C105.8 114.186 105.703 114.073 105.675 113.933C104.284 106.704 98.0526 105.604 95.2119 105.489C94.8307 105.473 94.6838 105.976 95.0088 106.17C98.0307 107.98 99.0933 109.986 99.462 111.205C99.5714 111.561 99.1464 111.833 98.8651 111.586C97.8776 110.72 96.0744 109.376 94.0306 109.017C91.6025 108.589 89.2868 109.995 88.4086 110.614C88.193 110.767 87.8961 110.642 87.8368 110.383C87.6305 109.498 88.0274 108.492 88.3493 107.864C88.493 107.586 88.2461 107.276 87.9399 107.336C85.7336 107.773 83.1429 109.992 84.2242 113.13C84.9679 115.286 87.8149 116.577 89.8993 117.248C90.3056 117.38 90.2024 117.986 89.7743 117.967C88.0461 117.892 85.6398 117.48 83.3773 116.036C80.2804 114.061 80.6429 110.62 81.0397 108.976C81.1179 108.655 80.7554 108.408 80.4803 108.589C77.4897 110.526 75.5146 111.961 75.9928 116.098C76.4271 119.852 82.1679 123.845 87.7368 125.786C91.3837 127.055 98.487 128.377 102.953 129.136C103.396 129.211 103.334 129.867 102.884 129.867C90.2556 129.896 83.3773 127.602 83.3773 127.602C83.3773 127.602 71.3302 125.058 70.2395 116.583M83.371 136.383C81.971 134.136 79.4835 130.908 79.1647 130.511C79.1647 130.511 78.7647 129.955 78.9834 129.711C79.2022 129.464 79.5022 129.574 79.8272 129.792C80.1522 130.011 81.3491 130.852 83.2804 131.539C83.2867 131.539 83.2898 131.543 83.2992 131.546C83.5492 131.621 90.3649 133.693 95.1963 134.083C100.115 134.48 101.228 136.305 101.228 137.733C101.228 139.161 101.543 144.162 99.6401 149.002C97.7338 153.843 94.64 151.384 94.64 151.384C94.64 151.384 91.8962 149.762 88.9274 145.24C86.7524 141.927 84.9492 138.921 83.371 136.383Z" fill="#C8102E"/>
</svg>
