<?xml version="1.0" encoding="UTF-8"?>
<svg xmlns="http://www.w3.org/2000/svg" version="1.1" viewBox="0 0 645.1 409.3">
  <defs>
    <style>
      .cls-1 {
        fill: #b3c7e7;
      }
    </style>
  </defs>
  <!-- Generator: Adobe Illustrator 28.7.2, SVG Export Plug-In . SVG Version: 1.2.0 Build 154)  -->
  <g>
    <g id="Layer_1">
      <path class="cls-1" d="M440.6,323.1c46.1,0,86-26.3,105.6-64.6,0,0-39.8,31.4-105.6,31.4s-88-19.8-100.6-28c-3.5-2.3-7.6-3.5-11.8-3.5h-74.9c1.9,3.7,4,7.3,6.2,10.8H109l-4.6,10.8h237.5c4.5,0,8.8,1.9,11.8,5.1,5.7,6.1,12,11.6,18.8,16.4h-81.6c5.9,4.1,12.1,7.8,18.7,10.8H90.7l-4.6,10.8h354.5Z"/>
      <path class="cls-1" d="M310.7,215.4h-69.7c.3,3.6.8,7.2,1.5,10.8h-115.2l-4.6,10.8h195.9c4.9,0,9.6,1.7,13.4,4.7,14,11.2,53.8,38.4,108.5,38.4s93.9-26.8,108.2-38.1c3.9-3.1,6.6-7.5,7.7-12.3,1.4-6.3,2.2-12.9,2.5-19.6h-95.9l4.6-10.8h91.3c-.3-6.7-1.2-13.2-2.5-19.6-1-4.9-3.8-9.2-7.7-12.3-14.3-11.3-53.8-38.1-108.2-38.1s-94.4,27.1-108.5,38.3c-3.9,3.1-8.6,4.8-13.6,4.8h-168.4l-4.6,10.8h96.9c-.6,3.5-1.1,7.1-1.5,10.8h69.7c3.3,0,6.6.9,9.4,2.7h0c2.8,1.8,6.1,2.7,9.4,2.7h89.1l-4.6,10.8h-84.5c-3.3,0-6.6.9-9.4,2.7h0c-2.8,1.8-6.1,2.7-9.4,2.7h0ZM433,189.6h-38.7l9.5-22.5h100.3l-9.5,22.5h-33.2l-25.5,60h-28.4l25.5-60h0Z"/>
      <path class="cls-1" d="M168.4,129.2l-4.6,10.8h95.8c-2.3,3.5-4.4,7.1-6.2,10.8h74.9c4.2,0,8.2-1.2,11.8-3.5,12.6-8.2,48.4-27.9,100.6-27.9s105.5,31.4,105.6,31.4c-19.6-38.4-59.5-64.7-105.6-64.7h-253.9l-4.6,10.8h127.4c-6.6,3-12.9,6.6-18.7,10.8h81.6c-6.8,4.8-13.1,10.3-18.8,16.4-3,3.3-7.3,5.1-11.8,5.1h-173.4,0Z"/>
    </g>
  </g>
</svg>