<?xml version="1.0" encoding="utf-8"?>
<!-- Generator: Adobe Illustrator 23.0.4, SVG Export Plug-In . SVG Version: 6.00 Build 0)  -->
<svg version="1.1" id="Layer_1" xmlns="http://www.w3.org/2000/svg" xmlns:xlink="http://www.w3.org/1999/xlink" x="0px" y="0px"
	 viewBox="0 0 88.8 79" style="enable-background:new 0 0 88.8 79;" xml:space="preserve">
<style type="text/css">
	.st0{fill:#00A3D9;}
</style>
<title>logo</title>
<path class="st0" d="M20.9,78.6c-3.2,0.2-6.3-0.9-8.6-3.1c-2.2-2.6-3.4-6-3.1-9.5V28.9H1.4c-0.4,0-0.7-0.1-1-0.3
	C0.1,28.3,0,28,0,27.6v-2L9.3,25l1.3-19.6c0-0.3,0.2-0.6,0.4-0.9c0.3-0.3,0.6-0.4,1-0.4h2.4v20.7h17.2v3.9H14.4v37
	c0,1.3,0.2,2.7,0.6,3.9c0.3,1,0.9,1.9,1.6,2.6c0.7,0.7,1.5,1.2,2.4,1.5c1,0.3,2,0.5,3,0.4c1.2,0,2.3-0.2,3.4-0.6
	c0.9-0.3,1.7-0.8,2.5-1.3c0.6-0.4,1.1-0.8,1.7-1.3c0.3-0.3,0.7-0.5,1.1-0.6c0.4,0,0.7,0.2,0.9,0.5l1.4,2.3c-1.5,1.6-3.3,2.9-5.3,3.7
	C25.4,78.1,23.2,78.6,20.9,78.6z"/>
<path class="st0" d="M88.4,0v64c0,4.7,0.1,10.1,0.4,13.7h-8.6l-0.4-9.2h-0.2C76,75.2,69,79.3,61.5,79c-12.8,0-22.7-10.9-22.7-27
	c0-17.6,10.9-28.5,23.8-28.5c8.1,0,13.7,3.9,16,8.1h0.2V0H88.4z M78.7,46.3c0-1.4-0.2-2.8-0.5-4.1C76.8,35.7,71,31,64.3,31.1
	c-10,0-15.9,8.8-15.9,20.5c0,10.7,5.2,19.6,15.6,19.6c6.8,0,12.7-4.8,14.1-11.5c0.3-1.4,0.5-2.8,0.4-4.2L78.7,46.3z"/>
</svg>
