<?xml version="1.0" encoding="utf-8"?>
<svg version="1.1" id="Layer_1" xmlns="http://www.w3.org/2000/svg" xmlns:xlink="http://www.w3.org/1999/xlink" x="0px" y="0px"
	 viewBox="0 0 512 512" style="enable-background:new 0 0 512 512;" xml:space="preserve">
<path fill="#f9a21b" d="M512,0C460.2,3.6,96.4,38.2,71,287.6c-3.1,26.7-4.8,53.4-6,80.2l178.9-178.7c6.2-6.2,16.4-6.2,22.7,0s6.2,16.4,0,22.6
	L11.9,475.1C0,512,11.9,475.1,0,512c34.8-15.1,0,0,34.8-15.1l63.4-49c42.1-0.1,84.2-2.5,126-7.4c53.5-5.4,97-26.5,132.6-56.5H255.7
	l146.8-48.9c11.2-14.9,21.4-30.7,30.5-47.1h-81.1l106.5-53.2C500.3,132.9,510.2,26.3,512,0z"/>
</svg>
