<svg id="Layer_1" class="td-logo" data-name="Layer 1" xmlns="http://www.w3.org/2000/svg" viewBox="0 0 225.56 61.1"><defs><style>.cls-1{fill:#00a3d9;}</style></defs>
            <title>logo</title>
            <path class="cls-1" d="M10.67,41.19a5.94,5.94,0,0,1-4.4-1.57A6.61,6.61,0,0,1,4.7,34.78v-19H.7a.74.74,0,0,1-.5-.17.57.57,0,0,1-.2-.48v-1l4.76-.34.66-10a.81.81,0,0,1,.21-.45.63.63,0,0,1,.49-.19H7.36V13.75h8.77v2H7.36v18.9a5.79,5.79,0,0,0,.3,2A3.6,3.6,0,0,0,8.47,38a3.19,3.19,0,0,0,1.22.78A4.35,4.35,0,0,0,11.2,39a4.6,4.6,0,0,0,1.74-.29,8.2,8.2,0,0,0,1.26-.64,8.28,8.28,0,0,0,.86-.65,1,1,0,0,1,.54-.29.58.58,0,0,1,.44.28l.73,1.17a7.63,7.63,0,0,1-2.7,1.89A8.37,8.37,0,0,1,10.67,41.19Z"/><path class="cls-1" d="M27.66,3.28a2.11,2.11,0,0,1-.21.93,2.81,2.81,0,0,1-.54.77,2.52,2.52,0,0,1-.79.54,2.34,2.34,0,0,1-.95.19A2.37,2.37,0,0,1,23.44,5a2.44,2.44,0,0,1-.54-.77,2.24,2.24,0,0,1-.19-.93,2.46,2.46,0,0,1,.73-1.77A2.5,2.5,0,0,1,24.22,1a2.38,2.38,0,0,1,1-.2,2.34,2.34,0,0,1,.95.2,2.67,2.67,0,0,1,.79.53,2.82,2.82,0,0,1,.54.8A2.32,2.32,0,0,1,27.66,3.28Zm-1.17,9.6V40.74H23.83V12.88Z"/><path class="cls-1" d="M43.93,41.19a5.94,5.94,0,0,1-4.4-1.57A6.61,6.61,0,0,1,38,34.78v-19H34a.76.76,0,0,1-.5-.17.6.6,0,0,1-.2-.48v-1L38,13.72l.67-10a.75.75,0,0,1,.21-.45.6.6,0,0,1,.48-.19h1.25V13.75h8.76v2H40.63v18.9a5.8,5.8,0,0,0,.29,2A3.87,3.87,0,0,0,41.73,38a3.27,3.27,0,0,0,1.22.78,4.39,4.39,0,0,0,1.51.25,4.6,4.6,0,0,0,1.74-.29,8.2,8.2,0,0,0,1.26-.64,9.82,9.82,0,0,0,.87-.65,1,1,0,0,1,.53-.29.6.6,0,0,1,.45.28L50,38.58a7.54,7.54,0,0,1-2.7,1.89A8.34,8.34,0,0,1,43.93,41.19Z"/><path class="cls-1" d="M59.75,0V40.74H57.09V0Z"/><path class="cls-1" d="M80.11,12.43a11.53,11.53,0,0,1,4.35.81,9.89,9.89,0,0,1,3.47,2.37,11,11,0,0,1,2.3,3.82,15.2,15.2,0,0,1,.82,5.21,1.41,1.41,0,0,1-.18.84.68.68,0,0,1-.57.22H70.19v.54a19,19,0,0,0,.73,5.51,11.42,11.42,0,0,0,2.07,4,8.49,8.49,0,0,0,3.25,2.42A10.61,10.61,0,0,0,80.5,39a12.66,12.66,0,0,0,3.64-.47,13.12,13.12,0,0,0,4.25-2.07,1.85,1.85,0,0,1,.9-.46.64.64,0,0,1,.56.28l.73.9a7.46,7.46,0,0,1-1.78,1.56A12.9,12.9,0,0,1,86.34,40a18.07,18.07,0,0,1-2.92.83,16.33,16.33,0,0,1-3.12.3,13.33,13.33,0,0,1-5.21-1,11.07,11.07,0,0,1-4-2.9,13.26,13.26,0,0,1-2.61-4.66,20,20,0,0,1-.92-6.31,17.19,17.19,0,0,1,.86-5.53,12.7,12.7,0,0,1,2.46-4.37,11.22,11.22,0,0,1,4-2.87A13,13,0,0,1,80.11,12.43Zm0,2a10.38,10.38,0,0,0-3.86.67,8.44,8.44,0,0,0-3,1.93,9.77,9.77,0,0,0-2,3,13.24,13.24,0,0,0-1,3.95H88.65A12.21,12.21,0,0,0,88,20a8.62,8.62,0,0,0-1.73-3,7.54,7.54,0,0,0-2.69-1.89A8.82,8.82,0,0,0,80.15,14.42Z"/><path class="cls-1" d="M121.18,1V33.74c0,2.41.06,5.15.22,7H117l-.22-4.7h-.12a10,10,0,0,1-9.24,5.32c-6.55,0-11.59-5.55-11.59-13.78,0-9,5.55-14.56,12.15-14.56,4.15,0,7,2,8.18,4.14h.11V1Zm-4.93,23.69A8.52,8.52,0,0,0,116,22.6a7.25,7.25,0,0,0-7.11-5.72c-5.1,0-8.12,4.48-8.12,10.48,0,5.48,2.68,10,8,10A7.41,7.41,0,0,0,116,31.5a8.45,8.45,0,0,0,.22-2.13Z"/><path class="cls-1" d="M129.36,22.09c0-3.19-.06-5.93-.23-8.45h4.31l.17,5.32h.23c1.23-3.64,4.2-5.94,7.5-5.94a5.42,5.42,0,0,1,1.4.17v4.65a7,7,0,0,0-1.68-.17c-3.47,0-5.94,2.63-6.61,6.33a14,14,0,0,0-.22,2.29V40.74h-4.87Z"/><path class="cls-1" d="M171.64,27c0,10-6.95,14.4-13.5,14.4-7.34,0-13-5.38-13-13.95,0-9.07,5.93-14.39,13.44-14.39C166.37,13,171.64,18.68,171.64,27Zm-21.51.28c0,5.94,3.42,10.42,8.23,10.42s8.24-4.42,8.24-10.53c0-4.59-2.3-10.41-8.12-10.41S150.13,22.09,150.13,27.24Z"/><path class="cls-1" d="M177.85,22.48c0-3.47-.11-6.27-.22-8.84h4.42l.23,4.64h.11A10.65,10.65,0,0,1,192,13c6.55,0,11.48,5.54,11.48,13.78,0,9.74-5.94,14.56-12.32,14.56a9.5,9.5,0,0,1-8.34-4.26h-.12V54.77h-4.87Zm4.87,7.23a11.1,11.1,0,0,0,.23,2,7.59,7.59,0,0,0,7.39,5.77c5.21,0,8.23-4.25,8.23-10.47,0-5.43-2.85-10.08-8.06-10.08a7.87,7.87,0,0,0-7.45,6.1,8,8,0,0,0-.34,2Z"/><path class="cls-1" d="M209,35.7a12.94,12.94,0,0,0,6.5,2c3.58,0,5.26-1.79,5.26-4s-1.4-3.64-5-5c-4.87-1.73-7.17-4.42-7.17-7.67,0-4.37,3.53-7.95,9.36-7.95a13.47,13.47,0,0,1,6.66,1.68l-1.23,3.58a10.62,10.62,0,0,0-5.55-1.56c-2.91,0-4.53,1.68-4.53,3.69,0,2.24,1.62,3.25,5.15,4.59,4.7,1.8,7.11,4.15,7.11,8.18,0,4.76-3.69,8.12-10.13,8.12a15.46,15.46,0,0,1-7.62-1.85Z"/>
        </svg>