<svg id="Layer_1" data-name="Layer 1" xmlns="http://www.w3.org/2000/svg" xmlns:xlink="http://www.w3.org/1999/xlink" viewBox="0 0 396.03 883.9"><defs><style>.cls-1{fill:none;}.cls-2{clip-path:url(#clip-path);}.cls-3{fill:#e6e7e8;fill-rule:evenodd;}</style><clipPath id="clip-path" transform="translate(0 0)"><rect class="cls-1" width="396.03" height="883.9"/></clipPath></defs><title>bottle</title><g class="cls-2"><path class="cls-3" d="M299.37,70.33l-14.45.74L286,72.18l.74,1.48c5-.12,14.65.75,11.86,7-2,3.89-11.54,2.79-17.41,2.59q.18,11.47.37,23c3.31,8.19,29.4,23.25,37.41,29.63,12.12,9.67,17.18,21.81,24.44,36.67q2.6,3.51,5.18,7l3,16.66q4.07,19.26,8.15,38.52L362,251.43l23.7,67c2.88,16.14-6.8,25.69-13.7,32.59-3.52,3.52-10.59,7.61-8.52,16.3,2.32,9.7,19.27,16.48,25.18,24.81,3.63,5.12,9.47,17.45,6.67,27.78-1,3.69-4.73,2.76-5.18,7.41,3.27,6.4-.38,348.64-.38,356.66l3.34,4.44c4.3,12.21-3.28,37.09-7,43.34-32.46,54-140.52,52.19-189.3,52.07C144.9,883.75,15.21,886,2.33,807q-.18-8.52-.37-17c.58-2.61,3-4,3.71-5.93,0-12.84-3.16-294.08-.37-359.25-6.91-3.65-5.95-14.91-3.34-23,3.5-10.77,12-17.75,20.37-23.7,4.35-3.08,12-7.33,9.63-16.67-1-4-4.85-6.7-7.4-9.26-7.36-7.35-12.65-13-14.82-25.92-2.24-13.33,10.69-36.45,14.45-47,8-22.45,11.93-50,18.14-75.18l4.08-23.33c1-3.28,3.63-4.88,5.18-7.41l7.41-17c7.2-12.17,18.49-22.51,30.37-30,6.22-3.92,21.86-13.54,24.44-20q.19-11.48.37-23c-5.43.21-15,1.24-17-2.22-.68-.84-.71-1.28-.74-3,2.5-4.75,7.93-3,12.84-5.14l1.23-1.9V70.7L96,70.33C95.94,58.5,97.38,31.9,98,18.67A17.56,17.56,0,0,1,111.66,2.2C118,.83,125.26,1.26,131.81.9,153.74-.29,241.66-.3,263.59.9c6.55.36,13.8-.09,20.14,1.27a17.57,17.57,0,0,1,13.68,16.48c.61,13.22,2,39.8,2,51.68" transform="translate(0 0)"/></g></svg>