<?xml version="1.0" encoding="utf-8"?>
<!-- Generator: Adobe Illustrator 18.0.0, SVG Export Plug-In . SVG Version: 6.00 Build 0)  -->
<!DOCTYPE svg PUBLIC "-//W3C//DTD SVG 1.1//EN" "http://www.w3.org/Graphics/SVG/1.1/DTD/svg11.dtd">
<svg version="1.1" id="Layer_1" xmlns="http://www.w3.org/2000/svg" xmlns:xlink="http://www.w3.org/1999/xlink" x="0px" y="0px"
	 viewBox="0 0 331.9 366" enable-background="new 0 0 331.9 366" xml:space="preserve">
<path id="OH" opacity="0.4" fill="#BFAAD2" d="M295,29.5l-23.7,15.9l-15.1,8.9L243,68.7l-15.5,15.1L215.1,87l-11.3,1.9L182.5,99
	l-8.1,0.8l-13.2-12L141,90.1l-10.1-5.8l-9.3-5.4l-19,2.7L63,87.7l-30.3,4.7l5,56.6l7,53.1L54.8,293l2.3,18.6l15.9-0.4l9.3-3.1
	l13.2,5.8l8.1,17.1h19.8l7.4,8.1l7-0.4l9.7-5l9.7,1.6l7.8,5.8l6.6-8.1l8.9-5l8.1-2.7l2.3,10.5l7,3.9l13.6,8.9l8.5-0.4l4.3-4.3
	l-0.4-5.4l6.2-5.8l0.8-19.4l3.9-15.1l5.8-5.4l5.8,3.5l3.1,4.7l4.7-0.8l-1.6-9.3l-2.3-2.3V279l3.9-5l8.9-13.2l5-5.8l8.1,1.9l8.9-6.2
	l12-13.2l8.9-15.1l0.8-20.9l1.9-19.4v-18.2l-4.3-12l3.9-5.8l3.5-3.9l-5.4-38L295,29.5z"/>
</svg>
