<svg id="Layer_1" data-name="Layer 1" xmlns="http://www.w3.org/2000/svg" viewBox="0 0 459.37 269.15"><defs><style>.cls-1{fill:#0e5794;}.cls-1,.cls-2,.cls-3{fill-rule:evenodd;}.cls-2{fill:#f3802c;}.cls-3{fill:#fff;}</style></defs><title>elmers</title><path class="cls-1" d="M472.89,244.76c-3.49-2.76-7.37-5-11.13-7.47q-8.44-5.4-17-10.68c-6.48-4-13-8-19.49-12-6.22-3.87-12.39-7.83-18.62-11.71-8.7-5.41-17.44-10.78-26.15-16.19-9.74-6.05-19.47-12.14-29.21-18.19-6.35-3.94-12.73-7.84-19.08-11.78-5.19-3.22-10.37-6.47-15.55-9.7l-16.78-10.48-14.69-9.14c-6.09-3.8-12.16-7.65-18.3-11.39a50.58,50.58,0,0,0-7.77-4.17,22.48,22.48,0,0,0-11.46-1.32,22.83,22.83,0,0,0-8.93,2.8c-7.58,4.61-15.07,9.35-22.61,14-8.41,5.23-16.85,10.42-25.26,15.65-6.31,3.92-12.59,7.88-18.89,11.8q-13.92,8.66-27.86,17.29c-7.87,4.89-15.72,9.82-23.59,14.72L97.36,201.24,80.45,211.79q-10.5,6.54-21,13.05c-7.11,4.42-14.24,8.81-21.34,13.25-4.06,2.53-8.27,4.85-11.61,8.39s-5.53,7.71-5.53,12.84q.06,52,0,104.06a18.7,18.7,0,0,0,.45,3.8c1.48,6.94,8.27,12.28,15.72,12.28q106.68-.07,213.35,0H464.31a16.8,16.8,0,0,0,2.63-.29c8.12-1.27,13.37-8.05,13.37-16.12q0-52,0-103.92C480.31,253,477.43,248.35,472.89,244.76Z" transform="translate(-20.94 -110.31)"/><path class="cls-2" d="M51.59,243.39,40.5,250.44s-7.4,4-7.24,7.3S37.69,262,42.4,262H459.69c4.71,0,8.76-.83,9.08-4.09.21-2.18-4.38-5.33-6.39-6.65-.2-.13-.41-.2-.62-.33-.38-.25-.76-.46-1.14-.7l-9.18-5.8-6.65-4.14c-6.48-4-13-8-19.49-12-6.22-3.87-12.39-7.82-18.62-11.7-8.7-5.42-17.44-10.78-26.15-16.19q-14.61-9.09-29.21-18.19c-6.35-4-12.73-7.85-19.08-11.78q-7.78-4.83-15.55-9.71l-16.78-10.47-14.69-9.15c-6.09-3.8-12.16-7.64-18.3-11.38a51.52,51.52,0,0,0-7.77-4.18A25.26,25.26,0,0,0,238.76,127c-7.58,4.61-15.07,9.35-22.61,14q-12.61,7.83-25.26,15.64c-6.31,3.92-12.59,7.89-18.89,11.81q-13.92,8.66-27.86,17.29-11.8,7.34-23.59,14.71Q109,207.73,97.36,214.93L80.45,225.48Q70,232,59.42,238.53L51,243.78Z" transform="translate(-20.94 -110.31)"/><path class="cls-1" d="M163.68,261.78s9-16.41,15.89-22.63,11.1-10.44,12.34-14.59a63.16,63.16,0,0,0,1.7-6.87,42.46,42.46,0,0,1-19.06.81c-9.75-2.07-16.17-2.7-17.62-5.61s-2.69-5.39,2.7-11.2A75.89,75.89,0,0,1,176,188c6.49-4.1,11.46-6.17,13.54-7.42,0,0-8.5-1.15-11.41-4.51s-6-7.13-3.42-14.69,21.05-15,21.05-15l2.08,4.84s-2.89,2,0,2.73a35.5,35.5,0,0,0,13.32.93c6.38-.62,7.4-.31,7.4-.31a8.53,8.53,0,0,1,2.68-4.36c2.05-1.55,3.45-2.13,5.32-2s2.17-.64,4.2-.64,3.57.31,4.58,0,6.77-4.2,10-4.36A14.38,14.38,0,0,1,252,144.4c1.33.54,2.59,1.4,4.56.15s8-.46,10.92.94,3.58,1.86,7.31,2.1a31.82,31.82,0,0,1,8.09,1.94c1.4.39,3.42,2.26,3.65,3.81,0,0,5.68.78,7.62,1s6.15.39,7.94-.93,1-1.95.62-2.26.85-3,.85-3l11,4.65,4.67,8.4s1.71,11.19-8.94,14.3c0,0-2.88.63-1.17,1.48s10.84,5.73,15.61,12,6.53,9.47,6.53,13.39-6.55,9-16.7,9.42c0,0,.11,3.11-2.79,7.88s-3.35,1.92-2.57,6,1.55,9.41-1.28,13.6a54.85,54.85,0,0,1-9,10c-3.35,3.11-6.61,5.75-6.61,5.75s-1.17.48.54,1.56,5,3.06,6.69,6.25,0,23.21,0,23.21h-138Z" transform="translate(-20.94 -110.31)"/><path class="cls-3" d="M208.28,206.32c-2,1.12-4.06,2.26-6.11,3.35-6.14,3.24-12.71,4.94-19.61,4.15a80.9,80.9,0,0,1-14.43-3c-3.69-1.12-3.95-4.32-.7-7.64a75.43,75.43,0,0,1,7.64-6.49,80.94,80.94,0,0,1,15.28-9.33,97.29,97.29,0,0,1,19.39-6.61c2.7-.62,5.39-1.08,7.64-2.77a13.35,13.35,0,0,0,2.9-2.76c1.66-2.36,4-3.27,6.68-3.82,3.89-.8,7.43.26,11,1.79,3.23,1.39,6.34.53,9.29-1.15,5-2.84,6.49-1.54,9.76,2.48a7.39,7.39,0,0,0,3.25,2.56,3.27,3.27,0,0,0,3.41-.65c2.54-2.07,5.24-2.81,8.32-1.26a4.68,4.68,0,0,0,4.24-.28c1.87-.86,3.71-1.78,5.6-2.6s5.35.1,6.26,1.61a6.27,6.27,0,0,1,.35.76c-.83.5-1.63,1-2.41,1.46a22.48,22.48,0,0,0-7.33,8,2.56,2.56,0,0,0-.42,1.38,2,2,0,0,0,.66,1.33,1.41,1.41,0,0,0,1.26-.35c1.4-1.39,2.64-2.95,4.1-4.28a12.51,12.51,0,0,1,3.4-2.21,2.26,2.26,0,0,1,3.31,2,34,34,0,0,1-.66,7.19,3.54,3.54,0,0,1-2.26,2.28c-3.54.7-4.33,3.92-3.74,6.88,0,.15.07.28.17.66-2.48.42-4.9.9-7.35,1.22a7.45,7.45,0,0,0-5.16,3.55,13.92,13.92,0,0,0-1.52,3.48,5.49,5.49,0,0,0,0,1.72c2,.37,2.86-1,3.69-2a9.72,9.72,0,0,1,8.05-3.55c5.61.09,11.22.12,16.82.33,2.91.11,7.41,2.21,7.68,5.13a11.09,11.09,0,0,1-1.92,7.95c-2.06,2.69-4.26,5.27-6.39,7.91-.33.42-.59.9-1.11,1.67h1.9c2.57,0,3.55,1,3.22,3.57a20.28,20.28,0,0,1-2.61,8.45,30.35,30.35,0,0,1-6.66,7.22c-4.91,4-10.32,7.42-14.64,12.15q-2.83,3.1-5.48,6.39c-1.21,1.52-.81,2.8.15,4.17,1.1,1.56,2.56,1.37,3.51-.29,1.52-2.65,3-3.22,5.88-2.29,1.89.6,2.48,1.73,1.88,3.61-.78,2.4-4.18,4.66-6.76,5-7.95,1-15.52-1-23.08-2.86-7.38-1.84-14.67-4.08-22.07-5.85-4.17-1-8.48-1.43-12.74-2.06-9.16-1.36-18.4-.69-27.6-1a22,22,0,0,1-7-1.51c-3.79-1.43-4-4.35-3.41-7.51.82-4.31,3.33-7.82,5.89-11.21s5.63-6.34,8.11-9.75c2.89-4,5.27-8.29,5.53-13.42a13.62,13.62,0,0,1,.37-3.21,3.65,3.65,0,0,1,1.41-1.52c2.2-1.63,4.25-3.39,5.36-6a7.3,7.3,0,0,0,.3-1.84Zm75.4,22.58c-.44-.35-.62-.61-.79-.61-3.1,0-6.19-.07-9.29,0a49,49,0,0,0-5.4.6,46.23,46.23,0,0,1-12.49.58c-4.82-.57-8.27-3.08-11.12-6.74-1.77-2.27-3.57-4.52-5.49-6.95-1.58,1.06-3.12,2.09-4.66,3.1-2.69,1.77-3.21,5.6-.66,7.5a30.1,30.1,0,0,0,7.37,3.86c5.38,2,10.94,3.6,16.78,3.14a52.21,52.21,0,0,0,9.37-1.63A82.54,82.54,0,0,1,283.68,228.9Zm-66.22-35.67a30.28,30.28,0,0,0,.48,3.94,2,2,0,0,0,1.33,1.27,2.64,2.64,0,0,0,1.91-.9,9.25,9.25,0,0,0,1.15-2.53c1.21-3.23,2-6.62,4-9.55,1.59-2.31,5.93-4.53,9.15-2.45.78.5,1.65.88,2.4,1.41a17.39,17.39,0,0,0,7.69,3.44,10.18,10.18,0,0,0,2.75-.38,6.69,6.69,0,0,0-1.15-2.17c-3-2.55-6.06-5.15-9.31-7.42a9.77,9.77,0,0,0-8.29-1.74,17,17,0,0,0-9,6.37C218.19,185.68,217.49,189.34,217.46,193.23Zm-6,41.43c-.17-.3-.41-1.18-1-1.56a2.34,2.34,0,0,0-2.93.45c-3.58,3-4.75,11.93,1.39,15.8,3.8,2.4,8.07,3.36,12.33,4.43,3.49.87,7.06,1.46,10.23,3.35,2,1.17,3.45.6,4-1.26.39-1.29-.57-1.83-1.29-2.18-4-2-8.1-3.87-12.19-5.73-2.47-1.14-5.1-2-7.46-3.33a6.29,6.29,0,0,1-3.44-6.22C211.24,237.34,211.36,236.26,211.51,234.66Zm26.19-39c-.35.85-.75,1.68-1,2.54a3.89,3.89,0,0,0,1.48,4.54,6.75,6.75,0,0,0,10.3-3.29,1.51,1.51,0,0,1,1.67-1.21q3.7-.06,7.41-.3a4.82,4.82,0,0,0,1.48-.65c0-.18-.05-.35-.08-.53-2.36-.74-4.73-1.47-7.08-2.24a14.67,14.67,0,0,1-3.08-1.19c-.81-.49-1.34-1.42-2.11-2a9.38,9.38,0,0,0-6.59-2.12c-5.5.61-9.64,3.62-12.68,8.17-.28.42-.17,1.1-.24,1.66.59.06,1.32.38,1.73.14a15.91,15.91,0,0,0,2.79-2.14C233.35,195.49,236.15,194.82,237.7,195.63Zm-62.8,9.62c0,.2,0,.41,0,.62a3.64,3.64,0,0,0,1.5,0c2.21-.93,4.34-2,6.56-2.93a51.3,51.3,0,0,1,13.41-3.5,90.91,90.91,0,0,1,9.49-.33,1.65,1.65,0,0,0,1.7-1.05c.65-1.37,1.39-2.7,2.09-4,.93-1.78,1.87-3.56,2.88-5.5C198.47,191.17,185.54,195.65,174.9,205.25Zm102.93,37.23c-2.15,2.06-4.43,4.3-6.79,6.44-3.06,2.79-6.83,3.73-10.85,3.76-2.47,0-4.94-.27-7.4-.18a3.52,3.52,0,0,0-2.47,1.23c-.32.48.07,1.74.52,2.39,3.55,5.1,7.45,5.41,12.56,4.38,4.44-.9,7.68-3.64,10.16-7.3A29.6,29.6,0,0,0,277.83,242.48Zm11.88-20.06c6.56,0,12.67-4.79,13.44-11.42.22-1.83-.46-3.13-1.88-3.35a2.94,2.94,0,0,0-3,2.6,6.77,6.77,0,0,1-2.66,5.21,7.8,7.8,0,0,1-8.23,1.53c-3.25-1.23-4.64-3.37-4.81-6.73-.09-1.9-.52-2.55-2.12-2.8a2.69,2.69,0,0,0-2.78,2.23,10.68,10.68,0,0,0,.18,3.86C279.05,218.81,284.4,222.36,289.71,222.42Z" transform="translate(-20.94 -110.31)"/><path class="cls-3" d="M284.92,167.08c-1.08-.2-1.75-.35-2.43-.44a6.4,6.4,0,0,0-5.08,1.5,6.32,6.32,0,0,1-6.62,1,6.91,6.91,0,0,0-6,.5c-3.15,1.84-4.67.47-6.29-1.61a8.58,8.58,0,0,0-11.41-2.06,6.46,6.46,0,0,1-7.22.48,14.2,14.2,0,0,0-10.63-.66c-1.39.41-1.71.21-1.62-1.23a11.47,11.47,0,0,1,.54-2.11,3.42,3.42,0,0,0-1.6-3.95,19.67,19.67,0,0,1-2.22-2,11.52,11.52,0,0,1,2.31-2.27,10,10,0,0,1,6.39-1c2.5.33,5,.36,7.28-1.53a8,8,0,0,1,9.34-1,5.77,5.77,0,0,0,6.23-.25c2.52-1.64,5.06-1.21,7.42.47a12.89,12.89,0,0,0,8.31,2.43c.58,0,1.16-.26,1.74-.28,2.8-.06,4.51-.09,5.1,4.34a6,6,0,0,0,2.74,4.32c1.34.91,2.71,1.77,4,2.76a8.56,8.56,0,0,1,1.33,1.68Z" transform="translate(-20.94 -110.31)"/><path class="cls-3" d="M190.05,152.45a25.29,25.29,0,0,0,.42,4.68c.73,2.63,3.08,3.21,5.4,3.6,4.08.68,8.14.12,12.22-.24,3.4-.29,6.8-.68,10.22.43s3.93,3.64,3.31,6.5c-.84,4-4,5.79-7.35,7.16A39.7,39.7,0,0,1,203,177.09a37,37,0,0,1-18.35-2.93c-6.8-2.89-7.54-9.13-4.06-15.06a15.09,15.09,0,0,1,8.48-6.53,3.47,3.47,0,0,1,.71-.16A.49.49,0,0,1,190.05,152.45Z" transform="translate(-20.94 -110.31)"/><path class="cls-3" d="M312,198.55a42.6,42.6,0,0,0-17-13.32c1.64-2.64.57-5.18-.61-8a14.77,14.77,0,0,1,1.87.43,55.77,55.77,0,0,1,15.3,8.92,45.16,45.16,0,0,1,9.7,10.06c1.14,1.73,2.17,3.61,1.72,5.78a3.33,3.33,0,0,1-1.37,2.19c-4.05,1.81-7.67,1.85-11.08-1.56-2.78-2.78-6.35-3.82-10-4.68a63.49,63.49,0,0,0-6.77-.88,4.35,4.35,0,0,0,.4-5A46.82,46.82,0,0,1,312,198.55Z" transform="translate(-20.94 -110.31)"/><path class="cls-3" d="M293.05,172.39c2.77-4.24,2.71-4.58-1.1-7.6-1.88-1.49-3.78-3-5.65-4.47a19.64,19.64,0,0,1-1.37-1.45l5.63.74c3.72.5,7.43.89,11.07-.44a7,7,0,0,0,4.68-6.21c0-.19.09-.37.13-.55,3.27.85,6.38,4.4,6.84,8.28.43,3.68-.38,7-3.34,9.62a9.56,9.56,0,0,1-5.52,2.12c-2.55.27-5.13.29-7.7.32A34.89,34.89,0,0,1,293.05,172.39Z" transform="translate(-20.94 -110.31)"/><path class="cls-3" d="M230.23,312.35c-1.08,1.74-2.16,3.47-3.22,5.22-3.86,6.31-7.7,12.63-11.58,18.92-2.28,3.7-4.55,7.43-7,11a12.22,12.22,0,0,1-8.34,5.06c-2.06.37-3.16-.33-3.72-2.44-.8-3-1.48-6.06-2.08-9.12-1.12-5.76-2.21-11.52-3.21-17.3-.62-3.57-1.05-7.17-1.58-10.76-.09-.58-.24-1.14-.39-1.87-1.23,5.05-2.39,10-3.64,14.9q-3.09,12-6.29,24.07c-.54,2-.95,2.22-3,2.26-3.22.07-6.43.18-9.65.3s-3.48-.59-2.8-3.7c1.07-4.95,2.39-9.86,3.7-14.76q2.61-9.75,5.38-19.46c2.45-8.64,4.95-17.25,7.44-25.88.23-.8.51-1.59.78-2.37.89-2.62,1.58-3.13,4.37-3.27l12.58-.61c.57,0,1.15-.18,1.72-.16,2,.06,2.86,1.2,3.15,3.13.6,4,1.36,7.9,2,11.84q1.34,7.81,2.64,15.62c.36,2.18.63,4.37,1,6.55.07.45.23.88.41,1.54,5-8.38,9.79-16.55,14.65-24.7,2.36-3.94,4.74-7.87,7.25-11.73a4.18,4.18,0,0,1,2.46-1.7,43.08,43.08,0,0,1,6.23-.4c2.59-.05,5.18,0,7.77,0,1.78,0,2.44.59,2.41,2.36-.06,4.06-.11,8.13-.3,12.19-.22,4.58-.58,9.15-.88,13.72s-.61,9.15-.9,13.73c-.21,3.34-.35,6.7-.6,10q-.54,7.22-1.21,14.41c-.21,2.34-1.13,3.18-3.49,3.26-4.56.16-9.13.2-13.69.34-1.35,0-1.81-.72-1.73-1.83.22-3.29.53-6.57.81-9.85.11-1.32.23-2.65.35-4,.49-5.49,1-11,1.49-16.45.22-2.45.41-4.9.63-7.35a2.67,2.67,0,0,1,.25-.68Z" transform="translate(-20.94 -110.31)"/><path class="cls-3" d="M364.37,326.18c2.32,3.21,4.5,6.28,6.74,9.3,3,4.1,6.14,8.14,9.18,12.23,1.38,1.86,1,3-1.23,3.69-4.48,1.35-9,2.59-13.47,3.93-1.65.49-2.44-.52-3.19-1.65q-7.48-11.22-14.94-22.46l-7.53.89c-.9,4.21-1.83,8.49-2.74,12.77q-.62,2.87-1.19,5.73a2.33,2.33,0,0,1-2.52,2c-5.33,0-10.65,0-16,0-1.61,0-2.14-.43-1.94-2,.39-3.2.9-6.39,1.54-9.55,1.41-6.88,2.9-13.75,4.41-20.61q1.89-8.56,3.9-17.12c1.35-5.8,2.76-11.57,4.14-17.36.48-2,1.23-2.51,3.24-2.76,8.1-1,16.24-.63,24.36-.51,5.32.08,10.67.73,15.62,3A15.87,15.87,0,0,1,382,297c1.73,7.36-.44,13.86-4.89,19.68a29.92,29.92,0,0,1-11,8.68C365.56,325.57,365.08,325.82,364.37,326.18Zm-21.45-7.63c2.19-.28,4-.43,5.78-.76a17.56,17.56,0,0,0,9.6-4.75,16.15,16.15,0,0,0,4.53-9.05,6.61,6.61,0,0,0-4.26-7.58c-3.24-1.27-6.55-.69-9.83-.78-.26,0-.7.58-.79,1-1.13,4.85-2.2,9.7-3.31,14.56C344.11,313.51,343.54,315.88,342.92,318.55Z" transform="translate(-20.94 -110.31)"/><path class="cls-3" d="M285.16,310.27a14.76,14.76,0,0,1,1.6-.21c6.35-.11,12.7-.23,19.05-.3,3.88,0,4.42.68,3.51,4.46q-.84,3.5-1.7,7c-.43,1.73-1.15,2.42-3,2.44-4.48,0-9,.06-13.43,0-2.91,0-5.82-.26-8.81-.41-1.23,5.44-2.43,10.69-3.67,16.2l5.11-.35c.2,0,.4,0,.6,0,7.14-.1,14.29-.19,21.43-.31,1.29,0,1.94.61,1.71,1.82-.64,3.25-1.33,6.49-2.11,9.7-.43,1.73-1.87,2.08-3.45,2.08H259.2c-2.44,0-3.25-.92-2.77-3.33,1-5.07,2.15-10.12,3.19-15.19,1.24-6,2.42-12.06,3.67-18.09,1.21-5.88,2.48-11.75,3.74-17.62.82-3.86,1.57-7.74,2.53-11.57.64-2.52,1.56-3,4.15-3l30.85-.29c2.73,0,5.47,0,8.21,0,2.27,0,2.86.76,2.35,3-.61,2.71-1.21,5.43-1.83,8.13-.42,1.86-1.14,2.44-3.07,2.44-7,0-13.93,0-20.89,0-1.19,0-1.55.37-1.77,1.54-.63,3.5-1.47,7-2.22,10.45C285.24,309.2,285.23,309.7,285.16,310.27Z" transform="translate(-20.94 -110.31)"/><path class="cls-3" d="M75.24,323.22c-1.22,5.51-2.39,10.76-3.6,16.19,4.59-.23,9.08-.54,13.57-.65s9.25-.06,13.88,0a1.63,1.63,0,0,1,1.49,2.08c-.67,2.9-1.33,5.81-2,8.71a3,3,0,0,1-3.39,2.76q-21.72,0-43.44,0c-2.18,0-2.89-1-2.45-3.12C50.58,343.11,51.78,337,53,331c1.35-6.5,2.74-13,4.09-19.49,1.43-6.93,2.83-13.88,4.28-20.81.33-1.62.71-3.24,1.2-4.82a3.19,3.19,0,0,1,3.31-2.37l32-.29q3.81,0,7.61,0c2.24,0,3,.72,2.53,2.87-.6,3-1.34,6-2.12,9-.4,1.51-1.71,1.75-3.07,1.75H80.8L77.94,310.2c.59-.06,1-.14,1.51-.14l19.65-.3a5.63,5.63,0,0,1,1.48.12c1.83.44,2.22,1,1.85,2.82-.55,2.82-1.23,5.62-1.85,8.43a2.78,2.78,0,0,1-2.81,2.49c-4.58,0-9.16.06-13.73,0C81.08,323.57,78.12,323.36,75.24,323.22Z" transform="translate(-20.94 -110.31)"/><path class="cls-3" d="M442.6,281.45c3.3.3,6.15.52,9,.85,1.78.2,2.44,1.06,2,2.71-.79,3.16-1.71,6.3-2.57,9.45a2.06,2.06,0,0,1-2.36,1.72c-3-.14-5.93-.26-8.9-.3a11.79,11.79,0,0,0-6.71,1.93c-3.76,2.49-4.62,6.53-1.33,10.2,3.11,3.46,6.42,6.75,9.54,10.2,2.26,2.51,4.66,5,5.89,8.2,1.9,5,1.09,9.84-1.59,14.32-4.32,7.21-11.22,10.73-19.05,12.75a44.92,44.92,0,0,1-14.24,1.17,97.49,97.49,0,0,1-10.16-1.47c-2.55-.45-3.15-1.32-2.64-3.81.57-2.81,1.3-5.6,2.07-8.37.53-1.89,1.46-2.32,3.32-1.87a48.26,48.26,0,0,0,14.36,1.35,8.86,8.86,0,0,0,6.6-3.49,5.59,5.59,0,0,0,0-5.87c-1.27-1.74-2.69-3.38-4.08-5-3.33-3.95-6.78-7.81-10-11.85a14.32,14.32,0,0,1-3-9.2,19.12,19.12,0,0,1,4.13-11.85c5-6.33,11.83-9.34,19.56-10.58C436,282.05,439.49,281.79,442.6,281.45Z" transform="translate(-20.94 -110.31)"/><path class="cls-3" d="M131.8,337.8c4-.18,7.89-.4,11.77-.53,2.34-.08,4.68,0,7,0,1.89,0,3.78,0,5.67,0,1.57,0,2.21.51,2,2-.4,2.95-1,5.87-1.57,8.8a6.86,6.86,0,0,1-.22,1c-1,2.72-.87,3-3.86,3-13.21,0-26.43.17-39.65.27h-1c-2.77,0-3.58-1-3-3.7,1.74-8.22,3.53-16.42,5.27-24.64s3.42-16.54,5.17-24.81c1-4.43,2-8.85,3-13.27.46-2,1.28-2.63,3.76-2.68,4.58-.08,9.17-.21,13.73,0,2.82.15,3,.56,2.57,3.14-.69,4.59-1.72,9.12-2.65,13.67-1.36,6.59-2.76,13.18-4.15,19.78-1.13,5.34-2.29,10.69-3.43,16C132.06,336.44,132,337,131.8,337.8Z" transform="translate(-20.94 -110.31)"/><path class="cls-3" d="M407.88,284.31a56.31,56.31,0,0,1-2.05,5.44c-2.49,5.1-5,10.18-7.72,15.18-1.2,2.22-1.73,2.29-4,1.51-1.8-.62-3.57-1.34-5.32-2.07a1.59,1.59,0,0,1-1-2.35c1.84-4.52,3.58-9.08,5.48-13.57.93-2.2,2.13-4.29,3.22-6.42a2.12,2.12,0,0,1,2.43-1.24c2.31.4,4.63.73,6.91,1.26C406.8,282.28,408,282.69,407.88,284.31Z" transform="translate(-20.94 -110.31)"/><path class="cls-3" d="M471,347.34c0,5.12-4.05,9.45-8.85,9.45a9.07,9.07,0,0,1-8.89-9.37c.15-5.46,3.32-9.49,9-9.58C467,337.76,471,342.13,471,347.34Zm-9.11,7.8c4.13.27,7.92-3.58,7.77-8-.14-4-3-7.93-8-7.73-3.86.16-7,3.62-7.08,7.92C454.47,351.46,458.16,355.48,461.86,355.14Z" transform="translate(-20.94 -110.31)"/><path class="cls-3" d="M458.57,341.72c2,0,3.78-.09,5.55,0a2.72,2.72,0,0,1,2.65,2.65,2.87,2.87,0,0,1-2.07,3.28c-.28.06-.55.19-.86.29l2.62,4.37-.35.45a5.31,5.31,0,0,1-1.49-1A16.09,16.09,0,0,1,463,349c-.62-1.29-1.63-1.39-3-1.07v4.39c-.91.39-1.42.38-1.41-.71C458.58,348.41,458.57,345.18,458.57,341.72Zm1.41,5.06a27.48,27.48,0,0,0,3.42,0c1-.13,2-.53,2.05-1.86a1.84,1.84,0,0,0-1.92-2.1c-1.16-.1-2.33,0-3.55,0Z" transform="translate(-20.94 -110.31)"/></svg>