<?xml version="1.0" encoding="utf-8"?>
<!-- Generator: Adobe Illustrator 22.1.0, SVG Export Plug-In . SVG Version: 6.00 Build 0)  -->
<svg version="1.1" id="Layer_1" xmlns="http://www.w3.org/2000/svg" xmlns:xlink="http://www.w3.org/1999/xlink" x="0px" y="0px"
	 viewBox="0 0 600 600" style="enable-background:new 0 0 600 600;" xml:space="preserve">
<style type="text/css">
	.st0{fill:#FFC300;}
</style>
<g>
	<path class="st0" d="M391.2,101.2C436.9,101.2,474,294,474,532h66.3c0-256.3-66.8-464-149.1-464c-46.9,0-88.7,62.4-116,160.1
		C247.8,130.4,206,68,159.1,68C76.8,68,10,275.7,10,532h66.3c0-237.9,37.1-430.8,82.8-430.8c45.8,0,82.9,178.1,82.9,397.7h66.3
		C308.3,279.2,345.4,101.2,391.2,101.2"/>
	<path class="st0" d="M573.5,498.9c9,0,16.5,7.1,16.5,16.5c0,9.5-7.5,16.6-16.5,16.6c-9,0-16.6-7.1-16.6-16.6
		C556.8,506,564.4,498.9,573.5,498.9 M573.5,529.6c7.6,0,13.5-6.1,13.5-14.2c0-8-5.9-14.1-13.5-14.1c-7.7,0-13.6,6.1-13.6,14.1
		C559.9,523.4,565.8,529.6,573.5,529.6z M567,505.7h7.5c4.6,0,6.7,1.8,6.7,5.5c0,3.5-2.2,5-5,5.3l5.5,8.6h-3.2l-5.2-8.3H570v8.3h-3
		L567,505.7L567,505.7z M570,514.3h3.1c2.6,0,5.1-0.1,5.1-3.2c0-2.6-2.2-3-4.2-3h-4L570,514.3L570,514.3z"/>
</g>
</svg>
