<?xml version="1.0" encoding="UTF-8" standalone="no"?>
<!-- Generator: Adobe Illustrator 13.0.0, SVG Export Plug-In . SVG Version: 6.00 Build 14948)  -->

<svg
   xmlns:dc="http://purl.org/dc/elements/1.1/"
   xmlns:cc="http://creativecommons.org/ns#"
   xmlns:rdf="http://www.w3.org/1999/02/22-rdf-syntax-ns#"
   xmlns:svg="http://www.w3.org/2000/svg"
   xmlns="http://www.w3.org/2000/svg"
   xmlns:sodipodi="http://sodipodi.sourceforge.net/DTD/sodipodi-0.dtd"
   xmlns:inkscape="http://www.inkscape.org/namespaces/inkscape"
   version="1.1"
   id="Layer_2"
   x="0px"
   y="0px"
   width="225px"
   height="152.797px"
   viewBox="0 0 225 152.797"
   style="enable-background:new 0 0 225 152.797;"
   xml:space="preserve"
   inkscape:version="0.48.0 r9654"
   sodipodi:docname="Miller_Brewery_Logo.svg"><metadata
   id="metadata3025"><rdf:RDF><cc:Work
       rdf:about=""><dc:format>image/svg+xml</dc:format><dc:type
         rdf:resource="http://purl.org/dc/dcmitype/StillImage" /></cc:Work></rdf:RDF></metadata><defs
   id="defs3023" /><sodipodi:namedview
   pagecolor="#ffffff"
   bordercolor="#666666"
   borderopacity="1"
   objecttolerance="10"
   gridtolerance="10"
   guidetolerance="10"
   inkscape:pageopacity="0"
   inkscape:pageshadow="2"
   inkscape:window-width="1440"
   inkscape:window-height="850"
   id="namedview3021"
   showgrid="false"
   inkscape:zoom="1.7081488"
   inkscape:cx="112.41117"
   inkscape:cy="76.398499"
   inkscape:window-x="-8"
   inkscape:window-y="-8"
   inkscape:window-maximized="1"
   inkscape:current-layer="Layer_2" />
<path
   style="fill-rule:evenodd;clip-rule:evenodd;fill:#af1d30;fill-opacity:1"
   d="M212.965,76.945c0-12.398,11.67-42.666,11.67-53.606  C224.635,12.4,218.436,0,198.742,0c-19.664,0-42.119,14.302-86.242,14.343C68.377,14.302,45.92,0,26.256,0  C6.563,0,0.363,12.4,0.363,23.339c0,10.94,11.67,41.208,11.67,53.606C12.033,89.345,0,117.059,0,130.552  c0,13.492,10.939,22.245,25.527,22.245c14.586,0,53.059-14.223,86.973-14.223c33.912,0,72.387,14.223,86.973,14.223  S225,144.044,225,130.552C225,117.059,212.965,89.345,212.965,76.945z"
   id="path3007" />
<path
   style="fill-rule:evenodd;clip-rule:evenodd;fill:#FFFFFF;"
   d="M204.213,77.311c0-18.719,14.832-43.517,14.832-54.093  c0-6.077-2.615-17.473-18.297-17.473c-15.68,0-60.533,17.594-88.004,17.594c-27.473,0-72.328-17.594-88.008-17.594  S5.834,17.141,5.834,23.218c0,10.576,15.438,35.374,15.438,54.093c0,13.372-15.484,39.871-15.484,53.362  c0,11.428,10.742,16.774,19.131,16.774c9.205,0,59.922-18.22,87.826-18.348c27.902,0.128,78.617,18.348,87.822,18.348  c8.389,0,18.6-5.347,18.6-16.774C219.166,117.182,204.213,90.683,204.213,77.311z M199.959,144.529  c-18.953,0-60.262-17.481-83.074-19.798c-1.174-0.162-2.434-0.259-3.717-0.259c-0.137,0-0.715,0-0.852,0  c-1.285,0-2.545,0.097-3.719,0.259c-22.809,2.318-64.117,19.798-83.072,19.798c-16.895,0-17.912-11.059-17.912-14.463  c0-13.858,18.035-40.113,18.035-52.877c0-15.438-17.99-40.447-17.99-53.972c0-10.698,7.291-15.68,16.408-15.68  c15.463,0,61.514,19.132,86.654,20.244c0.588,0.034,3.457,0.035,4.045,0c25.143-1.112,71.191-20.244,86.652-20.244  c9.119,0,15.803,4.981,15.803,15.68c0,13.524-17.383,38.534-17.383,53.972c0,12.764,17.504,39.019,17.504,52.877  C217.342,133.471,216.855,144.529,199.959,144.529z"
   id="path3009" />
<path
   style="fill-rule:evenodd;clip-rule:evenodd;fill:#FFFFFF;"
   d="M188.283,63.228c-1.389,0-2.479,0.93-2.479,2.286  c0,1.355,1.094,2.28,2.479,2.28s2.48-0.93,2.48-2.28C190.764,64.157,189.674,63.228,188.283,63.228L188.283,63.228L188.283,63.228  L188.283,63.228z M188.283,67.146c-0.99,0-1.729-0.694-1.729-1.632c0-0.937,0.729-1.638,1.729-1.638c0.986,0,1.729,0.71,1.729,1.638  C190.012,66.436,189.268,67.146,188.283,67.146L188.283,67.146L188.283,67.146L188.283,67.146z"
   id="path3011" />
<path
   style="fill-rule:evenodd;clip-rule:evenodd;fill:#FFFFFF;"
   d="M120.699,49.724c-1.322,1.826-1.908,4.214-0.146,5.194  c1.76,0.984,3.672,0,4.848-1.262c1.172-1.266,1.762-3.933,0.586-5.056C124.814,47.476,122.166,47.335,120.699,49.724L120.699,49.724  L120.699,49.724L120.699,49.724z"
   id="path3013" />
<path
   style="fill-rule:evenodd;clip-rule:evenodd;fill:#FFFFFF;"
   d="M184.994,38.83l-4.709,5.064l0,0  c-0.732,0.701-0.732,0.701-0.438-0.424l0,0l1.031-2.953l-7.063,1.827l0,0c0,0-2.941,7.873-4.115,10.404  c-2.061,4.076-5.975,8.515-8.678,9.701c-2.719,1.193-3.678-0.848-3.678-2.529c10.002-4.078,10.148-10.688,9.854-11.951  c-0.293-1.827-2.107-3.493-7.498-0.843c-5.15,2.53-8.752,9.562-9.119,13.214c-1.178,3.096-4.117,6.188-4.854,6.188  s-1.471,0.281-0.586-2.531l0,0l9.703-25.728l-7.205,2.248l0,0c0,0-7.941,19.823-9.709,24.044c-1.762,4.215-4.264,6.256-5.586,6.465  c-0.918,0.147-1.029-0.143-0.295-2.391l0,0l10.146-26.431l-7.5,2.391l0,0c0,0-8.527,20.104-10.293,24.884  c-1.766,4.781-4.117,5.063-4.854,5.201c-0.734,0.143-1.469-0.279-0.586-2.811l0,0l5-12.795l-7.209,2.109l0,0  c0,0-3.385,8.295-5.293,12.375c-1.912,4.074-4.707,6.535-6.984,6.535c-1.326,0-1.029-1.407-0.295-3.938l0,0l8.971-21.23l0,0  c2.646-6.604-1.914-12.509-3.676-13.917l0,0l-12.795,9.769l0,0c-0.145-2.951-2.646-6.395-3.822-7.519l0,0L77.857,54.788l0,0  c-1.029-3.092-2.939-5.903-5.586-8.435c-7.5-5.484-17.385-5.821-28.973-0.282C30.947,51.978,31.096,62.942,32.27,65.192  c4.266,11.668,17.352,8.436,20.443,7.172c9.709-3.797,9.709-13.076,9.115-16.029l0,0l-12.207,6.186l0,0  c1.475,3.373-1.32,6.324-3.527,7.17c-2.207,0.844-8.678,0.986-10.588-5.34c-1.91-6.33,2.793-12.373,11.031-15.889  c8.236-3.516,16.027-1.83,20.293,2.673c4.264,4.497,2.939,11.669-0.883,19.821c-3.822,8.156-18.09,30.649-19.264,32.476l0,0  l13.379-4.215l0,0c2.797-4.361,13.973-24.888,16.18-30.649c1.314-3.433,1.914-7.594,1.764-10.684l0,0l6.545-5.064l0,0  c1.912,1.969,1.252,6.047,0.514,8.016c-2.057,9.699-12.793,31.772-14.703,34.866l0,0l11.908-3.938l0,0  c1.617-1.404,10.441-22.634,11.768-27.276c1.1-3.86,2.352-7.031,2.352-10.262l0,0l6.25-4.852l0,0  c2.354,1.268,0.811,7.242-0.072,9.211c0,0-5.59,12.934-7.65,17.994c-2.055,5.063-1.027,9.981,3.24,10.265  c6.467-0.283,11.248-6.68,12.572-8.083c0.586,1.264,2.184,3.303,4.412,2.67c2.719-0.773,6.027-3.654,7.939-5.344  c0.885,0.844,1.764,2.39,4.117,1.689c3.531-0.846,7.648-5.063,8.973-6.33c1.027,1.691,1.471,2.533,5.293,1.268  c3.824-1.268,7.723-6.045,9.338-8.014c0,1.264,3.307,3.92,6.545,2.951c3.529-1.053,8.311-6.049,9.779-7.73l0,0l-1.031,3.656  l6.545-1.83l0,0c0,0,3.383-8.715,5.59-12.652c2.02-3.604,3.09-1.827,3.678-1.125c0.584,0.703,1.176,1.264,2.943,1.125  c3.674-0.281,5.732-3.937,6.762-5.765C186.023,43.33,185.877,40.799,184.994,38.83L184.994,38.83L184.994,38.83L184.994,38.83z   M162.064,49.851c1.619-0.986,1.801-0.111,1.471,0.774c-0.441,1.199-1.691,3.946-4.418,5.501c-0.74,0.279-0.74-0.143-0.74-0.498  C158.895,53.867,160.439,50.838,162.064,49.851L162.064,49.851L162.064,49.851L162.064,49.851z"
   id="path3015" />
<path
   style="fill-rule:evenodd;clip-rule:evenodd;fill:#FFFFFF;"
   d="M183.307,65.398C158.996,70.018,57.311,105.24,44.49,111.348  l0.729,2.187c13.615-3.403,27.551-3.706,38.412,0.244c11.668-20.18,86.818-41.372,100.404-45.707L183.307,65.398z"
   id="path3017" />
<path
   style="fill-rule:evenodd;clip-rule:evenodd;fill:#FFFFFF;"
   d="M188.709,65.676c0.35-0.018,0.623-0.189,0.623-0.654  c0-0.594-0.406-0.743-1.088-0.743l0,0h-0.979v2.472h0.65v-1.053h0.113l0.59,1.053h0.754L188.709,65.676L188.709,65.676  L188.709,65.676z M188.289,65.276h-0.373v-0.571h0.314l0,0c0.193,0,0.412,0.023,0.412,0.263  C188.643,65.221,188.516,65.276,188.289,65.276L188.289,65.276L188.289,65.276L188.289,65.276z"
   id="path3019" />
</svg>