<?xml version="1.0" encoding="UTF-8" standalone="no"?>
<!-- Created with Inkscape (http://www.inkscape.org/) -->

<svg
   xmlns:dc="http://purl.org/dc/elements/1.1/"
   xmlns:cc="http://creativecommons.org/ns#"
   xmlns:rdf="http://www.w3.org/1999/02/22-rdf-syntax-ns#"
   xmlns:svg="http://www.w3.org/2000/svg"
   xmlns="http://www.w3.org/2000/svg"
   xmlns:xlink="http://www.w3.org/1999/xlink"
   xmlns:sodipodi="http://sodipodi.sourceforge.net/DTD/sodipodi-0.dtd"
   xmlns:inkscape="http://www.inkscape.org/namespaces/inkscape"
   width="217.02988"
   height="126.36768"
   viewBox="0 0 217.02989 126.36768"
   id="svg7798"
   version="1.1"
   inkscape:version="0.91 r13725"
   sodipodi:docname="ocean spray.svg">
  <defs
     id="defs7800" />
  <sodipodi:namedview
     id="base"
     pagecolor="#ffffff"
     bordercolor="#666666"
     borderopacity="1.0"
     inkscape:pageopacity="0.0"
     inkscape:pageshadow="2"
     inkscape:zoom="4.2087177"
     inkscape:cx="40.035947"
     inkscape:cy="61.708641"
     inkscape:document-units="px"
     inkscape:current-layer="layer1"
     showgrid="false"
     fit-margin-top="0"
     fit-margin-left="0"
     fit-margin-right="0"
     fit-margin-bottom="0"
     units="px"
     inkscape:window-width="1280"
     inkscape:window-height="744"
     inkscape:window-x="-4"
     inkscape:window-y="-4"
     inkscape:window-maximized="1" />
  <metadata
     id="metadata7803">
    <rdf:RDF>
      <cc:Work
         rdf:about="">
        <dc:format>image/svg+xml</dc:format>
        <dc:type
           rdf:resource="http://purl.org/dc/dcmitype/StillImage" />
        <dc:title></dc:title>
      </cc:Work>
    </rdf:RDF>
  </metadata>
  <g
     inkscape:label="Layer 1"
     inkscape:groupmode="layer"
     id="layer1"
     transform="translate(17.89309,-467.70318)">
    <g
       id="g8176"
       transform="translate(-21.587212,466.65818)">
      <g
         id="g8040">
	<defs
   id="defs8042">
		<rect
   height="125.293"
   width="215.903"
   y="2.0409999"
   x="3.8210001"
   id="SVGID_1_" />

	</defs>

	<clipPath
   id="SVGID_2_">
		<use
   id="use8046"
   overflow="visible"
   xlink:href="#SVGID_1_"
   style="overflow:visible"
   x="0"
   y="0"
   width="100%"
   height="100%" />

	</clipPath>

	<path
   id="path8048"
   d="m 111.976,2.045 c 8.646,0.185 20.772,1.19 22.127,1.386 24.764,2.55 44.202,9.955 60.396,21.064 10.411,7.169 21.526,18.51 24.528,32.159 0.323,1.478 0.549,2.919 0.697,4.33 l 0,7.518 c -0.785,7.533 -3.843,13.963 -7.404,18.93 -11.34,16.2 -28.694,25.684 -51.14,32.4 -7.636,2.314 -17.59,4.397 -26.386,5.321 C 72.55,131.865 38.069,109.645 35.296,108.029 28.584,104.324 10.299,92.06 5.906,74.475 2.666,61.518 6.136,49.485 13.772,39.068 26.73,21.483 45.48,13.386 69.539,7.136 84.123,3.431 99.16,2.508 107.496,2.046 l 4.48,0 z"
   clip-path="url(#SVGID_2_)"
   inkscape:connector-curvature="0"
   style="clip-rule:evenodd;fill:#ffffff;fill-rule:evenodd" />

	<path
   id="path8050"
   d="m 112.735,8.388 c -7.204,0.185 -23.024,3.823 -21.637,15.604 0.418,3.541 3.305,6.235 6.504,7.646 1.047,0.477 6.322,2.227 6.07,1.195 -0.385,-1.637 -1,-6.384 4.131,-12.356 8.883,-10.335 25.894,-10.812 22.846,-11.351 -2.104,-0.374 -14.04,-0.82 -17.914,-0.738"
   clip-path="url(#SVGID_2_)"
   inkscape:connector-curvature="0"
   style="fill:#00aeef" />

	<path
   id="path8052"
   d="M 94.542,9.029 C 91.499,9.332 82.178,10.415 73.785,12.365 50.565,17.732 18.04,31.766 11.998,57.398 9.56,67.711 11.462,75.013 16.857,83.419 c 18.471,28.67 64.612,38.394 99.577,37.839 1.725,-0.062 10.766,-0.431 12.804,-0.672 2.026,-0.236 14.854,-2.499 16.764,-2.797 1.909,-0.313 20.372,-8.472 30.389,-11.524 16.461,-5.034 46.9,-43.258 18.894,-71.229 -16.97,-16.923 -51.756,-29.069 -75.883,-15.989 -12.397,6.722 -14.358,16.908 -1.458,23.548 2.607,1.34 6.147,5.152 9.324,5.152 0.292,0.148 0.098,0.246 -2.089,0.518 -1.293,0.154 -10.017,0.493 -17.637,-6.712 -1.206,-1.637 -2.006,-2.873 -2.909,-4.956 -3.433,-0.268 -8.508,-1.36 -12.839,-4.777 -4.593,-3.648 -8.057,-11.612 -1.072,-17.971 4.497,-4.11 7.245,-4.685 8.223,-5.023 1.262,-0.469 -2.374,0.008 -4.403,0.203"
   clip-path="url(#SVGID_2_)"
   inkscape:connector-curvature="0"
   style="fill:#004990" />

	<path
   id="path8054"
   d="m 135.088,12.277 c 10.391,-0.708 25.99,3.141 37.434,7.964 29.566,12.485 54.854,38.66 31.024,68.525 -7.852,9.837 -20.208,16.518 -31.548,21.3 -8.898,3.762 -18.509,6.384 -28.397,8.17 -2.904,0.451 -5.813,1.052 -8.718,1.503 0,-0.107 -1.745,0.421 -1.745,0.293 19.381,-3.7 44.679,-15.877 56.871,-32.189 2.997,-4.033 4.449,-6.819 4.772,-7.754 3.109,-8.985 3.396,-16.913 0.021,-25.021 -7.8,-18.766 -36.305,-28.51 -56.887,-23.773 -4.818,1.108 -10.54,3.355 -12.685,8.158 -1.611,3.541 -0.708,6.163 1.221,7.677 1.411,1.083 0.719,0.544 -1.293,0.462 -10.898,-0.564 -25.854,-13.634 -13.219,-26.853 5.681,-5.952 19.387,-8.2 23.149,-8.462"
   clip-path="url(#SVGID_2_)"
   inkscape:connector-curvature="0"
   style="fill:#00aeef" />

	<path
   id="path8056"
   d="m 150.779,12.93 c 17.775,3.401 55.948,17.806 62.033,45.063 1.191,5.301 0.75,12.521 -0.595,16.344 -0.872,2.524 -3.489,6.927 -4.577,8.451 3.171,-7.081 6.096,-15.461 4.536,-23.152 -2.324,-11.479 -9.935,-20.998 -22.865,-29.845 -13.424,-9.18 -35.089,-16.779 -48.461,-17.036 -8.478,-0.159 -12.08,0.77 -14.666,1.313 -2.586,0.543 -7.815,2.36 -11.597,5.137 -0.657,0.482 3.644,-4.598 16.205,-6.732 2.51,-0.421 9.966,-1.457 19.987,0.457"
   clip-path="url(#SVGID_2_)"
   inkscape:connector-curvature="0"
   style="fill:#00aeef" />

	<path
   id="path8058"
   d="m 171.156,86.703 c -1.057,-2.047 -0.246,-4.572 1.832,-5.624 2.067,-1.052 4.598,-0.251 5.66,1.802 1.057,2.053 0.246,4.566 -1.816,5.624 -2.068,1.067 -4.608,0.251 -5.676,-1.802 z"
   stroke-miterlimit="3.864"
   clip-path="url(#SVGID_2_)"
   inkscape:connector-curvature="0"
   style="fill:none;stroke:#ffffff;stroke-width:0.121;stroke-miterlimit:3.86400008" />

	<path
   id="path8060"
   d="m 174.404,87.365 0.816,-0.415 -0.75,-1.432 0.816,-0.421 c 0.416,-0.206 0.646,-0.103 0.908,0.241 0.189,0.271 0.359,0.636 0.585,0.815 l 0.811,-0.41 c -0.251,-0.134 -0.472,-0.575 -0.605,-0.801 -0.216,-0.349 -0.533,-0.678 -0.979,-0.574 l -0.011,-0.011 c 0.323,-0.369 0.334,-0.78 0.107,-1.211 -0.287,-0.555 -0.934,-0.811 -1.601,-0.473 l -1.996,1.026 1.899,3.666 z m -0.764,-3.453 0.894,-0.457 c 0.364,-0.185 0.646,-0.128 0.82,0.221 0.2,0.369 0.072,0.621 -0.282,0.811 l -0.893,0.457 -0.539,-1.032 z"
   clip-path="url(#SVGID_2_)"
   inkscape:connector-curvature="0"
   style="clip-rule:evenodd;fill:#ffffff;fill-rule:evenodd" />

	<path
   id="path8062"
   d="m 32.457,62.868 c -2.522,-2.012 -0.5,-5.594 5.011,-13.352 5.509,-7.774 8.482,-11.187 11.035,-9.217 2.548,1.971 0.236,5.892 -5.275,13.655 -5.511,7.775 -8.749,10.535 -10.771,8.914 m -3.223,4.536 C 35.03,71.524 41.688,64.853 47.325,56.921 53.011,48.896 58.275,40.983 51.861,35.954 45.444,30.92 38.915,38.355 33.218,46.381 27.59,54.319 22.936,62.909 29.234,67.404"
   clip-path="url(#SVGID_2_)"
   inkscape:connector-curvature="0"
   style="clip-rule:evenodd;fill:#ffffff;fill-rule:evenodd" />

	<path
   id="path8064"
   d="m 59.882,66.342 c 3.595,-5.859 3.515,-10.796 -0.39,-12.73 -4.57,-2.264 -8.806,1.303 -12.567,7.425 -4.305,6.999 -6.316,12.937 -1.734,15.861 4.224,2.709 8.369,0.872 12.1,-5.203 L 53.52,69.499 c -1.798,2.935 -4.03,4.726 -5.408,3.776 -1.285,-0.883 -1.606,-3.232 2.586,-10.063 2.863,-4.659 4.914,-6.44 6.794,-5.146 1.378,0.943 0.857,2.996 -1.188,6.321 l 3.578,1.955 z"
   clip-path="url(#SVGID_2_)"
   inkscape:connector-curvature="0"
   style="clip-rule:evenodd;fill:#ffffff;fill-rule:evenodd" />

	<path
   id="path8066"
   d="m 66.14,69.18 c 0.806,-2.032 2.186,-5.665 4.557,-4.777 2.438,0.919 1.057,4.218 0.146,6.548 L 66.14,69.18 Z m 7.125,7.194 c 3.207,-7.631 5.157,-14.45 -0.457,-16.503 -5.662,-2.058 -9.09,2.997 -11.663,9.55 -2.948,7.513 -3.951,13.337 1.875,15.399 2.417,0.867 4.041,0.236 5.827,-0.785 1.809,-1.011 2.553,-2.442 3.653,-5.039 l -3.954,-1.565 c -0.782,1.986 -2.026,3.798 -3.846,3.12 -2.263,-0.847 -1.318,-4.095 -0.2,-6.942 l 8.765,2.765 z"
   clip-path="url(#SVGID_2_)"
   inkscape:connector-curvature="0"
   style="clip-rule:evenodd;fill:#ffffff;fill-rule:evenodd" />

	<path
   id="path8068"
   d="m 84.443,79.135 c -0.295,2.868 -0.593,6.676 -3.751,6.188 -1.54,-0.246 -1.755,-1.498 -1.309,-3.264 0.72,-2.755 2.722,-3.315 5.06,-2.924 m 5.53,-5.367 c 0.877,-4.567 0.849,-8.765 -4.19,-9.857 -1.79,-0.386 -3.409,0.123 -4.697,1.067 -1.309,0.888 -2.732,3.792 -3.315,6.809 l 3.811,0.99 c 0.382,-1.985 1.701,-4.828 3.314,-4.448 1.681,0.39 1.43,2.058 1.019,4.202 l -0.582,2.125 c -4.654,-0.591 -8.891,0.297 -10.168,6.383 -0.913,4.352 0.016,7.959 3.259,8.724 2.017,0.482 4.146,-0.985 4.146,-0.985 l -0.256,1.206 4.402,0.672 c 0.195,-1.57 0.293,-2.822 0.593,-4.366 l 2.664,-12.522 z"
   clip-path="url(#SVGID_2_)"
   inkscape:connector-curvature="0"
   style="clip-rule:evenodd;fill:#ffffff;fill-rule:evenodd" />

	<path
   id="path8070"
   d="m 97.577,66.271 -4.347,-0.206 -2.532,25.227 4.216,0.554 1.775,-17.39 c 0.064,-1.684 1.268,-3.233 2.763,-3.054 1.488,0.17 1.594,1.242 1.378,3.484 l -1.608,17.375 4.257,0.492 1.873,-20.171 c 0.328,-3.479 -0.668,-5.824 -3.428,-6.214 -2.571,-0.375 -4.347,1.678 -4.347,1.678 l 0,-1.775 z"
   clip-path="url(#SVGID_2_)"
   inkscape:connector-curvature="0"
   style="clip-rule:evenodd;fill:#ffffff;fill-rule:evenodd" />

	<path
   id="path8072"
   d="m 128.791,81.536 c -1.796,-10.206 -12.346,-8.041 -13.803,-16.349 -0.452,-2.54 0.246,-4.347 1.97,-4.649 2.863,-0.518 3.397,2.653 3.869,5.394 l 4.7,-0.775 c -1.482,-7.814 -3.617,-10.755 -8.815,-9.883 -6.491,1.083 -7.615,5.983 -6.64,11.726 1.867,10.945 12.705,8.692 14.06,16.148 0.591,3.259 -0.164,4.932 -1.97,5.229 -3.557,0.601 -4.28,-2.95 -4.881,-6.455 l -4.854,0.806 c 0.795,6.414 3.71,11.715 10.313,10.611 4.071,-0.689 7.724,-2.305 6.051,-11.803"
   clip-path="url(#SVGID_2_)"
   inkscape:connector-curvature="0"
   style="clip-rule:evenodd;fill:#ffffff;fill-rule:evenodd" />

	<path
   id="path8074"
   d="m 138.695,85.092 c -1.627,0.339 -2.874,-1.919 -4.039,-7.814 -0.929,-4.706 -1.154,-8.077 0.816,-8.498 2.058,-0.431 2.899,2.704 3.822,7.404 1.166,5.906 1.115,8.539 -0.599,8.908 m -10.817,-19.535 6.712,33.708 4.382,-0.897 -1.724,-8.939 0.467,-0.01 c 2.171,0.888 2.376,0.544 4.049,0 4.238,-1.386 2.617,-9.873 1.678,-14.614 -0.949,-4.829 -2.561,-12.397 -7.507,-11.351 -1.827,0.375 -2.658,0.985 -3.51,2.756 l -0.534,-1.386 -4.013,0.733 z"
   clip-path="url(#SVGID_2_)"
   inkscape:connector-curvature="0"
   style="clip-rule:evenodd;fill:#ffffff;fill-rule:evenodd" />

	<path
   id="path8076"
   d="m 142.508,62.119 7.477,24.451 4.248,-1.345 -4.13,-13.342 c -0.488,-2.663 -1.088,-6.81 3.063,-8.482 l -1.386,-4.448 c -2.863,0.692 -4.403,3.858 -4.403,3.858 l -0.667,-2.021 -4.202,1.329 z"
   clip-path="url(#SVGID_2_)"
   inkscape:connector-curvature="0"
   style="clip-rule:evenodd;fill:#ffffff;fill-rule:evenodd" />

	<path
   id="path8078"
   d="m 180.413,79.494 c 0.596,0.888 1.878,3.36 1.878,3.36 2.464,-1.293 7.41,-3.961 4.342,-12.341 -0.785,-1.98 -9.704,-24.497 -9.704,-24.497 l -3.72,2.468 5.429,13.439 -10.57,-10.771 -3.648,2.37 17.087,16.99 c 4.639,5.236 -0.001,7.904 -1.094,8.982"
   clip-path="url(#SVGID_2_)"
   inkscape:connector-curvature="0"
   style="clip-rule:evenodd;fill:#ffffff;fill-rule:evenodd" />

	<path
   id="path8080"
   d="m 165.646,68.923 c 1.405,2.505 3.346,5.799 0.472,7.215 -1.406,0.678 -2.289,-0.221 -2.936,-1.93 -1.15,-3.048 0.323,-4.269 2.464,-5.285 m 1.231,-7.415 c -1.889,-4.254 -3.305,-7.928 -8.949,-5.68 -1.693,0.683 -2.638,1.908 -3.151,3.417 -0.564,1.468 -0.235,4.254 1.19,7.784 l 3.695,-1.683 c -0.97,-2.442 -1.473,-4.772 0.077,-5.394 1.601,-0.641 2.427,0.724 3.314,2.704 l 0.755,2.084 c -4.146,2.181 -7.112,5.331 -4.681,11.048 1.755,4.095 4.588,6.512 7.677,5.29 1.925,-0.765 2.833,-3.196 2.833,-3.196 l 0.492,1.145 3.982,-1.977 c -0.739,-1.405 -1.376,-2.483 -2.012,-3.909 l -5.222,-11.633 z"
   clip-path="url(#SVGID_2_)"
   inkscape:connector-curvature="0"
   style="clip-rule:evenodd;fill:#ffffff;fill-rule:evenodd" />

</g>
      <g
         id="g8082">
	<defs
   id="defs8084">
		<path
   d="m 53.447,21.688 c -20.3,5.824 -49.131,29.49 -37.898,54.096 7.346,16.102 25.019,26.596 40.371,33.189 8.478,3.648 27.351,8.651 30.029,7.559 2.682,-1.088 -12.905,-4.941 -14.974,-5.629 C 43.951,101.856 2.225,75.152 27.818,42.45 c 4.194,-5.367 9.611,-9.867 15.271,-13.162 9.684,-5.654 13.783,-8.246 12.657,-8.246 -0.323,0 -1.099,0.216 -2.299,0.646"
   id="SVGID_3_"
   inkscape:connector-curvature="0" />

	</defs>

	<clipPath
   id="SVGID_4_">
		<use
   id="use8088"
   overflow="visible"
   xlink:href="#SVGID_3_"
   style="overflow:visible"
   x="0"
   y="0"
   width="100%"
   height="100%" />

	</clipPath>

	
		<linearGradient
   gradientTransform="matrix(10.6414,-4.2122,-4.2122,-10.6414,4489.2998,5620.2217)"
   y2="593.88177"
   x2="-179.93919"
   y1="593.88177"
   x1="-185.19341"
   gradientUnits="userSpaceOnUse"
   id="SVGID_5_">
		<stop
   id="stop8091"
   style="stop-color:#B2BBDA"
   offset="0" />

		<stop
   id="stop8093"
   style="stop-color:#859EC7"
   offset="0.2356" />

		<stop
   id="stop8095"
   style="stop-color:#2661A0"
   offset="0.7626" />

		<stop
   id="stop8097"
   style="stop-color:#004990"
   offset="1" />

	</linearGradient>

	<polygon
   id="polygon8099"
   points="-30.829,34.122 76.926,-8.53 121.68,104.54 13.928,147.192 "
   clip-path="url(#SVGID_4_)"
   style="fill:url(#SVGID_5_)" />

</g>
      <g
         id="g8101">
	<defs
   id="defs8103">
		<path
   d="m 92.718,18.384 c -2.638,4.757 0.631,10.745 3.243,11.238 -3.32,-1.991 -2.302,-7.738 0.525,-11.182 5.155,-6.722 17.034,-9.118 21.441,-9.206 -1.107,-0.066 -2.181,-0.103 -3.217,-0.103 -12.581,10e-4 -19.657,5.04 -21.992,9.253"
   id="SVGID_6_"
   inkscape:connector-curvature="0" />

	</defs>

	<clipPath
   id="SVGID_7_">
		<use
   id="use8107"
   overflow="visible"
   xlink:href="#SVGID_6_"
   style="overflow:visible"
   x="0"
   y="0"
   width="100%"
   height="100%" />

	</clipPath>

	
		<linearGradient
   gradientTransform="matrix(4.8644,0,0,-4.8644,1010.142,3143.5046)"
   y2="642.24512"
   x2="-183.4182"
   y1="642.24512"
   x1="-188.6709"
   gradientUnits="userSpaceOnUse"
   id="SVGID_8_">
		<stop
   id="stop8110"
   style="stop-color:#C1E8FB"
   offset="0" />

		<stop
   id="stop8112"
   style="stop-color:#9ADCF9"
   offset="0.1627" />

		<stop
   id="stop8114"
   style="stop-color:#58C9F4"
   offset="0.4567" />

		<stop
   id="stop8116"
   style="stop-color:#28BAF2"
   offset="0.7044" />

		<stop
   id="stop8118"
   style="stop-color:#0BB1F0"
   offset="0.8929" />

		<stop
   id="stop8120"
   style="stop-color:#00AEEF"
   offset="1" />

	</linearGradient>

	<rect
   id="rect8122"
   height="20.49"
   width="27.848"
   clip-path="url(#SVGID_7_)"
   y="9.132"
   x="90.080002"
   style="fill:url(#SVGID_8_)" />

</g>
      <g
         id="g8124">
	<defs
   id="defs8126">
		<path
   d="m 109.158,30.643 c -0.005,7.087 8.026,12.741 8.026,12.741 0,0 -5.476,-6.773 -3.407,-14.214 4.068,-14.563 31.214,-17.523 55.901,-8.066 -9.904,-5.701 -20.3,-8.041 -29.64,-8.041 -17.261,0 -30.874,8.004 -30.88,17.58"
   id="SVGID_9_"
   inkscape:connector-curvature="0" />

	</defs>

	<clipPath
   id="SVGID_10_">
		<use
   id="use8130"
   overflow="visible"
   xlink:href="#SVGID_9_"
   style="overflow:visible"
   x="0"
   y="0"
   width="100%"
   height="100%" />

	</clipPath>

	
		<linearGradient
   gradientTransform="matrix(11.5184,0,0,-11.5184,2289.2507,6913.0405)"
   y2="597.7832"
   x2="-184.01559"
   y1="597.7832"
   x1="-189.27"
   gradientUnits="userSpaceOnUse"
   id="SVGID_11_">
		<stop
   id="stop8133"
   style="stop-color:#C1E8FB"
   offset="0" />

		<stop
   id="stop8135"
   style="stop-color:#9ADCF9"
   offset="0.1627" />

		<stop
   id="stop8137"
   style="stop-color:#58C9F4"
   offset="0.4567" />

		<stop
   id="stop8139"
   style="stop-color:#28BAF2"
   offset="0.7044" />

		<stop
   id="stop8141"
   style="stop-color:#0BB1F0"
   offset="0.8929" />

		<stop
   id="stop8143"
   style="stop-color:#00AEEF"
   offset="1" />

	</linearGradient>

	<rect
   id="rect8145"
   height="31.737"
   width="60.525002"
   clip-path="url(#SVGID_10_)"
   y="11.646"
   x="109.153"
   style="fill:url(#SVGID_11_)" />

</g>
      <g
         id="g8147">
	<defs
   id="defs8149">
		<path
   d="m 160.719,28.965 c 0,0 36.428,8.005 38.506,34.775 2.012,25.755 -27.053,41.683 -27.053,41.683 0,0 31.866,-14.439 31.702,-41.2 C 203.689,35.82 160.719,28.965 160.719,28.965 Z"
   id="SVGID_12_"
   inkscape:connector-curvature="0" />

	</defs>

	<clipPath
   id="SVGID_13_">
		<use
   id="use8153"
   overflow="visible"
   xlink:href="#SVGID_12_"
   style="overflow:visible"
   x="0"
   y="0"
   width="100%"
   height="100%" />

	</clipPath>

	
		<linearGradient
   gradientTransform="matrix(-8.4942,0,0,8.4942,-1529.9548,-4411.6699)"
   y2="527.28711"
   x2="-198.9821"
   y1="527.28711"
   x1="-204.2388"
   gradientUnits="userSpaceOnUse"
   id="SVGID_14_">
		<stop
   id="stop8156"
   style="stop-color:#D6F0FC"
   offset="0" />

		<stop
   id="stop8158"
   style="stop-color:#B9E7FA"
   offset="0.111" />

		<stop
   id="stop8160"
   style="stop-color:#6BCFF5"
   offset="0.4335" />

		<stop
   id="stop8162"
   style="stop-color:#31BDF2"
   offset="0.6994" />

		<stop
   id="stop8164"
   style="stop-color:#0DB2F0"
   offset="0.8953" />

		<stop
   id="stop8166"
   style="stop-color:#00AEEF"
   offset="1" />

	</linearGradient>

	<rect
   id="rect8168"
   height="76.458"
   width="43.319"
   clip-path="url(#SVGID_13_)"
   y="28.965"
   x="160.71899"
   style="fill:url(#SVGID_14_)" />

</g>
    </g>
  </g>
</svg>
