<svg id="Layer_1" data-name="Layer 1" xmlns="http://www.w3.org/2000/svg" viewBox="0 0 88.09 29.44"><defs><style>.cls-1{fill:#fff;}.cls-2{fill:#d31245;}.cls-3{fill:#004b8d;}</style></defs><title>phillies</title><path class="cls-1" d="M70.57,20.11c.39-.72.48-1.28.25-1.65a.87.87,0,0,0-.88-.42A3.43,3.43,0,0,0,67,21.83v.46h.16a5.25,5.25,0,0,0,3.32-2.15m-3,1.47a2.83,2.83,0,0,1,2.4-3c.12,0,.3,0,.35.15s.15.35-.26,1.09a4.31,4.31,0,0,1-2.41,1.75"/><path class="cls-1" d="M44.72,8.6c-.11-.73-.54-.84-.79-.84a.82.82,0,0,0-.73.86V17l.29-.51c1.65-2.92,1.25-7.7,1.23-7.91m-.95.07c0-.18.07-.29.16-.29s.2.11.23.34a19.67,19.67,0,0,1-.39,5.52Z"/><path class="cls-1" d="M85.84,21.35a13.68,13.68,0,0,0-5.23-5.57h0a3.77,3.77,0,0,1-1.1-1.18v-.06a.79.79,0,0,0-.66-.36.9.9,0,0,0-.47.15l-1.89,1.34a1.12,1.12,0,0,0-.43,1.06,7,7,0,0,1-.44,3.86c-1.16,2.62-3.1,4.13-5.33,4.13H70a7.82,7.82,0,0,0,3.78-3.62,5.69,5.69,0,0,0,.62-2.53,4.07,4.07,0,0,0-3.91-4.25h-.28a7.25,7.25,0,0,0-7,7.44,7.68,7.68,0,0,0,.3,2.14,1,1,0,0,1-1,.75,1,1,0,0,1-1-1V18.13a2.26,2.26,0,1,0-4.52,0v4a2.42,2.42,0,0,1-4.83.32v-1a15.41,15.41,0,0,0,3.88-9l1.25.91L56.14,17.1l3.17-2.31,3.17,2.31-1.21-3.73,3.16-2.29H60.52L59.31,7.35,58.1,11.08H56.17A16.92,16.92,0,0,0,56,8.33a4.35,4.35,0,0,0-4.15-4.1A4.17,4.17,0,0,0,47.7,8.39h0V9.78a9.89,9.89,0,0,0-.14-1.45,4.35,4.35,0,0,0-4.15-4.1,4.17,4.17,0,0,0-4.16,4.16h0v2.69h-3L35,7.35l-1.2,3.72H29.92l3.17,2.29L31.84,17.1,35,14.79l3.17,2.31L37,13.37l2.25-1.63V23.66a1,1,0,0,1-.75,1.2,1,1,0,0,1-1.2-.75,1.14,1.14,0,0,1,0-.45V18.13a2.26,2.26,0,0,0-4.52,0v5.53a1,1,0,0,1-2,0V18.35A4.45,4.45,0,0,0,26.3,13.9a4.38,4.38,0,0,0-1.78.38V6.6a2.38,2.38,0,0,0-3.78-1.91A7.17,7.17,0,0,0,17,1,14,14,0,0,0,2.84,3.12C.73,5.2-.3,7.69.07,9.78A3.34,3.34,0,0,0,2,12.38a3.84,3.84,0,0,0,1.69.39,2.83,2.83,0,0,0,1.4-.33c1.76-1,2.15-3.45,2.17-3.55a5.16,5.16,0,0,0,.08-.65H6.66c-.17,0-.46,0-.49-.18V8a3.06,3.06,0,0,1,1.4-1.86V22.2a7,7,0,0,0-2.14,4.34,3.1,3.1,0,0,0,.14.92,2.45,2.45,0,0,0,2,1.65,4,4,0,0,0,.69.06A4.9,4.9,0,0,0,11.43,28a4.31,4.31,0,0,0,1.63-3.38V16.23c2.64-1,5.22-2.13,6.78-4.22V26.8a2.38,2.38,0,0,0,4.75.31,1.6,1.6,0,0,0,0-.31V19.4a.86.86,0,0,1,1.72,0v5.31a4.45,4.45,0,0,0,4.45,4.45A4.34,4.34,0,0,0,34,27.76a4.44,4.44,0,0,0,6.85-.46,5.5,5.5,0,0,0,4.27,1.88,5.36,5.36,0,0,0,4.34-2,5.49,5.49,0,0,0,4.34,2,5.65,5.65,0,0,0,4.2-1.7,4.39,4.39,0,0,0,3.49,1.7,4.66,4.66,0,0,0,3.89-2,6.74,6.74,0,0,0,4.78,2h.22a7.5,7.5,0,0,0,2.88-.64,8.82,8.82,0,0,0,2.88-1.94l.74.85a4.68,4.68,0,0,0,4.07,1.74,5.43,5.43,0,0,0,5.46-5.42,5.5,5.5,0,0,0-.56-2.42M13.28,11.25h-.12V5h.5a2.62,2.62,0,0,1,2.9,2.3c0,.1,0,.2,0,.3V8c0,1.67-1.27,2.94-3.31,3.32m34.4.56v10.7a1.91,1.91,0,0,1-1.83,2h-.08a2,2,0,0,1-2-2V21.42a15.51,15.51,0,0,0,3.93-9.61M85.84,23.89h0a4.49,4.49,0,0,1-1.51,3.33,5.35,5.35,0,0,1-3.41,1.43,4.28,4.28,0,0,1-3.6-1.54c-.58-.63-.82-.91-.82-.91a13.79,13.79,0,0,0,1.72-2.49,4.23,4.23,0,0,0,2.08,1.65,1.76,1.76,0,0,0,2.22-1.13,1.6,1.6,0,0,0,.08-.65A3.91,3.91,0,0,0,82.24,22a5.54,5.54,0,0,0-2.77-2.73l-.17-.07h0v.18a16.68,16.68,0,0,1-2,4.86A8.8,8.8,0,0,1,73.1,28a7,7,0,0,1-2.66.59h-.21a6.26,6.26,0,0,1-4.75-2.25l-.15-.18-.11.22a4.05,4.05,0,0,1-3.72,2.2,3.82,3.82,0,0,1-3.32-1.88l-.12-.19-.14.18a5.29,5.29,0,0,1-7.46.65,5.46,5.46,0,0,1-.87-.93l-.12-.19-.13.19a4.77,4.77,0,0,1-4.21,2.17,5,5,0,0,1-4.19-2.13l-.14-.21-.12.23a3.88,3.88,0,0,1-6.56.55L34,26.87l-.12.17a3.89,3.89,0,0,1-7-2.25V19.36h0a1.42,1.42,0,0,0-1.54-1.3A1.43,1.43,0,0,0,24,19.36v7.4a1.81,1.81,0,1,1-3.61.27V11.12a8.08,8.08,0,0,0,.91-3.34V7.29a6.52,6.52,0,0,0-.31-2A1.8,1.8,0,0,1,24,6.6v8.66l.24-.15a3.88,3.88,0,0,1,5.37,1.13,3.81,3.81,0,0,1,.63,2.12v5.31a1.54,1.54,0,0,0,3.08,0V18.13a1.71,1.71,0,0,1,1.83-1.56,1.69,1.69,0,0,1,1.56,1.56v5.53a1.56,1.56,0,0,0,1.42,1.67,1.54,1.54,0,0,0,1.67-1.42,1,1,0,0,0,0-.25V8.38a3.61,3.61,0,0,1,3.59-3.6A3.8,3.8,0,0,1,47,8.39a15.29,15.29,0,0,1-3.76,12.76h0v1.32a2.59,2.59,0,0,0,2.58,2.58,2.48,2.48,0,0,0,2.47-2.5h0V8.38a3.61,3.61,0,0,1,3.59-3.6,3.8,3.8,0,0,1,3.59,3.61,15.29,15.29,0,0,1-3.76,12.76h0v.91a3,3,0,0,0,6,0v-4a1.69,1.69,0,0,1,3.38,0v5.53a1.54,1.54,0,0,0,3.07.24v-.07a7.27,7.27,0,0,1-.3-2.08,6.67,6.67,0,0,1,6.43-6.87h0a3.5,3.5,0,0,1,3.57,3.42c0,.13,0,.25,0,.37a5.36,5.36,0,0,1-.58,2.29,7.91,7.91,0,0,1-4.48,3.71l-.32.12.3.16a2.91,2.91,0,0,0,1.49.39c1.17,0,4.07-.43,5.86-4.47a7.57,7.57,0,0,0,.47-4.18.52.52,0,0,1,.2-.49l1.89-1.35h.13a.28.28,0,0,1,.2.1h0a4.26,4.26,0,0,0,1.25,1.32h0c5.92,3.92,5.56,7.6,5.55,7.63Zm-7.35-.75A17,17,0,0,0,79.66,20a4.22,4.22,0,0,1,2.39,3.56h0c0,1.27-1.17,1.45-2,1.08a3.49,3.49,0,0,1-1-.88c-.24-.29-.45-.54-.53-.65"/><path class="cls-1" d="M53.17,8.6c-.11-.73-.54-.84-.79-.84a.82.82,0,0,0-.73.86V17l.29-.51c1.65-2.92,1.25-7.7,1.23-7.91m-1,.07c0-.18.07-.29.16-.29s.21.11.23.34a19,19,0,0,1-.39,5.52Z"/><path class="cls-2" d="M80.31,16.25h0a4.26,4.26,0,0,1-1.25-1.32h0a.28.28,0,0,0-.2-.1h-.13l-1.89,1.35a.52.52,0,0,0-.2.49,7.57,7.57,0,0,1-.47,4.18c-1.78,4-4.69,4.47-5.86,4.47a2.91,2.91,0,0,1-1.49-.39l-.3-.16.32-.12a7.88,7.88,0,0,0,4.47-3.76,5.45,5.45,0,0,0,.53-2.29,3.48,3.48,0,0,0-3.27-3.69h-.36a6.67,6.67,0,0,0-6.43,6.87,7.27,7.27,0,0,0,.3,2.08v.07a1.54,1.54,0,0,1-1.68,1.39A1.56,1.56,0,0,1,61,23.68V18.13a1.69,1.69,0,0,0-3.38,0v4a3,3,0,1,1-6,0v-.91h0A15.28,15.28,0,0,0,55.39,8.47a3.81,3.81,0,0,0-3.55-3.69,3.61,3.61,0,0,0-3.59,3.6V22.6h0a2.48,2.48,0,0,1-2.47,2.5,2.59,2.59,0,0,1-2.58-2.58V21.19h0A15.28,15.28,0,0,0,47,8.44a3.81,3.81,0,0,0-3.59-3.62,3.62,3.62,0,0,0-3.6,3.6V23.66a1.54,1.54,0,1,1-3.08,0V18.13a1.7,1.7,0,0,0-3.39,0v5.53a1.54,1.54,0,1,1-3.08,0v-5.3a3.88,3.88,0,0,0-3.87-3.89,4,4,0,0,0-2.13.63l-.24.15V6.6a1.79,1.79,0,0,0-3-1.34,6.52,6.52,0,0,1,.31,2v.49a8.08,8.08,0,0,1-.91,3.34V26.8a1.81,1.81,0,0,0,3.61.27,1.22,1.22,0,0,0,0-.27V19.4a1.43,1.43,0,0,1,2.85,0h0v5.4a3.89,3.89,0,0,0,7,2.25l.12-.17.13.17a3.88,3.88,0,0,0,5.43.79,3.75,3.75,0,0,0,1.13-1.34l.12-.23.14.21a5,5,0,0,0,4.22,2.12,4.77,4.77,0,0,0,4.21-2.17l.13-.19.12.19A5.3,5.3,0,0,0,57,27.58a5.05,5.05,0,0,0,.92-.87l.14-.18.12.19A3.82,3.82,0,0,0,61.5,28.6a4,4,0,0,0,3.67-2.21l.11-.21.15.17a6.26,6.26,0,0,0,4.75,2.25h.21A7,7,0,0,0,73.05,28a8.8,8.8,0,0,0,4.2-3.77,17,17,0,0,0,2-4.86V19.2h0l.17.07A5.54,5.54,0,0,1,82.19,22a3.91,3.91,0,0,1,.36,1.57,1.77,1.77,0,0,1-1.65,1.87,1.8,1.8,0,0,1-.65-.09,4.23,4.23,0,0,1-2.08-1.65,13.79,13.79,0,0,1-1.72,2.49s.24.28.82.91a4.28,4.28,0,0,0,3.6,1.54,5.35,5.35,0,0,0,3.41-1.43,4.48,4.48,0,0,0,1.56-3.31h0s.37-3.71-5.55-7.63m-28.66.22V8.66a.82.82,0,0,1,.73-.86c.24,0,.68.11.79.84,0,.21.42,5-1.23,7.91l-.29.51Zm-8.45,0V8.66a.82.82,0,0,1,.73-.86c.24,0,.68.11.79.84,0,.21.42,5-1.23,7.91l-.29.51Zm23.89,5.82v-.46A3.43,3.43,0,0,1,70,18.06a.87.87,0,0,1,.88.42c.23.37.14.93-.25,1.65a5.25,5.25,0,0,1-3.32,2.15Z"/><polygon class="cls-3" points="58.03 13.15 57.24 15.58 59.31 14.08 61.38 15.58 60.59 13.15 62.65 11.65 60.1 11.65 60.1 11.65 59.31 9.21 58.52 11.65 55.96 11.65 58.03 13.15"/><polygon class="cls-3" points="35.04 9.21 34.25 11.65 31.69 11.65 33.76 13.15 32.97 15.58 35.04 14.08 37.11 15.58 36.32 13.15 38.39 11.65 35.83 11.65 35.04 9.21"/><path class="cls-2" d="M20.76,7.29A6.17,6.17,0,0,0,16.84,1.6a12.35,12.35,0,0,0-5.1-1,12.61,12.61,0,0,0-8.51,3C1.23,5.54.28,7.84.62,9.75A2.81,2.81,0,0,0,2.2,11.93a3.58,3.58,0,0,0,1.47.36A2.3,2.3,0,0,0,4.79,12c1.43-.77,1.84-2.88,1.89-3.13h0c-.8,0-1-.39-1-.62V8.07C5.68,7.19,6.74,6,8,5.36l.22-.1V22.47a6.62,6.62,0,0,0-2.09,4.07,2.25,2.25,0,0,0,.11.74A1.93,1.93,0,0,0,7.66,28.6a3,3,0,0,0,.59,0,4.38,4.38,0,0,0,2.81-1,3.77,3.77,0,0,0,1.44-3V15.84h.1c4.13-1.5,7.85-3.24,8.15-8V7.33m-7.36,4.52c-.18,0-.52.09-.79.12V4.45l1.07-.06a3.15,3.15,0,0,1,3.46,2.8c0,.1,0,.21,0,.31v.43c0,2-1.44,3.45-3.77,3.88"/><path class="cls-2" d="M86.5,28.44h-.35v1h-.24v-1h-.35v-.2h.94Zm1.59,1h-.25v-.93h0l-.34.93h-.23L87,28.51h0v.93h-.24v-1.2h.42l.27.76h0l.28-.76h.41Z"/><path class="cls-1" d="M13.56,13.6"/></svg>