<svg id="Layer_1" data-name="Layer 1" xmlns="http://www.w3.org/2000/svg" viewBox="0 0 290 48"><defs><style>.cls-1{fill:#fffdfd;}.cls-2{fill:#e6e6e6;}</style></defs><title>dots2</title><ellipse class="cls-1" cx="12.5" cy="2" rx="2.5" ry="2"/><ellipse class="cls-1" cx="12.5" cy="6" rx="2.5" ry="2"/><ellipse class="cls-1" cx="12.5" cy="10" rx="2.5" ry="2"/><ellipse class="cls-2" cx="12.5" cy="14" rx="2.5" ry="2"/><ellipse class="cls-1" cx="12.5" cy="18" rx="2.5" ry="2"/><ellipse class="cls-1" cx="12.5" cy="22" rx="2.5" ry="2"/><ellipse class="cls-1" cx="7.5" cy="2" rx="2.5" ry="2"/><ellipse class="cls-1" cx="7.5" cy="6" rx="2.5" ry="2"/><ellipse class="cls-1" cx="7.5" cy="10" rx="2.5" ry="2"/><ellipse class="cls-1" cx="7.5" cy="14" rx="2.5" ry="2"/><ellipse class="cls-1" cx="7.5" cy="18" rx="2.5" ry="2"/><ellipse class="cls-1" cx="7.5" cy="22" rx="2.5" ry="2"/><ellipse class="cls-1" cx="2.5" cy="2" rx="2.5" ry="2"/><ellipse class="cls-1" cx="2.5" cy="6" rx="2.5" ry="2"/><ellipse class="cls-1" cx="2.5" cy="10" rx="2.5" ry="2"/><ellipse class="cls-1" cx="2.5" cy="14" rx="2.5" ry="2"/><ellipse class="cls-1" cx="2.5" cy="18" rx="2.5" ry="2"/><ellipse class="cls-1" cx="2.5" cy="22" rx="2.5" ry="2"/><ellipse class="cls-1" cx="27.5" cy="2" rx="2.5" ry="2"/><ellipse class="cls-1" cx="27.5" cy="6" rx="2.5" ry="2"/><ellipse class="cls-1" cx="27.5" cy="10" rx="2.5" ry="2"/><ellipse class="cls-2" cx="27.5" cy="14" rx="2.5" ry="2"/><ellipse class="cls-1" cx="27.5" cy="18" rx="2.5" ry="2"/><ellipse class="cls-1" cx="27.5" cy="22" rx="2.5" ry="2"/><ellipse class="cls-1" cx="22.5" cy="2" rx="2.5" ry="2"/><ellipse class="cls-1" cx="22.5" cy="6" rx="2.5" ry="2"/><ellipse class="cls-1" cx="22.5" cy="10" rx="2.5" ry="2"/><ellipse class="cls-1" cx="22.5" cy="14" rx="2.5" ry="2"/><ellipse class="cls-1" cx="22.5" cy="18" rx="2.5" ry="2"/><ellipse class="cls-1" cx="22.5" cy="22" rx="2.5" ry="2"/><ellipse class="cls-1" cx="17.5" cy="2" rx="2.5" ry="2"/><ellipse class="cls-1" cx="17.5" cy="6" rx="2.5" ry="2"/><ellipse class="cls-1" cx="17.5" cy="10" rx="2.5" ry="2"/><ellipse class="cls-1" cx="17.5" cy="14" rx="2.5" ry="2"/><ellipse class="cls-1" cx="17.5" cy="18" rx="2.5" ry="2"/><ellipse class="cls-1" cx="17.5" cy="22" rx="2.5" ry="2"/><ellipse class="cls-1" cx="42.5" cy="2" rx="2.5" ry="2"/><ellipse class="cls-1" cx="42.5" cy="6" rx="2.5" ry="2"/><ellipse class="cls-1" cx="42.5" cy="10" rx="2.5" ry="2"/><ellipse class="cls-2" cx="42.5" cy="14" rx="2.5" ry="2"/><ellipse class="cls-1" cx="42.5" cy="18" rx="2.5" ry="2"/><ellipse class="cls-1" cx="42.5" cy="22" rx="2.5" ry="2"/><ellipse class="cls-1" cx="37.5" cy="2" rx="2.5" ry="2"/><ellipse class="cls-1" cx="37.5" cy="6" rx="2.5" ry="2"/><ellipse class="cls-1" cx="37.5" cy="10" rx="2.5" ry="2"/><ellipse class="cls-1" cx="37.5" cy="14" rx="2.5" ry="2"/><ellipse class="cls-1" cx="37.5" cy="18" rx="2.5" ry="2"/><ellipse class="cls-1" cx="37.5" cy="22" rx="2.5" ry="2"/><ellipse class="cls-1" cx="32.5" cy="2" rx="2.5" ry="2"/><ellipse class="cls-1" cx="32.5" cy="6" rx="2.5" ry="2"/><ellipse class="cls-1" cx="32.5" cy="10" rx="2.5" ry="2"/><ellipse class="cls-1" cx="32.5" cy="14" rx="2.5" ry="2"/><ellipse class="cls-1" cx="32.5" cy="18" rx="2.5" ry="2"/><ellipse class="cls-1" cx="32.5" cy="22" rx="2.5" ry="2"/><ellipse class="cls-1" cx="57.5" cy="2" rx="2.5" ry="2"/><ellipse class="cls-1" cx="57.5" cy="6" rx="2.5" ry="2"/><ellipse class="cls-1" cx="57.5" cy="10" rx="2.5" ry="2"/><ellipse class="cls-2" cx="57.5" cy="14" rx="2.5" ry="2"/><ellipse class="cls-1" cx="57.5" cy="18" rx="2.5" ry="2"/><ellipse class="cls-1" cx="57.5" cy="22" rx="2.5" ry="2"/><ellipse class="cls-1" cx="52.5" cy="2" rx="2.5" ry="2"/><ellipse class="cls-1" cx="52.5" cy="6" rx="2.5" ry="2"/><ellipse class="cls-1" cx="52.5" cy="10" rx="2.5" ry="2"/><ellipse class="cls-1" cx="52.5" cy="14" rx="2.5" ry="2"/><ellipse class="cls-1" cx="52.5" cy="18" rx="2.5" ry="2"/><ellipse class="cls-1" cx="52.5" cy="22" rx="2.5" ry="2"/><ellipse class="cls-1" cx="47.5" cy="2" rx="2.5" ry="2"/><ellipse class="cls-1" cx="47.5" cy="6" rx="2.5" ry="2"/><ellipse class="cls-1" cx="47.5" cy="10" rx="2.5" ry="2"/><ellipse class="cls-1" cx="47.5" cy="14" rx="2.5" ry="2"/><ellipse class="cls-1" cx="47.5" cy="18" rx="2.5" ry="2"/><ellipse class="cls-1" cx="47.5" cy="22" rx="2.5" ry="2"/><ellipse class="cls-1" cx="72.5" cy="2" rx="2.5" ry="2"/><ellipse class="cls-1" cx="72.5" cy="6" rx="2.5" ry="2"/><ellipse class="cls-1" cx="72.5" cy="10" rx="2.5" ry="2"/><ellipse class="cls-2" cx="72.5" cy="14" rx="2.5" ry="2"/><ellipse class="cls-1" cx="72.5" cy="18" rx="2.5" ry="2"/><ellipse class="cls-1" cx="72.5" cy="22" rx="2.5" ry="2"/><ellipse class="cls-1" cx="67.5" cy="2" rx="2.5" ry="2"/><ellipse class="cls-1" cx="67.5" cy="6" rx="2.5" ry="2"/><ellipse class="cls-1" cx="67.5" cy="10" rx="2.5" ry="2"/><ellipse class="cls-1" cx="67.5" cy="14" rx="2.5" ry="2"/><ellipse class="cls-1" cx="67.5" cy="18" rx="2.5" ry="2"/><ellipse class="cls-1" cx="67.5" cy="22" rx="2.5" ry="2"/><ellipse class="cls-1" cx="62.5" cy="2" rx="2.5" ry="2"/><ellipse class="cls-1" cx="62.5" cy="6" rx="2.5" ry="2"/><ellipse class="cls-1" cx="62.5" cy="10" rx="2.5" ry="2"/><ellipse class="cls-1" cx="62.5" cy="14" rx="2.5" ry="2"/><ellipse class="cls-1" cx="62.5" cy="18" rx="2.5" ry="2"/><ellipse class="cls-1" cx="62.5" cy="22" rx="2.5" ry="2"/><ellipse class="cls-1" cx="77.5" cy="2" rx="2.5" ry="2"/><ellipse class="cls-1" cx="77.5" cy="6" rx="2.5" ry="2"/><ellipse class="cls-1" cx="77.5" cy="10" rx="2.5" ry="2"/><ellipse class="cls-2" cx="77.5" cy="14" rx="2.5" ry="2"/><ellipse class="cls-1" cx="77.5" cy="18" rx="2.5" ry="2"/><ellipse class="cls-1" cx="77.5" cy="22" rx="2.5" ry="2"/><ellipse class="cls-1" cx="92.5" cy="2" rx="2.5" ry="2"/><ellipse class="cls-1" cx="92.5" cy="6" rx="2.5" ry="2"/><ellipse class="cls-1" cx="92.5" cy="10" rx="2.5" ry="2"/><ellipse class="cls-2" cx="92.5" cy="14" rx="2.5" ry="2"/><ellipse class="cls-1" cx="92.5" cy="18" rx="2.5" ry="2"/><ellipse class="cls-1" cx="92.5" cy="22" rx="2.5" ry="2"/><ellipse class="cls-1" cx="87.5" cy="2" rx="2.5" ry="2"/><ellipse class="cls-1" cx="87.5" cy="6" rx="2.5" ry="2"/><ellipse class="cls-1" cx="87.5" cy="10" rx="2.5" ry="2"/><ellipse class="cls-1" cx="87.5" cy="14" rx="2.5" ry="2"/><ellipse class="cls-1" cx="87.5" cy="18" rx="2.5" ry="2"/><ellipse class="cls-1" cx="87.5" cy="22" rx="2.5" ry="2"/><ellipse class="cls-1" cx="82.5" cy="2" rx="2.5" ry="2"/><ellipse class="cls-1" cx="82.5" cy="6" rx="2.5" ry="2"/><ellipse class="cls-1" cx="82.5" cy="10" rx="2.5" ry="2"/><ellipse class="cls-1" cx="82.5" cy="14" rx="2.5" ry="2"/><ellipse class="cls-1" cx="82.5" cy="18" rx="2.5" ry="2"/><ellipse class="cls-1" cx="82.5" cy="22" rx="2.5" ry="2"/><ellipse class="cls-1" cx="97.5" cy="2" rx="2.5" ry="2"/><ellipse class="cls-1" cx="97.5" cy="6" rx="2.5" ry="2"/><ellipse class="cls-1" cx="97.5" cy="10" rx="2.5" ry="2"/><ellipse class="cls-2" cx="97.5" cy="14" rx="2.5" ry="2"/><ellipse class="cls-1" cx="97.5" cy="18" rx="2.5" ry="2"/><ellipse class="cls-1" cx="97.5" cy="22" rx="2.5" ry="2"/><ellipse class="cls-1" cx="112.5" cy="2" rx="2.5" ry="2"/><ellipse class="cls-1" cx="112.5" cy="6" rx="2.5" ry="2"/><ellipse class="cls-1" cx="112.5" cy="10" rx="2.5" ry="2"/><ellipse class="cls-2" cx="112.5" cy="14" rx="2.5" ry="2"/><ellipse class="cls-1" cx="112.5" cy="18" rx="2.5" ry="2"/><ellipse class="cls-1" cx="112.5" cy="22" rx="2.5" ry="2"/><ellipse class="cls-1" cx="107.5" cy="2" rx="2.5" ry="2"/><ellipse class="cls-1" cx="107.5" cy="6" rx="2.5" ry="2"/><ellipse class="cls-1" cx="107.5" cy="10" rx="2.5" ry="2"/><ellipse class="cls-1" cx="107.5" cy="14" rx="2.5" ry="2"/><ellipse class="cls-1" cx="107.5" cy="18" rx="2.5" ry="2"/><ellipse class="cls-1" cx="107.5" cy="22" rx="2.5" ry="2"/><ellipse class="cls-1" cx="102.5" cy="2" rx="2.5" ry="2"/><ellipse class="cls-1" cx="102.5" cy="6" rx="2.5" ry="2"/><ellipse class="cls-1" cx="102.5" cy="10" rx="2.5" ry="2"/><ellipse class="cls-1" cx="102.5" cy="14" rx="2.5" ry="2"/><ellipse class="cls-1" cx="102.5" cy="18" rx="2.5" ry="2"/><ellipse class="cls-1" cx="102.5" cy="22" rx="2.5" ry="2"/><ellipse class="cls-1" cx="117.5" cy="2" rx="2.5" ry="2"/><ellipse class="cls-1" cx="117.5" cy="6" rx="2.5" ry="2"/><ellipse class="cls-1" cx="117.5" cy="10" rx="2.5" ry="2"/><ellipse class="cls-2" cx="117.5" cy="14" rx="2.5" ry="2"/><ellipse class="cls-1" cx="117.5" cy="18" rx="2.5" ry="2"/><ellipse class="cls-1" cx="117.5" cy="22" rx="2.5" ry="2"/><ellipse class="cls-1" cx="132.5" cy="2" rx="2.5" ry="2"/><ellipse class="cls-1" cx="132.5" cy="6" rx="2.5" ry="2"/><ellipse class="cls-1" cx="132.5" cy="10" rx="2.5" ry="2"/><ellipse class="cls-2" cx="132.5" cy="14" rx="2.5" ry="2"/><ellipse class="cls-1" cx="132.5" cy="18" rx="2.5" ry="2"/><ellipse class="cls-1" cx="132.5" cy="22" rx="2.5" ry="2"/><ellipse class="cls-1" cx="127.5" cy="2" rx="2.5" ry="2"/><ellipse class="cls-1" cx="127.5" cy="6" rx="2.5" ry="2"/><ellipse class="cls-1" cx="127.5" cy="10" rx="2.5" ry="2"/><ellipse class="cls-1" cx="127.5" cy="14" rx="2.5" ry="2"/><ellipse class="cls-1" cx="127.5" cy="18" rx="2.5" ry="2"/><ellipse class="cls-1" cx="127.5" cy="22" rx="2.5" ry="2"/><ellipse class="cls-1" cx="122.5" cy="2" rx="2.5" ry="2"/><ellipse class="cls-1" cx="122.5" cy="6" rx="2.5" ry="2"/><ellipse class="cls-1" cx="122.5" cy="10" rx="2.5" ry="2"/><ellipse class="cls-1" cx="122.5" cy="14" rx="2.5" ry="2"/><ellipse class="cls-1" cx="122.5" cy="18" rx="2.5" ry="2"/><ellipse class="cls-1" cx="122.5" cy="22" rx="2.5" ry="2"/><ellipse class="cls-1" cx="137.5" cy="2" rx="2.5" ry="2"/><ellipse class="cls-1" cx="137.5" cy="6" rx="2.5" ry="2"/><ellipse class="cls-1" cx="137.5" cy="10" rx="2.5" ry="2"/><ellipse class="cls-2" cx="137.5" cy="14" rx="2.5" ry="2"/><ellipse class="cls-1" cx="137.5" cy="18" rx="2.5" ry="2"/><ellipse class="cls-1" cx="137.5" cy="22" rx="2.5" ry="2"/><ellipse class="cls-1" cx="152.5" cy="2" rx="2.5" ry="2"/><ellipse class="cls-1" cx="152.5" cy="6" rx="2.5" ry="2"/><ellipse class="cls-1" cx="152.5" cy="10" rx="2.5" ry="2"/><ellipse class="cls-2" cx="152.5" cy="14" rx="2.5" ry="2"/><ellipse class="cls-1" cx="152.5" cy="18" rx="2.5" ry="2"/><ellipse class="cls-1" cx="152.5" cy="22" rx="2.5" ry="2"/><ellipse class="cls-1" cx="147.5" cy="2" rx="2.5" ry="2"/><ellipse class="cls-1" cx="147.5" cy="6" rx="2.5" ry="2"/><ellipse class="cls-1" cx="147.5" cy="10" rx="2.5" ry="2"/><ellipse class="cls-1" cx="147.5" cy="14" rx="2.5" ry="2"/><ellipse class="cls-1" cx="147.5" cy="18" rx="2.5" ry="2"/><ellipse class="cls-1" cx="147.5" cy="22" rx="2.5" ry="2"/><ellipse class="cls-1" cx="142.5" cy="2" rx="2.5" ry="2"/><ellipse class="cls-1" cx="142.5" cy="6" rx="2.5" ry="2"/><ellipse class="cls-1" cx="142.5" cy="10" rx="2.5" ry="2"/><ellipse class="cls-1" cx="142.5" cy="14" rx="2.5" ry="2"/><ellipse class="cls-1" cx="142.5" cy="18" rx="2.5" ry="2"/><ellipse class="cls-1" cx="142.5" cy="22" rx="2.5" ry="2"/><ellipse class="cls-1" cx="167.5" cy="2" rx="2.5" ry="2"/><ellipse class="cls-1" cx="167.5" cy="6" rx="2.5" ry="2"/><ellipse class="cls-1" cx="167.5" cy="10" rx="2.5" ry="2"/><ellipse class="cls-2" cx="167.5" cy="14" rx="2.5" ry="2"/><ellipse class="cls-1" cx="167.5" cy="18" rx="2.5" ry="2"/><ellipse class="cls-1" cx="167.5" cy="22" rx="2.5" ry="2"/><ellipse class="cls-1" cx="162.5" cy="2" rx="2.5" ry="2"/><ellipse class="cls-1" cx="162.5" cy="6" rx="2.5" ry="2"/><ellipse class="cls-1" cx="162.5" cy="10" rx="2.5" ry="2"/><ellipse class="cls-1" cx="162.5" cy="14" rx="2.5" ry="2"/><ellipse class="cls-1" cx="162.5" cy="18" rx="2.5" ry="2"/><ellipse class="cls-1" cx="162.5" cy="22" rx="2.5" ry="2"/><ellipse class="cls-1" cx="157.5" cy="2" rx="2.5" ry="2"/><ellipse class="cls-1" cx="157.5" cy="6" rx="2.5" ry="2"/><ellipse class="cls-1" cx="157.5" cy="10" rx="2.5" ry="2"/><ellipse class="cls-1" cx="157.5" cy="14" rx="2.5" ry="2"/><ellipse class="cls-1" cx="157.5" cy="18" rx="2.5" ry="2"/><ellipse class="cls-1" cx="157.5" cy="22" rx="2.5" ry="2"/><ellipse class="cls-1" cx="182.5" cy="2" rx="2.5" ry="2"/><ellipse class="cls-1" cx="182.5" cy="6" rx="2.5" ry="2"/><ellipse class="cls-1" cx="182.5" cy="10" rx="2.5" ry="2"/><ellipse class="cls-2" cx="182.5" cy="14" rx="2.5" ry="2"/><ellipse class="cls-1" cx="182.5" cy="18" rx="2.5" ry="2"/><ellipse class="cls-1" cx="182.5" cy="22" rx="2.5" ry="2"/><ellipse class="cls-1" cx="177.5" cy="2" rx="2.5" ry="2"/><ellipse class="cls-1" cx="177.5" cy="6" rx="2.5" ry="2"/><ellipse class="cls-1" cx="177.5" cy="10" rx="2.5" ry="2"/><ellipse class="cls-1" cx="177.5" cy="14" rx="2.5" ry="2"/><ellipse class="cls-1" cx="177.5" cy="18" rx="2.5" ry="2"/><ellipse class="cls-1" cx="177.5" cy="22" rx="2.5" ry="2"/><ellipse class="cls-1" cx="172.5" cy="2" rx="2.5" ry="2"/><ellipse class="cls-1" cx="172.5" cy="6" rx="2.5" ry="2"/><ellipse class="cls-1" cx="172.5" cy="10" rx="2.5" ry="2"/><ellipse class="cls-1" cx="172.5" cy="14" rx="2.5" ry="2"/><ellipse class="cls-1" cx="172.5" cy="18" rx="2.5" ry="2"/><ellipse class="cls-1" cx="172.5" cy="22" rx="2.5" ry="2"/><ellipse class="cls-1" cx="197.5" cy="2" rx="2.5" ry="2"/><ellipse class="cls-1" cx="197.5" cy="6" rx="2.5" ry="2"/><ellipse class="cls-1" cx="197.5" cy="10" rx="2.5" ry="2"/><ellipse class="cls-2" cx="197.5" cy="14" rx="2.5" ry="2"/><ellipse class="cls-1" cx="197.5" cy="18" rx="2.5" ry="2"/><ellipse class="cls-1" cx="197.5" cy="22" rx="2.5" ry="2"/><ellipse class="cls-1" cx="192.5" cy="2" rx="2.5" ry="2"/><ellipse class="cls-1" cx="192.5" cy="6" rx="2.5" ry="2"/><ellipse class="cls-1" cx="192.5" cy="10" rx="2.5" ry="2"/><ellipse class="cls-1" cx="192.5" cy="14" rx="2.5" ry="2"/><ellipse class="cls-1" cx="192.5" cy="18" rx="2.5" ry="2"/><ellipse class="cls-1" cx="192.5" cy="22" rx="2.5" ry="2"/><ellipse class="cls-1" cx="187.5" cy="2" rx="2.5" ry="2"/><ellipse class="cls-1" cx="187.5" cy="6" rx="2.5" ry="2"/><ellipse class="cls-1" cx="187.5" cy="10" rx="2.5" ry="2"/><ellipse class="cls-1" cx="187.5" cy="14" rx="2.5" ry="2"/><ellipse class="cls-1" cx="187.5" cy="18" rx="2.5" ry="2"/><ellipse class="cls-1" cx="187.5" cy="22" rx="2.5" ry="2"/><ellipse class="cls-1" cx="212.5" cy="2" rx="2.5" ry="2"/><ellipse class="cls-1" cx="212.5" cy="6" rx="2.5" ry="2"/><ellipse class="cls-1" cx="212.5" cy="10" rx="2.5" ry="2"/><ellipse class="cls-2" cx="212.5" cy="14" rx="2.5" ry="2"/><ellipse class="cls-1" cx="212.5" cy="18" rx="2.5" ry="2"/><ellipse class="cls-1" cx="212.5" cy="22" rx="2.5" ry="2"/><ellipse class="cls-1" cx="207.5" cy="2" rx="2.5" ry="2"/><ellipse class="cls-1" cx="207.5" cy="6" rx="2.5" ry="2"/><ellipse class="cls-1" cx="207.5" cy="10" rx="2.5" ry="2"/><ellipse class="cls-1" cx="207.5" cy="14" rx="2.5" ry="2"/><ellipse class="cls-1" cx="207.5" cy="18" rx="2.5" ry="2"/><ellipse class="cls-1" cx="207.5" cy="22" rx="2.5" ry="2"/><ellipse class="cls-1" cx="202.5" cy="2" rx="2.5" ry="2"/><ellipse class="cls-1" cx="202.5" cy="6" rx="2.5" ry="2"/><ellipse class="cls-1" cx="202.5" cy="10" rx="2.5" ry="2"/><ellipse class="cls-1" cx="202.5" cy="14" rx="2.5" ry="2"/><ellipse class="cls-1" cx="202.5" cy="18" rx="2.5" ry="2"/><ellipse class="cls-1" cx="202.5" cy="22" rx="2.5" ry="2"/><ellipse class="cls-1" cx="227.5" cy="2" rx="2.5" ry="2"/><ellipse class="cls-1" cx="227.5" cy="6" rx="2.5" ry="2"/><ellipse class="cls-1" cx="227.5" cy="10" rx="2.5" ry="2"/><ellipse class="cls-2" cx="227.5" cy="14" rx="2.5" ry="2"/><ellipse class="cls-1" cx="227.5" cy="18" rx="2.5" ry="2"/><ellipse class="cls-1" cx="227.5" cy="22" rx="2.5" ry="2"/><ellipse class="cls-1" cx="222.5" cy="2" rx="2.5" ry="2"/><ellipse class="cls-1" cx="222.5" cy="6" rx="2.5" ry="2"/><ellipse class="cls-1" cx="222.5" cy="10" rx="2.5" ry="2"/><ellipse class="cls-1" cx="222.5" cy="14" rx="2.5" ry="2"/><ellipse class="cls-1" cx="222.5" cy="18" rx="2.5" ry="2"/><ellipse class="cls-1" cx="222.5" cy="22" rx="2.5" ry="2"/><ellipse class="cls-1" cx="217.5" cy="2" rx="2.5" ry="2"/><ellipse class="cls-1" cx="217.5" cy="6" rx="2.5" ry="2"/><ellipse class="cls-1" cx="217.5" cy="10" rx="2.5" ry="2"/><ellipse class="cls-1" cx="217.5" cy="14" rx="2.5" ry="2"/><ellipse class="cls-1" cx="217.5" cy="18" rx="2.5" ry="2"/><ellipse class="cls-1" cx="217.5" cy="22" rx="2.5" ry="2"/><ellipse class="cls-1" cx="232.5" cy="2" rx="2.5" ry="2"/><ellipse class="cls-1" cx="232.5" cy="6" rx="2.5" ry="2"/><ellipse class="cls-1" cx="232.5" cy="10" rx="2.5" ry="2"/><ellipse class="cls-2" cx="232.5" cy="14" rx="2.5" ry="2"/><ellipse class="cls-1" cx="232.5" cy="18" rx="2.5" ry="2"/><ellipse class="cls-1" cx="232.5" cy="22" rx="2.5" ry="2"/><ellipse class="cls-1" cx="247.5" cy="2" rx="2.5" ry="2"/><ellipse class="cls-1" cx="247.5" cy="6" rx="2.5" ry="2"/><ellipse class="cls-1" cx="247.5" cy="10" rx="2.5" ry="2"/><ellipse class="cls-2" cx="247.5" cy="14" rx="2.5" ry="2"/><ellipse class="cls-1" cx="247.5" cy="18" rx="2.5" ry="2"/><ellipse class="cls-1" cx="247.5" cy="22" rx="2.5" ry="2"/><ellipse class="cls-1" cx="242.5" cy="2" rx="2.5" ry="2"/><ellipse class="cls-1" cx="242.5" cy="6" rx="2.5" ry="2"/><ellipse class="cls-1" cx="242.5" cy="10" rx="2.5" ry="2"/><ellipse class="cls-1" cx="242.5" cy="14" rx="2.5" ry="2"/><ellipse class="cls-1" cx="242.5" cy="18" rx="2.5" ry="2"/><ellipse class="cls-1" cx="242.5" cy="22" rx="2.5" ry="2"/><ellipse class="cls-1" cx="237.5" cy="2" rx="2.5" ry="2"/><ellipse class="cls-1" cx="237.5" cy="6" rx="2.5" ry="2"/><ellipse class="cls-1" cx="237.5" cy="10" rx="2.5" ry="2"/><ellipse class="cls-1" cx="237.5" cy="14" rx="2.5" ry="2"/><ellipse class="cls-1" cx="237.5" cy="18" rx="2.5" ry="2"/><ellipse class="cls-1" cx="237.5" cy="22" rx="2.5" ry="2"/><ellipse class="cls-1" cx="252.5" cy="2" rx="2.5" ry="2"/><ellipse class="cls-1" cx="252.5" cy="6" rx="2.5" ry="2"/><ellipse class="cls-1" cx="252.5" cy="10" rx="2.5" ry="2"/><ellipse class="cls-2" cx="252.5" cy="14" rx="2.5" ry="2"/><ellipse class="cls-1" cx="252.5" cy="18" rx="2.5" ry="2"/><ellipse class="cls-1" cx="252.5" cy="22" rx="2.5" ry="2"/><ellipse class="cls-1" cx="267.5" cy="2" rx="2.5" ry="2"/><ellipse class="cls-1" cx="267.5" cy="6" rx="2.5" ry="2"/><ellipse class="cls-1" cx="267.5" cy="10" rx="2.5" ry="2"/><ellipse class="cls-2" cx="267.5" cy="14" rx="2.5" ry="2"/><ellipse class="cls-1" cx="267.5" cy="18" rx="2.5" ry="2"/><ellipse class="cls-1" cx="267.5" cy="22" rx="2.5" ry="2"/><ellipse class="cls-1" cx="262.5" cy="2" rx="2.5" ry="2"/><ellipse class="cls-1" cx="262.5" cy="6" rx="2.5" ry="2"/><ellipse class="cls-1" cx="262.5" cy="10" rx="2.5" ry="2"/><ellipse class="cls-1" cx="262.5" cy="14" rx="2.5" ry="2"/><ellipse class="cls-1" cx="262.5" cy="18" rx="2.5" ry="2"/><ellipse class="cls-1" cx="262.5" cy="22" rx="2.5" ry="2"/><ellipse class="cls-1" cx="257.5" cy="2" rx="2.5" ry="2"/><ellipse class="cls-1" cx="257.5" cy="6" rx="2.5" ry="2"/><ellipse class="cls-1" cx="257.5" cy="10" rx="2.5" ry="2"/><ellipse class="cls-1" cx="257.5" cy="14" rx="2.5" ry="2"/><ellipse class="cls-1" cx="257.5" cy="18" rx="2.5" ry="2"/><ellipse class="cls-1" cx="257.5" cy="22" rx="2.5" ry="2"/><ellipse class="cls-1" cx="272.5" cy="2" rx="2.5" ry="2"/><ellipse class="cls-1" cx="272.5" cy="6" rx="2.5" ry="2"/><ellipse class="cls-1" cx="272.5" cy="10" rx="2.5" ry="2"/><ellipse class="cls-2" cx="272.5" cy="14" rx="2.5" ry="2"/><ellipse class="cls-1" cx="272.5" cy="18" rx="2.5" ry="2"/><ellipse class="cls-1" cx="272.5" cy="22" rx="2.5" ry="2"/><ellipse class="cls-1" cx="287.5" cy="2" rx="2.5" ry="2"/><ellipse class="cls-1" cx="287.5" cy="6" rx="2.5" ry="2"/><ellipse class="cls-1" cx="287.5" cy="10" rx="2.5" ry="2"/><ellipse class="cls-2" cx="287.5" cy="14" rx="2.5" ry="2"/><ellipse class="cls-1" cx="287.5" cy="18" rx="2.5" ry="2"/><ellipse class="cls-1" cx="287.5" cy="22" rx="2.5" ry="2"/><ellipse class="cls-1" cx="282.5" cy="2" rx="2.5" ry="2"/><ellipse class="cls-1" cx="282.5" cy="6" rx="2.5" ry="2"/><ellipse class="cls-1" cx="282.5" cy="10" rx="2.5" ry="2"/><ellipse class="cls-1" cx="282.5" cy="14" rx="2.5" ry="2"/><ellipse class="cls-1" cx="282.5" cy="18" rx="2.5" ry="2"/><ellipse class="cls-1" cx="282.5" cy="22" rx="2.5" ry="2"/><ellipse class="cls-1" cx="277.5" cy="2" rx="2.5" ry="2"/><ellipse class="cls-1" cx="277.5" cy="6" rx="2.5" ry="2"/><ellipse class="cls-1" cx="277.5" cy="10" rx="2.5" ry="2"/><ellipse class="cls-1" cx="277.5" cy="14" rx="2.5" ry="2"/><ellipse class="cls-1" cx="277.5" cy="18" rx="2.5" ry="2"/><ellipse class="cls-1" cx="277.5" cy="22" rx="2.5" ry="2"/><ellipse class="cls-1" cx="12.5" cy="26" rx="2.5" ry="2"/><ellipse class="cls-1" cx="12.5" cy="30" rx="2.5" ry="2"/><ellipse class="cls-1" cx="12.5" cy="34" rx="2.5" ry="2"/><ellipse class="cls-2" cx="12.5" cy="38" rx="2.5" ry="2"/><ellipse class="cls-1" cx="12.5" cy="42" rx="2.5" ry="2"/><ellipse class="cls-1" cx="12.5" cy="46" rx="2.5" ry="2"/><ellipse class="cls-1" cx="7.5" cy="26" rx="2.5" ry="2"/><ellipse class="cls-1" cx="7.5" cy="30" rx="2.5" ry="2"/><ellipse class="cls-1" cx="7.5" cy="34" rx="2.5" ry="2"/><ellipse class="cls-1" cx="7.5" cy="38" rx="2.5" ry="2"/><ellipse class="cls-1" cx="7.5" cy="42" rx="2.5" ry="2"/><ellipse class="cls-1" cx="7.5" cy="46" rx="2.5" ry="2"/><ellipse class="cls-1" cx="2.5" cy="26" rx="2.5" ry="2"/><ellipse class="cls-1" cx="2.5" cy="30" rx="2.5" ry="2"/><ellipse class="cls-1" cx="2.5" cy="34" rx="2.5" ry="2"/><ellipse class="cls-1" cx="2.5" cy="38" rx="2.5" ry="2"/><ellipse class="cls-1" cx="2.5" cy="42" rx="2.5" ry="2"/><ellipse class="cls-1" cx="2.5" cy="46" rx="2.5" ry="2"/><ellipse class="cls-1" cx="27.5" cy="26" rx="2.5" ry="2"/><ellipse class="cls-1" cx="27.5" cy="30" rx="2.5" ry="2"/><ellipse class="cls-1" cx="27.5" cy="34" rx="2.5" ry="2"/><ellipse class="cls-2" cx="27.5" cy="38" rx="2.5" ry="2"/><ellipse class="cls-1" cx="27.5" cy="42" rx="2.5" ry="2"/><ellipse class="cls-1" cx="27.5" cy="46" rx="2.5" ry="2"/><ellipse class="cls-1" cx="22.5" cy="26" rx="2.5" ry="2"/><ellipse class="cls-1" cx="22.5" cy="30" rx="2.5" ry="2"/><ellipse class="cls-1" cx="22.5" cy="34" rx="2.5" ry="2"/><ellipse class="cls-1" cx="22.5" cy="38" rx="2.5" ry="2"/><ellipse class="cls-1" cx="22.5" cy="42" rx="2.5" ry="2"/><ellipse class="cls-1" cx="22.5" cy="46" rx="2.5" ry="2"/><ellipse class="cls-1" cx="17.5" cy="26" rx="2.5" ry="2"/><ellipse class="cls-1" cx="17.5" cy="30" rx="2.5" ry="2"/><ellipse class="cls-1" cx="17.5" cy="34" rx="2.5" ry="2"/><ellipse class="cls-1" cx="17.5" cy="38" rx="2.5" ry="2"/><ellipse class="cls-1" cx="17.5" cy="42" rx="2.5" ry="2"/><ellipse class="cls-1" cx="17.5" cy="46" rx="2.5" ry="2"/><ellipse class="cls-1" cx="42.5" cy="26" rx="2.5" ry="2"/><ellipse class="cls-1" cx="42.5" cy="30" rx="2.5" ry="2"/><ellipse class="cls-1" cx="42.5" cy="34" rx="2.5" ry="2"/><ellipse class="cls-2" cx="42.5" cy="38" rx="2.5" ry="2"/><ellipse class="cls-1" cx="42.5" cy="42" rx="2.5" ry="2"/><ellipse class="cls-1" cx="42.5" cy="46" rx="2.5" ry="2"/><ellipse class="cls-1" cx="37.5" cy="26" rx="2.5" ry="2"/><ellipse class="cls-1" cx="37.5" cy="30" rx="2.5" ry="2"/><ellipse class="cls-1" cx="37.5" cy="34" rx="2.5" ry="2"/><ellipse class="cls-1" cx="37.5" cy="38" rx="2.5" ry="2"/><ellipse class="cls-1" cx="37.5" cy="42" rx="2.5" ry="2"/><ellipse class="cls-1" cx="37.5" cy="46" rx="2.5" ry="2"/><ellipse class="cls-1" cx="32.5" cy="26" rx="2.5" ry="2"/><ellipse class="cls-1" cx="32.5" cy="30" rx="2.5" ry="2"/><ellipse class="cls-1" cx="32.5" cy="34" rx="2.5" ry="2"/><ellipse class="cls-1" cx="32.5" cy="38" rx="2.5" ry="2"/><ellipse class="cls-1" cx="32.5" cy="42" rx="2.5" ry="2"/><ellipse class="cls-1" cx="32.5" cy="46" rx="2.5" ry="2"/><ellipse class="cls-1" cx="57.5" cy="26" rx="2.5" ry="2"/><ellipse class="cls-1" cx="57.5" cy="30" rx="2.5" ry="2"/><ellipse class="cls-1" cx="57.5" cy="34" rx="2.5" ry="2"/><ellipse class="cls-2" cx="57.5" cy="38" rx="2.5" ry="2"/><ellipse class="cls-1" cx="57.5" cy="42" rx="2.5" ry="2"/><ellipse class="cls-1" cx="57.5" cy="46" rx="2.5" ry="2"/><ellipse class="cls-1" cx="52.5" cy="26" rx="2.5" ry="2"/><ellipse class="cls-1" cx="52.5" cy="30" rx="2.5" ry="2"/><ellipse class="cls-1" cx="52.5" cy="34" rx="2.5" ry="2"/><ellipse class="cls-1" cx="52.5" cy="38" rx="2.5" ry="2"/><ellipse class="cls-1" cx="52.5" cy="42" rx="2.5" ry="2"/><ellipse class="cls-1" cx="52.5" cy="46" rx="2.5" ry="2"/><ellipse class="cls-1" cx="47.5" cy="26" rx="2.5" ry="2"/><ellipse class="cls-1" cx="47.5" cy="30" rx="2.5" ry="2"/><ellipse class="cls-1" cx="47.5" cy="34" rx="2.5" ry="2"/><ellipse class="cls-1" cx="47.5" cy="38" rx="2.5" ry="2"/><ellipse class="cls-1" cx="47.5" cy="42" rx="2.5" ry="2"/><ellipse class="cls-1" cx="47.5" cy="46" rx="2.5" ry="2"/><ellipse class="cls-1" cx="72.5" cy="26" rx="2.5" ry="2"/><ellipse class="cls-1" cx="72.5" cy="30" rx="2.5" ry="2"/><ellipse class="cls-1" cx="72.5" cy="34" rx="2.5" ry="2"/><ellipse class="cls-2" cx="72.5" cy="38" rx="2.5" ry="2"/><ellipse class="cls-1" cx="72.5" cy="42" rx="2.5" ry="2"/><ellipse class="cls-1" cx="72.5" cy="46" rx="2.5" ry="2"/><ellipse class="cls-1" cx="67.5" cy="26" rx="2.5" ry="2"/><ellipse class="cls-1" cx="67.5" cy="30" rx="2.5" ry="2"/><ellipse class="cls-1" cx="67.5" cy="34" rx="2.5" ry="2"/><ellipse class="cls-1" cx="67.5" cy="38" rx="2.5" ry="2"/><ellipse class="cls-1" cx="67.5" cy="42" rx="2.5" ry="2"/><ellipse class="cls-1" cx="67.5" cy="46" rx="2.5" ry="2"/><ellipse class="cls-1" cx="62.5" cy="26" rx="2.5" ry="2"/><ellipse class="cls-1" cx="62.5" cy="30" rx="2.5" ry="2"/><ellipse class="cls-1" cx="62.5" cy="34" rx="2.5" ry="2"/><ellipse class="cls-1" cx="62.5" cy="38" rx="2.5" ry="2"/><ellipse class="cls-1" cx="62.5" cy="42" rx="2.5" ry="2"/><ellipse class="cls-1" cx="62.5" cy="46" rx="2.5" ry="2"/><ellipse class="cls-1" cx="77.5" cy="26" rx="2.5" ry="2"/><ellipse class="cls-1" cx="77.5" cy="30" rx="2.5" ry="2"/><ellipse class="cls-1" cx="77.5" cy="34" rx="2.5" ry="2"/><ellipse class="cls-2" cx="77.5" cy="38" rx="2.5" ry="2"/><ellipse class="cls-1" cx="77.5" cy="42" rx="2.5" ry="2"/><ellipse class="cls-1" cx="77.5" cy="46" rx="2.5" ry="2"/><ellipse class="cls-1" cx="92.5" cy="26" rx="2.5" ry="2"/><ellipse class="cls-1" cx="92.5" cy="30" rx="2.5" ry="2"/><ellipse class="cls-1" cx="92.5" cy="34" rx="2.5" ry="2"/><ellipse class="cls-2" cx="92.5" cy="38" rx="2.5" ry="2"/><ellipse class="cls-1" cx="92.5" cy="42" rx="2.5" ry="2"/><ellipse class="cls-1" cx="92.5" cy="46" rx="2.5" ry="2"/><ellipse class="cls-1" cx="87.5" cy="26" rx="2.5" ry="2"/><ellipse class="cls-1" cx="87.5" cy="30" rx="2.5" ry="2"/><ellipse class="cls-1" cx="87.5" cy="34" rx="2.5" ry="2"/><ellipse class="cls-1" cx="87.5" cy="38" rx="2.5" ry="2"/><ellipse class="cls-1" cx="87.5" cy="42" rx="2.5" ry="2"/><ellipse class="cls-1" cx="87.5" cy="46" rx="2.5" ry="2"/><ellipse class="cls-1" cx="82.5" cy="26" rx="2.5" ry="2"/><ellipse class="cls-1" cx="82.5" cy="30" rx="2.5" ry="2"/><ellipse class="cls-1" cx="82.5" cy="34" rx="2.5" ry="2"/><ellipse class="cls-1" cx="82.5" cy="38" rx="2.5" ry="2"/><ellipse class="cls-1" cx="82.5" cy="42" rx="2.5" ry="2"/><ellipse class="cls-1" cx="82.5" cy="46" rx="2.5" ry="2"/><ellipse class="cls-1" cx="97.5" cy="26" rx="2.5" ry="2"/><ellipse class="cls-1" cx="97.5" cy="30" rx="2.5" ry="2"/><ellipse class="cls-1" cx="97.5" cy="34" rx="2.5" ry="2"/><ellipse class="cls-2" cx="97.5" cy="38" rx="2.5" ry="2"/><ellipse class="cls-1" cx="97.5" cy="42" rx="2.5" ry="2"/><ellipse class="cls-1" cx="97.5" cy="46" rx="2.5" ry="2"/><ellipse class="cls-1" cx="112.5" cy="26" rx="2.5" ry="2"/><ellipse class="cls-1" cx="112.5" cy="30" rx="2.5" ry="2"/><ellipse class="cls-1" cx="112.5" cy="34" rx="2.5" ry="2"/><ellipse class="cls-2" cx="112.5" cy="38" rx="2.5" ry="2"/><ellipse class="cls-1" cx="112.5" cy="42" rx="2.5" ry="2"/><ellipse class="cls-1" cx="112.5" cy="46" rx="2.5" ry="2"/><ellipse class="cls-1" cx="107.5" cy="26" rx="2.5" ry="2"/><ellipse class="cls-1" cx="107.5" cy="30" rx="2.5" ry="2"/><ellipse class="cls-1" cx="107.5" cy="34" rx="2.5" ry="2"/><ellipse class="cls-1" cx="107.5" cy="38" rx="2.5" ry="2"/><ellipse class="cls-1" cx="107.5" cy="42" rx="2.5" ry="2"/><ellipse class="cls-1" cx="107.5" cy="46" rx="2.5" ry="2"/><ellipse class="cls-1" cx="102.5" cy="26" rx="2.5" ry="2"/><ellipse class="cls-1" cx="102.5" cy="30" rx="2.5" ry="2"/><ellipse class="cls-1" cx="102.5" cy="34" rx="2.5" ry="2"/><ellipse class="cls-1" cx="102.5" cy="38" rx="2.5" ry="2"/><ellipse class="cls-1" cx="102.5" cy="42" rx="2.5" ry="2"/><ellipse class="cls-1" cx="102.5" cy="46" rx="2.5" ry="2"/><ellipse class="cls-1" cx="117.5" cy="26" rx="2.5" ry="2"/><ellipse class="cls-1" cx="117.5" cy="30" rx="2.5" ry="2"/><ellipse class="cls-1" cx="117.5" cy="34" rx="2.5" ry="2"/><ellipse class="cls-2" cx="117.5" cy="38" rx="2.5" ry="2"/><ellipse class="cls-1" cx="117.5" cy="42" rx="2.5" ry="2"/><ellipse class="cls-1" cx="117.5" cy="46" rx="2.5" ry="2"/><ellipse class="cls-1" cx="132.5" cy="26" rx="2.5" ry="2"/><ellipse class="cls-1" cx="132.5" cy="30" rx="2.5" ry="2"/><ellipse class="cls-1" cx="132.5" cy="34" rx="2.5" ry="2"/><ellipse class="cls-2" cx="132.5" cy="38" rx="2.5" ry="2"/><ellipse class="cls-1" cx="132.5" cy="42" rx="2.5" ry="2"/><ellipse class="cls-1" cx="132.5" cy="46" rx="2.5" ry="2"/><ellipse class="cls-1" cx="127.5" cy="26" rx="2.5" ry="2"/><ellipse class="cls-1" cx="127.5" cy="30" rx="2.5" ry="2"/><ellipse class="cls-1" cx="127.5" cy="34" rx="2.5" ry="2"/><ellipse class="cls-1" cx="127.5" cy="38" rx="2.5" ry="2"/><ellipse class="cls-1" cx="127.5" cy="42" rx="2.5" ry="2"/><ellipse class="cls-1" cx="127.5" cy="46" rx="2.5" ry="2"/><ellipse class="cls-1" cx="122.5" cy="26" rx="2.5" ry="2"/><ellipse class="cls-1" cx="122.5" cy="30" rx="2.5" ry="2"/><ellipse class="cls-1" cx="122.5" cy="34" rx="2.5" ry="2"/><ellipse class="cls-1" cx="122.5" cy="38" rx="2.5" ry="2"/><ellipse class="cls-1" cx="122.5" cy="42" rx="2.5" ry="2"/><ellipse class="cls-1" cx="122.5" cy="46" rx="2.5" ry="2"/><ellipse class="cls-1" cx="137.5" cy="26" rx="2.5" ry="2"/><ellipse class="cls-1" cx="137.5" cy="30" rx="2.5" ry="2"/><ellipse class="cls-1" cx="137.5" cy="34" rx="2.5" ry="2"/><ellipse class="cls-2" cx="137.5" cy="38" rx="2.5" ry="2"/><ellipse class="cls-1" cx="137.5" cy="42" rx="2.5" ry="2"/><ellipse class="cls-1" cx="137.5" cy="46" rx="2.5" ry="2"/><ellipse class="cls-1" cx="152.5" cy="26" rx="2.5" ry="2"/><ellipse class="cls-1" cx="152.5" cy="30" rx="2.5" ry="2"/><ellipse class="cls-1" cx="152.5" cy="34" rx="2.5" ry="2"/><ellipse class="cls-2" cx="152.5" cy="38" rx="2.5" ry="2"/><ellipse class="cls-1" cx="152.5" cy="42" rx="2.5" ry="2"/><ellipse class="cls-1" cx="152.5" cy="46" rx="2.5" ry="2"/><ellipse class="cls-1" cx="147.5" cy="26" rx="2.5" ry="2"/><ellipse class="cls-1" cx="147.5" cy="30" rx="2.5" ry="2"/><ellipse class="cls-1" cx="147.5" cy="34" rx="2.5" ry="2"/><ellipse class="cls-1" cx="147.5" cy="38" rx="2.5" ry="2"/><ellipse class="cls-1" cx="147.5" cy="42" rx="2.5" ry="2"/><ellipse class="cls-1" cx="147.5" cy="46" rx="2.5" ry="2"/><ellipse class="cls-1" cx="142.5" cy="26" rx="2.5" ry="2"/><ellipse class="cls-1" cx="142.5" cy="30" rx="2.5" ry="2"/><ellipse class="cls-1" cx="142.5" cy="34" rx="2.5" ry="2"/><ellipse class="cls-1" cx="142.5" cy="38" rx="2.5" ry="2"/><ellipse class="cls-1" cx="142.5" cy="42" rx="2.5" ry="2"/><ellipse class="cls-1" cx="142.5" cy="46" rx="2.5" ry="2"/><ellipse class="cls-1" cx="167.5" cy="26" rx="2.5" ry="2"/><ellipse class="cls-1" cx="167.5" cy="30" rx="2.5" ry="2"/><ellipse class="cls-1" cx="167.5" cy="34" rx="2.5" ry="2"/><ellipse class="cls-2" cx="167.5" cy="38" rx="2.5" ry="2"/><ellipse class="cls-1" cx="167.5" cy="42" rx="2.5" ry="2"/><ellipse class="cls-1" cx="167.5" cy="46" rx="2.5" ry="2"/><ellipse class="cls-1" cx="162.5" cy="26" rx="2.5" ry="2"/><ellipse class="cls-1" cx="162.5" cy="30" rx="2.5" ry="2"/><ellipse class="cls-1" cx="162.5" cy="34" rx="2.5" ry="2"/><ellipse class="cls-1" cx="162.5" cy="38" rx="2.5" ry="2"/><ellipse class="cls-1" cx="162.5" cy="42" rx="2.5" ry="2"/><ellipse class="cls-1" cx="162.5" cy="46" rx="2.5" ry="2"/><ellipse class="cls-1" cx="157.5" cy="26" rx="2.5" ry="2"/><ellipse class="cls-1" cx="157.5" cy="30" rx="2.5" ry="2"/><ellipse class="cls-1" cx="157.5" cy="34" rx="2.5" ry="2"/><ellipse class="cls-1" cx="157.5" cy="38" rx="2.5" ry="2"/><ellipse class="cls-1" cx="157.5" cy="42" rx="2.5" ry="2"/><ellipse class="cls-1" cx="157.5" cy="46" rx="2.5" ry="2"/><ellipse class="cls-1" cx="182.5" cy="26" rx="2.5" ry="2"/><ellipse class="cls-1" cx="182.5" cy="30" rx="2.5" ry="2"/><ellipse class="cls-1" cx="182.5" cy="34" rx="2.5" ry="2"/><ellipse class="cls-2" cx="182.5" cy="38" rx="2.5" ry="2"/><ellipse class="cls-1" cx="182.5" cy="42" rx="2.5" ry="2"/><ellipse class="cls-1" cx="182.5" cy="46" rx="2.5" ry="2"/><ellipse class="cls-1" cx="177.5" cy="26" rx="2.5" ry="2"/><ellipse class="cls-1" cx="177.5" cy="30" rx="2.5" ry="2"/><ellipse class="cls-1" cx="177.5" cy="34" rx="2.5" ry="2"/><ellipse class="cls-1" cx="177.5" cy="38" rx="2.5" ry="2"/><ellipse class="cls-1" cx="177.5" cy="42" rx="2.5" ry="2"/><ellipse class="cls-1" cx="177.5" cy="46" rx="2.5" ry="2"/><ellipse class="cls-1" cx="172.5" cy="26" rx="2.5" ry="2"/><ellipse class="cls-1" cx="172.5" cy="30" rx="2.5" ry="2"/><ellipse class="cls-1" cx="172.5" cy="34" rx="2.5" ry="2"/><ellipse class="cls-1" cx="172.5" cy="38" rx="2.5" ry="2"/><ellipse class="cls-1" cx="172.5" cy="42" rx="2.5" ry="2"/><ellipse class="cls-1" cx="172.5" cy="46" rx="2.5" ry="2"/><ellipse class="cls-1" cx="197.5" cy="26" rx="2.5" ry="2"/><ellipse class="cls-1" cx="197.5" cy="30" rx="2.5" ry="2"/><ellipse class="cls-1" cx="197.5" cy="34" rx="2.5" ry="2"/><ellipse class="cls-2" cx="197.5" cy="38" rx="2.5" ry="2"/><ellipse class="cls-1" cx="197.5" cy="42" rx="2.5" ry="2"/><ellipse class="cls-1" cx="197.5" cy="46" rx="2.5" ry="2"/><ellipse class="cls-1" cx="192.5" cy="26" rx="2.5" ry="2"/><ellipse class="cls-1" cx="192.5" cy="30" rx="2.5" ry="2"/><ellipse class="cls-1" cx="192.5" cy="34" rx="2.5" ry="2"/><ellipse class="cls-1" cx="192.5" cy="38" rx="2.5" ry="2"/><ellipse class="cls-1" cx="192.5" cy="42" rx="2.5" ry="2"/><ellipse class="cls-1" cx="192.5" cy="46" rx="2.5" ry="2"/><ellipse class="cls-1" cx="187.5" cy="26" rx="2.5" ry="2"/><ellipse class="cls-1" cx="187.5" cy="30" rx="2.5" ry="2"/><ellipse class="cls-1" cx="187.5" cy="34" rx="2.5" ry="2"/><ellipse class="cls-1" cx="187.5" cy="38" rx="2.5" ry="2"/><ellipse class="cls-1" cx="187.5" cy="42" rx="2.5" ry="2"/><ellipse class="cls-1" cx="187.5" cy="46" rx="2.5" ry="2"/><ellipse class="cls-1" cx="212.5" cy="26" rx="2.5" ry="2"/><ellipse class="cls-1" cx="212.5" cy="30" rx="2.5" ry="2"/><ellipse class="cls-1" cx="212.5" cy="34" rx="2.5" ry="2"/><ellipse class="cls-2" cx="212.5" cy="38" rx="2.5" ry="2"/><ellipse class="cls-1" cx="212.5" cy="42" rx="2.5" ry="2"/><ellipse class="cls-1" cx="212.5" cy="46" rx="2.5" ry="2"/><ellipse class="cls-1" cx="207.5" cy="26" rx="2.5" ry="2"/><ellipse class="cls-1" cx="207.5" cy="30" rx="2.5" ry="2"/><ellipse class="cls-1" cx="207.5" cy="34" rx="2.5" ry="2"/><ellipse class="cls-1" cx="207.5" cy="38" rx="2.5" ry="2"/><ellipse class="cls-1" cx="207.5" cy="42" rx="2.5" ry="2"/><ellipse class="cls-1" cx="207.5" cy="46" rx="2.5" ry="2"/><ellipse class="cls-1" cx="202.5" cy="26" rx="2.5" ry="2"/><ellipse class="cls-1" cx="202.5" cy="30" rx="2.5" ry="2"/><ellipse class="cls-1" cx="202.5" cy="34" rx="2.5" ry="2"/><ellipse class="cls-1" cx="202.5" cy="38" rx="2.5" ry="2"/><ellipse class="cls-1" cx="202.5" cy="42" rx="2.5" ry="2"/><ellipse class="cls-1" cx="202.5" cy="46" rx="2.5" ry="2"/><ellipse class="cls-1" cx="227.5" cy="26" rx="2.5" ry="2"/><ellipse class="cls-1" cx="227.5" cy="30" rx="2.5" ry="2"/><ellipse class="cls-1" cx="227.5" cy="34" rx="2.5" ry="2"/><ellipse class="cls-2" cx="227.5" cy="38" rx="2.5" ry="2"/><ellipse class="cls-1" cx="227.5" cy="42" rx="2.5" ry="2"/><ellipse class="cls-1" cx="227.5" cy="46" rx="2.5" ry="2"/><ellipse class="cls-1" cx="222.5" cy="26" rx="2.5" ry="2"/><ellipse class="cls-1" cx="222.5" cy="30" rx="2.5" ry="2"/><ellipse class="cls-1" cx="222.5" cy="34" rx="2.5" ry="2"/><ellipse class="cls-1" cx="222.5" cy="38" rx="2.5" ry="2"/><ellipse class="cls-1" cx="222.5" cy="42" rx="2.5" ry="2"/><ellipse class="cls-1" cx="222.5" cy="46" rx="2.5" ry="2"/><ellipse class="cls-1" cx="217.5" cy="26" rx="2.5" ry="2"/><ellipse class="cls-1" cx="217.5" cy="30" rx="2.5" ry="2"/><ellipse class="cls-1" cx="217.5" cy="34" rx="2.5" ry="2"/><ellipse class="cls-1" cx="217.5" cy="38" rx="2.5" ry="2"/><ellipse class="cls-1" cx="217.5" cy="42" rx="2.5" ry="2"/><ellipse class="cls-1" cx="217.5" cy="46" rx="2.5" ry="2"/><ellipse class="cls-1" cx="232.5" cy="26" rx="2.5" ry="2"/><ellipse class="cls-1" cx="232.5" cy="30" rx="2.5" ry="2"/><ellipse class="cls-1" cx="232.5" cy="34" rx="2.5" ry="2"/><ellipse class="cls-2" cx="232.5" cy="38" rx="2.5" ry="2"/><ellipse class="cls-1" cx="232.5" cy="42" rx="2.5" ry="2"/><ellipse class="cls-1" cx="232.5" cy="46" rx="2.5" ry="2"/><ellipse class="cls-1" cx="247.5" cy="26" rx="2.5" ry="2"/><ellipse class="cls-1" cx="247.5" cy="30" rx="2.5" ry="2"/><ellipse class="cls-1" cx="247.5" cy="34" rx="2.5" ry="2"/><ellipse class="cls-2" cx="247.5" cy="38" rx="2.5" ry="2"/><ellipse class="cls-1" cx="247.5" cy="42" rx="2.5" ry="2"/><ellipse class="cls-1" cx="247.5" cy="46" rx="2.5" ry="2"/><ellipse class="cls-1" cx="242.5" cy="26" rx="2.5" ry="2"/><ellipse class="cls-1" cx="242.5" cy="30" rx="2.5" ry="2"/><ellipse class="cls-1" cx="242.5" cy="34" rx="2.5" ry="2"/><ellipse class="cls-1" cx="242.5" cy="38" rx="2.5" ry="2"/><ellipse class="cls-1" cx="242.5" cy="42" rx="2.5" ry="2"/><ellipse class="cls-1" cx="242.5" cy="46" rx="2.5" ry="2"/><ellipse class="cls-1" cx="237.5" cy="26" rx="2.5" ry="2"/><ellipse class="cls-1" cx="237.5" cy="30" rx="2.5" ry="2"/><ellipse class="cls-1" cx="237.5" cy="34" rx="2.5" ry="2"/><ellipse class="cls-1" cx="237.5" cy="38" rx="2.5" ry="2"/><ellipse class="cls-1" cx="237.5" cy="42" rx="2.5" ry="2"/><ellipse class="cls-1" cx="237.5" cy="46" rx="2.5" ry="2"/><ellipse class="cls-1" cx="252.5" cy="26" rx="2.5" ry="2"/><ellipse class="cls-1" cx="252.5" cy="30" rx="2.5" ry="2"/><ellipse class="cls-1" cx="252.5" cy="34" rx="2.5" ry="2"/><ellipse class="cls-2" cx="252.5" cy="38" rx="2.5" ry="2"/><ellipse class="cls-1" cx="252.5" cy="42" rx="2.5" ry="2"/><ellipse class="cls-1" cx="252.5" cy="46" rx="2.5" ry="2"/><ellipse class="cls-1" cx="267.5" cy="26" rx="2.5" ry="2"/><ellipse class="cls-1" cx="267.5" cy="30" rx="2.5" ry="2"/><ellipse class="cls-1" cx="267.5" cy="34" rx="2.5" ry="2"/><ellipse class="cls-2" cx="267.5" cy="38" rx="2.5" ry="2"/><ellipse class="cls-1" cx="267.5" cy="42" rx="2.5" ry="2"/><ellipse class="cls-1" cx="267.5" cy="46" rx="2.5" ry="2"/><ellipse class="cls-1" cx="262.5" cy="26" rx="2.5" ry="2"/><ellipse class="cls-1" cx="262.5" cy="30" rx="2.5" ry="2"/><ellipse class="cls-1" cx="262.5" cy="34" rx="2.5" ry="2"/><ellipse class="cls-1" cx="262.5" cy="38" rx="2.5" ry="2"/><ellipse class="cls-1" cx="262.5" cy="42" rx="2.5" ry="2"/><ellipse class="cls-1" cx="262.5" cy="46" rx="2.5" ry="2"/><ellipse class="cls-1" cx="257.5" cy="26" rx="2.5" ry="2"/><ellipse class="cls-1" cx="257.5" cy="30" rx="2.5" ry="2"/><ellipse class="cls-1" cx="257.5" cy="34" rx="2.5" ry="2"/><ellipse class="cls-1" cx="257.5" cy="38" rx="2.5" ry="2"/><ellipse class="cls-1" cx="257.5" cy="42" rx="2.5" ry="2"/><ellipse class="cls-1" cx="257.5" cy="46" rx="2.5" ry="2"/><ellipse class="cls-1" cx="272.5" cy="26" rx="2.5" ry="2"/><ellipse class="cls-1" cx="272.5" cy="30" rx="2.5" ry="2"/><ellipse class="cls-1" cx="272.5" cy="34" rx="2.5" ry="2"/><ellipse class="cls-2" cx="272.5" cy="38" rx="2.5" ry="2"/><ellipse class="cls-1" cx="272.5" cy="42" rx="2.5" ry="2"/><ellipse class="cls-1" cx="272.5" cy="46" rx="2.5" ry="2"/><ellipse class="cls-1" cx="287.5" cy="26" rx="2.5" ry="2"/><ellipse class="cls-1" cx="287.5" cy="30" rx="2.5" ry="2"/><ellipse class="cls-1" cx="287.5" cy="34" rx="2.5" ry="2"/><ellipse class="cls-2" cx="287.5" cy="38" rx="2.5" ry="2"/><ellipse class="cls-1" cx="287.5" cy="42" rx="2.5" ry="2"/><ellipse class="cls-1" cx="287.5" cy="46" rx="2.5" ry="2"/><ellipse class="cls-1" cx="282.5" cy="26" rx="2.5" ry="2"/><ellipse class="cls-1" cx="282.5" cy="30" rx="2.5" ry="2"/><ellipse class="cls-1" cx="282.5" cy="34" rx="2.5" ry="2"/><ellipse class="cls-1" cx="282.5" cy="38" rx="2.5" ry="2"/><ellipse class="cls-1" cx="282.5" cy="42" rx="2.5" ry="2"/><ellipse class="cls-1" cx="282.5" cy="46" rx="2.5" ry="2"/><ellipse class="cls-1" cx="277.5" cy="26" rx="2.5" ry="2"/><ellipse class="cls-1" cx="277.5" cy="30" rx="2.5" ry="2"/><ellipse class="cls-1" cx="277.5" cy="34" rx="2.5" ry="2"/><ellipse class="cls-1" cx="277.5" cy="38" rx="2.5" ry="2"/><ellipse class="cls-1" cx="277.5" cy="42" rx="2.5" ry="2"/><ellipse class="cls-1" cx="277.5" cy="46" rx="2.5" ry="2"/></svg>