<svg id="Layer_1" data-name="Layer 1" xmlns="http://www.w3.org/2000/svg" viewBox="0 0 24 620"><defs><style>.cls-1,.cls-11,.cls-12,.cls-3,.cls-4,.cls-6,.cls-9{fill:#fffdfd;}.cls-10,.cls-13,.cls-2,.cls-5,.cls-7,.cls-8{fill:#e6e6e6;}.cls-10,.cls-3{opacity:0.6;}.cls-4,.cls-5{opacity:0.7;}.cls-6,.cls-7{opacity:0.3;}.cls-8,.cls-9{opacity:0.5;}.cls-11,.cls-13{opacity:0.2;}.cls-12{opacity:0;}</style></defs><title>dots</title><ellipse class="cls-1" cx="2" cy="607.5" rx="2" ry="2.5"/><ellipse class="cls-1" cx="6" cy="607.5" rx="2" ry="2.5"/><ellipse class="cls-1" cx="10" cy="607.5" rx="2" ry="2.5"/><ellipse class="cls-2" cx="14" cy="607.5" rx="2" ry="2.5"/><ellipse class="cls-1" cx="18" cy="607.5" rx="2" ry="2.5"/><ellipse class="cls-1" cx="22" cy="607.5" rx="2" ry="2.5"/><ellipse class="cls-1" cx="2" cy="612.5" rx="2" ry="2.5"/><ellipse class="cls-1" cx="6" cy="612.5" rx="2" ry="2.5"/><ellipse class="cls-1" cx="10" cy="612.5" rx="2" ry="2.5"/><ellipse class="cls-1" cx="14" cy="612.5" rx="2" ry="2.5"/><ellipse class="cls-1" cx="18" cy="612.5" rx="2" ry="2.5"/><ellipse class="cls-1" cx="22" cy="612.5" rx="2" ry="2.5"/><ellipse class="cls-1" cx="2" cy="617.5" rx="2" ry="2.5"/><ellipse class="cls-1" cx="6" cy="617.5" rx="2" ry="2.5"/><ellipse class="cls-1" cx="10" cy="617.5" rx="2" ry="2.5"/><ellipse class="cls-1" cx="14" cy="617.5" rx="2" ry="2.5"/><ellipse class="cls-1" cx="18" cy="617.5" rx="2" ry="2.5"/><ellipse class="cls-1" cx="22" cy="617.5" rx="2" ry="2.5"/><ellipse class="cls-1" cx="2" cy="592.5" rx="2" ry="2.5"/><ellipse class="cls-1" cx="6" cy="592.5" rx="2" ry="2.5"/><ellipse class="cls-1" cx="10" cy="592.5" rx="2" ry="2.5"/><ellipse class="cls-2" cx="14" cy="592.5" rx="2" ry="2.5"/><ellipse class="cls-1" cx="18" cy="592.5" rx="2" ry="2.5"/><ellipse class="cls-1" cx="22" cy="592.5" rx="2" ry="2.5"/><ellipse class="cls-1" cx="2" cy="597.5" rx="2" ry="2.5"/><ellipse class="cls-1" cx="6" cy="597.5" rx="2" ry="2.5"/><ellipse class="cls-1" cx="10" cy="597.5" rx="2" ry="2.5"/><ellipse class="cls-1" cx="14" cy="597.5" rx="2" ry="2.5"/><ellipse class="cls-1" cx="18" cy="597.5" rx="2" ry="2.5"/><ellipse class="cls-1" cx="22" cy="597.5" rx="2" ry="2.5"/><ellipse class="cls-1" cx="2" cy="602.5" rx="2" ry="2.5"/><ellipse class="cls-1" cx="6" cy="602.5" rx="2" ry="2.5"/><ellipse class="cls-1" cx="10" cy="602.5" rx="2" ry="2.5"/><ellipse class="cls-1" cx="14" cy="602.5" rx="2" ry="2.5"/><ellipse class="cls-1" cx="18" cy="602.5" rx="2" ry="2.5"/><ellipse class="cls-1" cx="22" cy="602.5" rx="2" ry="2.5"/><ellipse class="cls-1" cx="2" cy="577.5" rx="2" ry="2.5"/><ellipse class="cls-1" cx="6" cy="577.5" rx="2" ry="2.5"/><ellipse class="cls-1" cx="10" cy="577.5" rx="2" ry="2.5"/><ellipse class="cls-2" cx="14" cy="577.5" rx="2" ry="2.5"/><ellipse class="cls-1" cx="18" cy="577.5" rx="2" ry="2.5"/><ellipse class="cls-1" cx="22" cy="577.5" rx="2" ry="2.5"/><ellipse class="cls-1" cx="2" cy="582.5" rx="2" ry="2.5"/><ellipse class="cls-1" cx="6" cy="582.5" rx="2" ry="2.5"/><ellipse class="cls-1" cx="10" cy="582.5" rx="2" ry="2.5"/><ellipse class="cls-1" cx="14" cy="582.5" rx="2" ry="2.5"/><ellipse class="cls-1" cx="18" cy="582.5" rx="2" ry="2.5"/><ellipse class="cls-1" cx="22" cy="582.5" rx="2" ry="2.5"/><ellipse class="cls-1" cx="2" cy="587.5" rx="2" ry="2.5"/><ellipse class="cls-1" cx="6" cy="587.5" rx="2" ry="2.5"/><ellipse class="cls-1" cx="10" cy="587.5" rx="2" ry="2.5"/><ellipse class="cls-1" cx="14" cy="587.5" rx="2" ry="2.5"/><ellipse class="cls-1" cx="18" cy="587.5" rx="2" ry="2.5"/><ellipse class="cls-1" cx="22" cy="587.5" rx="2" ry="2.5"/><ellipse class="cls-1" cx="2" cy="562.5" rx="2" ry="2.5"/><ellipse class="cls-1" cx="6" cy="562.5" rx="2" ry="2.5"/><ellipse class="cls-1" cx="10" cy="562.5" rx="2" ry="2.5"/><ellipse class="cls-2" cx="14" cy="562.5" rx="2" ry="2.5"/><ellipse class="cls-1" cx="18" cy="562.5" rx="2" ry="2.5"/><ellipse class="cls-1" cx="22" cy="562.5" rx="2" ry="2.5"/><ellipse class="cls-1" cx="2" cy="567.5" rx="2" ry="2.5"/><ellipse class="cls-1" cx="6" cy="567.5" rx="2" ry="2.5"/><ellipse class="cls-1" cx="10" cy="567.5" rx="2" ry="2.5"/><ellipse class="cls-1" cx="14" cy="567.5" rx="2" ry="2.5"/><ellipse class="cls-1" cx="18" cy="567.5" rx="2" ry="2.5"/><ellipse class="cls-1" cx="22" cy="567.5" rx="2" ry="2.5"/><ellipse class="cls-1" cx="2" cy="572.5" rx="2" ry="2.5"/><ellipse class="cls-1" cx="6" cy="572.5" rx="2" ry="2.5"/><ellipse class="cls-1" cx="10" cy="572.5" rx="2" ry="2.5"/><ellipse class="cls-1" cx="14" cy="572.5" rx="2" ry="2.5"/><ellipse class="cls-1" cx="18" cy="572.5" rx="2" ry="2.5"/><ellipse class="cls-1" cx="22" cy="572.5" rx="2" ry="2.5"/><ellipse class="cls-1" cx="2" cy="547.5" rx="2" ry="2.5"/><ellipse class="cls-1" cx="6" cy="547.5" rx="2" ry="2.5"/><ellipse class="cls-1" cx="10" cy="547.5" rx="2" ry="2.5"/><ellipse class="cls-2" cx="14" cy="547.5" rx="2" ry="2.5"/><ellipse class="cls-1" cx="18" cy="547.5" rx="2" ry="2.5"/><ellipse class="cls-1" cx="22" cy="547.5" rx="2" ry="2.5"/><ellipse class="cls-1" cx="2" cy="552.5" rx="2" ry="2.5"/><ellipse class="cls-1" cx="6" cy="552.5" rx="2" ry="2.5"/><ellipse class="cls-1" cx="10" cy="552.5" rx="2" ry="2.5"/><ellipse class="cls-1" cx="14" cy="552.5" rx="2" ry="2.5"/><ellipse class="cls-1" cx="18" cy="552.5" rx="2" ry="2.5"/><ellipse class="cls-1" cx="22" cy="552.5" rx="2" ry="2.5"/><ellipse class="cls-1" cx="2" cy="557.5" rx="2" ry="2.5"/><ellipse class="cls-1" cx="6" cy="557.5" rx="2" ry="2.5"/><ellipse class="cls-1" cx="10" cy="557.5" rx="2" ry="2.5"/><ellipse class="cls-1" cx="14" cy="557.5" rx="2" ry="2.5"/><ellipse class="cls-1" cx="18" cy="557.5" rx="2" ry="2.5"/><ellipse class="cls-1" cx="22" cy="557.5" rx="2" ry="2.5"/><ellipse class="cls-1" cx="2" cy="542.5" rx="2" ry="2.5"/><ellipse class="cls-1" cx="6" cy="542.5" rx="2" ry="2.5"/><ellipse class="cls-1" cx="10" cy="542.5" rx="2" ry="2.5"/><ellipse class="cls-2" cx="14" cy="542.5" rx="2" ry="2.5"/><ellipse class="cls-1" cx="18" cy="542.5" rx="2" ry="2.5"/><ellipse class="cls-1" cx="22" cy="542.5" rx="2" ry="2.5"/><ellipse class="cls-1" cx="2" cy="527.5" rx="2" ry="2.5"/><ellipse class="cls-1" cx="6" cy="527.5" rx="2" ry="2.5"/><ellipse class="cls-1" cx="10" cy="527.5" rx="2" ry="2.5"/><ellipse class="cls-2" cx="14" cy="527.5" rx="2" ry="2.5"/><ellipse class="cls-1" cx="18" cy="527.5" rx="2" ry="2.5"/><ellipse class="cls-1" cx="22" cy="527.5" rx="2" ry="2.5"/><ellipse class="cls-1" cx="2" cy="532.5" rx="2" ry="2.5"/><ellipse class="cls-1" cx="6" cy="532.5" rx="2" ry="2.5"/><ellipse class="cls-1" cx="10" cy="532.5" rx="2" ry="2.5"/><ellipse class="cls-1" cx="14" cy="532.5" rx="2" ry="2.5"/><ellipse class="cls-1" cx="18" cy="532.5" rx="2" ry="2.5"/><ellipse class="cls-1" cx="22" cy="532.5" rx="2" ry="2.5"/><ellipse class="cls-1" cx="2" cy="537.5" rx="2" ry="2.5"/><ellipse class="cls-1" cx="6" cy="537.5" rx="2" ry="2.5"/><ellipse class="cls-1" cx="10" cy="537.5" rx="2" ry="2.5"/><ellipse class="cls-1" cx="14" cy="537.5" rx="2" ry="2.5"/><ellipse class="cls-1" cx="18" cy="537.5" rx="2" ry="2.5"/><ellipse class="cls-1" cx="22" cy="537.5" rx="2" ry="2.5"/><ellipse class="cls-1" cx="2" cy="522.5" rx="2" ry="2.5"/><ellipse class="cls-1" cx="6" cy="522.5" rx="2" ry="2.5"/><ellipse class="cls-1" cx="10" cy="522.5" rx="2" ry="2.5"/><ellipse class="cls-2" cx="14" cy="522.5" rx="2" ry="2.5"/><ellipse class="cls-1" cx="18" cy="522.5" rx="2" ry="2.5"/><ellipse class="cls-1" cx="22" cy="522.5" rx="2" ry="2.5"/><ellipse class="cls-1" cx="2" cy="507.5" rx="2" ry="2.5"/><ellipse class="cls-1" cx="6" cy="507.5" rx="2" ry="2.5"/><ellipse class="cls-1" cx="10" cy="507.5" rx="2" ry="2.5"/><ellipse class="cls-2" cx="14" cy="507.5" rx="2" ry="2.5"/><ellipse class="cls-1" cx="18" cy="507.5" rx="2" ry="2.5"/><ellipse class="cls-1" cx="22" cy="507.5" rx="2" ry="2.5"/><ellipse class="cls-1" cx="2" cy="512.5" rx="2" ry="2.5"/><ellipse class="cls-1" cx="6" cy="512.5" rx="2" ry="2.5"/><ellipse class="cls-1" cx="10" cy="512.5" rx="2" ry="2.5"/><ellipse class="cls-1" cx="14" cy="512.5" rx="2" ry="2.5"/><ellipse class="cls-1" cx="18" cy="512.5" rx="2" ry="2.5"/><ellipse class="cls-1" cx="22" cy="512.5" rx="2" ry="2.5"/><ellipse class="cls-1" cx="2" cy="517.5" rx="2" ry="2.5"/><ellipse class="cls-1" cx="6" cy="517.5" rx="2" ry="2.5"/><ellipse class="cls-1" cx="10" cy="517.5" rx="2" ry="2.5"/><ellipse class="cls-1" cx="14" cy="517.5" rx="2" ry="2.5"/><ellipse class="cls-1" cx="18" cy="517.5" rx="2" ry="2.5"/><ellipse class="cls-1" cx="22" cy="517.5" rx="2" ry="2.5"/><ellipse class="cls-1" cx="2" cy="502.5" rx="2" ry="2.5"/><ellipse class="cls-1" cx="6" cy="502.5" rx="2" ry="2.5"/><ellipse class="cls-1" cx="10" cy="502.5" rx="2" ry="2.5"/><ellipse class="cls-2" cx="14" cy="502.5" rx="2" ry="2.5"/><ellipse class="cls-1" cx="18" cy="502.5" rx="2" ry="2.5"/><ellipse class="cls-1" cx="22" cy="502.5" rx="2" ry="2.5"/><ellipse class="cls-1" cx="2" cy="487.5" rx="2" ry="2.5"/><ellipse class="cls-1" cx="6" cy="487.5" rx="2" ry="2.5"/><ellipse class="cls-1" cx="10" cy="487.5" rx="2" ry="2.5"/><ellipse class="cls-2" cx="14" cy="487.5" rx="2" ry="2.5"/><ellipse class="cls-1" cx="18" cy="487.5" rx="2" ry="2.5"/><ellipse class="cls-1" cx="22" cy="487.5" rx="2" ry="2.5"/><ellipse class="cls-1" cx="2" cy="492.5" rx="2" ry="2.5"/><ellipse class="cls-1" cx="6" cy="492.5" rx="2" ry="2.5"/><ellipse class="cls-1" cx="10" cy="492.5" rx="2" ry="2.5"/><ellipse class="cls-1" cx="14" cy="492.5" rx="2" ry="2.5"/><ellipse class="cls-1" cx="18" cy="492.5" rx="2" ry="2.5"/><ellipse class="cls-1" cx="22" cy="492.5" rx="2" ry="2.5"/><ellipse class="cls-1" cx="2" cy="497.5" rx="2" ry="2.5"/><ellipse class="cls-1" cx="6" cy="497.5" rx="2" ry="2.5"/><ellipse class="cls-1" cx="10" cy="497.5" rx="2" ry="2.5"/><ellipse class="cls-1" cx="14" cy="497.5" rx="2" ry="2.5"/><ellipse class="cls-1" cx="18" cy="497.5" rx="2" ry="2.5"/><ellipse class="cls-1" cx="22" cy="497.5" rx="2" ry="2.5"/><ellipse class="cls-1" cx="2" cy="482.5" rx="2" ry="2.5"/><ellipse class="cls-1" cx="6" cy="482.5" rx="2" ry="2.5"/><ellipse class="cls-1" cx="10" cy="482.5" rx="2" ry="2.5"/><ellipse class="cls-2" cx="14" cy="482.5" rx="2" ry="2.5"/><ellipse class="cls-1" cx="18" cy="482.5" rx="2" ry="2.5"/><ellipse class="cls-1" cx="22" cy="482.5" rx="2" ry="2.5"/><ellipse class="cls-1" cx="2" cy="467.5" rx="2" ry="2.5"/><ellipse class="cls-1" cx="6" cy="467.5" rx="2" ry="2.5"/><ellipse class="cls-1" cx="10" cy="467.5" rx="2" ry="2.5"/><ellipse class="cls-2" cx="14" cy="467.5" rx="2" ry="2.5"/><ellipse class="cls-1" cx="18" cy="467.5" rx="2" ry="2.5"/><ellipse class="cls-1" cx="22" cy="467.5" rx="2" ry="2.5"/><ellipse class="cls-1" cx="2" cy="472.5" rx="2" ry="2.5"/><ellipse class="cls-1" cx="6" cy="472.5" rx="2" ry="2.5"/><ellipse class="cls-1" cx="10" cy="472.5" rx="2" ry="2.5"/><ellipse class="cls-1" cx="14" cy="472.5" rx="2" ry="2.5"/><ellipse class="cls-1" cx="18" cy="472.5" rx="2" ry="2.5"/><ellipse class="cls-1" cx="22" cy="472.5" rx="2" ry="2.5"/><ellipse class="cls-1" cx="2" cy="477.5" rx="2" ry="2.5"/><ellipse class="cls-1" cx="6" cy="477.5" rx="2" ry="2.5"/><ellipse class="cls-1" cx="10" cy="477.5" rx="2" ry="2.5"/><ellipse class="cls-1" cx="14" cy="477.5" rx="2" ry="2.5"/><ellipse class="cls-1" cx="18" cy="477.5" rx="2" ry="2.5"/><ellipse class="cls-1" cx="22" cy="477.5" rx="2" ry="2.5"/><ellipse class="cls-1" cx="2" cy="452.5" rx="2" ry="2.5"/><ellipse class="cls-1" cx="6" cy="452.5" rx="2" ry="2.5"/><ellipse class="cls-1" cx="10" cy="452.5" rx="2" ry="2.5"/><ellipse class="cls-2" cx="14" cy="452.5" rx="2" ry="2.5"/><ellipse class="cls-1" cx="18" cy="452.5" rx="2" ry="2.5"/><ellipse class="cls-1" cx="22" cy="452.5" rx="2" ry="2.5"/><ellipse class="cls-1" cx="2" cy="457.5" rx="2" ry="2.5"/><ellipse class="cls-1" cx="6" cy="457.5" rx="2" ry="2.5"/><ellipse class="cls-1" cx="10" cy="457.5" rx="2" ry="2.5"/><ellipse class="cls-1" cx="14" cy="457.5" rx="2" ry="2.5"/><ellipse class="cls-1" cx="18" cy="457.5" rx="2" ry="2.5"/><ellipse class="cls-1" cx="22" cy="457.5" rx="2" ry="2.5"/><ellipse class="cls-1" cx="2" cy="462.5" rx="2" ry="2.5"/><ellipse class="cls-1" cx="6" cy="462.5" rx="2" ry="2.5"/><ellipse class="cls-1" cx="10" cy="462.5" rx="2" ry="2.5"/><ellipse class="cls-1" cx="14" cy="462.5" rx="2" ry="2.5"/><ellipse class="cls-1" cx="18" cy="462.5" rx="2" ry="2.5"/><ellipse class="cls-1" cx="22" cy="462.5" rx="2" ry="2.5"/><ellipse class="cls-1" cx="2" cy="437.5" rx="2" ry="2.5"/><ellipse class="cls-1" cx="6" cy="437.5" rx="2" ry="2.5"/><ellipse class="cls-1" cx="10" cy="437.5" rx="2" ry="2.5"/><ellipse class="cls-2" cx="14" cy="437.5" rx="2" ry="2.5"/><ellipse class="cls-1" cx="18" cy="437.5" rx="2" ry="2.5"/><ellipse class="cls-1" cx="22" cy="437.5" rx="2" ry="2.5"/><ellipse class="cls-1" cx="2" cy="442.5" rx="2" ry="2.5"/><ellipse class="cls-1" cx="6" cy="442.5" rx="2" ry="2.5"/><ellipse class="cls-1" cx="10" cy="442.5" rx="2" ry="2.5"/><ellipse class="cls-1" cx="14" cy="442.5" rx="2" ry="2.5"/><ellipse class="cls-1" cx="18" cy="442.5" rx="2" ry="2.5"/><ellipse class="cls-1" cx="22" cy="442.5" rx="2" ry="2.5"/><ellipse class="cls-1" cx="2" cy="447.5" rx="2" ry="2.5"/><ellipse class="cls-1" cx="6" cy="447.5" rx="2" ry="2.5"/><ellipse class="cls-1" cx="10" cy="447.5" rx="2" ry="2.5"/><ellipse class="cls-1" cx="14" cy="447.5" rx="2" ry="2.5"/><ellipse class="cls-1" cx="18" cy="447.5" rx="2" ry="2.5"/><ellipse class="cls-1" cx="22" cy="447.5" rx="2" ry="2.5"/><ellipse class="cls-1" cx="2" cy="422.5" rx="2" ry="2.5"/><ellipse class="cls-1" cx="6" cy="422.5" rx="2" ry="2.5"/><ellipse class="cls-1" cx="10" cy="422.5" rx="2" ry="2.5"/><ellipse class="cls-2" cx="14" cy="422.5" rx="2" ry="2.5"/><ellipse class="cls-1" cx="18" cy="422.5" rx="2" ry="2.5"/><ellipse class="cls-1" cx="22" cy="422.5" rx="2" ry="2.5"/><ellipse class="cls-1" cx="2" cy="427.5" rx="2" ry="2.5"/><ellipse class="cls-1" cx="6" cy="427.5" rx="2" ry="2.5"/><ellipse class="cls-1" cx="10" cy="427.5" rx="2" ry="2.5"/><ellipse class="cls-1" cx="14" cy="427.5" rx="2" ry="2.5"/><ellipse class="cls-1" cx="18" cy="427.5" rx="2" ry="2.5"/><ellipse class="cls-1" cx="22" cy="427.5" rx="2" ry="2.5"/><ellipse class="cls-1" cx="2" cy="432.5" rx="2" ry="2.5"/><ellipse class="cls-1" cx="6" cy="432.5" rx="2" ry="2.5"/><ellipse class="cls-1" cx="10" cy="432.5" rx="2" ry="2.5"/><ellipse class="cls-1" cx="14" cy="432.5" rx="2" ry="2.5"/><ellipse class="cls-1" cx="18" cy="432.5" rx="2" ry="2.5"/><ellipse class="cls-1" cx="22" cy="432.5" rx="2" ry="2.5"/><ellipse class="cls-1" cx="2" cy="407.5" rx="2" ry="2.5"/><ellipse class="cls-1" cx="6" cy="407.5" rx="2" ry="2.5"/><ellipse class="cls-1" cx="10" cy="407.5" rx="2" ry="2.5"/><ellipse class="cls-2" cx="14" cy="407.5" rx="2" ry="2.5"/><ellipse class="cls-1" cx="18" cy="407.5" rx="2" ry="2.5"/><ellipse class="cls-1" cx="22" cy="407.5" rx="2" ry="2.5"/><ellipse class="cls-1" cx="2" cy="412.5" rx="2" ry="2.5"/><ellipse class="cls-1" cx="6" cy="412.5" rx="2" ry="2.5"/><ellipse class="cls-1" cx="10" cy="412.5" rx="2" ry="2.5"/><ellipse class="cls-1" cx="14" cy="412.5" rx="2" ry="2.5"/><ellipse class="cls-1" cx="18" cy="412.5" rx="2" ry="2.5"/><ellipse class="cls-1" cx="22" cy="412.5" rx="2" ry="2.5"/><ellipse class="cls-1" cx="2" cy="417.5" rx="2" ry="2.5"/><ellipse class="cls-1" cx="6" cy="417.5" rx="2" ry="2.5"/><ellipse class="cls-1" cx="10" cy="417.5" rx="2" ry="2.5"/><ellipse class="cls-1" cx="14" cy="417.5" rx="2" ry="2.5"/><ellipse class="cls-1" cx="18" cy="417.5" rx="2" ry="2.5"/><ellipse class="cls-1" cx="22" cy="417.5" rx="2" ry="2.5"/><ellipse class="cls-1" cx="2" cy="392.5" rx="2" ry="2.5"/><ellipse class="cls-1" cx="6" cy="392.5" rx="2" ry="2.5"/><ellipse class="cls-1" cx="10" cy="392.5" rx="2" ry="2.5"/><ellipse class="cls-2" cx="14" cy="392.5" rx="2" ry="2.5"/><ellipse class="cls-1" cx="18" cy="392.5" rx="2" ry="2.5"/><ellipse class="cls-1" cx="22" cy="392.5" rx="2" ry="2.5"/><ellipse class="cls-1" cx="2" cy="397.5" rx="2" ry="2.5"/><ellipse class="cls-1" cx="6" cy="397.5" rx="2" ry="2.5"/><ellipse class="cls-1" cx="10" cy="397.5" rx="2" ry="2.5"/><ellipse class="cls-1" cx="14" cy="397.5" rx="2" ry="2.5"/><ellipse class="cls-1" cx="18" cy="397.5" rx="2" ry="2.5"/><ellipse class="cls-1" cx="22" cy="397.5" rx="2" ry="2.5"/><ellipse class="cls-1" cx="2" cy="402.5" rx="2" ry="2.5"/><ellipse class="cls-1" cx="6" cy="402.5" rx="2" ry="2.5"/><ellipse class="cls-1" cx="10" cy="402.5" rx="2" ry="2.5"/><ellipse class="cls-1" cx="14" cy="402.5" rx="2" ry="2.5"/><ellipse class="cls-1" cx="18" cy="402.5" rx="2" ry="2.5"/><ellipse class="cls-1" cx="22" cy="402.5" rx="2" ry="2.5"/><ellipse class="cls-1" cx="2" cy="387.5" rx="2" ry="2.5"/><ellipse class="cls-1" cx="6" cy="387.5" rx="2" ry="2.5"/><ellipse class="cls-1" cx="10" cy="387.5" rx="2" ry="2.5"/><ellipse class="cls-2" cx="14" cy="387.5" rx="2" ry="2.5"/><ellipse class="cls-1" cx="18" cy="387.5" rx="2" ry="2.5"/><ellipse class="cls-1" cx="22" cy="387.5" rx="2" ry="2.5"/><ellipse class="cls-1" cx="2" cy="372.5" rx="2" ry="2.5"/><ellipse class="cls-1" cx="6" cy="372.5" rx="2" ry="2.5"/><ellipse class="cls-1" cx="10" cy="372.5" rx="2" ry="2.5"/><ellipse class="cls-2" cx="14" cy="372.5" rx="2" ry="2.5"/><ellipse class="cls-1" cx="18" cy="372.5" rx="2" ry="2.5"/><ellipse class="cls-1" cx="22" cy="372.5" rx="2" ry="2.5"/><ellipse class="cls-1" cx="2" cy="377.5" rx="2" ry="2.5"/><ellipse class="cls-1" cx="6" cy="377.5" rx="2" ry="2.5"/><ellipse class="cls-1" cx="10" cy="377.5" rx="2" ry="2.5"/><ellipse class="cls-1" cx="14" cy="377.5" rx="2" ry="2.5"/><ellipse class="cls-1" cx="18" cy="377.5" rx="2" ry="2.5"/><ellipse class="cls-1" cx="22" cy="377.5" rx="2" ry="2.5"/><ellipse class="cls-1" cx="2" cy="382.5" rx="2" ry="2.5"/><ellipse class="cls-1" cx="6" cy="382.5" rx="2" ry="2.5"/><ellipse class="cls-1" cx="10" cy="382.5" rx="2" ry="2.5"/><ellipse class="cls-1" cx="14" cy="382.5" rx="2" ry="2.5"/><ellipse class="cls-1" cx="18" cy="382.5" rx="2" ry="2.5"/><ellipse class="cls-1" cx="22" cy="382.5" rx="2" ry="2.5"/><ellipse class="cls-1" cx="2" cy="367.5" rx="2" ry="2.5"/><ellipse class="cls-1" cx="6" cy="367.5" rx="2" ry="2.5"/><ellipse class="cls-1" cx="10" cy="367.5" rx="2" ry="2.5"/><ellipse class="cls-2" cx="14" cy="367.5" rx="2" ry="2.5"/><ellipse class="cls-1" cx="18" cy="367.5" rx="2" ry="2.5"/><ellipse class="cls-1" cx="22" cy="367.5" rx="2" ry="2.5"/><ellipse class="cls-1" cx="2" cy="352.5" rx="2" ry="2.5"/><ellipse class="cls-1" cx="6" cy="352.5" rx="2" ry="2.5"/><ellipse class="cls-1" cx="10" cy="352.5" rx="2" ry="2.5"/><ellipse class="cls-2" cx="14" cy="352.5" rx="2" ry="2.5"/><ellipse class="cls-1" cx="18" cy="352.5" rx="2" ry="2.5"/><ellipse class="cls-1" cx="22" cy="352.5" rx="2" ry="2.5"/><ellipse class="cls-1" cx="2" cy="357.5" rx="2" ry="2.5"/><ellipse class="cls-1" cx="6" cy="357.5" rx="2" ry="2.5"/><ellipse class="cls-1" cx="10" cy="357.5" rx="2" ry="2.5"/><ellipse class="cls-1" cx="14" cy="357.5" rx="2" ry="2.5"/><ellipse class="cls-1" cx="18" cy="357.5" rx="2" ry="2.5"/><ellipse class="cls-1" cx="22" cy="357.5" rx="2" ry="2.5"/><ellipse class="cls-1" cx="2" cy="362.5" rx="2" ry="2.5"/><ellipse class="cls-1" cx="6" cy="362.5" rx="2" ry="2.5"/><ellipse class="cls-1" cx="10" cy="362.5" rx="2" ry="2.5"/><ellipse class="cls-1" cx="14" cy="362.5" rx="2" ry="2.5"/><ellipse class="cls-1" cx="18" cy="362.5" rx="2" ry="2.5"/><ellipse class="cls-1" cx="22" cy="362.5" rx="2" ry="2.5"/><ellipse class="cls-1" cx="2" cy="347.5" rx="2" ry="2.5"/><ellipse class="cls-1" cx="6" cy="347.5" rx="2" ry="2.5"/><ellipse class="cls-1" cx="10" cy="347.5" rx="2" ry="2.5"/><ellipse class="cls-2" cx="14" cy="347.5" rx="2" ry="2.5"/><ellipse class="cls-1" cx="18" cy="347.5" rx="2" ry="2.5"/><ellipse class="cls-1" cx="22" cy="347.5" rx="2" ry="2.5"/><ellipse class="cls-1" cx="2" cy="332.5" rx="2" ry="2.5"/><ellipse class="cls-1" cx="6" cy="332.5" rx="2" ry="2.5"/><ellipse class="cls-1" cx="10" cy="332.5" rx="2" ry="2.5"/><ellipse class="cls-2" cx="14" cy="332.5" rx="2" ry="2.5"/><ellipse class="cls-1" cx="18" cy="332.5" rx="2" ry="2.5"/><ellipse class="cls-1" cx="22" cy="332.5" rx="2" ry="2.5"/><ellipse class="cls-1" cx="2" cy="337.5" rx="2" ry="2.5"/><ellipse class="cls-1" cx="6" cy="337.5" rx="2" ry="2.5"/><ellipse class="cls-1" cx="10" cy="337.5" rx="2" ry="2.5"/><ellipse class="cls-1" cx="14" cy="337.5" rx="2" ry="2.5"/><ellipse class="cls-1" cx="18" cy="337.5" rx="2" ry="2.5"/><ellipse class="cls-1" cx="22" cy="337.5" rx="2" ry="2.5"/><ellipse class="cls-1" cx="2" cy="342.5" rx="2" ry="2.5"/><ellipse class="cls-1" cx="6" cy="342.5" rx="2" ry="2.5"/><ellipse class="cls-1" cx="10" cy="342.5" rx="2" ry="2.5"/><ellipse class="cls-1" cx="14" cy="342.5" rx="2" ry="2.5"/><ellipse class="cls-1" cx="18" cy="342.5" rx="2" ry="2.5"/><ellipse class="cls-1" cx="22" cy="342.5" rx="2" ry="2.5"/><ellipse class="cls-1" cx="2" cy="327.5" rx="2" ry="2.5"/><ellipse class="cls-1" cx="6" cy="327.5" rx="2" ry="2.5"/><ellipse class="cls-1" cx="10" cy="327.5" rx="2" ry="2.5"/><ellipse class="cls-2" cx="14" cy="327.5" rx="2" ry="2.5"/><ellipse class="cls-1" cx="18" cy="327.5" rx="2" ry="2.5"/><ellipse class="cls-1" cx="22" cy="327.5" rx="2" ry="2.5"/><ellipse class="cls-1" cx="2" cy="312.5" rx="2" ry="2.5"/><ellipse class="cls-1" cx="6" cy="312.5" rx="2" ry="2.5"/><ellipse class="cls-1" cx="10" cy="312.5" rx="2" ry="2.5"/><ellipse class="cls-2" cx="14" cy="312.5" rx="2" ry="2.5"/><ellipse class="cls-1" cx="18" cy="312.5" rx="2" ry="2.5"/><ellipse class="cls-1" cx="22" cy="312.5" rx="2" ry="2.5"/><ellipse class="cls-1" cx="2" cy="317.5" rx="2" ry="2.5"/><ellipse class="cls-1" cx="6" cy="317.5" rx="2" ry="2.5"/><ellipse class="cls-1" cx="10" cy="317.5" rx="2" ry="2.5"/><ellipse class="cls-1" cx="14" cy="317.5" rx="2" ry="2.5"/><ellipse class="cls-1" cx="18" cy="317.5" rx="2" ry="2.5"/><ellipse class="cls-1" cx="22" cy="317.5" rx="2" ry="2.5"/><ellipse class="cls-1" cx="2" cy="322.5" rx="2" ry="2.5"/><ellipse class="cls-1" cx="6" cy="322.5" rx="2" ry="2.5"/><ellipse class="cls-1" cx="10" cy="322.5" rx="2" ry="2.5"/><ellipse class="cls-1" cx="14" cy="322.5" rx="2" ry="2.5"/><ellipse class="cls-1" cx="18" cy="322.5" rx="2" ry="2.5"/><ellipse class="cls-1" cx="22" cy="322.5" rx="2" ry="2.5"/><ellipse class="cls-1" cx="2" cy="297.5" rx="2" ry="2.5"/><ellipse class="cls-1" cx="6" cy="297.5" rx="2" ry="2.5"/><ellipse class="cls-1" cx="10" cy="297.5" rx="2" ry="2.5"/><ellipse class="cls-2" cx="14" cy="297.5" rx="2" ry="2.5"/><ellipse class="cls-1" cx="18" cy="297.5" rx="2" ry="2.5"/><ellipse class="cls-1" cx="22" cy="297.5" rx="2" ry="2.5"/><ellipse class="cls-1" cx="2" cy="302.5" rx="2" ry="2.5"/><ellipse class="cls-1" cx="6" cy="302.5" rx="2" ry="2.5"/><ellipse class="cls-1" cx="10" cy="302.5" rx="2" ry="2.5"/><ellipse class="cls-1" cx="14" cy="302.5" rx="2" ry="2.5"/><ellipse class="cls-1" cx="18" cy="302.5" rx="2" ry="2.5"/><ellipse class="cls-1" cx="22" cy="302.5" rx="2" ry="2.5"/><ellipse class="cls-1" cx="2" cy="307.5" rx="2" ry="2.5"/><ellipse class="cls-1" cx="6" cy="307.5" rx="2" ry="2.5"/><ellipse class="cls-1" cx="10" cy="307.5" rx="2" ry="2.5"/><ellipse class="cls-1" cx="14" cy="307.5" rx="2" ry="2.5"/><ellipse class="cls-1" cx="18" cy="307.5" rx="2" ry="2.5"/><ellipse class="cls-1" cx="22" cy="307.5" rx="2" ry="2.5"/><ellipse class="cls-1" cx="2" cy="282.5" rx="2" ry="2.5"/><ellipse class="cls-1" cx="6" cy="282.5" rx="2" ry="2.5"/><ellipse class="cls-1" cx="10" cy="282.5" rx="2" ry="2.5"/><ellipse class="cls-2" cx="14" cy="282.5" rx="2" ry="2.5"/><ellipse class="cls-1" cx="18" cy="282.5" rx="2" ry="2.5"/><ellipse class="cls-1" cx="22" cy="282.5" rx="2" ry="2.5"/><ellipse class="cls-1" cx="2" cy="287.5" rx="2" ry="2.5"/><ellipse class="cls-3" cx="6" cy="287.5" rx="2" ry="2.5"/><ellipse class="cls-1" cx="10" cy="287.5" rx="2" ry="2.5"/><ellipse class="cls-1" cx="14" cy="287.5" rx="2" ry="2.5"/><ellipse class="cls-1" cx="18" cy="287.5" rx="2" ry="2.5"/><ellipse class="cls-1" cx="22" cy="287.5" rx="2" ry="2.5"/><ellipse class="cls-1" cx="2" cy="292.5" rx="2" ry="2.5"/><ellipse class="cls-1" cx="6" cy="292.5" rx="2" ry="2.5"/><ellipse class="cls-1" cx="10" cy="292.5" rx="2" ry="2.5"/><ellipse class="cls-1" cx="14" cy="292.5" rx="2" ry="2.5"/><ellipse class="cls-1" cx="18" cy="292.5" rx="2" ry="2.5"/><ellipse class="cls-1" cx="22" cy="292.5" rx="2" ry="2.5"/><ellipse class="cls-1" cx="2" cy="267.5" rx="2" ry="2.5"/><ellipse class="cls-3" cx="6" cy="267.5" rx="2" ry="2.5"/><ellipse class="cls-1" cx="10" cy="267.5" rx="2" ry="2.5"/><ellipse class="cls-2" cx="14" cy="267.5" rx="2" ry="2.5"/><ellipse class="cls-1" cx="18" cy="267.5" rx="2" ry="2.5"/><ellipse class="cls-1" cx="22" cy="267.5" rx="2" ry="2.5"/><ellipse class="cls-1" cx="2" cy="272.5" rx="2" ry="2.5"/><ellipse class="cls-3" cx="6" cy="272.5" rx="2" ry="2.5"/><ellipse class="cls-1" cx="10" cy="272.5" rx="2" ry="2.5"/><ellipse class="cls-1" cx="14" cy="272.5" rx="2" ry="2.5"/><ellipse class="cls-1" cx="18" cy="272.5" rx="2" ry="2.5"/><ellipse class="cls-1" cx="22" cy="272.5" rx="2" ry="2.5"/><ellipse class="cls-1" cx="2" cy="277.5" rx="2" ry="2.5"/><ellipse class="cls-1" cx="6" cy="277.5" rx="2" ry="2.5"/><ellipse class="cls-1" cx="10" cy="277.5" rx="2" ry="2.5"/><ellipse class="cls-1" cx="14" cy="277.5" rx="2" ry="2.5"/><ellipse class="cls-3" cx="18" cy="277.5" rx="2" ry="2.5"/><ellipse class="cls-1" cx="22" cy="277.5" rx="2" ry="2.5"/><ellipse class="cls-1" cx="2" cy="252.5" rx="2" ry="2.5"/><ellipse class="cls-1" cx="6" cy="252.5" rx="2" ry="2.5"/><ellipse class="cls-1" cx="10" cy="252.5" rx="2" ry="2.5"/><ellipse class="cls-2" cx="14" cy="252.5" rx="2" ry="2.5"/><ellipse class="cls-1" cx="18" cy="252.5" rx="2" ry="2.5"/><ellipse class="cls-1" cx="22" cy="252.5" rx="2" ry="2.5"/><ellipse class="cls-1" cx="2" cy="257.5" rx="2" ry="2.5"/><ellipse class="cls-1" cx="6" cy="257.5" rx="2" ry="2.5"/><ellipse class="cls-1" cx="10" cy="257.5" rx="2" ry="2.5"/><ellipse class="cls-1" cx="14" cy="257.5" rx="2" ry="2.5"/><ellipse class="cls-1" cx="18" cy="257.5" rx="2" ry="2.5"/><ellipse class="cls-1" cx="22" cy="257.5" rx="2" ry="2.5"/><ellipse class="cls-1" cx="2" cy="262.5" rx="2" ry="2.5"/><ellipse class="cls-1" cx="6" cy="262.5" rx="2" ry="2.5"/><ellipse class="cls-1" cx="10" cy="262.5" rx="2" ry="2.5"/><ellipse class="cls-3" cx="14" cy="262.5" rx="2" ry="2.5"/><ellipse class="cls-1" cx="18" cy="262.5" rx="2" ry="2.5"/><ellipse class="cls-1" cx="22" cy="262.5" rx="2" ry="2.5"/><ellipse class="cls-1" cx="2" cy="237.5" rx="2" ry="2.5"/><ellipse class="cls-1" cx="6" cy="237.5" rx="2" ry="2.5"/><ellipse class="cls-1" cx="10" cy="237.5" rx="2" ry="2.5"/><ellipse class="cls-2" cx="14" cy="237.5" rx="2" ry="2.5"/><ellipse class="cls-3" cx="18" cy="237.5" rx="2" ry="2.5"/><ellipse class="cls-1" cx="22" cy="237.5" rx="2" ry="2.5"/><ellipse class="cls-1" cx="2" cy="242.5" rx="2" ry="2.5"/><ellipse class="cls-1" cx="6" cy="242.5" rx="2" ry="2.5"/><ellipse class="cls-1" cx="10" cy="242.5" rx="2" ry="2.5"/><ellipse class="cls-1" cx="14" cy="242.5" rx="2" ry="2.5"/><ellipse class="cls-1" cx="18" cy="242.5" rx="2" ry="2.5"/><ellipse class="cls-1" cx="22" cy="242.5" rx="2" ry="2.5"/><ellipse class="cls-1" cx="2" cy="247.5" rx="2" ry="2.5"/><ellipse class="cls-3" cx="6" cy="247.5" rx="2" ry="2.5"/><ellipse class="cls-1" cx="10" cy="247.5" rx="2" ry="2.5"/><ellipse class="cls-1" cx="14" cy="247.5" rx="2" ry="2.5"/><ellipse class="cls-1" cx="18" cy="247.5" rx="2" ry="2.5"/><ellipse class="cls-1" cx="22" cy="247.5" rx="2" ry="2.5"/><ellipse class="cls-1" cx="2" cy="232.5" rx="2" ry="2.5"/><ellipse class="cls-1" cx="6" cy="232.5" rx="2" ry="2.5"/><ellipse class="cls-1" cx="10" cy="232.5" rx="2" ry="2.5"/><ellipse class="cls-2" cx="14" cy="232.5" rx="2" ry="2.5"/><ellipse class="cls-1" cx="18" cy="232.5" rx="2" ry="2.5"/><ellipse class="cls-1" cx="22" cy="232.5" rx="2" ry="2.5"/><ellipse class="cls-1" cx="2" cy="217.5" rx="2" ry="2.5"/><ellipse class="cls-1" cx="6" cy="217.5" rx="2" ry="2.5"/><ellipse class="cls-1" cx="10" cy="217.5" rx="2" ry="2.5"/><ellipse class="cls-2" cx="14" cy="217.5" rx="2" ry="2.5"/><ellipse class="cls-1" cx="18" cy="217.5" rx="2" ry="2.5"/><ellipse class="cls-1" cx="22" cy="217.5" rx="2" ry="2.5"/><ellipse class="cls-3" cx="2" cy="222.5" rx="2" ry="2.5"/><ellipse class="cls-1" cx="6" cy="222.5" rx="2" ry="2.5"/><ellipse class="cls-1" cx="10" cy="222.5" rx="2" ry="2.5"/><ellipse class="cls-1" cx="14" cy="222.5" rx="2" ry="2.5"/><ellipse class="cls-1" cx="18" cy="222.5" rx="2" ry="2.5"/><ellipse class="cls-1" cx="22" cy="222.5" rx="2" ry="2.5"/><ellipse class="cls-1" cx="2" cy="227.5" rx="2" ry="2.5"/><ellipse class="cls-1" cx="6" cy="227.5" rx="2" ry="2.5"/><ellipse class="cls-1" cx="10" cy="227.5" rx="2" ry="2.5"/><ellipse class="cls-1" cx="14" cy="227.5" rx="2" ry="2.5"/><ellipse class="cls-1" cx="18" cy="227.5" rx="2" ry="2.5"/><ellipse class="cls-1" cx="22" cy="227.5" rx="2" ry="2.5"/><ellipse class="cls-1" cx="2" cy="212.5" rx="2" ry="2.5"/><ellipse class="cls-1" cx="6" cy="212.5" rx="2" ry="2.5"/><ellipse class="cls-1" cx="10" cy="212.5" rx="2" ry="2.5"/><ellipse class="cls-2" cx="14" cy="212.5" rx="2" ry="2.5"/><ellipse class="cls-1" cx="18" cy="212.5" rx="2" ry="2.5"/><ellipse class="cls-1" cx="22" cy="212.5" rx="2" ry="2.5"/><ellipse class="cls-1" cx="2" cy="197.5" rx="2" ry="2.5"/><ellipse class="cls-3" cx="6" cy="197.5" rx="2" ry="2.5"/><ellipse class="cls-1" cx="10" cy="197.5" rx="2" ry="2.5"/><ellipse class="cls-2" cx="14" cy="197.5" rx="2" ry="2.5"/><ellipse class="cls-1" cx="18" cy="197.5" rx="2" ry="2.5"/><ellipse class="cls-1" cx="22" cy="197.5" rx="2" ry="2.5"/><ellipse class="cls-1" cx="2" cy="202.5" rx="2" ry="2.5"/><ellipse class="cls-1" cx="6" cy="202.5" rx="2" ry="2.5"/><ellipse class="cls-1" cx="10" cy="202.5" rx="2" ry="2.5"/><ellipse class="cls-1" cx="14" cy="202.5" rx="2" ry="2.5"/><ellipse class="cls-1" cx="18" cy="202.5" rx="2" ry="2.5"/><ellipse class="cls-1" cx="22" cy="202.5" rx="2" ry="2.5"/><ellipse class="cls-1" cx="2" cy="207.5" rx="2" ry="2.5"/><ellipse class="cls-1" cx="6" cy="207.5" rx="2" ry="2.5"/><ellipse class="cls-1" cx="10" cy="207.5" rx="2" ry="2.5"/><ellipse class="cls-1" cx="14" cy="207.5" rx="2" ry="2.5"/><ellipse class="cls-3" cx="18" cy="207.5" rx="2" ry="2.5"/><ellipse class="cls-1" cx="22" cy="207.5" rx="2" ry="2.5"/><ellipse class="cls-1" cx="2" cy="192.5" rx="2" ry="2.5"/><ellipse class="cls-1" cx="6" cy="192.5" rx="2" ry="2.5"/><ellipse class="cls-1" cx="10" cy="192.5" rx="2" ry="2.5"/><ellipse class="cls-2" cx="14" cy="192.5" rx="2" ry="2.5"/><ellipse class="cls-1" cx="18" cy="192.5" rx="2" ry="2.5"/><ellipse class="cls-3" cx="22" cy="192.5" rx="2" ry="2.5"/><ellipse class="cls-4" cx="2" cy="177.5" rx="2" ry="2.5"/><ellipse class="cls-4" cx="6" cy="177.5" rx="2" ry="2.5"/><ellipse class="cls-4" cx="10" cy="177.5" rx="2" ry="2.5"/><ellipse class="cls-5" cx="14" cy="177.5" rx="2" ry="2.5"/><ellipse class="cls-1" cx="18" cy="177.5" rx="2" ry="2.5"/><ellipse class="cls-1" cx="22" cy="177.5" rx="2" ry="2.5"/><ellipse class="cls-4" cx="2" cy="182.5" rx="2" ry="2.5"/><ellipse class="cls-4" cx="6" cy="182.5" rx="2" ry="2.5"/><ellipse class="cls-1" cx="10" cy="182.5" rx="2" ry="2.5"/><ellipse class="cls-1" cx="14" cy="182.5" rx="2" ry="2.5"/><ellipse class="cls-1" cx="18" cy="182.5" rx="2" ry="2.5"/><ellipse class="cls-1" cx="22" cy="182.5" rx="2" ry="2.5"/><ellipse class="cls-1" cx="2" cy="187.5" rx="2" ry="2.5"/><ellipse class="cls-1" cx="6" cy="187.5" rx="2" ry="2.5"/><ellipse class="cls-1" cx="10" cy="187.5" rx="2" ry="2.5"/><ellipse class="cls-1" cx="14" cy="187.5" rx="2" ry="2.5"/><ellipse class="cls-1" cx="18" cy="187.5" rx="2" ry="2.5"/><ellipse class="cls-3" cx="22" cy="187.5" rx="2" ry="2.5"/><ellipse class="cls-4" cx="2" cy="172.5" rx="2" ry="2.5"/><ellipse class="cls-4" cx="6" cy="172.5" rx="2" ry="2.5"/><ellipse class="cls-4" cx="10" cy="172.5" rx="2" ry="2.5"/><ellipse class="cls-5" cx="14" cy="172.5" rx="2" ry="2.5"/><ellipse class="cls-4" cx="18" cy="172.5" rx="2" ry="2.5"/><ellipse class="cls-4" cx="22" cy="172.5" rx="2" ry="2.5"/><ellipse class="cls-6" cx="2" cy="157.5" rx="2" ry="2.5"/><ellipse class="cls-6" cx="6" cy="157.5" rx="2" ry="2.5"/><ellipse class="cls-4" cx="10" cy="157.5" rx="2" ry="2.5"/><ellipse class="cls-5" cx="14" cy="157.5" rx="2" ry="2.5"/><ellipse class="cls-4" cx="18" cy="157.5" rx="2" ry="2.5"/><ellipse class="cls-4" cx="22" cy="157.5" rx="2" ry="2.5"/><ellipse class="cls-4" cx="2" cy="162.5" rx="2" ry="2.5"/><ellipse class="cls-6" cx="6" cy="162.5" rx="2" ry="2.5"/><ellipse class="cls-4" cx="10" cy="162.5" rx="2" ry="2.5"/><ellipse class="cls-4" cx="14" cy="162.5" rx="2" ry="2.5"/><ellipse class="cls-4" cx="18" cy="162.5" rx="2" ry="2.5"/><ellipse class="cls-4" cx="22" cy="162.5" rx="2" ry="2.5"/><ellipse class="cls-4" cx="2" cy="167.5" rx="2" ry="2.5"/><ellipse class="cls-4" cx="6" cy="167.5" rx="2" ry="2.5"/><ellipse class="cls-4" cx="10" cy="167.5" rx="2" ry="2.5"/><ellipse class="cls-4" cx="14" cy="167.5" rx="2" ry="2.5"/><ellipse class="cls-4" cx="18" cy="167.5" rx="2" ry="2.5"/><ellipse class="cls-4" cx="22" cy="167.5" rx="2" ry="2.5"/><ellipse class="cls-6" cx="2" cy="142.5" rx="2" ry="2.5"/><ellipse class="cls-6" cx="6" cy="142.5" rx="2" ry="2.5"/><ellipse class="cls-6" cx="10" cy="142.5" rx="2" ry="2.5"/><ellipse class="cls-5" cx="14" cy="142.5" rx="2" ry="2.5"/><ellipse class="cls-4" cx="18" cy="142.5" rx="2" ry="2.5"/><ellipse class="cls-4" cx="22" cy="142.5" rx="2" ry="2.5"/><ellipse class="cls-6" cx="2" cy="147.5" rx="2" ry="2.5"/><ellipse class="cls-6" cx="6" cy="147.5" rx="2" ry="2.5"/><ellipse class="cls-6" cx="10" cy="147.5" rx="2" ry="2.5"/><ellipse class="cls-4" cx="14" cy="147.5" rx="2" ry="2.5"/><ellipse class="cls-4" cx="18" cy="147.5" rx="2" ry="2.5"/><ellipse class="cls-4" cx="22" cy="147.5" rx="2" ry="2.5"/><ellipse class="cls-6" cx="2" cy="152.5" rx="2" ry="2.5"/><ellipse class="cls-6" cx="6" cy="152.5" rx="2" ry="2.5"/><ellipse class="cls-6" cx="10" cy="152.5" rx="2" ry="2.5"/><ellipse class="cls-4" cx="14" cy="152.5" rx="2" ry="2.5"/><ellipse class="cls-4" cx="18" cy="152.5" rx="2" ry="2.5"/><ellipse class="cls-4" cx="22" cy="152.5" rx="2" ry="2.5"/><ellipse class="cls-6" cx="2" cy="127.5" rx="2" ry="2.5"/><ellipse class="cls-6" cx="6" cy="127.5" rx="2" ry="2.5"/><ellipse class="cls-6" cx="10" cy="127.5" rx="2" ry="2.5"/><ellipse class="cls-7" cx="14" cy="127.5" rx="2" ry="2.5"/><ellipse class="cls-4" cx="18" cy="127.5" rx="2" ry="2.5"/><ellipse class="cls-4" cx="22" cy="127.5" rx="2" ry="2.5"/><ellipse class="cls-6" cx="2" cy="132.5" rx="2" ry="2.5"/><ellipse class="cls-6" cx="6" cy="132.5" rx="2" ry="2.5"/><ellipse class="cls-6" cx="10" cy="132.5" rx="2" ry="2.5"/><ellipse class="cls-6" cx="14" cy="132.5" rx="2" ry="2.5"/><ellipse class="cls-4" cx="18" cy="132.5" rx="2" ry="2.5"/><ellipse class="cls-4" cx="22" cy="132.5" rx="2" ry="2.5"/><ellipse class="cls-6" cx="2" cy="137.5" rx="2" ry="2.5"/><ellipse class="cls-6" cx="6" cy="137.5" rx="2" ry="2.5"/><ellipse class="cls-6" cx="10" cy="137.5" rx="2" ry="2.5"/><ellipse class="cls-4" cx="14" cy="137.5" rx="2" ry="2.5"/><ellipse class="cls-4" cx="18" cy="137.5" rx="2" ry="2.5"/><ellipse class="cls-4" cx="22" cy="137.5" rx="2" ry="2.5"/><ellipse class="cls-6" cx="2" cy="112.5" rx="2" ry="2.5"/><ellipse class="cls-6" cx="6" cy="112.5" rx="2" ry="2.5"/><ellipse class="cls-6" cx="10" cy="112.5" rx="2" ry="2.5"/><ellipse class="cls-8" cx="14" cy="112.5" rx="2" ry="2.5"/><ellipse class="cls-6" cx="18" cy="112.5" rx="2" ry="2.5"/><ellipse class="cls-9" cx="22" cy="112.5" rx="2" ry="2.5"/><ellipse class="cls-6" cx="2" cy="117.5" rx="2" ry="2.5"/><ellipse class="cls-6" cx="6" cy="117.5" rx="2" ry="2.5"/><ellipse class="cls-6" cx="10" cy="117.5" rx="2" ry="2.5"/><ellipse class="cls-9" cx="14" cy="117.5" rx="2" ry="2.5"/><ellipse class="cls-6" cx="18" cy="117.5" rx="2" ry="2.5"/><ellipse class="cls-4" cx="22" cy="117.5" rx="2" ry="2.5"/><ellipse class="cls-6" cx="2" cy="122.5" rx="2" ry="2.5"/><ellipse class="cls-6" cx="6" cy="122.5" rx="2" ry="2.5"/><ellipse class="cls-6" cx="10" cy="122.5" rx="2" ry="2.5"/><ellipse class="cls-6" cx="14" cy="122.5" rx="2" ry="2.5"/><ellipse class="cls-6" cx="18" cy="122.5" rx="2" ry="2.5"/><ellipse class="cls-4" cx="22" cy="122.5" rx="2" ry="2.5"/><ellipse class="cls-6" cx="2" cy="97.5" rx="2" ry="2.5"/><ellipse class="cls-6" cx="6" cy="97.5" rx="2" ry="2.5"/><ellipse class="cls-6" cx="10" cy="97.5" rx="2" ry="2.5"/><ellipse class="cls-7" cx="14" cy="97.5" rx="2" ry="2.5"/><ellipse class="cls-9" cx="18" cy="97.5" rx="2" ry="2.5"/><ellipse class="cls-9" cx="22" cy="97.5" rx="2" ry="2.5"/><ellipse class="cls-6" cx="2" cy="102.5" rx="2" ry="2.5"/><ellipse class="cls-6" cx="6" cy="102.5" rx="2" ry="2.5"/><ellipse class="cls-6" cx="10" cy="102.5" rx="2" ry="2.5"/><ellipse class="cls-6" cx="14" cy="102.5" rx="2" ry="2.5"/><ellipse class="cls-9" cx="18" cy="102.5" rx="2" ry="2.5"/><ellipse class="cls-9" cx="22" cy="102.5" rx="2" ry="2.5"/><ellipse class="cls-6" cx="2" cy="107.5" rx="2" ry="2.5"/><ellipse class="cls-6" cx="6" cy="107.5" rx="2" ry="2.5"/><ellipse class="cls-6" cx="10" cy="107.5" rx="2" ry="2.5"/><ellipse class="cls-9" cx="14" cy="107.5" rx="2" ry="2.5"/><ellipse class="cls-6" cx="18" cy="107.5" rx="2" ry="2.5"/><ellipse class="cls-9" cx="22" cy="107.5" rx="2" ry="2.5"/><ellipse class="cls-9" cx="2" cy="82.5" rx="2" ry="2.5"/><ellipse class="cls-9" cx="6" cy="82.5" rx="2" ry="2.5"/><ellipse class="cls-9" cx="10" cy="82.5" rx="2" ry="2.5"/><ellipse class="cls-8" cx="14" cy="82.5" rx="2" ry="2.5"/><ellipse class="cls-9" cx="18" cy="82.5" rx="2" ry="2.5"/><ellipse class="cls-9" cx="22" cy="82.5" rx="2" ry="2.5"/><ellipse class="cls-6" cx="2" cy="87.5" rx="2" ry="2.5"/><ellipse class="cls-9" cx="6" cy="87.5" rx="2" ry="2.5"/><ellipse class="cls-9" cx="10" cy="87.5" rx="2" ry="2.5"/><ellipse class="cls-9" cx="14" cy="87.5" rx="2" ry="2.5"/><ellipse class="cls-9" cx="18" cy="87.5" rx="2" ry="2.5"/><ellipse class="cls-9" cx="22" cy="87.5" rx="2" ry="2.5"/><ellipse class="cls-6" cx="2" cy="92.5" rx="2" ry="2.5"/><ellipse class="cls-6" cx="6" cy="92.5" rx="2" ry="2.5"/><ellipse class="cls-9" cx="10" cy="92.5" rx="2" ry="2.5"/><ellipse class="cls-9" cx="14" cy="92.5" rx="2" ry="2.5"/><ellipse class="cls-9" cx="18" cy="92.5" rx="2" ry="2.5"/><ellipse class="cls-9" cx="22" cy="92.5" rx="2" ry="2.5"/><ellipse class="cls-9" cx="2" cy="77.5" rx="2" ry="2.5"/><ellipse class="cls-9" cx="6" cy="77.5" rx="2" ry="2.5"/><ellipse class="cls-9" cx="10" cy="77.5" rx="2" ry="2.5"/><ellipse class="cls-8" cx="14" cy="77.5" rx="2" ry="2.5"/><ellipse class="cls-9" cx="18" cy="77.5" rx="2" ry="2.5"/><ellipse class="cls-9" cx="22" cy="77.5" rx="2" ry="2.5"/><ellipse class="cls-9" cx="2" cy="62.5" rx="2" ry="2.5"/><ellipse class="cls-9" cx="6" cy="62.5" rx="2" ry="2.5"/><ellipse class="cls-9" cx="10" cy="62.5" rx="2" ry="2.5"/><ellipse class="cls-8" cx="14" cy="62.5" rx="2" ry="2.5"/><ellipse class="cls-9" cx="18" cy="62.5" rx="2" ry="2.5"/><ellipse class="cls-9" cx="22" cy="62.5" rx="2" ry="2.5"/><ellipse class="cls-9" cx="2" cy="67.5" rx="2" ry="2.5"/><ellipse class="cls-9" cx="6" cy="67.5" rx="2" ry="2.5"/><ellipse class="cls-9" cx="10" cy="67.5" rx="2" ry="2.5"/><ellipse class="cls-9" cx="14" cy="67.5" rx="2" ry="2.5"/><ellipse class="cls-9" cx="18" cy="67.5" rx="2" ry="2.5"/><ellipse class="cls-9" cx="22" cy="67.5" rx="2" ry="2.5"/><ellipse class="cls-9" cx="2" cy="72.5" rx="2" ry="2.5"/><ellipse class="cls-9" cx="6" cy="72.5" rx="2" ry="2.5"/><ellipse class="cls-9" cx="10" cy="72.5" rx="2" ry="2.5"/><ellipse class="cls-9" cx="14" cy="72.5" rx="2" ry="2.5"/><ellipse class="cls-9" cx="18" cy="72.5" rx="2" ry="2.5"/><ellipse class="cls-9" cx="22" cy="72.5" rx="2" ry="2.5"/><ellipse class="cls-3" cx="2" cy="57.5" rx="2" ry="2.5"/><ellipse class="cls-3" cx="6" cy="57.5" rx="2" ry="2.5"/><ellipse class="cls-9" cx="10" cy="57.5" rx="2" ry="2.5"/><ellipse class="cls-8" cx="14" cy="57.5" rx="2" ry="2.5"/><ellipse class="cls-9" cx="18" cy="57.5" rx="2" ry="2.5"/><ellipse class="cls-9" cx="22" cy="57.5" rx="2" ry="2.5"/><ellipse class="cls-9" cx="2" cy="42.5" rx="2" ry="2.5"/><ellipse class="cls-9" cx="6" cy="42.5" rx="2" ry="2.5"/><ellipse class="cls-3" cx="10" cy="42.5" rx="2" ry="2.5"/><ellipse class="cls-10" cx="14" cy="42.5" rx="2" ry="2.5"/><ellipse class="cls-9" cx="18" cy="42.5" rx="2" ry="2.5"/><ellipse class="cls-3" cx="22" cy="42.5" rx="2" ry="2.5"/><ellipse class="cls-3" cx="2" cy="47.5" rx="2" ry="2.5"/><ellipse class="cls-9" cx="6" cy="47.5" rx="2" ry="2.5"/><ellipse class="cls-3" cx="10" cy="47.5" rx="2" ry="2.5"/><ellipse class="cls-9" cx="14" cy="47.5" rx="2" ry="2.5"/><ellipse class="cls-3" cx="18" cy="47.5" rx="2" ry="2.5"/><ellipse class="cls-9" cx="22" cy="47.5" rx="2" ry="2.5"/><ellipse class="cls-3" cx="2" cy="52.5" rx="2" ry="2.5"/><ellipse class="cls-3" cx="6" cy="52.5" rx="2" ry="2.5"/><ellipse class="cls-9" cx="10" cy="52.5" rx="2" ry="2.5"/><ellipse class="cls-3" cx="14" cy="52.5" rx="2" ry="2.5"/><ellipse class="cls-9" cx="18" cy="52.5" rx="2" ry="2.5"/><ellipse class="cls-9" cx="22" cy="52.5" rx="2" ry="2.5"/><ellipse class="cls-9" cx="2" cy="37.5" rx="2" ry="2.5"/><ellipse class="cls-9" cx="6" cy="37.5" rx="2" ry="2.5"/><ellipse class="cls-9" cx="10" cy="37.5" rx="2" ry="2.5"/><ellipse class="cls-8" cx="14" cy="37.5" rx="2" ry="2.5"/><ellipse class="cls-3" cx="18" cy="37.5" rx="2" ry="2.5"/><ellipse class="cls-9" cx="22" cy="37.5" rx="2" ry="2.5"/><ellipse class="cls-6" cx="2" cy="22.5" rx="2" ry="2.5"/><ellipse class="cls-6" cx="6" cy="22.5" rx="2" ry="2.5"/><ellipse class="cls-6" cx="10" cy="22.5" rx="2" ry="2.5"/><ellipse class="cls-8" cx="14" cy="22.5" rx="2" ry="2.5"/><ellipse class="cls-9" cx="18" cy="22.5" rx="2" ry="2.5"/><ellipse class="cls-9" cx="22" cy="22.5" rx="2" ry="2.5"/><ellipse class="cls-6" cx="2" cy="27.5" rx="2" ry="2.5"/><ellipse class="cls-6" cx="6" cy="27.5" rx="2" ry="2.5"/><ellipse class="cls-9" cx="10" cy="27.5" rx="2" ry="2.5"/><ellipse class="cls-9" cx="14" cy="27.5" rx="2" ry="2.5"/><ellipse class="cls-9" cx="18" cy="27.5" rx="2" ry="2.5"/><ellipse class="cls-9" cx="22" cy="27.5" rx="2" ry="2.5"/><ellipse class="cls-9" cx="2" cy="32.5" rx="2" ry="2.5"/><ellipse class="cls-9" cx="6" cy="32.5" rx="2" ry="2.5"/><ellipse class="cls-9" cx="10" cy="32.5" rx="2" ry="2.5"/><ellipse class="cls-9" cx="14" cy="32.5" rx="2" ry="2.5"/><ellipse class="cls-9" cx="18" cy="32.5" rx="2" ry="2.5"/><ellipse class="cls-3" cx="22" cy="32.5" rx="2" ry="2.5"/><ellipse class="cls-11" cx="2" cy="17.5" rx="2" ry="2.5"/><ellipse class="cls-11" cx="6" cy="17.5" rx="2" ry="2.5"/><ellipse class="cls-11" cx="10" cy="17.5" rx="2" ry="2.5"/><ellipse class="cls-8" cx="14" cy="17.5" rx="2" ry="2.5"/><ellipse class="cls-11" cx="18" cy="17.5" rx="2" ry="2.5"/><ellipse class="cls-9" cx="22" cy="17.5" rx="2" ry="2.5"/><ellipse class="cls-12" cx="2" cy="2.5" rx="2" ry="2.5"/><ellipse class="cls-12" cx="6" cy="2.5" rx="2" ry="2.5"/><ellipse class="cls-11" cx="10" cy="2.5" rx="2" ry="2.5"/><ellipse class="cls-13" cx="14" cy="2.5" rx="2" ry="2.5"/><ellipse class="cls-6" cx="18" cy="2.5" rx="2" ry="2.5"/><ellipse class="cls-6" cx="22" cy="2.5" rx="2" ry="2.5"/><ellipse class="cls-12" cx="2" cy="7.5" rx="2" ry="2.5"/><ellipse class="cls-11" cx="6" cy="7.5" rx="2" ry="2.5"/><ellipse class="cls-6" cx="10" cy="7.5" rx="2" ry="2.5"/><ellipse class="cls-6" cx="14" cy="7.5" rx="2" ry="2.5"/><ellipse class="cls-6" cx="18" cy="7.5" rx="2" ry="2.5"/><ellipse class="cls-6" cx="22" cy="7.5" rx="2" ry="2.5"/><ellipse class="cls-11" cx="2" cy="12.5" rx="2" ry="2.5"/><ellipse class="cls-6" cx="6" cy="12.5" rx="2" ry="2.5"/><ellipse class="cls-6" cx="10" cy="12.5" rx="2" ry="2.5"/><ellipse class="cls-11" cx="14" cy="12.5" rx="2" ry="2.5"/><ellipse class="cls-6" cx="18" cy="12.5" rx="2" ry="2.5"/><ellipse class="cls-9" cx="22" cy="12.5" rx="2" ry="2.5"/></svg>