<svg id="Layer_1" data-name="Layer 1" xmlns="http://www.w3.org/2000/svg" viewBox="0 0 60 165"><defs><style>.cls-1,.cls-3,.cls-5,.cls-6,.cls-7{fill:#fffdfd;}.cls-1,.cls-2{opacity:0.5;}.cls-2,.cls-4,.cls-8{fill:#e6e6e6;}.cls-3,.cls-4{opacity:0.6;}.cls-5{opacity:0.3;}.cls-6,.cls-8{opacity:0.2;}.cls-7{opacity:0;}</style></defs><title>dots3</title><ellipse class="cls-1" cx="18" cy="122.5" rx="2" ry="2.5"/><ellipse class="cls-1" cx="14" cy="122.5" rx="2" ry="2.5"/><ellipse class="cls-2" cx="10" cy="122.5" rx="2" ry="2.5"/><ellipse class="cls-1" cx="6" cy="122.5" rx="2" ry="2.5"/><ellipse class="cls-1" cx="2" cy="122.5" rx="2" ry="2.5"/><ellipse class="cls-1" cx="18" cy="117.5" rx="2" ry="2.5"/><ellipse class="cls-1" cx="14" cy="117.5" rx="2" ry="2.5"/><ellipse class="cls-2" cx="10" cy="117.5" rx="2" ry="2.5"/><ellipse class="cls-1" cx="6" cy="117.5" rx="2" ry="2.5"/><ellipse class="cls-1" cx="2" cy="117.5" rx="2" ry="2.5"/><ellipse class="cls-1" cx="18" cy="102.5" rx="2" ry="2.5"/><ellipse class="cls-1" cx="14" cy="102.5" rx="2" ry="2.5"/><ellipse class="cls-2" cx="10" cy="102.5" rx="2" ry="2.5"/><ellipse class="cls-1" cx="6" cy="102.5" rx="2" ry="2.5"/><ellipse class="cls-1" cx="2" cy="102.5" rx="2" ry="2.5"/><ellipse class="cls-1" cx="18" cy="107.5" rx="2" ry="2.5"/><ellipse class="cls-1" cx="14" cy="107.5" rx="2" ry="2.5"/><ellipse class="cls-1" cx="10" cy="107.5" rx="2" ry="2.5"/><ellipse class="cls-1" cx="6" cy="107.5" rx="2" ry="2.5"/><ellipse class="cls-1" cx="2" cy="107.5" rx="2" ry="2.5"/><ellipse class="cls-1" cx="18" cy="112.5" rx="2" ry="2.5"/><ellipse class="cls-1" cx="14" cy="112.5" rx="2" ry="2.5"/><ellipse class="cls-1" cx="10" cy="112.5" rx="2" ry="2.5"/><ellipse class="cls-1" cx="6" cy="112.5" rx="2" ry="2.5"/><ellipse class="cls-1" cx="2" cy="112.5" rx="2" ry="2.5"/><ellipse class="cls-3" cx="18" cy="97.5" rx="2" ry="2.5"/><ellipse class="cls-1" cx="14" cy="97.5" rx="2" ry="2.5"/><ellipse class="cls-2" cx="10" cy="97.5" rx="2" ry="2.5"/><ellipse class="cls-1" cx="6" cy="97.5" rx="2" ry="2.5"/><ellipse class="cls-1" cx="2" cy="97.5" rx="2" ry="2.5"/><ellipse class="cls-1" cx="18" cy="82.5" rx="2" ry="2.5"/><ellipse class="cls-3" cx="14" cy="82.5" rx="2" ry="2.5"/><ellipse class="cls-4" cx="10" cy="82.5" rx="2" ry="2.5"/><ellipse class="cls-1" cx="6" cy="82.5" rx="2" ry="2.5"/><ellipse class="cls-3" cx="2" cy="82.5" rx="2" ry="2.5"/><ellipse class="cls-1" cx="18" cy="87.5" rx="2" ry="2.5"/><ellipse class="cls-3" cx="14" cy="87.5" rx="2" ry="2.5"/><ellipse class="cls-1" cx="10" cy="87.5" rx="2" ry="2.5"/><ellipse class="cls-3" cx="6" cy="87.5" rx="2" ry="2.5"/><ellipse class="cls-1" cx="2" cy="87.5" rx="2" ry="2.5"/><ellipse class="cls-3" cx="18" cy="92.5" rx="2" ry="2.5"/><ellipse class="cls-1" cx="14" cy="92.5" rx="2" ry="2.5"/><ellipse class="cls-3" cx="10" cy="92.5" rx="2" ry="2.5"/><ellipse class="cls-1" cx="6" cy="92.5" rx="2" ry="2.5"/><ellipse class="cls-1" cx="2" cy="92.5" rx="2" ry="2.5"/><ellipse class="cls-1" cx="18" cy="77.5" rx="2" ry="2.5"/><ellipse class="cls-1" cx="14" cy="77.5" rx="2" ry="2.5"/><ellipse class="cls-2" cx="10" cy="77.5" rx="2" ry="2.5"/><ellipse class="cls-3" cx="6" cy="77.5" rx="2" ry="2.5"/><ellipse class="cls-1" cx="2" cy="77.5" rx="2" ry="2.5"/><ellipse class="cls-5" cx="18" cy="62.5" rx="2" ry="2.5"/><ellipse class="cls-5" cx="14" cy="62.5" rx="2" ry="2.5"/><ellipse class="cls-2" cx="10" cy="62.5" rx="2" ry="2.5"/><ellipse class="cls-1" cx="6" cy="62.5" rx="2" ry="2.5"/><ellipse class="cls-1" cx="2" cy="62.5" rx="2" ry="2.5"/><ellipse class="cls-5" cx="18" cy="67.5" rx="2" ry="2.5"/><ellipse class="cls-1" cx="14" cy="67.5" rx="2" ry="2.5"/><ellipse class="cls-1" cx="10" cy="67.5" rx="2" ry="2.5"/><ellipse class="cls-1" cx="6" cy="67.5" rx="2" ry="2.5"/><ellipse class="cls-1" cx="2" cy="67.5" rx="2" ry="2.5"/><ellipse class="cls-1" cx="18" cy="72.5" rx="2" ry="2.5"/><ellipse class="cls-1" cx="14" cy="72.5" rx="2" ry="2.5"/><ellipse class="cls-1" cx="10" cy="72.5" rx="2" ry="2.5"/><ellipse class="cls-1" cx="6" cy="72.5" rx="2" ry="2.5"/><ellipse class="cls-3" cx="2" cy="72.5" rx="2" ry="2.5"/><ellipse class="cls-6" cx="18" cy="57.5" rx="2" ry="2.5"/><ellipse class="cls-6" cx="14" cy="57.5" rx="2" ry="2.5"/><ellipse class="cls-2" cx="10" cy="57.5" rx="2" ry="2.5"/><ellipse class="cls-6" cx="6" cy="57.5" rx="2" ry="2.5"/><ellipse class="cls-1" cx="2" cy="57.5" rx="2" ry="2.5"/><ellipse class="cls-7" cx="18" cy="42.5" rx="2" ry="2.5"/><ellipse class="cls-6" cx="14" cy="42.5" rx="2" ry="2.5"/><ellipse class="cls-8" cx="10" cy="42.5" rx="2" ry="2.5"/><ellipse class="cls-5" cx="6" cy="42.5" rx="2" ry="2.5"/><ellipse class="cls-5" cx="2" cy="42.5" rx="2" ry="2.5"/><ellipse class="cls-6" cx="18" cy="47.5" rx="2" ry="2.5"/><ellipse class="cls-5" cx="14" cy="47.5" rx="2" ry="2.5"/><ellipse class="cls-5" cx="10" cy="47.5" rx="2" ry="2.5"/><ellipse class="cls-5" cx="6" cy="47.5" rx="2" ry="2.5"/><ellipse class="cls-5" cx="2" cy="47.5" rx="2" ry="2.5"/><ellipse class="cls-5" cx="18" cy="52.5" rx="2" ry="2.5"/><ellipse class="cls-5" cx="14" cy="52.5" rx="2" ry="2.5"/><ellipse class="cls-6" cx="10" cy="52.5" rx="2" ry="2.5"/><ellipse class="cls-5" cx="6" cy="52.5" rx="2" ry="2.5"/><ellipse class="cls-1" cx="2" cy="52.5" rx="2" ry="2.5"/><ellipse class="cls-6" cx="18" cy="37.5" rx="2" ry="2.5"/><ellipse class="cls-6" cx="14" cy="37.5" rx="2" ry="2.5"/><ellipse class="cls-2" cx="10" cy="37.5" rx="2" ry="2.5"/><ellipse class="cls-6" cx="6" cy="37.5" rx="2" ry="2.5"/><ellipse class="cls-1" cx="2" cy="37.5" rx="2" ry="2.5"/><ellipse class="cls-8" cx="10" cy="22.5" rx="2" ry="2.5"/><ellipse class="cls-5" cx="6" cy="22.5" rx="2" ry="2.5"/><ellipse class="cls-5" cx="2" cy="22.5" rx="2" ry="2.5"/><ellipse class="cls-5" cx="10" cy="27.5" rx="2" ry="2.5"/><ellipse class="cls-5" cx="6" cy="27.5" rx="2" ry="2.5"/><ellipse class="cls-5" cx="2" cy="27.5" rx="2" ry="2.5"/><ellipse class="cls-5" cx="14" cy="32.5" rx="2" ry="2.5"/><ellipse class="cls-6" cx="10" cy="32.5" rx="2" ry="2.5"/><ellipse class="cls-5" cx="6" cy="32.5" rx="2" ry="2.5"/><ellipse class="cls-1" cx="2" cy="32.5" rx="2" ry="2.5"/><ellipse class="cls-2" cx="10" cy="17.5" rx="2" ry="2.5"/><ellipse class="cls-6" cx="6" cy="17.5" rx="2" ry="2.5"/><ellipse class="cls-1" cx="2" cy="17.5" rx="2" ry="2.5"/><ellipse class="cls-5" cx="2" cy="2.5" rx="2" ry="2.5"/><ellipse class="cls-5" cx="6" cy="7.5" rx="2" ry="2.5"/><ellipse class="cls-5" cx="2" cy="7.5" rx="2" ry="2.5"/><ellipse class="cls-6" cx="10" cy="12.5" rx="2" ry="2.5"/><ellipse class="cls-5" cx="6" cy="12.5" rx="2" ry="2.5"/><ellipse class="cls-1" cx="2" cy="12.5" rx="2" ry="2.5"/><ellipse class="cls-6" cx="18" cy="42.5" rx="2" ry="2.5"/><ellipse class="cls-6" cx="18" cy="37.5" rx="2" ry="2.5"/><ellipse class="cls-1" cx="18" cy="162.5" rx="2" ry="2.5"/><ellipse class="cls-1" cx="14" cy="162.5" rx="2" ry="2.5"/><ellipse class="cls-2" cx="10" cy="162.5" rx="2" ry="2.5"/><ellipse class="cls-1" cx="6" cy="162.5" rx="2" ry="2.5"/><ellipse class="cls-1" cx="2" cy="162.5" rx="2" ry="2.5"/><ellipse class="cls-1" cx="18" cy="157.5" rx="2" ry="2.5"/><ellipse class="cls-1" cx="14" cy="157.5" rx="2" ry="2.5"/><ellipse class="cls-2" cx="10" cy="157.5" rx="2" ry="2.5"/><ellipse class="cls-1" cx="6" cy="157.5" rx="2" ry="2.5"/><ellipse class="cls-1" cx="2" cy="157.5" rx="2" ry="2.5"/><ellipse class="cls-1" cx="18" cy="142.5" rx="2" ry="2.5"/><ellipse class="cls-1" cx="14" cy="142.5" rx="2" ry="2.5"/><ellipse class="cls-2" cx="10" cy="142.5" rx="2" ry="2.5"/><ellipse class="cls-1" cx="6" cy="142.5" rx="2" ry="2.5"/><ellipse class="cls-1" cx="2" cy="142.5" rx="2" ry="2.5"/><ellipse class="cls-1" cx="18" cy="147.5" rx="2" ry="2.5"/><ellipse class="cls-1" cx="14" cy="147.5" rx="2" ry="2.5"/><ellipse class="cls-1" cx="10" cy="147.5" rx="2" ry="2.5"/><ellipse class="cls-1" cx="6" cy="147.5" rx="2" ry="2.5"/><ellipse class="cls-1" cx="2" cy="147.5" rx="2" ry="2.5"/><ellipse class="cls-1" cx="18" cy="152.5" rx="2" ry="2.5"/><ellipse class="cls-1" cx="14" cy="152.5" rx="2" ry="2.5"/><ellipse class="cls-1" cx="10" cy="152.5" rx="2" ry="2.5"/><ellipse class="cls-1" cx="6" cy="152.5" rx="2" ry="2.5"/><ellipse class="cls-1" cx="2" cy="152.5" rx="2" ry="2.5"/><ellipse class="cls-3" cx="18" cy="137.5" rx="2" ry="2.5"/><ellipse class="cls-1" cx="14" cy="137.5" rx="2" ry="2.5"/><ellipse class="cls-2" cx="10" cy="137.5" rx="2" ry="2.5"/><ellipse class="cls-1" cx="6" cy="137.5" rx="2" ry="2.5"/><ellipse class="cls-1" cx="2" cy="137.5" rx="2" ry="2.5"/><ellipse class="cls-1" cx="38" cy="122.5" rx="2" ry="2.5"/><ellipse class="cls-3" cx="34" cy="122.5" rx="2" ry="2.5"/><ellipse class="cls-4" cx="30" cy="122.5" rx="2" ry="2.5"/><ellipse class="cls-1" cx="26" cy="122.5" rx="2" ry="2.5"/><ellipse class="cls-3" cx="22" cy="122.5" rx="2" ry="2.5"/><ellipse class="cls-1" cx="18" cy="127.5" rx="2" ry="2.5"/><ellipse class="cls-3" cx="14" cy="127.5" rx="2" ry="2.5"/><ellipse class="cls-1" cx="10" cy="127.5" rx="2" ry="2.5"/><ellipse class="cls-3" cx="6" cy="127.5" rx="2" ry="2.5"/><ellipse class="cls-1" cx="2" cy="127.5" rx="2" ry="2.5"/><ellipse class="cls-3" cx="18" cy="132.5" rx="2" ry="2.5"/><ellipse class="cls-1" cx="14" cy="132.5" rx="2" ry="2.5"/><ellipse class="cls-3" cx="10" cy="132.5" rx="2" ry="2.5"/><ellipse class="cls-1" cx="6" cy="132.5" rx="2" ry="2.5"/><ellipse class="cls-1" cx="2" cy="132.5" rx="2" ry="2.5"/><ellipse class="cls-1" cx="38" cy="162.5" rx="2" ry="2.5"/><ellipse class="cls-1" cx="34" cy="162.5" rx="2" ry="2.5"/><ellipse class="cls-2" cx="30" cy="162.5" rx="2" ry="2.5"/><ellipse class="cls-1" cx="26" cy="162.5" rx="2" ry="2.5"/><ellipse class="cls-1" cx="22" cy="162.5" rx="2" ry="2.5"/><ellipse class="cls-1" cx="38" cy="157.5" rx="2" ry="2.5"/><ellipse class="cls-1" cx="34" cy="157.5" rx="2" ry="2.5"/><ellipse class="cls-2" cx="30" cy="157.5" rx="2" ry="2.5"/><ellipse class="cls-1" cx="26" cy="157.5" rx="2" ry="2.5"/><ellipse class="cls-1" cx="22" cy="157.5" rx="2" ry="2.5"/><ellipse class="cls-1" cx="38" cy="142.5" rx="2" ry="2.5"/><ellipse class="cls-1" cx="34" cy="142.5" rx="2" ry="2.5"/><ellipse class="cls-2" cx="30" cy="142.5" rx="2" ry="2.5"/><ellipse class="cls-1" cx="26" cy="142.5" rx="2" ry="2.5"/><ellipse class="cls-1" cx="22" cy="142.5" rx="2" ry="2.5"/><ellipse class="cls-1" cx="38" cy="147.5" rx="2" ry="2.5"/><ellipse class="cls-1" cx="34" cy="147.5" rx="2" ry="2.5"/><ellipse class="cls-1" cx="30" cy="147.5" rx="2" ry="2.5"/><ellipse class="cls-1" cx="26" cy="147.5" rx="2" ry="2.5"/><ellipse class="cls-1" cx="22" cy="147.5" rx="2" ry="2.5"/><ellipse class="cls-1" cx="38" cy="152.5" rx="2" ry="2.5"/><ellipse class="cls-1" cx="34" cy="152.5" rx="2" ry="2.5"/><ellipse class="cls-1" cx="30" cy="152.5" rx="2" ry="2.5"/><ellipse class="cls-1" cx="26" cy="152.5" rx="2" ry="2.5"/><ellipse class="cls-1" cx="22" cy="152.5" rx="2" ry="2.5"/><ellipse class="cls-3" cx="38" cy="137.5" rx="2" ry="2.5"/><ellipse class="cls-1" cx="34" cy="137.5" rx="2" ry="2.5"/><ellipse class="cls-2" cx="30" cy="137.5" rx="2" ry="2.5"/><ellipse class="cls-1" cx="26" cy="137.5" rx="2" ry="2.5"/><ellipse class="cls-1" cx="22" cy="137.5" rx="2" ry="2.5"/><ellipse class="cls-1" cx="58" cy="162.5" rx="2" ry="2.5"/><ellipse class="cls-1" cx="54" cy="162.5" rx="2" ry="2.5"/><ellipse class="cls-2" cx="50" cy="162.5" rx="2" ry="2.5"/><ellipse class="cls-1" cx="46" cy="162.5" rx="2" ry="2.5"/><ellipse class="cls-1" cx="42" cy="162.5" rx="2" ry="2.5"/><ellipse class="cls-1" cx="58" cy="157.5" rx="2" ry="2.5"/><ellipse class="cls-1" cx="54" cy="157.5" rx="2" ry="2.5"/><ellipse class="cls-2" cx="50" cy="157.5" rx="2" ry="2.5"/><ellipse class="cls-1" cx="46" cy="157.5" rx="2" ry="2.5"/><ellipse class="cls-1" cx="42" cy="157.5" rx="2" ry="2.5"/><ellipse class="cls-1" cx="58" cy="142.5" rx="2" ry="2.5"/><ellipse class="cls-1" cx="54" cy="142.5" rx="2" ry="2.5"/><ellipse class="cls-2" cx="50" cy="142.5" rx="2" ry="2.5"/><ellipse class="cls-1" cx="46" cy="142.5" rx="2" ry="2.5"/><ellipse class="cls-1" cx="42" cy="142.5" rx="2" ry="2.5"/><ellipse class="cls-1" cx="58" cy="147.5" rx="2" ry="2.5"/><ellipse class="cls-1" cx="54" cy="147.5" rx="2" ry="2.5"/><ellipse class="cls-1" cx="50" cy="147.5" rx="2" ry="2.5"/><ellipse class="cls-1" cx="46" cy="147.5" rx="2" ry="2.5"/><ellipse class="cls-1" cx="42" cy="147.5" rx="2" ry="2.5"/><ellipse class="cls-1" cx="58" cy="152.5" rx="2" ry="2.5"/><ellipse class="cls-1" cx="54" cy="152.5" rx="2" ry="2.5"/><ellipse class="cls-1" cx="50" cy="152.5" rx="2" ry="2.5"/><ellipse class="cls-1" cx="46" cy="152.5" rx="2" ry="2.5"/><ellipse class="cls-1" cx="42" cy="152.5" rx="2" ry="2.5"/><ellipse class="cls-3" cx="58" cy="137.5" rx="2" ry="2.5"/><ellipse class="cls-1" cx="54" cy="137.5" rx="2" ry="2.5"/><ellipse class="cls-2" cx="50" cy="137.5" rx="2" ry="2.5"/><ellipse class="cls-1" cx="46" cy="137.5" rx="2" ry="2.5"/><ellipse class="cls-1" cx="42" cy="137.5" rx="2" ry="2.5"/><ellipse class="cls-1" cx="38" cy="127.5" rx="2" ry="2.5"/><ellipse class="cls-3" cx="34" cy="127.5" rx="2" ry="2.5"/><ellipse class="cls-1" cx="30" cy="127.5" rx="2" ry="2.5"/><ellipse class="cls-3" cx="26" cy="127.5" rx="2" ry="2.5"/><ellipse class="cls-1" cx="22" cy="127.5" rx="2" ry="2.5"/><ellipse class="cls-3" cx="38" cy="132.5" rx="2" ry="2.5"/><ellipse class="cls-1" cx="34" cy="132.5" rx="2" ry="2.5"/><ellipse class="cls-3" cx="30" cy="132.5" rx="2" ry="2.5"/><ellipse class="cls-1" cx="26" cy="132.5" rx="2" ry="2.5"/><ellipse class="cls-1" cx="22" cy="132.5" rx="2" ry="2.5"/><ellipse class="cls-1" cx="38" cy="117.5" rx="2" ry="2.5"/><ellipse class="cls-1" cx="34" cy="117.5" rx="2" ry="2.5"/><ellipse class="cls-2" cx="30" cy="117.5" rx="2" ry="2.5"/><ellipse class="cls-3" cx="26" cy="117.5" rx="2" ry="2.5"/><ellipse class="cls-1" cx="22" cy="117.5" rx="2" ry="2.5"/><ellipse class="cls-5" cx="38" cy="102.5" rx="2" ry="2.5"/><ellipse class="cls-5" cx="34" cy="102.5" rx="2" ry="2.5"/><ellipse class="cls-2" cx="30" cy="102.5" rx="2" ry="2.5"/><ellipse class="cls-1" cx="26" cy="102.5" rx="2" ry="2.5"/><ellipse class="cls-1" cx="22" cy="102.5" rx="2" ry="2.5"/><ellipse class="cls-5" cx="38" cy="107.5" rx="2" ry="2.5"/><ellipse class="cls-1" cx="34" cy="107.5" rx="2" ry="2.5"/><ellipse class="cls-1" cx="30" cy="107.5" rx="2" ry="2.5"/><ellipse class="cls-1" cx="26" cy="107.5" rx="2" ry="2.5"/><ellipse class="cls-1" cx="22" cy="107.5" rx="2" ry="2.5"/><ellipse class="cls-1" cx="38" cy="112.5" rx="2" ry="2.5"/><ellipse class="cls-1" cx="34" cy="112.5" rx="2" ry="2.5"/><ellipse class="cls-1" cx="30" cy="112.5" rx="2" ry="2.5"/><ellipse class="cls-1" cx="26" cy="112.5" rx="2" ry="2.5"/><ellipse class="cls-3" cx="22" cy="112.5" rx="2" ry="2.5"/><ellipse class="cls-6" cx="38" cy="97.5" rx="2" ry="2.5"/><ellipse class="cls-6" cx="34" cy="97.5" rx="2" ry="2.5"/><ellipse class="cls-2" cx="30" cy="97.5" rx="2" ry="2.5"/><ellipse class="cls-6" cx="26" cy="97.5" rx="2" ry="2.5"/><ellipse class="cls-1" cx="22" cy="97.5" rx="2" ry="2.5"/><ellipse class="cls-7" cx="38" cy="82.5" rx="2" ry="2.5"/><ellipse class="cls-6" cx="34" cy="82.5" rx="2" ry="2.5"/><ellipse class="cls-8" cx="30" cy="82.5" rx="2" ry="2.5"/><ellipse class="cls-5" cx="26" cy="82.5" rx="2" ry="2.5"/><ellipse class="cls-5" cx="22" cy="82.5" rx="2" ry="2.5"/><ellipse class="cls-6" cx="38" cy="87.5" rx="2" ry="2.5"/><ellipse class="cls-5" cx="34" cy="87.5" rx="2" ry="2.5"/><ellipse class="cls-5" cx="30" cy="87.5" rx="2" ry="2.5"/><ellipse class="cls-5" cx="26" cy="87.5" rx="2" ry="2.5"/><ellipse class="cls-5" cx="22" cy="87.5" rx="2" ry="2.5"/><ellipse class="cls-5" cx="38" cy="92.5" rx="2" ry="2.5"/><ellipse class="cls-5" cx="34" cy="92.5" rx="2" ry="2.5"/><ellipse class="cls-6" cx="30" cy="92.5" rx="2" ry="2.5"/><ellipse class="cls-5" cx="26" cy="92.5" rx="2" ry="2.5"/><ellipse class="cls-1" cx="22" cy="92.5" rx="2" ry="2.5"/><ellipse class="cls-6" cx="38" cy="77.5" rx="2" ry="2.5"/><ellipse class="cls-6" cx="34" cy="77.5" rx="2" ry="2.5"/><ellipse class="cls-2" cx="30" cy="77.5" rx="2" ry="2.5"/><ellipse class="cls-6" cx="26" cy="77.5" rx="2" ry="2.5"/><ellipse class="cls-1" cx="22" cy="77.5" rx="2" ry="2.5"/><ellipse class="cls-8" cx="30" cy="62.5" rx="2" ry="2.5"/><ellipse class="cls-5" cx="26" cy="62.5" rx="2" ry="2.5"/><ellipse class="cls-5" cx="22" cy="62.5" rx="2" ry="2.5"/><ellipse class="cls-5" cx="30" cy="67.5" rx="2" ry="2.5"/><ellipse class="cls-5" cx="26" cy="67.5" rx="2" ry="2.5"/><ellipse class="cls-5" cx="22" cy="67.5" rx="2" ry="2.5"/><ellipse class="cls-5" cx="34" cy="72.5" rx="2" ry="2.5"/><ellipse class="cls-6" cx="30" cy="72.5" rx="2" ry="2.5"/><ellipse class="cls-5" cx="26" cy="72.5" rx="2" ry="2.5"/><ellipse class="cls-1" cx="22" cy="72.5" rx="2" ry="2.5"/><ellipse class="cls-2" cx="30" cy="57.5" rx="2" ry="2.5"/><ellipse class="cls-6" cx="26" cy="57.5" rx="2" ry="2.5"/><ellipse class="cls-1" cx="22" cy="57.5" rx="2" ry="2.5"/><ellipse class="cls-5" cx="22" cy="42.5" rx="2" ry="2.5"/><ellipse class="cls-5" cx="26" cy="47.5" rx="2" ry="2.5"/><ellipse class="cls-5" cx="22" cy="47.5" rx="2" ry="2.5"/><ellipse class="cls-6" cx="30" cy="52.5" rx="2" ry="2.5"/><ellipse class="cls-5" cx="26" cy="52.5" rx="2" ry="2.5"/><ellipse class="cls-1" cx="22" cy="52.5" rx="2" ry="2.5"/><ellipse class="cls-6" cx="38" cy="82.5" rx="2" ry="2.5"/><ellipse class="cls-6" cx="38" cy="77.5" rx="2" ry="2.5"/><ellipse class="cls-6" cx="50" cy="132.5" rx="2" ry="2.5"/><ellipse class="cls-6" cx="46" cy="132.5" rx="2" ry="2.5"/><ellipse class="cls-2" cx="42" cy="132.5" rx="2" ry="2.5"/><ellipse class="cls-7" cx="50" cy="117.5" rx="2" ry="2.5"/><ellipse class="cls-6" cx="46" cy="117.5" rx="2" ry="2.5"/><ellipse class="cls-8" cx="42" cy="117.5" rx="2" ry="2.5"/><ellipse class="cls-6" cx="50" cy="122.5" rx="2" ry="2.5"/><ellipse class="cls-5" cx="46" cy="122.5" rx="2" ry="2.5"/><ellipse class="cls-5" cx="42" cy="122.5" rx="2" ry="2.5"/><ellipse class="cls-5" cx="50" cy="127.5" rx="2" ry="2.5"/><ellipse class="cls-5" cx="46" cy="127.5" rx="2" ry="2.5"/><ellipse class="cls-6" cx="42" cy="127.5" rx="2" ry="2.5"/><ellipse class="cls-6" cx="50" cy="112.5" rx="2" ry="2.5"/><ellipse class="cls-6" cx="46" cy="112.5" rx="2" ry="2.5"/><ellipse class="cls-2" cx="42" cy="112.5" rx="2" ry="2.5"/><ellipse class="cls-8" cx="42" cy="97.5" rx="2" ry="2.5"/><ellipse class="cls-5" cx="42" cy="102.5" rx="2" ry="2.5"/><ellipse class="cls-5" cx="46" cy="107.5" rx="2" ry="2.5"/><ellipse class="cls-6" cx="42" cy="107.5" rx="2" ry="2.5"/><ellipse class="cls-2" cx="42" cy="92.5" rx="2" ry="2.5"/><ellipse class="cls-6" cx="42" cy="87.5" rx="2" ry="2.5"/><ellipse class="cls-6" cx="50" cy="117.5" rx="2" ry="2.5"/><ellipse class="cls-6" cx="50" cy="112.5" rx="2" ry="2.5"/></svg>