<svg id="Layer_1" data-name="Layer 1" xmlns="http://www.w3.org/2000/svg" viewBox="0 0 31.49 32.78">
  <defs>
    <style>
      .cls-1 {
        stroke: #000;
        stroke-width: 4px;
      }

      .cls-1, .cls-2, .cls-3 {
        stroke-miterlimit: 10;
      }

      .cls-2 {
        fill: #fff;
        stroke: #fff;
        stroke-width: 2.5px;
      }

      .cls-3 {
        fill: #358a55;
        stroke: #358a55;
        stroke-width: 0.5px;
      }
    </style>
  </defs>
  <title>kekambas</title>
  <path class="cls-1" d="M28.61,28.09a1.42,1.42,0,0,1-.72-.11,13.38,13.38,0,0,1-1.46-.59l-2.16-.94L12.66,21.6l-2.21,4.66a1.82,1.82,0,0,1,0,.8,3.73,3.73,0,0,1-.42.83,18.28,18.28,0,0,1-1.44,2,2.29,2.29,0,0,1-1.2.84.62.62,0,0,1-.54-.14.88.88,0,0,1-.32-.54,2.41,2.41,0,0,1,.29-1.33L11,20.65a3.07,3.07,0,0,1-.81-1.51,2.33,2.33,0,0,1,.17-1.53,4.18,4.18,0,0,1,.88-1.18c.35-.32,1.35-1.16,3-2.52,1.9-4,2.8-6.23,2.72-6.65s-.25-.39-.58-.33A9.58,9.58,0,0,0,14.21,8c-1.08.65-2.49,1.59-4.21,2.83s-3.76,2.78-6.09,4.64a1.27,1.27,0,0,1-.7.29,1,1,0,0,1-.75-.18A1.1,1.1,0,0,1,2,14.85a1.16,1.16,0,0,1,0-.38c0-.14,0-.38.09-.7s.07-.6.1-.85c0-.08,0-.37,0-.86a4.26,4.26,0,0,1,.22-1.39,5.56,5.56,0,0,1,.9-1.53,13.24,13.24,0,0,1,2.06-2,1.74,1.74,0,0,1,.48-.32c.16-.07.25,0,.28.09s-.15.23-.47.58a6.23,6.23,0,0,0-.94,1.6Q9.87,6,12.33,4.7a15.85,15.85,0,0,1,4-1.66c.58-.12,1.15.18,1.7.9A5.21,5.21,0,0,1,19,5.38a2.4,2.4,0,0,1-.18,1.29l-2.11,5.22q3.24-2.54,5-4l3.87-3.2C27,3.52,27.85,2.79,28.22,2.5A2.29,2.29,0,0,1,29,2c.29-.06.46,0,.52.31a4.37,4.37,0,0,1-.41,1.39A11.17,11.17,0,0,1,28,5.85c-.42.65-.81,1-1.17,1.09a1.27,1.27,0,0,1-.33,0l-.38,0c-1.52,1.24-3.4,2.73-5.61,4.46s-4,3.08-5.26,4.07l-1.13,2.8L25,22.83a21.51,21.51,0,0,1,2.21,1A3.39,3.39,0,0,1,29,26.39C29.17,27.43,29.05,28,28.61,28.09Z"/>
  <path class="cls-2" d="M28.61,28.09a1.42,1.42,0,0,1-.72-.11,13.38,13.38,0,0,1-1.46-.59l-2.16-.94L12.66,21.6l-2.21,4.66a1.82,1.82,0,0,1,0,.8,3.73,3.73,0,0,1-.42.83,18.28,18.28,0,0,1-1.44,2,2.29,2.29,0,0,1-1.2.84.62.62,0,0,1-.54-.14.88.88,0,0,1-.32-.54,2.41,2.41,0,0,1,.29-1.33L11,20.65a3.07,3.07,0,0,1-.81-1.51,2.33,2.33,0,0,1,.17-1.53,4.18,4.18,0,0,1,.88-1.18c.35-.32,1.35-1.16,3-2.52,1.9-4,2.8-6.23,2.72-6.65s-.25-.39-.58-.33A9.58,9.58,0,0,0,14.21,8c-1.08.65-2.49,1.59-4.21,2.83s-3.76,2.78-6.09,4.64a1.27,1.27,0,0,1-.7.29,1,1,0,0,1-.75-.18A1.1,1.1,0,0,1,2,14.85a1.16,1.16,0,0,1,0-.38c0-.14,0-.38.09-.7s.07-.6.1-.85c0-.08,0-.37,0-.86a4.26,4.26,0,0,1,.22-1.39,5.56,5.56,0,0,1,.9-1.53,13.24,13.24,0,0,1,2.06-2,1.74,1.74,0,0,1,.48-.32c.16-.07.25,0,.28.09s-.15.23-.47.58a6.23,6.23,0,0,0-.94,1.6Q9.87,6,12.33,4.7a15.85,15.85,0,0,1,4-1.66c.58-.12,1.15.18,1.7.9A5.21,5.21,0,0,1,19,5.38a2.4,2.4,0,0,1-.18,1.29l-2.11,5.22q3.24-2.54,5-4l3.87-3.2C27,3.52,27.85,2.79,28.22,2.5A2.29,2.29,0,0,1,29,2c.29-.06.46,0,.52.31a4.37,4.37,0,0,1-.41,1.39A11.17,11.17,0,0,1,28,5.85c-.42.65-.81,1-1.17,1.09a1.27,1.27,0,0,1-.33,0l-.38,0c-1.52,1.24-3.4,2.73-5.61,4.46s-4,3.08-5.26,4.07l-1.13,2.8L25,22.83a21.51,21.51,0,0,1,2.21,1A3.39,3.39,0,0,1,29,26.39C29.17,27.43,29.05,28,28.61,28.09Z"/>
  <path class="cls-3" d="M28.61,28.09a1.42,1.42,0,0,1-.72-.11,13.38,13.38,0,0,1-1.46-.59l-2.16-.94L12.66,21.6l-2.21,4.66a1.82,1.82,0,0,1,0,.8,3.73,3.73,0,0,1-.42.83,18.28,18.28,0,0,1-1.44,2,2.29,2.29,0,0,1-1.2.84.62.62,0,0,1-.54-.14.88.88,0,0,1-.32-.54,2.41,2.41,0,0,1,.29-1.33L11,20.65a3.07,3.07,0,0,1-.81-1.51,2.33,2.33,0,0,1,.17-1.53,4.18,4.18,0,0,1,.88-1.18c.35-.32,1.35-1.16,3-2.52,1.9-4,2.8-6.23,2.72-6.65s-.25-.39-.58-.33A9.58,9.58,0,0,0,14.21,8c-1.08.65-2.49,1.59-4.21,2.83s-3.76,2.78-6.09,4.64a1.27,1.27,0,0,1-.7.29,1,1,0,0,1-.75-.18A1.1,1.1,0,0,1,2,14.85a1.16,1.16,0,0,1,0-.38c0-.14,0-.38.09-.7s.07-.6.1-.85c0-.08,0-.37,0-.86a4.26,4.26,0,0,1,.22-1.39,5.56,5.56,0,0,1,.9-1.53,13.24,13.24,0,0,1,2.06-2,1.74,1.74,0,0,1,.48-.32c.16-.07.25,0,.28.09s-.15.23-.47.58a6.23,6.23,0,0,0-.94,1.6Q9.87,6,12.33,4.7a15.85,15.85,0,0,1,4-1.66c.58-.12,1.15.18,1.7.9A5.21,5.21,0,0,1,19,5.38a2.4,2.4,0,0,1-.18,1.29l-2.11,5.22q3.24-2.54,5-4l3.87-3.2C27,3.52,27.85,2.79,28.22,2.5A2.29,2.29,0,0,1,29,2c.29-.06.46,0,.52.31a4.37,4.37,0,0,1-.41,1.39A11.17,11.17,0,0,1,28,5.85c-.42.65-.81,1-1.17,1.09a1.27,1.27,0,0,1-.33,0l-.38,0c-1.52,1.24-3.4,2.73-5.61,4.46s-4,3.08-5.26,4.07l-1.13,2.8L25,22.83a21.51,21.51,0,0,1,2.21,1A3.39,3.39,0,0,1,29,26.39C29.17,27.43,29.05,28,28.61,28.09Z"/>
</svg>
