<?xml version="1.0" encoding="UTF-8" standalone="no"?>
<!-- Created with Inkscape (http://www.inkscape.org/) -->
<svg xmlns:svg="http://www.w3.org/2000/svg" xmlns="http://www.w3.org/2000/svg" version="1.0" width="216.07182" height="131.21844" id="svg2447">
  <defs id="defs2449"/>
  <g transform="translate(-263.781, -462.569)" id="layer1">
    <path d="M 301.14294,468.85904 C 294.59055,468.85904 289.31553,474.13406 289.31553,480.68643 L 289.31553,558.59303 C 289.31553,565.14542 294.59055,570.42044 301.14294,570.42044 L 438.78912,570.42044 L 467.30624,558.85426 L 459.12971,468.91162 L 301.14294,468.85904 z" id="path2475" style="fill: rgb(255, 255, 255); fill-opacity: 1; stroke: rgb(0, 34, 85); stroke-width: 0pt; stroke-linecap: butt; stroke-linejoin: miter; stroke-miterlimit: 4; stroke-opacity: 1;"/>
    <path d="M 457.66715,468.85904 C 464.21953,468.85904 469.49455,474.13406 469.49455,480.68643 L 469.49455,558.59303 C 469.49455,565.14542 464.21953,570.42044 457.66715,570.42044 L 436.06928,570.42044 L 436.3811,561.73171 C 448.50049,562.34013 456.5277,560.82661 460.97943,555.92107 C 461.00553,553.8262 462.61709,550.29624 459.40489,544.3476 C 457.64535,541.08913 455.51828,537.10495 448.37776,532.23339 C 448.00272,526.82681 445.0893,524.23001 442.99551,521.67339 C 440.65308,518.81315 439.01303,516.26197 436.606,515.0789 L 408.33269,468.91162 L 457.66715,468.85904 z" id="rect2470" style="fill: rgb(250, 1, 45); fill-opacity: 1; stroke: rgb(0, 34, 85); stroke-width: 0pt; stroke-linecap: butt; stroke-linejoin: miter; stroke-miterlimit: 4; stroke-opacity: 1;"/>
    <path d="M 285.98805,468.85904 C 279.43567,468.85904 274.16064,474.13406 274.16064,480.68643 L 274.16064,558.59303 C 274.16064,565.14542 279.43567,570.42044 285.98805,570.42044 L 355.66688,570.42044 C 354.89293,567.76039 352.73608,562.02865 350.81909,562.01777 C 349.28539,561.88698 343.4562,562.61286 342.44404,561.50154 C 346.85526,529.0507 352.52824,531.44466 358.25856,527.22491 C 359.30264,526.45607 357.54439,525.50071 358.23873,524.52423 C 359.10075,523.31193 357.2955,522.11544 357.94924,520.93939 C 358.94868,519.14142 351.03788,521.20393 351.66345,519.42051 C 352.88857,515.92782 354.32115,513.65208 355.19258,510.6504 C 355.91503,508.16195 355.11589,509.30717 355.12018,508.18531 C 355.12659,506.50657 342.44678,509.09811 342.83446,507.50132 C 343.54709,504.56625 353.90334,501.64187 353.76325,498.74066 C 353.13094,485.64535 364.041,478.81644 371.80601,479.06354 C 385.43134,478.82768 389.24433,480.31465 394.16403,489.26485 C 397.40644,495.736 401.27325,506.47924 394.35218,509.47537 C 394.77914,512.62542 395.50438,515.32803 397.29235,516.43655 C 399.71198,516.34843 400.6462,516.56087 402.68598,516.55533 C 417.10099,516.51616 423.8116,517.65998 427.2425,520.00867 L 428.15291,514.04299 L 393.68817,468.91162 L 285.98805,468.85904 z" id="path2473" style="fill: rgb(9, 38, 104); fill-opacity: 1; stroke: rgb(0, 34, 85); stroke-width: 0pt; stroke-linecap: butt; stroke-linejoin: miter; stroke-miterlimit: 4; stroke-opacity: 1;"/>
    <path d="M 136.49653,592.61224 A 29.098097,28.039984 0 1 1 78.300333,592.61224 A 29.098097,28.039984 0 1 1 136.49653,592.61224 z" transform="matrix(0.268616, 0, 0, 0.278753, 268.965, 380.947)" id="path2529" style="opacity: 1; fill: rgb(255, 255, 255); fill-opacity: 1; stroke: rgb(0, 34, 85); stroke-width: 0pt; stroke-linecap: butt; stroke-linejoin: miter; stroke-miterlimit: 4; stroke-dasharray: none; stroke-opacity: 1;"/>
  </g>
</svg>
