<?xml version="1.0" encoding="utf-8"?>
<!-- Generator: Adobe Illustrator 22.1.0, SVG Export Plug-In . SVG Version: 6.00 Build 0)  -->
<svg version="1.1" id="Layer_1" xmlns="http://www.w3.org/2000/svg" xmlns:xlink="http://www.w3.org/1999/xlink" x="0px" y="0px"
	 viewBox="0 0 192 192" style="enable-background:new 0 0 192 192;" xml:space="preserve">
<style type="text/css">
	.st0{fill:#38616F;}
	.st1{fill:#FFFFFF;}
	.st2{fill:#D9782D;}
	.st3{fill:#003562;}
	.st4{fill:none;stroke:#D9782D;stroke-width:2.736;stroke-linecap:round;stroke-linejoin:round;stroke-miterlimit:2.613;}
</style>
<circle class="st0" cx="32.2" cy="107.9" r="27.9"/>
<circle class="st0" cx="162.5" cy="79.2" r="27.9"/>
<circle class="st0" cx="95.9" cy="89.6" r="74.2"/>
<path class="st1" d="M97.3,162.7c36.4,0,66-29.5,66-66s-29.5-66-66-66c-36.4,0-66,29.5-66,66C31.3,133.2,60.9,162.7,97.3,162.7z"/>
<path class="st2" d="M97.3,161.9c18,0,34.3-7.3,46.1-19.1c11.8-11.8,19.1-28.1,19.1-46.1c0-18-7.3-34.3-19.1-46.1
	c-11.8-11.8-28.1-19.1-46.1-19.1c-18,0-34.3,7.3-46.1,19.1S32.2,78.7,32.2,96.7c0,18,7.3,34.3,19.1,46.1
	C63,154.6,79.3,161.9,97.3,161.9L97.3,161.9z M97.3,163.6c-18.5,0-35.2-7.5-47.3-19.6C38,131.9,30.5,115.2,30.5,96.7
	c0-18.5,7.5-35.2,19.6-47.3c12.1-12.1,28.8-19.6,47.3-19.6s35.2,7.5,47.3,19.6c12.1,12.1,19.6,28.8,19.6,47.3
	c0,18.5-7.5,35.2-19.6,47.3C132.5,156.1,115.8,163.6,97.3,163.6z"/>
<path class="st3" d="M97.3,159.5c17.3,0,33.1-7,44.4-18.4c11.4-11.4,18.4-27.1,18.4-44.4c0-17.3-7-33.1-18.4-44.4
	c-11.4-11.4-27.1-18.4-44.4-18.4s-33.1,7-44.4,18.4S34.5,79.4,34.5,96.7s7,33.1,18.4,44.4C64.3,152.5,80,159.5,97.3,159.5z
	 M97.3,160.1c-17.5,0-33.3-7.1-44.8-18.6C41.1,130.1,34,114.2,34,96.7c0-17.5,7.1-33.3,18.6-44.8C64,40.4,79.8,33.4,97.3,33.4
	c17.5,0,33.3,7.1,44.8,18.6c11.5,11.5,18.6,27.3,18.6,44.8s-7.1,33.3-18.6,44.8C130.7,153,114.8,160.1,97.3,160.1z"/>
<path class="st3" d="M67.5,136.1c0.2-0.2,0.7-0.5,0.8-0.7c0.2-0.3,0.2-0.4-0.2-0.7c-0.2-0.1-0.4-0.3-0.3-0.5c0.1-0.2,0.3-0.1,0.4,0
	c0.3,0.2,0.7,0.6,1.6,1.2c0.9,0.6,2,1.3,2.9,2c1.7,1.2,1.2,2.4,0.9,2.9c-0.6,0.9-1.8,1.1-2.6,1c-0.7-0.1-1.2-0.3-2-0.7l0,0
	c2,1.5,1,3.4,0.7,3.9c-0.7,1.1-2.8,2.3-5.3,0.5c-0.6-0.4-1.5-1.3-3.2-2.4c-0.9-0.6-1.7-1-1.9-1.1c-0.1,0-0.2-0.1-0.1-0.3
	c0.2-0.2,0.4-0.1,0.6,0c0.8,0.4,0.9,0.4,1.8-0.3L67.5,136.1L67.5,136.1z M63.8,141.3c-0.1,0.1-1,0.7-1.1,1c-0.2,0.3-0.1,0.6,0.8,1.2
	c1,0.7,1.5,0.9,2.1,0.8c0.8,0,1.9-0.5,2.5-1.4c1.2-1.7-0.2-2.7-1.2-3.4c-0.4-0.3-0.4-0.3-0.8,0L63.8,141.3z M66.8,139
	c0.2,0.2,0.3,0.3,0.4,0.3c0.7,0.5,1.4,0.8,2,1c0.8,0.2,1.9-0.1,2.6-1.1c0.9-1.3-0.2-2-0.8-2.5c-0.7-0.5-0.8-0.5-1.1-0.3L66.8,139z
	 M81.5,144.6c0.1,0,0.3,0.1,0.3,0.3c-0.1,0.1-4.2,4.5-4.5,5.2c-0.1,0.1-0.1,0.3,0,0.3c0.4,0.2,1.7-0.6,2-0.9
	c0.1-0.1,0.2-0.1,0.3-0.1c0.1,0,0.1,0.1,0.1,0.2c-0.2,0.4-2.6,1.8-4,1.2c-0.2-0.1-0.6-0.3-0.4-0.9c0.2-0.4,0.9-1.2,1.2-1.6l0.7-0.8
	c0.1-0.1,0.3-0.3,0.3-0.3l0,0c-0.2,0.1-0.4,0.2-0.6,0.4c-1.8,1-4,2.2-5.4,1.6c-0.9-0.4-1-1.3-0.6-2.2c1.3-3,5.9-4.2,8-3.3
	c0.5,0.2,0.8,0.5,0.9,0.6c0,0,0.2,0.2,0.2,0.2c0.1,0,0.2-0.1,0.2-0.1c0.2-0.2,0.3-0.2,0.8,0L81.5,144.6L81.5,144.6z M72.9,148.6
	c1.2,0.5,6-2.1,6.5-3.4c0.3-0.6-0.4-1-0.6-1.1c-2.1-0.9-5.5,1.9-6.2,3.3C72.5,147.7,72.3,148.3,72.9,148.6z M80.5,151.3
	c0.1-0.3,0.4-0.9,0.8-0.8c0.4,0.1,0.5,0.4,0.9,1.2c0.4,1,0.8,1.2,1.1,1.3c0.6,0.2,1.1-0.4,1.2-0.9c0.1-0.5-0.1-1-0.8-2.1
	c-0.7-1.2-1-1.9-0.8-2.5c0.2-0.9,1.7-2.1,3.7-1.6c1.1,0.3,2,0.9,1.8,1.5c-0.1,0.3-0.4,1-0.8,0.9c-0.3-0.1-0.6-0.5-0.7-0.8
	c-0.2-0.3-0.6-1-1.4-1.2c-0.1,0-0.8-0.1-0.9,0.5c-0.1,0.5,0.2,1.3,1.2,3c0.4,0.8,0.7,1.3,0.5,2c-0.3,1.2-2,2-3.7,1.6
	C82.3,153.3,80.2,152.7,80.5,151.3L80.5,151.3z M90.5,151.4c-0.1,0.3-0.1,0.4-0.1,0.5c-0.2,1.7,0.9,2,1.3,2c0.3,0,1.2,0.1,2.4-0.9
	c0.4-0.3,0.5-0.4,0.5-0.4c0.1,0,0.1,0.1,0.1,0.2c0,0.3-1.9,2.2-3.8,2c-1.3-0.1-2.5-1.2-2.3-3.1c0.3-3.4,3.8-5,5.6-4.8
	c1,0.1,2.1,0.8,2,2c-0.2,1.9-2.8,2.2-3.6,2.2C92.6,151.3,90.5,151.4,90.5,151.4z M94.6,148.4c0-0.2,0.1-1-0.7-1
	c-1.3-0.1-2.7,1.7-3.3,3.6C91.8,151,94.4,150.7,94.6,148.4z M99.5,150.7c1.2-1.9,2.5-3.8,3.9-3.9c1.1-0.1,2.2,0.9,2.3,2.6
	c0.2,2.9-2.8,5.7-5.6,5.9c-0.8,0.1-2.4-0.2-2.6-2c-0.1-0.8,0.2-2,0.4-3l0.9-3.9c0.1-0.3,0.2-1,0.2-1.2c0-0.2-0.2-0.4-0.4-0.3
	c-0.1,0-0.5,0.1-0.6,0.1c-0.1,0-0.3,0-0.3-0.2c0-0.3,0.4-0.3,0.9-0.4c0.7-0.1,1.4-0.3,2.1-0.7c0.1-0.1,0.1-0.1,0.2-0.1
	c0.1,0,0.2,0.1,0.2,0.2C101.2,144,99.7,149.9,99.5,150.7L99.5,150.7L99.5,150.7z M104,149c0-0.6-0.3-1.3-1-1.2
	c-1.8,0.1-4.2,4.4-4.1,6.1c0.1,0.9,0.9,0.9,1,0.9C102.3,154.6,104.1,150.9,104,149z M114.8,144.2c0.1,0,0.4-0.1,0.4,0.1
	c0,0.1-0.4,6.2-0.2,6.9c0,0.1,0.1,0.3,0.2,0.2c0.4-0.1,1-1.5,1.1-1.9c0-0.1,0.1-0.2,0.2-0.2c0.1,0,0.2,0,0.2,0.1c0,0,0,0,0,0
	c0.1,0.4-0.9,3-2.4,3.5c-0.2,0.1-0.7,0.2-0.9-0.5c-0.1-0.4-0.1-1.5-0.1-1.9l0.1-1.1c0-0.1,0-0.4,0-0.5l0,0c-0.1,0.2-0.1,0.4-0.2,0.6
	c-0.8,1.9-1.7,4.2-3.3,4.6c-0.9,0.3-1.6-0.4-1.9-1.4c-0.9-3.2,1.9-7,4.2-7.6c0.5-0.1,0.9-0.1,1.1-0.1c0,0,0.3,0.1,0.3,0
	c0.1,0,0.1-0.2,0.1-0.3c0-0.3,0.1-0.4,0.6-0.5L114.8,144.2z M110.6,152.6c1.3-0.3,3.3-5.4,3-6.7c-0.2-0.7-0.9-0.5-1.1-0.5
	c-2.2,0.6-3.2,4.9-2.7,6.4C109.7,152.1,109.9,152.8,110.6,152.6L110.6,152.6z M119.8,146.6c0.1,0.5,0.2,2.3,0.4,2.7
	c0.1,0.1,0.1,0.2,0.3,0.1c0.4-0.2,0.8-1.7,0.9-2.1c0-0.1,0-0.1,0.1-0.2c0.1,0,0.2,0,0.2,0.1c0.2,0.5-0.7,3.2-1.8,3.7
	c-0.5,0.2-0.9,0-1.2-0.6c-0.2-0.6-0.4-2-0.5-2.7l-0.5-6.1c0-0.4-0.1-0.6-0.1-0.7c-0.2-0.4-0.6-0.2-0.7-0.2c-0.5,0.2-0.6,0.3-0.7,0.1
	c-0.1-0.3,0.2-0.4,0.6-0.6c0.2-0.1,0.9-0.4,1.6-1.1c0.3-0.2,0.3-0.3,0.3-0.3c0.1,0,0.2,0,0.3,0.1c0,0.1,0,0.1,0,0.3L119.8,146.6
	L119.8,146.6z M124.2,144.3c0.1,0.5,0.4,2.3,0.6,2.6c0.1,0.1,0.2,0.2,0.3,0.1c0.4-0.2,0.7-1.8,0.7-2.2c0-0.1,0-0.1,0.1-0.2
	c0.1,0,0.2,0,0.3,0.1c0.3,0.5-0.4,3.3-1.4,3.8c-0.5,0.3-0.9,0.1-1.2-0.4c-0.3-0.5-0.6-2-0.7-2.6l-1.1-6c-0.1-0.4-0.1-0.6-0.2-0.7
	c-0.2-0.3-0.6-0.1-0.7-0.1c-0.5,0.3-0.6,0.3-0.7,0.2c-0.1-0.3,0.1-0.4,0.5-0.6c0.6-0.3,1.1-0.7,1.5-1.3c0.2-0.3,0.3-0.3,0.3-0.3
	c0.1,0,0.2-0.1,0.3,0.1c0,0.1,0,0.1,0.1,0.3L124.2,144.3L124.2,144.3z M132.9,128.1c0.3-0.3,1.1-1.1,1.4-0.8
	c0.2,0.2,0.8,1.5,0.9,1.7c0.3,0.6,0.3,0.6,0.2,0.8c-0.1,0.1-0.3,0.1-0.4-0.1c-0.1-0.1-0.7-0.9-0.8-1.1c-0.2-0.2-0.5-0.5-1.1,0
	c-2.1,2-3.1,6.6-0.3,9.5c1.2,1.3,3.1,2.1,4.6,0.7c1.5-1.4,0.9-3.3,0.6-4.2c-0.1-0.2-0.1-0.4,0-0.5c0.1-0.1,0.2-0.1,0.3,0
	c0.1,0.1,0.1,0.2,0.4,0.8c0.2,0.4,0.4,0.9,0.7,1.3c0.3,0.4-0.8,1.9-1.9,3c-2.9,2.7-5.5,1.2-6.5,0.1
	C128.5,136.9,129.6,131.2,132.9,128.1L132.9,128.1z M140.4,130.4c0.3,0.5,1.2,1.9,1.5,2.2c0.1,0.1,0.2,0.1,0.3,0
	c0.3-0.3-0.1-1.9-0.2-2.3c0-0.1,0-0.1,0-0.2c0.1-0.1,0.2-0.1,0.3,0c0.4,0.3,0.9,3.1,0.2,4.1c-0.3,0.4-0.8,0.4-1.3,0
	c-0.5-0.4-1.3-1.6-1.7-2.1l-3.3-5.2c-0.2-0.3-0.3-0.5-0.5-0.6c-0.3-0.2-0.6,0.1-0.7,0.2c-0.4,0.5-0.4,0.5-0.6,0.4
	c-0.2-0.2,0-0.4,0.3-0.8c0.1-0.2,0.6-0.8,0.9-1.7c0.1-0.3,0.1-0.4,0.1-0.4c0-0.1,0.2-0.1,0.3-0.1c0.1,0,0.1,0.1,0.2,0.2L140.4,130.4
	L140.4,130.4z M145.3,122.4c0,0,2.3,4.4,1,6.6c-0.4,0.7-1.1,0.3-1.2,0.3c-0.7-0.4-1.8-1.7-2-1.9c-0.4-0.4-2.2-2.8-2.3-2.9
	c-0.1-0.1-0.2,0-0.2,0.1c-0.1,0.2,0,1.3,0.4,2.1c0,0.1,0.1,0.2,0,0.3c-0.1,0.1-0.2,0.1-0.2,0c-0.5-0.3-1.2-2.6-0.4-4.1
	c0.2-0.3,0.5-0.5,0.8-0.3c0.6,0.4,3.8,4.6,4.4,4.9c0.2,0.1,0.4,0,0.4-0.1c0.4-0.6-0.1-2.7-1.1-4.8c-0.4-0.8-0.7-1.4-2-2.8
	c-0.2-0.3-0.4-0.4-0.2-0.8l0.5-0.9c0.1-0.1,0.2-0.2,0.3-0.1c0.3,0.2,3.8,4.6,4.7,5.1c0.1,0.1,0.2,0.1,0.3,0c0.1-0.1,0.2-0.9-0.5-2.3
	c-0.1-0.2-0.1-0.2,0-0.2c0,0,0.1-0.1,0.2-0.1c0.6,0.4,1.3,3.2,0.6,4.4c-0.2,0.3-0.6,0.4-0.9,0.2c0,0,0,0,0,0
	C147.5,124.7,146.2,123.3,145.3,122.4L145.3,122.4L145.3,122.4z M148,115.6c-1.3-1.9-2.6-3.7-2.1-5.1c0.4-1.1,1.7-1.7,3.3-1.2
	c2.8,0.9,4.2,4.7,3.3,7.5c-0.3,0.8-1.1,2.2-2.9,1.6c-0.8-0.3-1.8-1-2.6-1.5l-3.2-2.3c-0.3-0.2-0.8-0.6-1-0.6c-0.2-0.1-0.4,0-0.5,0.3
	c0,0.1-0.1,0.5-0.1,0.5c0,0.1-0.1,0.3-0.3,0.2c-0.3-0.1-0.2-0.5,0-1c0.2-0.7,0.3-1.5,0.1-2.2c0-0.1,0-0.2,0-0.3
	c0-0.1,0.1-0.2,0.3-0.1C142.4,111.5,147.3,115.2,148,115.6L148,115.6L148,115.6z M148.1,110.9c-0.6-0.2-1.3-0.2-1.5,0.5
	c-0.6,1.7,2.5,5.6,4.1,6.1c0.9,0.3,1.2-0.5,1.2-0.6C152.6,114.5,149.9,111.5,148.1,110.9L148.1,110.9z"/>
<path class="st3" d="M92.1,137.2v-23.4h0.5v23.4H92.1z M120.9,129.9V63.6h0.5v66.3H120.9z M70.5,127.9V66H71v61.8
	C71,127.9,70.5,127.9,70.5,127.9z M77.7,132.9V61h0.5v72H77.7z M84.9,135.7V57.8h0.5v77.9H84.9z M99.3,137.5V56.2h0.5v81.3H99.3z
	 M106.5,136.6V57.1h0.5v79.5H106.5z M113.7,134.1V59.5h0.5v74.6H113.7z M63.8,73.7v46.8h-0.5V73.7H63.8z M92.1,76.3v-20h0.5v20H92.1
	z M129,70.9v52h-0.5v-52H129z"/>
<path class="st2" d="M97.3,53.3c-24,0-43.4,19.4-43.4,43.4c0,12,4.9,22.9,12.7,30.7c7.9,7.9,18.7,12.7,30.7,12.7
	c12,0,22.9-4.9,30.7-12.7c7.9-7.9,12.7-18.7,12.7-30.7c0-12-4.9-22.9-12.7-30.7C120.2,58.2,109.3,53.3,97.3,53.3L97.3,53.3z
	 M97.3,52.8c12.1,0,23.1,4.9,31.1,12.9c8,8,12.9,19,12.9,31.1c0,12.1-4.9,23.1-12.9,31.1c-8,8-19,12.9-31.1,12.9
	c-12.1,0-23.1-4.9-31.1-12.9c-8-8-12.9-19-12.9-31.1C53.3,72.5,73,52.8,97.3,52.8z"/>
<path class="st3" d="M97.3,56.5c-11.1,0-21.2,4.5-28.5,11.8S57.1,85.6,57.1,96.7s4.5,21.2,11.8,28.5S86.2,137,97.3,137
	s21.2-4.5,28.5-11.8s11.8-17.3,11.8-28.5s-4.5-21.2-11.8-28.5C118.5,61,108.4,56.5,97.3,56.5z M97.3,54.8c11.6,0,22.1,4.7,29.6,12.3
	c7.6,7.6,12.3,18.1,12.3,29.6c0,11.6-4.7,22.1-12.3,29.6c-7.6,7.6-18.1,12.3-29.6,12.3s-22.1-4.7-29.6-12.3
	c-7.6-7.6-12.3-18.1-12.3-29.6c0-11.6,4.7-22.1,12.3-29.6C75.3,59.5,85.7,54.8,97.3,54.8z"/>
<path class="st3" d="M48,69.3c0.1,0,0.1,0.1,0.1,0.2c-0.3,0.6-2.3-1.1-3.5,1.3c-0.7,1.4-0.2,2.4,0.7,2.8c2.6,1.3,4.9-4.3,8.6-2.5
	c2.3,1.1,2.5,3.3,1.5,5.5c-0.2,0.3-0.7,1.1-1.1,1.6c-0.8,1-1.2,1-2.3,0.5c-0.5-0.2-1.5-0.8-1.4-1.2c0.2-0.5,0.6,0.2,1.8,0.1
	c0.4,0,1.8-0.1,2.5-1.6c0.8-1.7,0.1-2.9-0.8-3.4c-2.7-1.3-5.2,4.2-8.7,2.4c-1.5-0.7-2.5-2.6-1.4-4.9c0.1-0.3,0.3-0.6,0.6-0.9
	c1-1.3,1.2-1.2,1.8-0.8C46.5,68.6,48,69.3,48,69.3z M57.5,63.7c-0.5-0.2-0.5-0.1-1.6,1.2c-0.9,1.1-1,1.4-0.9,1.5
	c0.5,1,2.1,3.4,2.3,3.6c0.3,0.2,0.7,0,0.8-0.1c0.5-0.4,0.8-0.7,0.9-0.6c0.2,0.1,0,0.4-0.1,0.5c-0.3,0.4-0.8,0.9-1.2,1.3
	c-0.5,0.6-0.9,1.3-1.3,1.8c-0.1,0.1-0.2,0.2-0.3,0c-0.2-0.2,0.1-0.5,0.3-1.1c0.1-0.4,0.1-0.6,0-0.8l-6-11.2c0-0.1,0-0.2,0-0.2
	c0.1-0.1,0.2-0.1,0.3-0.1l10.7,3.6c1.1,0.4,1.6,0.2,1.8,0.1c0.5-0.3,0.6-0.7,0.9-0.5c0.2,0.1,0.1,0.3-0.1,0.5
	c-0.5,0.7-1,1.2-1.5,1.8c-0.5,0.6-0.8,1.2-1.3,1.8C61.2,67,61,67,60.9,67c-0.2-0.1,0-0.5,0.4-1.1c0.1-0.1,0.2-0.5-0.1-0.7
	c-0.1-0.1-0.3-0.1-0.5-0.2C60.7,64.9,57.5,63.7,57.5,63.7z M54.1,65.1c0.1,0.1,0.1,0.2,0.2,0.3c0.1,0.1,0.9-1,1-1.1
	c0.1-0.1,0.9-1.1,0.8-1.2C56,63,55.9,63,55.7,63l-3.2-1.1c0,0-0.1,0-0.2,0c0,0,0,0.1,0,0.1C52.4,62,54.1,65.1,54.1,65.1z"/>
<path class="st3" d="M65.5,48.2c-0.4-0.5-0.6-0.3-1.6,0.4c-0.2,0.1-0.5,0.3-0.7,0.1c-0.2-0.3,0.1-0.5,0.2-0.6
	c0.5-0.4,1.1-0.8,1.7-1.2c0.4-0.3,0.9-0.8,1.2-1c0.2-0.1,0.4-0.2,0.5,0c0.1,0.2,0,0.4-0.3,0.6c-0.9,0.7-0.7,1,0.2,2.2l5.9,7.8
	c0.2,0.3,0.4,0.6,0.2,0.8c-0.2,0.1-0.5,0.1-0.9,0l-12.1-3.2c-0.1,0-0.1,0-0.2,0c0,0,0,0.1,0.2,0.3l3.9,5.1c0.3,0.4,0.5,0.6,0.8,0.9
	c0.7,0.9,1.1,0.7,1.4,0.5c0.8-0.5,1.2-0.8,1.4-0.6c0.2,0.2,0,0.3-0.1,0.4c-0.5,0.4-1.1,0.7-1.7,1.2c-1.2,0.9-1.3,1.1-1.8,1.5
	c-0.1,0.1-0.3,0.2-0.4,0c-0.2-0.2-0.1-0.3,0.8-1.1c0.3-0.3,0.3-0.5,0.1-0.8l-4.7-6.4c-0.3-0.4-0.5-0.7-0.6-0.8
	c-0.8-1.1-1.1-1-1.5-0.7c-0.9,0.6-1.1,0.7-1.3,0.5c-0.1-0.2,0-0.5,0.2-0.6c0.2-0.2,0.6-0.3,1.1-0.7c0.4-0.3,0.6-0.5,0.7-0.7
	c0.3-0.2,0.6-0.1,0.9-0.1l11.3,3.1c0.1,0,0.1,0,0.2,0c0.1-0.1,0-0.2-0.2-0.5L65.5,48.2L65.5,48.2z M82.3,49.6c0.3,1.4,1.7,1.7,3,1.3
	c1.5-0.4,4.8-2.6,3.8-6.5c-1-4-5-4.9-7.5-4.3c-1.6,0.4-1.6,0.8-1.5,1C80.2,41.2,82.3,49.6,82.3,49.6z M81.8,52.3
	c-0.6,0.1-1.3,0.4-1.7,0.5c-0.1,0-0.4,0.1-0.4-0.1c0-0.2,0.1-0.4,0.6-0.6c0.4-0.2,0.8-0.4,0.6-1.5l-2.3-9.2c-0.1-0.4-0.9-0.1-1.4,0
	c-0.5,0.1-0.6,0.1-0.6-0.1c-0.1-0.3,0.4-0.5,0.7-0.5l1.8-0.4c1-0.2,1.8-0.6,3.1-0.9c4.1-1,7.9,0.2,9.1,4.9c0.7,2.9-1.4,6-4.7,6.8
	C86.4,51.2,81.8,52.3,81.8,52.3z M96.8,48.6c0,0.5,0.5,0.6,0.7,0.7c0.6,0.1,1.1,0.1,1.1,0.4c0,0.2-0.4,0.3-0.7,0.3
	c-0.5,0-0.9-0.1-2,0c-1,0-1.5,0.1-2,0.1c-0.5,0-0.7,0-0.8-0.3c0-0.3,0.1-0.2,1-0.4c0.4-0.1,1-0.2,1-0.9l-0.3-9.4
	c0-0.6-0.2-0.7-0.8-0.8c-0.6-0.1-0.7-0.1-0.8-0.3c0-0.3,0.3-0.3,0.5-0.3c0.6,0,0.9,0.1,1.9,0c0.8,0,1.2-0.1,1.8-0.1
	c0.4,0,0.9,0,0.9,0.2c0,0.4-0.4,0.3-1.3,0.4c-0.5,0.1-0.5,0.7-0.5,1.2L96.8,48.6L96.8,48.6z M103.1,39.1c0.1-0.5-0.1-0.6-0.8-0.9
	c-0.6-0.2-0.8-0.3-0.8-0.5c0-0.2,0.3-0.2,0.6-0.1c0.7,0.1,2.4,0.4,2.8,0.5c0.6,0.1,3.4,0.4,5.1,0.7c0.3,0,0.3,0.3,0.2,0.7l-0.3,1.9
	c0,0.1-0.1,0.1-0.2,0.1c-0.3,0-0.2-0.3-0.4-1c-0.2-0.7-0.2-1.1-3.6-1.6c-0.7-0.1-0.9,0.1-1,0.8l-0.5,3.4c-0.1,0.4,0.2,0.5,0.9,0.6
	l1.7,0.3c1.5,0.2,1.3-1.6,1.8-1.5c0.3,0,0.3,0.2,0.2,0.4c-0.1,0.5-0.2,0.7-0.3,1.7c-0.1,0.8-0.1,1.4-0.2,1.9c0,0.2-0.1,0.3-0.3,0.3
	c-0.3,0-0.3-0.4-0.3-1c0-1.1-0.2-1.2-2.6-1.6c-0.9-0.1-1.1,0-1.2,0.4l-0.6,3.9c-0.1,0.9-0.1,1,2.2,1.4c1.4,0.2,1.8,0.1,2.3-0.3
	c1.1-0.9,1.1-1.5,1.4-1.4c0.2,0,0.2,0.1,0.2,0.2c0,0.1-0.1,0.2-0.1,0.3l-0.7,2c-0.1,0.3-0.2,0.4-0.5,0.3l-5.7-0.9
	c-2.2-0.3-2.4-0.3-2.6-0.3c-0.2,0-0.5-0.1-0.4-0.3c0-0.3,0.4-0.2,0.9-0.3c0.5-0.1,1.1,0.1,1.2-0.7C101.7,48.4,103.1,39.1,103.1,39.1
	z M121,51.8c0.5-1.1,0.6-1.4-0.5-1.8c-1-0.5-1.2-0.6-1.1-0.8c0.2-0.3,0.5-0.2,0.8-0.1c0.8,0.3,1.5,0.7,2.3,1
	c0.8,0.3,1.6,0.7,2.2,0.9c0.4,0.2,0.6,0.3,0.5,0.5c-0.1,0.3-0.5,0.1-1-0.1c-0.4-0.2-0.9-0.4-1.1,0.3l-1.3,2.9
	c-0.1,0.2-0.3,0.6-0.7,0.6c-1.2,0-2.6-0.1-4.5-1c-3.3-1.4-5.5-4.7-3.9-8.4c1.7-3.9,5.6-5,9.5-3.3c1.2,0.5,2,1.1,2.8,1.8
	c0.6,0.5,0.6,0.8-0.2,2.6c-0.1,0.1-0.1,0.1-0.3,0c-0.4-0.2,0.4-2.6-2.4-3.9c-1.3-0.6-5.1-1.8-7.3,3.4c-1.5,3.4,0.3,6.4,2.4,7.3
	c0.5,0.2,1.1,0.4,1.6,0.5c0.7,0.1,1.3,0.3,2-1.4C120.5,52.8,121,51.8,121,51.8z M135.7,51.1c3.6,3,2.8,7.1,1,9.2
	c-1.8,2.2-5.7,3.8-9.5,0.6c-2.9-2.4-3.3-6.2-0.9-9.2C128.8,49,132.8,48.7,135.7,51.1z M127.8,60.6c3.4,2.8,6.9-1.1,7.6-1.8
	c1.7-2,2.4-5.2-0.1-7.2c-1.7-1.4-4.5-1.6-7.2,1.7C125.1,56.7,126.5,59.5,127.8,60.6z"/>
<path class="st2" d="M121.4,76.4c-0.3-0.8-0.7-1.9-1.4-1.9c-0.5,0-0.5,0.8-0.5,0.8l0,7.5c-0.9,0.9-2.1,0.8-2.1,0.8v-9.2
	c0-0.8,0.3-2.1,2.1-1.5C120.4,73.2,121.4,75.2,121.4,76.4L121.4,76.4z M168.1,91.3c0,0-1.5-0.2-1.9-1.9c-0.2-0.9-0.5-2-1-2.3
	c-0.5-0.4-3-2.3-4.5-2.6c1,0.3,1.9,1,2.3,2.6C163.6,89.5,165.1,91.4,168.1,91.3z M37.5,135.7c-0.4-0.1-1.6-0.3-1.7-0.3
	c-0.3-0.1-0.8-0.4-0.8-0.4l0-13.4c0,0,3.1,1,6,0.7c2.7-0.3,4.4-1.4,6-2.5c1.1-0.7,4.9-5.2,5.7-12c0.1-0.9,0.5-10.8-7.4-17.6
	l-0.7-0.3c5.1,2.6,9.6,7.9,10.5,10.7c0.8,2.3-4.7,19.2-4.7,19.2s-1.9,4.2-6.3,5.2c-3.7,0.8-6.3,0.4-6.3,0.4l0,9.4
	c0,0.3,0.4,0.7,0.7,0.8c0.7,0.2,2.2,0.7,3.7,1.7c0.9,0.6,1.2,2.6-0.6,4.1c0,0-2.8,2.3-6.4,4.8c-2.9,2.1-5.5,4-8.5,6.3
	c-1.4,1.1-2.6,0.1-2.6,0.1l-2.7-1.8c1.2,0.8,3.2-0.5,3.2-0.5s14.1-10.7,15.1-11.4c0.5-0.4,1.2-2.3-1.1-3.2
	C38.4,135.7,38,135.7,37.5,135.7z M57.5,124.7c-0.3-0.1-0.6-0.2-0.7-0.3c-0.6,0-1.4,0-1.5-0.7l1.2-5.5l8-4.6l1,2.5l-6.7,4l-0.9,3.9
	c-0.2,0.7,0.2,1.1,0.4,1.3c0.4,0.4,1.5,0.7,2.3,1.7c0.2,0.2,0.9,1.9-1,3.1c-2,1.3-4.5,2.9-7.1,4.5c-1.1,0.7-1.9,0.4-2.4,0.3
	c-0.4-0.1-3-2.1-3-2.1c1.1,0.5,2.7-0.1,2.7-0.1l7.7-4.8c0.9-0.6,0.4-2,0.2-2.6C57.8,125.1,57.7,124.9,57.5,124.7z M93.9,76.1
	c7.9,1.1,12.2,8.9,12.2,8.9l0,14.3c0,0,0,1.1-0.2,1.5c-0.5,0.5-2.2,2-1.9,3.3c0,0.1,0.8-0.4,0.7,1.1c-0.2,2.2-4.3,5.9-7.7,7.2
	c-4.4,1.7-10.8,4.1-26.8,12.3c-0.4,0.2-1.3,0.3-2,0c-0.9-0.3-3.1-2-3.1-2c1.1,0.5,2.4-0.2,2.4-0.2c15.8-7.7,26.3-12.1,26.3-12.1
	c7.8-2.9,13.1-10.2,11.4-20.8C103.5,79.1,96.6,77.1,93.9,76.1z"/>
<path class="st2" d="M118.8,97.9c-0.8-0.2-0.7-0.4-1-0.8s-0.2-1.1-0.2-1.1v-6.6l2.4,3.5l0,4.1c0,1.1,0.3,1.5,1.1,2
	c1,0.6,2,1.2,2.4,1.5c0.7,0.4,1.2,1,1.2,1.8c0,1-0.4,1.8-2.3,2.4c0,0-7.5,1.8-10.5,2.8c-1.9,0.6-3.2,0.6-4,0c-0.5-0.4-3-2.1-3-2.1
	c0.9,0.3,1.6,0.5,2.4,0.3l12.1-3.7c0,0,2-0.7,1-2.5C120.1,98.8,119,97.9,118.8,97.9z M128.8,68.2c0,0,5.3,2.4,5.3,8.7
	c0,6-4.1,7.8-4.1,7.8l4.6,7.4l0.2,0.8c0,0,0.3,1.2-0.8,1.3c-0.9,0.1-1.3-0.5-1.3-0.5s-5.8-8.9-6.2-9.5c1.9-1.2,6.9-3.9,5.6-10.8
	C131.9,71.8,130.3,69.2,128.8,68.2L128.8,68.2z"/>
<path class="st2" d="M178.1,76.6c2.9,2.4,8.9,5.7,5.8,14c-2.2,5.9-8.6,8.9-14.7,8.8c-2.4,0-5-1-6.6-1.5c-1.6-0.4-2.3-0.1-3.4-1.5
	c-0.7-0.9-0.3,2.1-4.9,2.4c-4.5,0.2-19.1,2.6-22.8,3.2c-4.1,0.7-9-4.6-8.9-4.7c0.2-0.2,3.3,2.6,5.6,2.1c3.6-0.8,26.8-3.9,26.8-3.9
	s1.3,0.1,1.8-1.3c0,0,0.5-0.5,0.6-0.5c1.4,1.1,4.1,1.4,4,1.4c1.9,0.7,3.5,1.1,8.4,1.2c10.1,0.2,12.2-9.8,12.1-11.9
	C182,80.2,177.9,76.9,178.1,76.6L178.1,76.6z M172.7,67.2c-1.6-1.8-4.6-1-5.2-0.2c-0.6,0.7-0.7,3,0.5,4.1c0.3,0.3,1.4,0.8,2.3,1.3
	c0,0-1.4-0.7-1.3-2.3c0.1-1.2,0.9-1.8,1.8-1.8c3.1,0,5.5,3.3,6.2,3.7c0,0,2.2,1.8,4,1.1c1.3-0.6,1.3-1.8,1.2-2.4s-0.7-4.6-0.7-4.7
	c-0.1-0.8-0.3-1.8-1.1-2.4c-1.3-0.9-3.1-1.9-3.5-1.9c0,0.2,1.4,1.8,1.4,1.6c0-0.1,0.9,5.3,0.9,5.3c0-0.1,0.3,2-0.6,2.5
	c-0.9,0.4-2.3-0.6-3-1.1C174.8,69.5,174.3,69,172.7,67.2L172.7,67.2z M152.8,70.2c0,0,1.3,2.3,2.9,1.5c1.3-0.6,1.1-2.3,1.1-2.3
	s0-4,0-4.2c0-0.2-0.4-1.4-1.2-2.2c0,0,2.4,1.4,2.8,1.6c0.7,0.4,0.8,1.2,0.8,1.2c-0.9,1.4-1.4,3.3-1.6,5.6c0,0.2,0.1,1.8,0.1,1.8
	s-0.4,0.6-1.8,0.1c-0.7-0.2-1.6-1-2.4-2c-0.6-0.7-1.4-1.2-1.7-1.2c-0.8,0-2.3,0.1-2.3,0.1c-0.2,0-0.4,0.1-0.4,0.5l0,5.1l-2.1,0
	c0,0-0.7-0.1-0.7-0.7l0-5.1c-0.1-1.7,1.3-1.9,1.3-1.9l2.5-0.1c0,0,1.3-0.1,1.6,0.5C151.6,68.6,152.8,70.2,152.8,70.2z"/>
<path class="st2" d="M149,91.2v-5.9c0-0.9,0-1.2,0.2-1.3c0.1-0.1,0.6-0.1,0.8,0c3.3,2.5,4.6,1.9,5.2,1.4c0.9-0.6,0.9-1.3,0.9-2.2
	v-6.5c0-0.8-0.5-1.3-0.7-1.4c-0.1-0.1-1.5-1.6-2.5-2.1c1.1,0.8,0.8,2.3,0.8,2.3l0,6.6c0,0,0.3,2.1-2.1,1.9c-1.1-0.1-1.5-1-2-2
	c-0.3-0.6-0.5-1-1-1c-0.2,0-1.5,0.1-1.5,0.1s-1,0-1,0.8l0,9.1c0,0,0.8,0.4,2.1,0.3L149,91.2L149,91.2z M24.5,102.6c0,0,0.2-4,3-6.6
	c4.1-3.7,8.4-2.8,8.4-2.8c-2.9-1.7-5.5-0.7-7.2-0.3c-3.3,0.8-4.9,3.7-6.3,6c-1.2,1.9-1.8,5.6-1.8,7.5c0,1.9-0.9,2.6-0.9,2.6
	l-8.4,5.9c0,0-1,0.4-1.8-0.2c0,0,1.8,1.1,2.6,1.5c0.8,0.4,1.5,1.1,3.1-0.1c1.4-1,7.2-5.5,7.2-5.5v-4.5c0,0,0-1.3,0.3-1.9
	c0.3-0.6,1-1.2,1-1.2S24.5,102.6,24.5,102.6z M39.1,98.2c0.2,0.3,0.9,1.6,0.3,2.8c-0.6,1.2-1.7,1.7-1.7,2.6l0,10.8
	c-0.3,0.4-0.8,0.8-1,0.8c-1.1,0.2-1.4-0.3-1.4-0.3l0-12c0-0.9,0.3-0.8,1.1-1.7c0.8-0.9,2.2-1.2,1.2-3.7c-0.2-0.5-0.6-0.7-0.9-0.9
	C36.6,96.7,38.8,97.9,39.1,98.2z M60.1,110.3l-1.9,1.1c0,0,2.2-8.7,2.2-8.7l0.8,2.5C61.3,105.2,60.1,110.3,60.1,110.3z M93.4,87.9
	c-1.2-4.5-3.9-5.9-4.7-6.1c-1.2-0.3-1.4,0.8-1.4,0.8l0,23.1c0,0-0.2,1.5,1.1,1.4c0.4,0,1-0.2,1.6-0.8v-21c0-0.7,0.3-0.9,0.5-0.9
	c0.2,0,0.9,0.2,1.7,1C93,86.3,93.4,87.9,93.4,87.9z M68.4,87.4c-0.9-0.5-1.8-0.8-2.8-1.1c0.7,0.3,1.6,0.5,2.2,2.1l7.7,22.5l0-7.6
	l-4.7-13.5C70.4,88.5,69.4,87.9,68.4,87.4z M170.8,90.3c0,0,1.8-1.8,0.2-4.1c-0.6-0.8-7.1-4.6-7.1-4.6c0.6,0.4-0.3-0.2,1.5,0.7
	c2.1,1.1,6.5,1.9,6.7,4.8C172.2,88.1,171.8,89.5,170.8,90.3z"/>
<path class="st4" d="M155.8,69.7c0,1.5-1.5,1.2-1.9,0.5c-0.5-0.8-0.9-1.6-1.4-2.3c-0.8-1.1-2.7-0.9-2.7-0.9s-3,0.4-3.3,0.4
	c-0.4,0.1-1.1,0.6-1.1,1.7v6.4c0,0.9,0.1,1.8,1.2,1.8c1.4,0,1,0,2.3-0.2s1.2-3,2.7-3c1,0,1,1,1,1.5V82c0,0.4,0,1.5-1,1.5
	c-1.5-0.1-1.4-3.2-2.7-3.2c-1.1,0-1.1,0-2.3,0.1c-1.1,0.1-1.2,0.7-1.2,1.6v8.8c0,0.2,0.1,1.3,1.3,1.4c0.7,0.1,5.1-0.2,5.9-1.1
	c0.8-0.9,2.5-4.7,2.7-4.9c0.2-0.4,0.7-1,1.4-0.8c0.8,0.2,0.8,0.9,0.7,1.5c-0.1,0.6-1.1,6-1.1,6c-0.3,1.2-0.4,1.5-1.2,1.5
	c-3.9,0.4-19,2.1-25.9,4.1c0,0-1.7,0.2-3.2-0.1c-1.4-0.3-2.6-1.8-2.6-1.8s-4.5-7.1-5.5-8.8c-1.3-2.1-1-2.6-0.6-2.9
	c0.9-0.7,4.8-0.9,4.8-8.1c0-3.3-1.7-5.2-3.8-5c-2.1,0.2-2.1,2.6-2.1,2.6l0,22.5c0,0,0.1,1.1,0.7,1.4c0.6,0.2,1.9,0.5,2.1,1.1
	c0.5,1.3-0.8,1.7-0.8,1.7l-11.7,3.3c-1.7,0.5-2.2-1.6-1-2.3c1.4-0.8,1.2-3.4,1.2-3.4s0.1-20.5,0-22c0-0.9-0.7-1.8-1.2-2
	c-1-0.3-1.5-0.6-1.5-1.2c-0.1-0.9,0.6-1.4,1.4-1.6c0.5-0.1,15.5-3.8,15.5-3.8s8.6-1.8,10.1,5.5c1.4,6.7-4.5,9.3-5.1,9.7
	c-0.6,0.4-1.2,0.2,0,2c1.8,2.8,6,9.3,6,9.3s0.9,1.2,2.1,0.8c2-0.6,1.8-2.7,1.8-2.7l0-22.3c0-0.6-0.3-1.8-0.9-2.2
	c-0.6-0.4-1.3-0.5-1.4-1.3c-0.1-1.1,0.6-1.3,1.5-1.4c0.6-0.1,16.6-1.7,18.1-1.8c1.5-0.2,2.2,0.5,2.2,1.7L155.8,69.7L155.8,69.7z
	 M23.9,142.3v-36.4 M23.9,105.9c0,0,0-0.3,0.1-1c0.1-0.5,0.5-0.7,0.5-0.7 M24.5,104.2l9.6-6.2 M34.1,98c0,0,1.8-1.1,2.3,0.3
	c0.8,2.1-2.3,1.7-2.3,5.6c0,0,0.1,11.6,0,11.6c2.1,1.2,3.7,0.2,5.4-1.4c4.2-4.1,5.7-22.2-7.3-22.7C22.3,91,19.6,103.1,20,106.2
	c0.2,1.6-0.9,2.3-0.9,2.3s-5.8,4-6.9,4.8c-1.1,0.8-2.3,0.6-2.4-0.1c-1.7-12.4,17.3-35.3,35.6-21.5c10.6,8,6.6,24.3,0.7,27.8
	c-4.3,2.6-7.4,2.8-12,0.6c0,0,0,14.4,0,14.5c0,0.2,0,1.8,2.5,1.9c0.7,0,1.6-0.1,2.1,0.8c0.6,1.3-1.4,2.5-1.4,2.5s-12.8,9.6-13.2,9.9
	c-0.7,0.5-1.6,0.7-2.1,0.1c-0.7-0.7-0.6-1.8,0.5-3.5c1.1-1.6,0.6-1.2,0.9-1.9c0.3-0.7,0.4-2.1,0.4-2.1 M23.9,142.4L23.9,142.4
	 M159.3,93.5c0.7,0.2,2.1,0.2,2.7,0.3c1.9,0.4,3,1.1,6.8,1.4c11.5,0.9,15.3-11.8,9.3-17.1c-4-3.6-7.8-4.1-10.4-5.8
	c-3.7-2.5-1.6-10.2,5.9-6.1c0.4,0.2,1.8,2.4,2.8,3.7c1,1.3,2.1,0.8,1.9-0.6c-0.2-1.4-1-5.1-1-5.1s-0.2-1.3-0.9-1.1
	c-0.6,0.2-2.3,0.4-3.4,0.1c-1.2-0.3-1.3-0.6-4.1-0.9c-10.7-1.1-13.7,13.1-5,18c1.5,0.9,3.5,1.8,5.5,2.4c5.4,1.6,4.7,6.8,2.2,8.6
	c-4,2.9-8.1,0.2-8.9-1.2c-0.9-1.5-1-3.2-1.6-4c-0.8-1.1-1.8-0.2-1.8,0.2c-0.1,1-0.7,5.1-0.7,5.1S158.1,93.3,159.3,93.5 M64.1,109.6
	l-7.7,4.1l3.9-15.2 M60.3,98.6c0,0,3.9,11,3.8,11 M87.7,77.7C74.9,82.9,74.3,83,74,83.2c-0.5,0.2-1.1,0.5-0.8,1.6
	c0.3,1,3.6-0.7,3.6,3.5c0,1.5-0.1,21.3,0,24.6c0,1.9-1.2,1.8-1.6,0.7c-1.1-3-8.7-24.9-8.7-24.9c-0.4-1.2-1.5-1.1-1.8-1
	c-0.3,0.1-8.1,3.7-8.4,3.8c-0.9,0.4-1.1,1.9,0.1,2.2c0.2,0.1,0.5,0.1,0.8,0.4c0.3,0.3,0.4,0.8,0,2.6c-0.3,1.2-7.5,31-7.5,31
	c-0.2,0.6-0.6,1.2-1,1.8c-0.8,1.1-1.4,1.9-0.9,2.5c0.5,0.6,1.6,0.3,1.6,0.3 M49.4,132.1l7.5-4.8 M56.9,127.3
	c0.5-0.3,0.4-1.1,0.1-1.4s-0.8-0.2-1.2-0.2c-1,0-1.2-0.6-1.5-1.2c-0.2-0.4-0.2-1.3-0.2-1.3 M54.2,123.3l1.2-5.7l9.5-5.3l1.9,4.8
	 M66.8,117.1c0.1,0.4-0.2,1.7-0.7,2.2c-0.4,0.4-1.1,1.1-0.7,2.1c0.5,1.3,1.9,0.4,3.1-0.3c8-4.6,17.9-8.5,26.9-12.3
	c7.2-3,10.2-11.8,8.9-19.4c-1.4-8.1-9-14.7-16.6-11.6 M86,106.5l0-23c0-1.2,0.9-3.7,4.1-2.4c7.5,3.1,6.4,23.2,0.2,26.6
	C87.1,109.4,86,107.6,86,106.5"/>
<path class="st3" d="M23.9,142.3v-36.4c0,0,0-0.3,0.1-1c0.1-0.5,0.5-0.7,0.5-0.7l9.6-6.2c0,0,1.8-1.1,2.3,0.3
	c0.8,2.1-2.3,1.7-2.3,5.6c0,0,0.1,11.6,0,11.6c2.1,1.2,3.7,0.2,5.4-1.4c4.2-4.1,5.7-22.2-7.3-22.7C22.3,91,19.6,103.1,20,106.2
	c0.2,1.6-0.9,2.3-0.9,2.3s-5.8,4-6.9,4.8c-1.1,0.8-2.3,0.6-2.4-0.1c-1.7-12.4,17.3-35.3,35.6-21.5c10.6,8,6.6,24.3,0.7,27.8
	c-4.3,2.6-7.4,2.8-12,0.6c0,0,0,14.4,0,14.5c0,0.2,0,1.8,2.5,1.9c0.7,0,1.6-0.1,2.1,0.8c0.6,1.3-1.4,2.5-1.4,2.5s-12.8,9.6-13.2,9.9
	c-0.7,0.5-1.6,0.7-2.1,0.1c-0.7-0.7-0.6-1.8,0.5-3.5c1.1-1.6,0.6-1.2,0.9-1.9C23.8,143.8,23.9,142.4,23.9,142.3L23.9,142.3
	L23.9,142.3L23.9,142.3z M159.3,93.5c0.7,0.2,2.1,0.2,2.7,0.3c1.9,0.4,3,1.1,6.8,1.4c11.5,0.9,15.3-11.8,9.3-17.1
	c-4-3.6-7.8-4.1-10.4-5.8c-3.7-2.5-1.6-10.2,5.9-6.1c0.4,0.2,1.8,2.4,2.8,3.7c1,1.3,2.1,0.8,1.9-0.6c-0.2-1.4-1-5.1-1-5.1
	s-0.2-1.3-0.9-1.1c-0.6,0.2-2.3,0.4-3.4,0.1c-1.2-0.3-1.3-0.6-4.1-0.9c-10.7-1.1-13.7,13.1-5,18c1.5,0.9,3.5,1.8,5.5,2.4
	c5.4,1.6,4.7,6.8,2.2,8.6c-4,2.9-8.1,0.2-8.9-1.2c-0.9-1.5-1-3.2-1.6-4c-0.8-1.1-1.8-0.2-1.8,0.2c-0.1,1-0.7,5.1-0.7,5.1
	S158.1,93.3,159.3,93.5L159.3,93.5z M64.1,109.6l-7.7,4.1l3.9-15.2C60.3,98.6,64.2,109.6,64.1,109.6z M87.7,77.7
	C74.9,82.9,74.3,83,74,83.2c-0.5,0.2-1.1,0.5-0.8,1.6c0.3,1,3.6-0.7,3.6,3.5c0,1.5-0.1,21.3,0,24.6c0,1.9-1.2,1.8-1.6,0.7
	c-1.1-3-8.7-24.9-8.7-24.9c-0.4-1.2-1.5-1.1-1.8-1c-0.3,0.1-8.1,3.7-8.4,3.8c-0.9,0.4-1.1,1.9,0.1,2.2c0.2,0.1,0.5,0.1,0.8,0.4
	c0.3,0.3,0.4,0.8,0,2.6c-0.3,1.2-7.5,31-7.5,31c-0.2,0.7-0.6,1.2-1,1.8c-0.8,1.1-1.4,1.9-0.9,2.5c0.5,0.6,1.6,0.3,1.6,0.3l7.5-4.8
	c0.5-0.3,0.4-1.1,0.1-1.4s-0.8-0.2-1.2-0.2c-1,0-1.2-0.6-1.5-1.2c-0.2-0.4-0.2-1.3-0.2-1.3l1.2-5.7l9.5-5.3l1.9,4.8
	c0.1,0.4-0.2,1.7-0.7,2.2c-0.4,0.4-1.1,1.1-0.7,2.1c0.5,1.3,1.9,0.4,3.1-0.3c8-4.6,17.9-8.5,26.9-12.3c7.2-3,10.2-11.8,8.9-19.4
	C102.9,81.2,95.3,74.7,87.7,77.7L87.7,77.7z M86,106.5l0-23c0-1.2,0.9-3.7,4.1-2.4c7.5,3.1,6.4,23.2,0.2,26.6
	C87.1,109.4,86,107.6,86,106.5z M155.8,68c0,1.5-1.5,1.2-1.9,0.5c-0.4-0.7-1.4-2.3-1.4-2.3c-0.8-1.1-2.7-0.9-2.7-0.9s-3,0.4-3.3,0.4
	c-0.4,0.1-1.1,0.6-1.1,1.7v6.4c0,0.9,0.1,1.8,1.2,1.8c1.4,0,1,0,2.3-0.2c1.3-0.2,1.2-3,2.7-3c1,0,1,1,1,1.5v6.5c0,0.4,0,1.5-1,1.5
	c-1.5-0.1-1.4-3.2-2.7-3.2c-1.1,0-1.1,0-2.3,0.1c-1.1,0.1-1.2,0.7-1.2,1.6v8.8c0,0.2,0.1,1.3,1.3,1.4c0.7,0.1,5.1-0.2,5.9-1.1
	c0.8-0.9,2.5-4.7,2.7-4.9c0.2-0.4,0.7-1,1.4-0.8c0.8,0.2,0.8,0.9,0.7,1.5c-0.1,0.6-1.1,6-1.1,6c-0.3,1.2-0.4,1.5-1.2,1.5
	c-3.9,0.4-19,2.1-25.9,4.1c0,0-1.7,0.2-3.2-0.1c-1.4-0.3-2.6-1.8-2.6-1.8s-4.5-7.1-5.5-8.8c-1.3-2.1-1-2.6-0.6-2.9
	c0.9-0.7,4.8-0.9,4.8-8.1c0-3.3-1.7-5.2-3.8-5c-2.1,0.2-2.1,2.6-2.1,2.6l0,22.5c0,0,0.1,1.1,0.7,1.4c0.6,0.2,1.9,0.5,2.1,1.1
	c0.5,1.3-0.8,1.7-0.8,1.7l-11.7,3.3c-1.7,0.5-2.2-1.6-1-2.3c1.4-0.8,1.2-3.4,1.2-3.4s0.1-20.5,0-22c0-0.9-0.7-1.8-1.2-2
	c-1-0.3-1.5-0.6-1.5-1.2c-0.1-0.9,0.6-1.4,1.4-1.5c0.5-0.1,15.5-3.8,15.5-3.8s8.6-1.8,10.1,5.5c1.4,6.7-4.5,9.3-5.1,9.7
	s-1.2,0.2,0,2c1.8,2.8,6,9.3,6,9.3s0.9,1.2,2.1,0.8c2-0.6,1.8-2.7,1.8-2.7l0-22.3c0-0.6-0.3-1.8-0.9-2.2c-0.6-0.4-1.3-0.5-1.4-1.3
	c-0.1-1.1,0.6-1.3,1.5-1.4c0.6-0.1,16.6-1.7,18.1-1.8c1.5-0.2,2.2,0.5,2.2,1.7L155.8,68L155.8,68z"/>
</svg>
