<svg xmlns="http://www.w3.org/2000/svg" xmlns:xlink="http://www.w3.org/1999/xlink" version="1.1" id="Layer_1" x="0px" y="0px" width="431.561px" height="206.444px" viewBox="0 0 431.561 206.444" enable-background="new 0 0 431.561 206.444" xml:space="preserve">


<g>

	<g style="&#10;">
		<defs>
			<path id="SVGID_3_" d="M87.445,11.204c0,0-5.859,17.367-6.22,17.367c0,0-4.152,11.8-18.402,11.8H27.751L16.286,70.262h49.641     c-0.341,0-37.135,102.054-37.135,102.054s-7.99,22.901,11.835,22.901h93.719l10.761-29.512h-65.61c0,0-10.068-1.034-6.589-11.125     l26.743-72.89c0,0,4.476-11.429,18.051-11.429h147.876l11.15-29.891H114.898l10.433-29.167H87.445z"/>
		</defs>
		<use xlink:href="#SVGID_3_" overflow="visible" fill="#000" style="&#10;"/>
		<clipPath id="SVGID_4_">
			<use xlink:href="#SVGID_3_" overflow="visible"/>
		</clipPath>
		<rect x="16.286" y="11.204" clip-path="url(#SVGID_4_)" fill="#000" width="260.443" height="184.013"/>
	</g>

</g>
<g>
	<g>
		<defs>
			<path id="SVGID_7_" d="M367.837,83.08c-10.764,0-16.121,8.991-16.121,8.991s-12.19,33.676-15.46,42.747     c-3.289,8.989,6.955,9.885,6.955,9.885h20.293c0,0-6.793,18.219-7.33,19.602c-0.524,1.343-1.329,1.401-1.329,1.401h-68.402     l-10.774,29.512h87.836c12.691,0,13.386-6.771,13.386-6.771s20.659-56.233,22.73-62.129c2.078-5.9-3.984-7.304-3.984-7.304     h-20.998c-1.571,0-1.39-1.076-1.39-1.076s3.968-10.734,4.333-11.961c0.366-1.24,1.913-1.24,1.913-1.24l27.554,0.165l8.277-21.821     H367.837z"/>
		</defs>
		<clipPath id="SVGID_8_">
			<use xlink:href="#SVGID_7_" overflow="visible"/>
		</clipPath>
	</g>
	<g>
		<defs>
			<path id="SVGID_9_" d="M367.837,83.08c-10.764,0-16.121,8.991-16.121,8.991s-12.19,33.676-15.46,42.747     c-3.289,8.989,6.955,9.885,6.955,9.885h20.293c0,0-6.793,18.219-7.33,19.602c-0.524,1.343-1.329,1.401-1.329,1.401h-68.402     l-10.774,29.512h87.836c12.691,0,13.386-6.771,13.386-6.771s20.659-56.233,22.73-62.129c2.078-5.9-3.984-7.304-3.984-7.304     h-20.998c-1.571,0-1.39-1.076-1.39-1.076s3.968-10.734,4.333-11.961c0.366-1.24,1.913-1.24,1.913-1.24l27.554,0.165l8.277-21.821     H367.837z"/>
		</defs>
		<use xlink:href="#SVGID_9_" overflow="visible" fill="#000"/>
		<clipPath id="SVGID_10_">
			<use xlink:href="#SVGID_9_" overflow="visible"/>
		</clipPath>
		<rect x="275.668" y="83.08" clip-path="url(#SVGID_10_)" fill="#000" width="139.657" height="112.137"/>
	</g>
	<g>
		<defs>
			<path id="SVGID_11_" d="M367.837,83.08c-10.764,0-16.121,8.991-16.121,8.991s-12.19,33.676-15.46,42.747     c-3.289,8.989,6.955,9.885,6.955,9.885h20.293c0,0-6.793,18.219-7.33,19.602c-0.524,1.343-1.329,1.401-1.329,1.401h-68.402     l-10.774,29.512h87.836c12.691,0,13.386-6.771,13.386-6.771s20.659-56.233,22.73-62.129c2.078-5.9-3.984-7.304-3.984-7.304     h-20.998c-1.571,0-1.39-1.076-1.39-1.076s3.968-10.734,4.333-11.961c0.366-1.24,1.913-1.24,1.913-1.24l27.554,0.165l8.277-21.821     H367.837z"/>
		</defs>
		<clipPath id="SVGID_12_">
			<use xlink:href="#SVGID_11_" overflow="visible"/>
		</clipPath>
	</g>
</g>
<g>
	<g>
		<defs>
			<path id="SVGID_13_" d="M114.942,127.047l6.466-17.894c0.614-1.55,2.405-2.788,4.131-2.788h16.053     c1.725,0,2.683,1.237,2.105,2.788l-6.484,17.894c-0.547,1.546-2.403,2.805-4.132,2.805h-16.037     C115.355,129.852,114.39,128.593,114.942,127.047 M118.053,83.08c-5.142,0-10.639,3.743-12.305,8.338l-19.36,53.445     c-1.665,4.637,1.119,8.336,6.265,8.336h47.951c5.094,0,10.6-3.699,12.263-8.336l19.348-53.445     c1.708-4.595-1.145-8.338-6.22-8.338H118.053z"/>
		</defs>
		<clipPath id="SVGID_14_">
			<use xlink:href="#SVGID_13_" overflow="visible"/>
		</clipPath>
	</g>
	<g>
		<defs>
			<path id="SVGID_15_" d="M114.942,127.047l6.466-17.894c0.614-1.55,2.405-2.788,4.131-2.788h16.053     c1.725,0,2.683,1.237,2.105,2.788l-6.484,17.894c-0.547,1.546-2.403,2.805-4.132,2.805h-16.037     C115.355,129.852,114.39,128.593,114.942,127.047 M118.053,83.08c-5.142,0-10.639,3.743-12.305,8.338l-19.36,53.445     c-1.665,4.637,1.119,8.336,6.265,8.336h47.951c5.094,0,10.6-3.699,12.263-8.336l19.348-53.445     c1.708-4.595-1.145-8.338-6.22-8.338H118.053z"/>
		</defs>
		<use xlink:href="#SVGID_15_" overflow="visible" fill="#000"/>
		<clipPath id="SVGID_16_">
			<use xlink:href="#SVGID_15_" overflow="visible"/>
		</clipPath>
		<rect x="84.723" y="83.08" clip-path="url(#SVGID_16_)" fill="#000" width="89.199" height="70.119"/>
	</g>
	<g>
		<defs>
			<path id="SVGID_17_" d="M114.942,127.047l6.466-17.894c0.614-1.55,2.405-2.788,4.131-2.788h16.053     c1.725,0,2.683,1.237,2.105,2.788l-6.484,17.894c-0.547,1.546-2.403,2.805-4.132,2.805h-16.037     C115.355,129.852,114.39,128.593,114.942,127.047 M118.053,83.08c-5.142,0-10.639,3.743-12.305,8.338l-19.36,53.445     c-1.665,4.637,1.119,8.336,6.265,8.336h47.951c5.094,0,10.6-3.699,12.263-8.336l19.348-53.445     c1.708-4.595-1.145-8.338-6.22-8.338H118.053z"/>
		</defs>
		<clipPath id="SVGID_18_">
			<use xlink:href="#SVGID_17_" overflow="visible"/>
		</clipPath>
	</g>
</g>
<g>
	<g>
		<defs>
			<path id="SVGID_19_" d="M290.423,106.366h16.954c1.745,0,2.682,1.237,2.154,2.788l-6.528,17.894     c-0.551,1.546-2.376,2.805-4.128,2.805h-17.038L290.423,106.366z M272.006,83.08l-40.792,112.137l29.322-0.042l15.48-41.976     h32.823c5.085,0,10.6-3.699,12.238-8.336l19.37-53.445c1.665-4.595-1.111-8.338-6.246-8.338H272.006z"/>
		</defs>
		<clipPath id="SVGID_20_">
			<use xlink:href="#SVGID_19_" overflow="visible"/>
		</clipPath>
	</g>
	<g>
		<defs>
			<path id="SVGID_21_" d="M290.423,106.366h16.954c1.745,0,2.682,1.237,2.154,2.788l-6.528,17.894     c-0.551,1.546-2.376,2.805-4.128,2.805h-17.038L290.423,106.366z M272.006,83.08l-40.792,112.137l29.322-0.042l15.48-41.976     h32.823c5.085,0,10.6-3.699,12.238-8.336l19.37-53.445c1.665-4.595-1.111-8.338-6.246-8.338H272.006z"/>
		</defs>
		<use xlink:href="#SVGID_21_" overflow="visible" fill="#000"/>
		<clipPath id="SVGID_22_">
			<use xlink:href="#SVGID_21_" overflow="visible"/>
		</clipPath>
		<rect x="231.214" y="83.08" clip-path="url(#SVGID_22_)" fill="#000" width="110.899" height="112.137"/>
	</g>
	<g>
		<defs>
			<path id="SVGID_23_" d="M290.423,106.366h16.954c1.745,0,2.682,1.237,2.154,2.788l-6.528,17.894     c-0.551,1.546-2.376,2.805-4.128,2.805h-17.038L290.423,106.366z M272.006,83.08l-40.792,112.137l29.322-0.042l15.48-41.976     h32.823c5.085,0,10.6-3.699,12.238-8.336l19.37-53.445c1.665-4.595-1.111-8.338-6.246-8.338H272.006z"/>
		</defs>
		<clipPath id="SVGID_24_">
			<use xlink:href="#SVGID_23_" overflow="visible"/>
		</clipPath>
	</g>
</g>
<g>
	<g>
		<defs>
			<path id="SVGID_25_" d="M207.787,106.366h16.974c1.712,0,2.691,1.237,2.118,2.788l-6.532,17.894     c-0.503,1.546-2.394,2.805-4.081,2.805h-17.059L207.787,106.366z M189.375,83.08l-40.795,112.137l29.363-0.042l15.423-41.976     h32.8c5.108,0,10.637-3.699,12.288-8.336l19.377-53.445c1.651-4.595-1.138-8.338-6.3-8.338H189.375z"/>
		</defs>
		<clipPath id="SVGID_26_">
			<use xlink:href="#SVGID_25_" overflow="visible"/>
		</clipPath>
	</g>
	<g>
		<defs>
			<path id="SVGID_27_" d="M207.787,106.366h16.974c1.712,0,2.691,1.237,2.118,2.788l-6.532,17.894     c-0.503,1.546-2.394,2.805-4.081,2.805h-17.059L207.787,106.366z M189.375,83.08l-40.795,112.137l29.363-0.042l15.423-41.976     h32.8c5.108,0,10.637-3.699,12.288-8.336l19.377-53.445c1.651-4.595-1.138-8.338-6.3-8.338H189.375z"/>
		</defs>
		<use xlink:href="#SVGID_27_" overflow="visible" fill="#000"/>
		<clipPath id="SVGID_28_">
			<use xlink:href="#SVGID_27_" overflow="visible"/>
		</clipPath>
		<rect x="148.581" y="83.08" clip-path="url(#SVGID_28_)" fill="#000" width="110.902" height="112.137"/>
	</g>
	<g>
		<defs>
			<path id="SVGID_29_" d="M207.787,106.366h16.974c1.712,0,2.691,1.237,2.118,2.788l-6.532,17.894     c-0.503,1.546-2.394,2.805-4.081,2.805h-17.059L207.787,106.366z M189.375,83.08l-40.795,112.137l29.363-0.042l15.423-41.976     h32.8c5.108,0,10.637-3.699,12.288-8.336l19.377-53.445c1.651-4.595-1.138-8.338-6.3-8.338H189.375z"/>
		</defs>
		<clipPath id="SVGID_30_">
			<use xlink:href="#SVGID_29_" overflow="visible"/>
		</clipPath>
	</g>
</g>
</svg>
